<svg xmlns="http://www.w3.org/2000/svg" fill="none" viewBox="0 0 281 224"><path fill="#0D200F" d="m268.03 117.26-88.06-51.73c-8.44-4.86-22.11-4.86-30.5 0L10.21 146.19c-3.73 2.16-5.78 4.91-6.19 7.73-.06-.39-.1-.77-.1-1.16v5.51c0 3.3 2.12 6.63 6.38 9.14l87.93 52.14 1.08.59c.19.1.38.19.57.29.38.18.76.35 1.14.51.06.02.1.05.16.07 0 .01.03.01.06.01.01 0 .03.02.05.02l.06.02c.09.03.19.07.29.1.29.11.58.21.87.32.26.09.54.19.81.27.22.06.45.13.66.2.36.11.72.2 1.09.29h.07c.31.08.63.15.94.22.06 0 .11.03.16.03.38.08.77.15 1.14.22.33.05.65.11 1 .15.33.06.69.09 1.03.14.34.05.69.08 1.03.11h.02c.16.02.33.05.49.05.19.02.38.03.57.03.32.03.64.05.96.05h.89c.47 0 .95 0 1.42-.02h.19c.27-.01.54-.02.8-.05.24 0 .49-.02.73-.05h.17c.17 0 .35-.02.51-.05h.1c.07 0 .14-.02.21-.02a24.52 24.52 0 0 0 2.44-.35c.24-.05.47-.09.71-.14.33-.07.65-.15.97-.22.25-.06.5-.13.75-.2.29-.07.56-.15.85-.24.23-.07.45-.14.66-.21.05 0 .09-.03.14-.05.04-.02.08-.03.13-.05.26-.08.53-.18.78-.28.64-.24 1.26-.48 1.85-.78.22-.09.43-.2.64-.31.13-.06.24-.12.35-.18.34-.19.68-.36 1-.56 0 0 141.52-79.95 149.65-88.9 4.03-4.44 1.41-5.92-10.4-13.38v.05l.01.01Z"/><path fill="#104F68" d="M248.88 120.76v5.37c-.01-1.98-1.33-3.94-3.92-5.43l-75.14-43.26a4.47 4.47 0 0 0-.69-.35c-.2-.1-.4-.19-.62-.27-.03-.01-.07-.02-.1-.05-.18-.07-.37-.14-.55-.19-.13-.05-.25-.07-.37-.11 0 0-.05 0-.06-.01-.25-.07-.52-.14-.77-.19-.06-.01-.11-.03-.17-.05-.11-.02-.24-.05-.35-.07-.1-.02-.2-.05-.3-.05h-.1c-.05 0-.1-.01-.15-.02-.14-.01-.25-.03-.39-.05-.02 0-.05-.01-.07 0-.13-.02-.25-.05-.38-.05h-.39s-.08-.01-.13 0c-.14-.01-.28-.02-.41-.02h-1.25c-.22 0-.45.02-.66.05-.07 0-.13 0-.2.02-.29.02-.57.07-.85.11-.05 0-.08 0-.13.01-.04 0-.07 0-.1.02-.11.01-.22.05-.33.07-.14.01-.25.05-.38.07-.08.01-.16.05-.24.07-.2.05-.39.1-.59.16-.02 0-.06.01-.08.02-.19.07-.39.14-.58.21-.24.09-.46.19-.68.29-.02 0-.05.01-.07.03-.22.1-.45.22-.65.34L26.62 152.99l-.1.07c-.1.07-.22.14-.31.19-.09.06-.18.13-.28.2-.2.15-.39.3-.55.46-.13.1-.24.22-.34.34-.08.08-.15.16-.22.25-.07.1-.14.18-.19.27-.07.09-.11.18-.17.27-.09.16-.17.34-.24.51-.03.08-.07.16-.08.25-.03.08-.05.17-.07.25-.03.17-.05.34-.06.51v-5.39c0-.16.03-.34.07-.49.01-.1.03-.2.07-.28.01-.09.05-.17.08-.25.07-.17.14-.34.24-.5.1-.19.22-.37.37-.55.16-.21.34-.41.56-.61.16-.15.34-.3.53-.44.08-.07.17-.13.26-.18.07-.06.14-.1.22-.14.05-.03.08-.06.14-.08l.1-.07 130.38-75.52c.21-.13.44-.23.65-.34.01-.01.05-.02.07-.03.22-.1.45-.19.68-.29.01 0 .03-.01.06-.02.1-.03.2-.07.3-.1.04 0 .08-.03.13-.05.03 0 .07-.01.1-.02 0 0 .06-.02.08-.03.2-.07.38-.11.59-.16.07-.02.16-.05.24-.07.13-.03.25-.06.38-.07.07-.01.14-.03.22-.05.03 0 .07-.01.1-.02h.1c.05 0 .08-.01.13-.02.29-.05.56-.09.85-.11h.19c.1-.01.22-.02.34-.03.1-.01.22-.01.33-.02h.33c.31-.01.61-.02.93 0 .14 0 .27 0 .41.01h.13c.11 0 .24 0 .36.02.15 0 .3.02.44.05.15.01.3.03.44.06.31.05.61.09.91.16.06 0 .11 0 .17.03.14.02.26.06.39.09s.25.07.37.1c.07.02.14.05.21.06.26.08.52.17.77.26.05 0 .08.03.13.05.46.18.89.39 1.3.62l75.15 43.26c2.6 1.5 3.91 3.48 3.91 5.46v-.06l-.04-.02v-.02Z"/><path fill="#708470" d="M272.9 120.5v5.55s-.17.43-.28.63c-.07.18-.16.35-.25.52a.3.3 0 0 1-.06.11c-.13.22-.25.46-.4.68-.1.17-.22.32-.33.47-.05.06-.08.12-.14.18-.1.14-.2.26-.31.38-.06.07-.13.15-.2.22-.15.17-.31.34-.47.51-.07.08-.16.17-.25.25-.04.05-.07.07-.12.11-.07.07-.14.14-.2.19-.14.13-.28.25-.41.37-.15.14-.31.26-.48.39-.1.08-.22.17-.33.26-.2.15-.41.31-.64.45-.22.15-.45.3-.68.45-.09.06-.18.11-.26.17l-140.05 83.63c-.32.2-.66.38-1 .57-.12.06-.23.12-.36.18-.21.11-.43.21-.64.31-.6.3-1.22.54-1.86.78-.25.11-.52.2-.78.28-.05 0-.08.02-.13.05-.05 0-.09.04-.14.05-.22.07-.44.14-.67.21-.29.08-.56.17-.85.24-.25.07-.51.14-.76.2-.32.07-.64.15-.98.22-.24.05-.47.09-.71.14-.05 0-.1.02-.16.04-.76.14-1.51.25-2.29.32-.07 0-.14.02-.21.02h-.1c-.16.02-.34.05-.52.05h-.17c-.24.02-.49.05-.74.05-.26.02-.53.04-.8.05h-.2c-.47 0-.95.02-1.43.02h-.89c-.32 0-.64 0-.96-.05-.2 0-.38 0-.57-.04-.16 0-.33-.02-.49-.05h-.02c-.34-.02-.69-.06-1.03-.11-.35-.05-.7-.08-1.03-.14-.34-.05-.67-.11-1-.15-.38-.07-.77-.14-1.15-.22-.05 0-.1-.02-.16-.04-.31-.07-.63-.14-.94-.22h-.07c-.37-.09-.74-.19-1.09-.3-.22-.07-.45-.14-.67-.2-.28-.08-.55-.18-.82-.27-.29-.11-.59-.21-.87-.32-.09-.04-.2-.07-.29-.11 0 0-.05-.01-.06-.02-.01 0-.03 0-.05-.02h-.06c-.06-.02-.1-.05-.16-.07-.39-.15-.77-.33-1.15-.51-.29-.14-.56-.28-.84-.43-.28-.15-.55-.31-.82-.46L8.06 163.63c-4.29-2.53-6.42-5.87-6.41-9.18v-5.54c0 3.33 2.16 6.65 6.42 9.17l88.29 52.38c.26.15.54.31.82.46.28.14.55.3.84.43.48.22.97.45 1.48.66.44.17.88.34 1.33.5.44.15.87.3 1.31.41.16.05.31.09.48.14.2.06.4.11.61.17.02 0 .05.01.07.01.31.07.62.15.94.22.05 0 .1.02.16.04.38.08.77.17 1.15.22.33.05.67.11 1 .17.34.05.69.09 1.03.13.34.05.68.07 1.03.11h.05c.17 0 .34.02.52.04.18.01.37.02.54.04.36 0 .71.04 1.07.05.75.02 1.48.01 2.22 0h.18c.28 0 .55 0 .83-.05.22 0 .44-.02.64-.05.1 0 .2 0 .29-.01.14 0 .28-.02.41-.04h.05c.1 0 .2 0 .29-.04.4-.05.79-.09 1.18-.14.44-.07.87-.14 1.3-.22.34-.06.7-.14 1.05-.21.24-.05.49-.11.74-.17.22-.05.44-.11.64-.17.2-.05.38-.11.57-.17.07-.01.14-.04.2-.05.26-.07.53-.17.79-.25.05 0 .08-.02.13-.05.05 0 .08-.02.13-.05.26-.08.52-.18.78-.28.64-.22 1.26-.5 1.86-.78.22-.09.44-.2.64-.31.13-.06.24-.12.36-.18.34-.18.67-.37 1-.57l140.05-83.63c.08-.05.17-.11.25-.17.26-.15.52-.32.76-.5.25-.17.49-.34.71-.52.23-.17.46-.35.67-.53.17-.14.33-.3.49-.44.05-.04.08-.07.13-.11.13-.12.25-.25.37-.37.16-.17.31-.33.46-.5.2-.21.37-.41.52-.63.33-.44.62-.87.87-1.33.12-.21.22-.41.31-.63.08-.17.15-.33.21-.51.02-.05.05-.08.06-.13l-.02-.02v.05h-.01Z"/><path fill="#FCFCFB" d="M266.23 111.62c8.49 4.88 8.53 12.81.1 17.7l-139.84 81.03c-8.43 4.88-22.15 4.88-30.63 0L7.71 159.6c-8.49-4.88-8.53-12.81-.1-17.69l139.84-81.03c8.43-4.88 22.15-4.88 30.63 0l88.15 50.74Zm-148.97 87.95 127.42-73.84c5.16-2.99 5.13-7.83-.06-10.82l-75.15-43.26c-3.54-2.04-9.28-2.04-12.8 0L26.3 147.2c-3.52 2.04-3.5 5.35.05 7.39l78.13 44.98c3.54 2.05 9.28 2.04 12.8 0h-.02Z"/><path fill="#56CAF8" d="m246.16 120.44-75.68-43.56c-.22-.14-.45-.25-.69-.37-.21-.1-.41-.19-.63-.27-.03 0-.07-.02-.1-.05-.18-.07-.37-.14-.56-.19-.13-.05-.25-.07-.37-.11h-.06a9.86 9.86 0 0 0-.78-.19c-.05 0-.07-.01-.11-.02-.14-.03-.29-.06-.41-.09-.1-.02-.19-.05-.3-.05h-.1c-.18-.02-.37-.05-.55-.07-.02 0-.05-.01-.07 0-.13-.02-.25-.05-.38-.05-.06 0-.13 0-.18-.01h-.35c-.25 0-.49 0-.74-.02h-.5.22c-.22 0-.44 0-.65.01-.29 0-.59.05-.87.07-.28.02-.57.07-.85.11-.07.01-.15.02-.22.05-.11.02-.22.05-.33.08-.14.01-.25.05-.38.08-.08 0-.16.05-.25.07-.2.05-.39.1-.59.16-.02 0-.06.01-.08.02-.19.07-.39.14-.58.21-.24.09-.46.19-.68.29-.02 0-.05 0-.07.03-.22.1-.46.22-.67.34L26.28 152.96l-.11.07c-.1.07-.22.14-.31.19l-.1.07c-.26.24-.46.53-.58.84.34.3.73.58 1.18.83l78.68 45.31c3.46 1.99 8.97 2.06 12.53.19l3.45-3.34 20.92-12.14.08-5.46.98-.57 5.38 3.1 13-7.06 6.13-7.53 25.86-14.18 1.21-3.73 13.28-5.63 5.32-4.84c.24-.14 4.79-2.62 6.72-3.56 1.91-.96 14.52-7.8 15.18-8.17l11.22-4.75 1.24 1.5c.32-.32.61-.42.85-.77.02-.03.24-1.14.26-1.17-.64-1.02-1.03-.95-2.46-1.76h-.02v.04h-.01Z"/><path fill="#56CAF8" d="m137.15 160.81-3.76-1.41-.14-2.39 2.01-.61.87 1.41c.22.07 4.28 1.32 4.75 1.28h.03c.16.09-3.56 1.62-3.76 1.7v.02Zm-11.73 3.42-.76-1.29 2.09-.5.95-1.26 3.61-.17.61.8-3.38 1.21-1.16.98-1.96.23Zm2.87 1.86 3.57-2.06 2.46 2.01-5.91 2.41-1.4.71.62.75-5.83 1.75-1.57-.9-4.86 4.13-1.14-.65.95-2.57-1.14-.85 1.73-1.72 3.39-.45.26.65 1.39.4.83-1.38-4.23-.78 3.75-.35 4 .61 1.04-.61-2.44-.9 1.31-.76 3.21.55h.01v.01Z"/><path fill="#0D749C" d="M248.15 123.97s-1.2.97-1.23 1.01c-.55.55-1.36.86-2.17 1.33L117.9 200.28c-.12.07-.23.14-.36.19l3.45-3.34 20.92-12.14.08-5.46.98-.56 5.38 3.09 13-7.06 6.12-7.53 25.86-14.18 1.2-3.73 13.28-5.63 5.32-4.84c.24-.14 4.79-2.62 6.72-3.56 1.92-.96 14.52-7.8 15.18-8.17l11.22-4.75 1.9.95-.02.4h.02v.01ZM178.3 82.58l-2.63-1.51-6.07 2.71-11.39 4.59-3.2 3.17-6.17 2.26-3.04 1.76-2.54-.25-8.41 6.29-1.2 1.8-4.1 1.67-.34 2.1-6.68 4.68-3.81 4.34-3.38.75 2.17-1.26-.45-1.17-6.5 3.27-3.45 5.64v2.12l2.36.15.5-1.61 3.49-1.01-1.15-1.26-.61-2.36 2.43 1.81 3.39-1.76-1.55 3.12v1.3l-6.16 3.97-.93 2.96 2.96.7-2.94 2.52 2.1 1.51 2-.76 1.06.71.28 3.88.64 2.56 4.28 2.47 9.37-.11 3.58-3.35 2.88-.96 2.88 1.66 3.13.1 4.82 1.25.86 2.23 1.92.8 1.74.1 2.98 1.18 2.08-.08 2.43.9 1.48-.86 2.51-2.87-1.5-2.36-.26-1.36-2.01-.75.34-2.92-2.28-1.32-3.24-.85-.73-5.54-2.18-2.28-2.43 2.32-7.32-.71-4.89-1.51.95-.55 7.77 1.17 3.05.95 2.66-4.87-.79-1.67-3.13.31-1.03 1.11-4.54-.4.08-.86 3.57-.16 3.4-.95 4-1.91 4.69.1 6.91 2.15.44-.85-2.46-2.61.16-2.53 3.21-.95 1.84 1.05 1.83-.86 3.83 1.7-1.24-2.21 3.4.65.08-1.77-2.88-1.05-2.1-.1.34-1.51 2.94-2.31-1.77-3.92-3.24-.46-1.65-1.45 1.23-.71 4.19 1.21.07-1.46-2.96-.5.33-2.01 1.39-1.2-1.6-3.32 3.06 1.77.61-.86-3.5-2.01-4.49 1.68 1.53-3 4.68-2.71.07-1.66 2.26.31-.66 2.61 2.79.81 1.39-.9-2.19-3.67 4.32-4.22h.03v.03h.01Zm-51.56 39.86.96-1.26 3.62-.18.61.81-3.38 1.2-1.17.98-1.95.23-.76-1.29 2.08-.5h-.01v.01Zm1.66 6.01-1.39.71.61.75-5.82 1.76-1.58-.9-4.85 4.13-1.15-.65.95-2.57-1.14-.85 1.73-1.72 3.39-.45.26.65 1.39.4.82-1.38-4.22-.79 3.74-.34 4 .61 1.06-.61-2.46-.9 1.32-.76 3.21.55 3.56-2.06 2.45 2.01-5.91 2.41h.03Zm8.75-7.65-3.76-1.41-.14-2.39 2.01-.61.87 1.41c.22.07 4.28 1.3 4.75 1.28h.05c.16.09-3.56 1.62-3.76 1.7v.02h-.02Zm-31.98 10.63-1.7.39-.58-.77.15-.49 1.68-.43.46 1.3h-.01Zm97.85-22.08-4.78 1.05-1.64.96h-5.57l-1.1-1.18 2.83.57.61-.74 7.4-1.17 2.26.5-.01.01Zm-17.98 6.59-3.83.81-2.01-1.16.95-3.37 2.26.1 2.63 3.61v.01Z"/><path fill="#0D749C" d="m182.09 118.66-.95.56-8.89-1.01 1.39-.81 6.62.21 1.83 1.05Zm32.22-1.4-2.43 2-4.29.15-4.5 1.21-3.2 3.68-2.52-.26-4.37-2.52 1.28-2.56-.53-1.3.6-1.97 1.92-1.1 1.03-1.3 2.44.89 1.95-.57-3.01-2.55 4.75.84 4.58.94 3.66.3 1.4 1.81 1.24 2.32v-.01Zm-105.68 11.51-.84 1.51-1.58.31-.78-1.16-2.75-.26.78-1.05 5.17.65Zm-23.9 7.45.1 2.26-5.4-.31-5.41-1.91-4.69 2.71-3.13.31 2.06-3.73 4.44-2.76 4.06-3.18 5.92-2.31 5.97-3.45-1.09 3.07.18 2.4 2.15 1.24-5.15 5.66h-.01Zm-17.94.4-2.09 1.81-1.4 3.2-5.63 3.28-5.3 1.15 7.64-6.32 6.78-3.12Zm65.41 38.64-3.48 1.21-3.13-.4-6.82-4.93-5.99-5-4.08.25-6.17-.89-3.32-2.17-.73-2.14-2.49-.5-.38.46-2.82.41-2.97-.21-2.21.69-2.12.21-.29.43-5.32.85-1.4-.62-6.18-.93-4.16.32-3.32-.5-4.11-2.37-2.82-.65-7.67-.31-2.87 1.51-.11 3.5-1.56.24.21-1.93-3.72.88-.33-1.2-1.4-.15.26-.86h-2.36l1.48-2.16 5.77-2.24 2.91-2.29 6.77-2.96 3.09-1.34 3.95-2.79 1.04-1.51 2.03-.72.71 1.05-1.58 4.64 2.35.1 4.21-1.43 1.57.45 1.96-.51-.44-.56.21-1.09-2.13-.37-1.89-1.49 4.13-1.29 2.1.21.11-1.5 7.5-.24.65 1.13-3.34 1.94-1 1.53 1.82-1.06 3.27.02-3.12 2.68 1.26.38-1.08 1.22 1.41 1.96-.17 2.56 3.36 1.4-.36.41-3.6-.79-2.68.79-1.71 2.17 1.64 1.86 3.21.92 1.89-1.26 2.2.46 2.63-1.12 2.05 1.25 2.17-.27.28-.38 1.07-.63.37-1.22 5.66-2.26 3.67.1 2.53-1.25 4.43.55 7.23-1.76 1.47.24 1.14 2.87 3.59 3.07-1.98 2.56 2 1.16.73 3.82-.85 5.15 1.84.15.61 1.85 3.04-.16.71.81h-.03v-.01Z"/><path fill="#0D200F" d="M168.6 124.67v.58l-3.95 1.42-20.14-3.04-13.08 16.03c-2.1 2.58-4.67 4.75-7.55 6.39 0 0-2.56 1.48-6.48 3.72l7.85 9.56 31.78 16.18 2.96 1.5.06.04v.43l-.09.04v.37l-4.48 2.39.11-.32-31.31-9.9v.92c-.02.06-.02.11-.02.17 0 .06-.02.11-.02.17v.04l-.02.11-.04.17c-.02.08-.04.13-.06.19 0 .02-.04.09-.04.09v.04s-.04.05-.04.07c-.04.09-.09.17-.13.24 0 .03-.05.05-.07.09-.04.06-.07.11-.11.15-.05.1-.15.15-.22.23-.02.01-.04.05-.08.07-.03.02-.05.06-.09.06 0 .02-.04.04-.04.04l-12.1 6.88c.08-.06.14-.11.21-.17-.71.54-1.77.55-2.96-.15-2.08-1.21-3.75-4.07-3.73-6.37 0-1.14.43-1.93 1.1-2.28-.01.01-.02.01-.03.01l.38-.21 7.1-4.04-16.19-5.12.26.09-2 1.03-.04-.13c-7.57 4.31-14.19 8.07-16.19 9.13-5.41 2.92-14.35 1.18-14.35 1.18s-.99-.58-.92-1.55c.09-1.07.22-2.19.39-3.31v-.06c.04-.28.1-.61.17-.95.73-3.94 2.28-7.9 5.9-10.29 1.24-.81 5.75-3.57 12.01-7.31l-6-6.3-.04.02-12.1 6.88c.08-.06.14-.11.21-.17-.71.54-1.77.55-2.96-.15-2.08-1.21-3.75-4.07-3.73-6.37 0-1.14.44-1.92 1.11-2.28-.01.01-.02.01-.03.01l.38-.21 7.9-4.48-5.7-3.89-.66-.65-1.65-6.8-7.01-7.38v-.56l-.04-.06.92-.52 4.14-1.59 9.46 6.13.52.34 1.46 5.7 1.07.67 17.84 6.82 13.45 3.83c11-6.46 22.82-13.3 31.74-18.25l.77-.82-8.04-15.21v-.58l2.53-2.26 11.51 9.27 8.58-14.63.51.3 5.83-3.4-.04.09h.04l-7.2 20.76c.04.23.11.43.28.6.67.66.94 1.67 1.01 2.6l.03-.04-.02-.02 20.22 7.98Z" opacity=".3"/><path fill="#0D749C" d="m176.07 99.74-.79 2.55-2.42-.18 1.74-2.51-1.58-1.61 1.27-.72 1.78 2.47Z"/><path stroke="#B8CCC0" stroke-linecap="round" stroke-miterlimit="10" d="m266.56 129.08-139.71 81.66c-8.43 4.88-22.15 4.88-30.63 0"/><path stroke="#0D200F" stroke-linecap="round" stroke-miterlimit="10" stroke-width=".5" d="M265.93 111.99h-.01l-88.15-50.74c-8.48-4.88-22.2-4.88-30.63 0L7.31 142.28c-3.74 2.17-5.81 4.93-6.21 7.77-.06-.39-.1-.78-.1-1.16v5.54c0 3.32 2.13 6.66 6.41 9.18l88.29 52.38c.26.15.54.31.82.46.28.14.55.28.84.43.38.18.76.35 1.15.51.06.02.1.05.16.07h.06c.01 0 .03.02.05.02.01 0 .06.02.06.02.09.04.2.07.29.11.29.11.59.21.87.32.26.09.54.19.82.27.22.06.45.13.67.2.36.11.72.2 1.09.3h.07c.31.08.63.15.94.23.06.01.12.04.16.04.38.08.77.15 1.15.22.33.05.66.11 1 .15.33.06.69.09 1.03.14.34.05.69.08 1.03.11h.02c.16.02.33.05.49.05.2.02.38.04.57.04.32.04.64.05.96.05h.89c.47 0 .95 0 1.43-.02h.2c.28-.01.54-.02.8-.05.24 0 .49-.02.74-.05h.17c.17 0 .36-.02.52-.05h.1c.07 0 .14-.02.21-.02.78-.07 1.53-.18 2.29-.32a.75.75 0 0 0 .16-.04c.24-.05.47-.09.71-.14.33-.07.66-.15.98-.22.25-.06.5-.13.76-.2.29-.07.56-.15.85-.24.23-.07.45-.14.67-.21.05 0 .09-.04.14-.05.05-.02.08-.04.13-.05.26-.08.53-.18.78-.28.64-.24 1.26-.48 1.86-.78.22-.09.44-.2.64-.31.13-.06.24-.12.36-.18.34-.19.68-.37 1-.57l140.05-83.63c.08-.06.17-.11.26-.17.23-.15.46-.3.68-.45.23-.14.45-.3.64-.45.12-.09.23-.18.33-.26.17-.13.33-.25.48-.39.14-.12.28-.24.41-.37.06-.05.13-.12.2-.19.05-.04.08-.06.12-.11.09-.08.18-.17.25-.25.16-.17.32-.34.47-.51.07-.07.14-.15.2-.22.12-.12.21-.24.31-.38.06-.06.09-.12.14-.18.11-.15.23-.31.33-.47.15-.22 1.05-1.54 1.12-1.72.1-.2.35-4.37.35-4.37.48-3.54-2.1-7.17-6.8-9.87v.03Z"/><path fill="#0D200F" d="m169.95 189.47-1.61-3.23-10.42-7.48 17.51-11.94 5.68 16.34-11.16 6.31Z"/><path fill="#B8CCC0" d="M200.18 122.36c-.09 0-.17.02-.26.04h-.05s-.05.01-.07.02c-.1.02-.21.06-.31.09s-.22.08-.32.14c-.1.05-.22.1-.32.16l-36.91 21.39c-.16.09-.31.19-.46.31-.08.06-.16.13-.23.19-.14.13-.29.26-.4.41-.09.1-.18.22-.25.34-.3.41-.54.88-.71 1.38-.05.14-.09.29-.14.44-.03.11-.06.24-.08.37-.07.3-.1.61-.13.93v.93c0 .16.02.32.04.49 0 .04 0 .08.02.11.01.15.05.3.08.46 0 .04.02.1.03.15.05.15.08.31.14.46.06.18.13.37.2.55l16.93 39.7c.96 2.3 2.95 3.58 4.84 3.31l-2.99.43c-1.89.27-3.89-1-4.84-3.31l-16.93-39.69c-.07-.18-.14-.37-.2-.55-.06-.17-.1-.35-.15-.54v-.06c-.03-.14-.06-.27-.07-.4l-.03-.22c-.02-.14-.04-.27-.05-.4v-.05c0-.16-.01-.31-.01-.47 0-.15 0-.3.01-.43 0-.32.06-.63.13-.94.02-.13.05-.25.08-.37.05-.15.08-.3.14-.43.16-.46.37-.88.62-1.26.04-.07.09-.14.15-.21.18-.25.38-.47.61-.66a3.7 3.7 0 0 1 .69-.51l36.92-21.39c.1-.07.22-.11.32-.16.24-.1.49-.19.73-.25h.05s.06-.02.08-.02c.05 0 .09-.01.14-.02l2.99-.43v-.04h-.02l-.01.01Z"/><path fill="#E4F5D8" d="M221.94 165.35c1.18 2.86.34 6.21-1.88 7.5l-36.91 21.39c-2.23 1.29-4.99 0-6.17-2.84l-16.93-39.69c-1.18-2.86-.34-6.21 1.88-7.5l36.91-21.39c2.23-1.29 4.99-.01 6.17 2.84l16.93 39.69Z"/><path stroke="#0D200F" stroke-miterlimit="10" stroke-width=".5" d="m220.07 172.85-36.91 21.39c-.59.34-1.22.5-1.84.5.17 0 .34 0 .52-.03l-2.99.43c-1.89.27-3.89-.99-4.84-3.31l-16.93-39.69c-.08-.18-.14-.37-.2-.55-.06-.17-.1-.35-.15-.54v-.06c-.03-.14-.06-.27-.08-.4 0-.07-.02-.15-.03-.22-.02-.14-.04-.27-.05-.4v-.94c0-.32.06-.63.13-.94.02-.13.05-.25.08-.37.05-.15.08-.3.14-.44.16-.46.37-.88.62-1.26.04-.07.09-.14.15-.21.18-.25.38-.47.61-.66.08-.07.15-.14.23-.19.14-.11.3-.22.46-.31l36.92-21.39c.1-.07.22-.11.32-.16.24-.1.49-.19.73-.25h.05s.06-.02.08-.02c.05 0 .09-.01.14-.02l2.99-.43c1.89-.29 3.89 1 4.84 3.31l16.93 39.69c1.18 2.86.34 6.21-1.88 7.5v-.03h-.04Z"/><path fill="#FAF6E3" d="M220.94 165.03c1.15 2.76.33 6-1.81 7.25l-35.7 21.15c-2.15 1.25-4.82 0-5.96-2.75l-16.43-38.72c-1.15-2.76-.33-6.01 1.81-7.25l35.66-20.67c2.14-1.25 4.82-.01 5.96 2.75l16.46 38.24h.01Z"/><path fill="#ED6912" d="M212.9 161.48c.32-.18.72 0 .89.4l.09.22c.17.4.06.88-.26 1.06l-11.46 6.6 2.34-1.36.15-.13.52-.64c.16-.19.17-.48.07-.7-.1-.23-.3-.39-.52-.36l-.77.08-.18.06 9.11-5.25h.02v.02Z"/><path fill="#0D749C" d="m180.63 180.05 14.91-8.59.53.74.19.95-14.91 8.59c-.32.18-.72 0-.9-.4l-.09-.22c-.17-.41-.06-.89.26-1.07h.01Z"/><path fill="#0D200F" d="M200.89 164.28c.44-.25.97 0 1.2.55l.38.87-.84.49-.3-.24-1.38-1.13.94-.54Zm3.47 5.78.38.87c.24.55.08 1.19-.36 1.44l-.94.55.06-1.57v-.81l.86-.49v.01Z"/><path fill="#0D200F" d="M196.38 164.15c.27-.16.62-.13.88.1l1.81 1.46 1.69 1.36.85.69 2.61-1.51.2-.07.85-.09c.25-.04.47.14.59.39.11.25.1.56-.08.78l-.59.72-.17.15-2.62 1.51-.04 1.59-.07 2.38-.07 2.16c-.01.37-.18.71-.46.87l-1.51.87-.77-4.62-.54-1.25-1.85 1.04.05 1.24c0 .41-.17.79-.46.96l-.49.29-.36-1.73-.22-1.05-.59-.84-.97-1.38.49-.29c.3-.17.65-.13.94.15l.83.78 1.85-1.06-.54-1.25-2.73-3.49 1.51-.87h-.02v.01Z"/><path fill="#56CAF8" d="M184.01 146.74h-.75l-.06-.71.16-.37.75-.06-.09 1.13h-.01v.01Zm.51-1.57-1.01-.69.52-.72 1.87 1.44-.64 1.07-.68-.03-.06-1.08v.01Zm-8.49.73-.04.05-3.1 1.79-.03-.02-2.42 1.4s-.29.16-1.12.65c-.67.39-.51 1.06-.41 1.3l.03.09.14.31-.02.05 2.58 6.2.03-.04 3.79 9.1-.03.04 1.22 2.92c.28.66 1.08.93 1.7.57l4.96-2.85v-.04h.04l24.72-14.22c.4-.24.58-.74.4-1.18l-2.54-6.09-5.41-12.99a.866.866 0 0 0-1.23-.41m3.55 16 .03-1.08-.02 1.08h-.01Z"/><path fill="#1D94C2" d="m192.91 136.21 6.39-3.68a.866.866 0 0 1 1.23.41l5.41 12.99-1.56-.79-1.94.85-1.52.17-1.41-.51-.21.69 1.68 1.12.62-.71 1.27.31-.04 1.49-2.04 3.47-.98-1.3-2.76-2.31-.48.27 1.58 2.08 2.68 1.86 1.41-1.45.38 2.23-.61 3.29-7.31 4.21-.15-.07-.78-1.87-1.31.27-2.08 2.08-3.65-1.57-1.15-2.76.29-2.18.69-3.18-.25-.77-.93.26-.51-1.59 1.66-1.52-1-1.1.97-2.22 3.2-2.13.26-1.05 1.24-2.25-1.66.82-.5-1.68 2.78-1.6h.55l.51-.61.03.03Zm3.47 11.31-.53-2.06-1.8 1.04-1.14-1.01-.67.38.76 1.15-.54.31-1.42-1.2-1.53-.38 1.47 1.37-.6.97-.46-.57.03-.57-1.41-.23-1.02 1.08.26.89-.91 1.9.31.73 2.72-2.47.43 1.02 2.61-.4-.08-.71.69-.33 2.79-.9m3.95-4.38c.07-.03.09-.07.06-.08-.18-.06-1.5-1.78-1.57-1.88l-.05-1.29-.91.14-.44 1.96 1.16 1.81c.07-.02 1.4-.46 1.73-.65m-3.93.53-.07-.76-1.43-.5-.63.85-.91.03.02 1.18.8.16.65-.58 1.56-.39m-12.97 1.98.73-.06-.08 1.14h-.75l-.07-.72.16-.37h.01v.01Z"/><path fill="#1D94C2" d="m187.39 141.64-.53 1.21-.88-.54.44-1.72.65-1.03 1.9-1.1-.21 1.75.18 1.22-1.56.19v.02h.01Zm-3.36 2.12 1.87 1.44-.64 1.06-.68-.02-.06-1.08-1.01-.69.52-.72v.01Zm-8 2.16-.91 1.08-.44 1.84-1.82-1.09 3.17-1.83Zm-6.97 5.59.49-.09.77.54.36-1.18 2.95 1.12v1.03l-1.68.97-.7 1.08.92-.53 1.26.58-1.76 1.61.41.53-.45.54-2.58-6.2h.01Zm6.37 15.31 2.27-.71 1.39.74 1.24-.56 1.61 1.22 1.36-.06-4.96 2.85c-.62.35-1.42.09-1.7-.57l-1.22-2.92.01.01Z"/><path fill="#0D200F" d="m86.63 134.76 3.01 1.06-2.3 1.24-.71-2.3Z" opacity=".4"/><path fill="#C24F02" stroke="#0D200F" stroke-linecap="round" stroke-linejoin="round" stroke-width=".5" d="M54.56 69.85c2.3 1.42 4.25 4.61 4.25 7.27 0 2.66-1.95 3.55-4.25 2.3-2.3-1.42-4.25-4.61-4.25-7.27 0-2.66 1.95-3.72 4.25-2.3Z"/><path fill="#ED6912" stroke="#0D200F" stroke-linecap="round" stroke-linejoin="round" stroke-width=".5" d="M71.21 68.35v-2.48c-.03-.14.09-.3-.18-.35 0 0 0-.18-.18-.18v-.35l-.18-.18s0-.18-.18-.18c.07-.13-.14-.39-.18-.53l-.18-.18s0-.18-.18-.18l-1.24-1.24-.35-.35s-.18 0-.18-.18c0 0-.18 0-.18-.18-.14-.03-.3.09-.35-.18h-2.31c-.31.09-13.66 7.81-14 7.98.11-.2.64-.19.89-.18.34-.02 1.04-.02 1.42.18 1.36.73 2.61 1.57 3.37 3.01.14.21.32.86.53.89.77 1.68 1.52 4.01.35 5.67 0 0 0 .18-.18.18 0 .18-.18.18-.18.18l-.18.18 13.65-7.8s.63.02.53-.18l.18-.18v-.18s.18-.18.18-.35v-1.42c-.473-.707-.71-1.12-.71-1.24h.02Z"/><path fill="#C24F02" stroke="#0D200F" stroke-linecap="round" stroke-linejoin="round" stroke-width=".5" d="M103.18 101.35c2.3 1.42 4.25 4.61 4.25 7.27 0 2.66-1.95 3.55-4.25 2.3-2.3-1.42-4.25-4.61-4.25-7.27 0-2.66 1.95-3.72 4.25-2.3Z"/><path fill="#ED6912" stroke="#0D200F" stroke-linecap="round" stroke-linejoin="round" stroke-width=".5" d="M119.83 99.85v-2.48c-.03-.14.09-.3-.18-.35 0 0 0-.18-.18-.18v-.35l-.18-.18s0-.18-.18-.18c.07-.13-.14-.39-.18-.53l-.18-.18s0-.18-.18-.18L117.33 94l-.35-.35s-.18 0-.18-.18c0 0-.18 0-.18-.18-.14-.03-.3.09-.35-.18h-2.31c-.31.09-13.66 7.81-14 7.98.11-.2.64-.19.89-.18.34-.02 1.04-.02 1.42.18 1.36.73 2.61 1.57 3.37 3.01.14.21.32.86.53.89.77 1.68 1.52 4.01.35 5.67 0 0 0 .18-.18.18 0 .18-.18.18-.18.18l-.18.18 13.65-7.8s.63.02.53-.18l.18-.18v-.18s.18-.18.18-.35v-1.42c-.473-.707-.71-1.12-.71-1.24h.02Z"/><path fill="#FF893A" stroke="#0D200F" stroke-linecap="round" stroke-linejoin="round" stroke-width=".5" d="m128.64 16.77 11.35 21.63 13.47-7.44v-.71l-21.45-17.37-3.37 3.01v.89-.01Z"/><path fill="#FAF6E3" stroke="#0D200F" stroke-miterlimit="10" stroke-width=".5" d="m35.58 40.52-.89-9.39 6.03 6.56 34.74 23.4 16.49 4.96c18.43-10.81 38.47-22.69 48.75-28.36l1.95-3.01 16.84-29.07L167.47 1l.71.35-9.75 27.83c-.18.53 0 1.06.35 1.6 2.13 2.13 1.24 6.74 1.24 6.74l-23.04 28.36c-2.84 3.55-6.38 6.56-10.28 8.86 0 0-4.08 2.3-10.28 5.85l10.28 12.59 39.35 20.03 11.17 3.37h-16.13L92.14 94.6v-.18c-12.23 6.91-23.75 13.47-26.77 15.24-7.44 4.08-19.68 1.6-19.68 1.6s-1.42-.71-1.24-2.13c.53-6.91 2.13-15.6 8.86-20.03.35-.35 7.27-4.43 17.19-10.28L35.58 40.53v-.01Z"/><path fill="#F4D85E" d="M210.28 89.45c-9.93 0-17.97-8.05-17.97-17.97 0-9.92 8.04-17.97 17.97-17.97s17.97 8.05 17.97 17.97c0 9.92-8.04 17.97-17.97 17.97Z"/><path fill="#DDB545" d="M198.92 57.56c-.07.62-.13 1.25-.16 1.89-.57 12.69 11.21 23.5 23.5 23.5.65 0 1.29-.03 1.92-.09-3.3 4.02-8.3 6.58-13.9 6.58-9.92 0-17.97-8.05-17.97-17.97 0-5.61 2.57-10.62 6.6-13.91h.01Z"/><path stroke="#0D200F" stroke-miterlimit="10" stroke-width=".5" d="M210.28 89.45c-9.93 0-17.97-8.05-17.97-17.97 0-9.92 8.04-17.97 17.97-17.97s17.97 8.05 17.97 17.97c0 9.92-8.04 17.97-17.97 17.97Z"/><path fill="#FAF6E3" d="M204.25 89.63c.15-4 1.57-7.88 3.66-11.27-.11-.13 4.83-6.7 8.85-8.45-.43-.18-2.31-.34-2.41-.78-.08-.37-.29-.7-.55-.98 0 0-.04-.39-.05-.56 2.36-5.44 5.9-10.99 11.05-13.88-.11.06-.21.13-.31.18.13-.08.29-.17.42-.25.02 0 .04-.02.05-.03 1-.56 2.05-1.06 3.13-1.44 1.7-.6 3.52-.96 5.32-.95h-.17c1.53-.02 3.09.18 4.5.65 2.64 1.03 5.27 2.46 7.27 4.58 1.06-.19 2.24-.15 3.38.02h-.06c.53.08 1.15.24 1.67.41h-.02c.06.02.39.14.45.17-.13-.05-.25-.1-.37-.14.15.06.32.14.48.2l-.11-.05c11.41 3.84 10.87 19.06.84 24.21.12-.07.21-.17.32-.25-2.17 1.52-4.64 2.55-6.76 4.17-.01-.06-.02-.1-.03-.16l-22.61 13.06s.02-.02.04-.03c-6.87 4.64-18.87.89-17.95-8.4l-.03-.02v-.01Z"/><path fill="#D0D4BD" d="M245.15 56.47c2.93 1.98 2.38 7.7 1.99 9.32 1.05-1.54 2.15-3.12 3.73-4.1 1.45-.9 3.19-1.21 4.89-1.26-.67-.27-1.08-.94-1.57-1.48-.88-.98-2.11-1.58-3.38-1.91-1.27-.33-3.01-1.2-5.66-.57Zm-32.53 15.91c1.77-.45 2.17-2.66 1.24-3.96 0-.16 0-.32.03-.48.06-.32.14-.62.24-.93.02-.06.04-.11.05-.17.03-.09.05-.18.09-.27.17-.46.28-.94.44-1.4.16-.31.33-.61.49-.93.04-.07.06-.14.09-.21 1.9-2.79 4.05-5.41 6.49-7.74-1.42 1.22-.07 3.68-.86 5.38-.14.31-.36.59-.4.92-.04.29.07.58.19.85.09.2.2.4.32.6 1.11 1.85.91 4.15-.64 5.65l-.08.08c-.12.11-.24.23-.27.39-.06.25.1.48.25.69 1.18 1.62.21.99 5.9 3.85 1.78.89 5.46 6.65-.51 5.96-1.43-5.96-9.93-9.82-13.26-7.55-.64.44-1.14 1.05-1.63 1.64.01-.17.05-.33.07-.49.73-.5 1.32-1.14 1.77-1.87h-.01v-.01Z"/><path stroke="#0D200F" stroke-miterlimit="10" stroke-width=".5" d="M204.25 89.63c.15-4 3.36-14.68 10.77-18.4a5.353 5.353 0 0 1-.44-5.43c2.34-4.83 5.65-9.51 10.22-12.08-.11.06-.21.13-.31.18.13-.08.29-.17.42-.25.02 0 .04-.02.05-.03 1-.56 2.05-1.06 3.13-1.45h-.04c1.71-.61 3.54-.97 5.35-.96h-.17c1.54-.02 3.12.18 4.53.66-.04 0-.09-.03-.13-.05 2.67 1.03 5.34 2.47 7.36 4.62 1.06-.19 2.24-.15 3.38.02h-.06c.53.08 1.15.24 1.67.41h-.02c.06.02.39.14.45.17-.13-.05-.25-.1-.37-.14.15.06.32.14.48.2l-.11-.05c11.41 3.84 10.68 19.17.65 24.32 0 0-6.27 3.71-6.28 3.65l-22.61 13.06s.02-.02.04-.03c-6.87 4.64-18.87.89-17.95-8.4v-.02h-.01Z"/><path fill="#FAF6E3" stroke="#0D200F" stroke-miterlimit="10" stroke-width=".5" d="m158.42 29.18 9.75-27.83-.71-.35-7.98 4.61-16.84 28.89-1.95 3.01c-21.62 12.05-86.33 50.7-87.57 51.58-6.74 4.43-8.33 13.12-8.86 20.03-.18 1.42 1.24 2.13 1.24 2.13s12.23 2.31 19.68-1.6c7.44-3.9 61.33-34.92 61.33-34.92 3.9-2.3 7.44-5.32 10.28-8.86l23.04-28.36s.89-4.61-1.24-6.74c-.18-.53-.35-1.06-.18-1.6l.01.01Z"/><path fill="#0D200F" d="m158.42 29.18 9.75-27.83-.71-.35-7.98 4.61-16.84 28.89-1.95 3.01c-1.95 1.06-7.44 4.25-10.1 5.67l-2.48 1.6c3.9 0 5.5 1.95 4.96 4.61-4.25 24.99-33.15 37.58-59.56 51.05-3.01 1.6-7.09 1.95-14.18 1.06-3.19-.35-.71 1.42-1.42 3.54v.18c.18 1.24-.35 2.48-1.24 3.37-.89.89-2.13 1.6-3.37 1.95-1.24.36-2.66.53-4.08.53-1.24-.18-2.48-.53-3.55-1.24-.53-.53-1.06-1.24-1.24-1.95-.53 1.95.35 3.19 1.24 3.37 3.01.36 12.05 2.48 19.5-1.6 7.44-3.9 61.51-34.92 61.51-34.92 3.9-2.3 7.44-5.32 10.28-8.86L160 37.51s.89-4.61-1.24-6.74c-.36-.53-.53-1.06-.36-1.6l.02.01Z" opacity=".1"/><path fill="#0D200F" d="M46.04 99.55v2.84c0 .18 0 .53.18.71.18.18.18.35.53.53 1.6 1.24 3.72 1.77 5.67 1.6l4.43-.35c.35 0 .71 0 1.06.35.35.18.53.53.53.89s0 .71-.35 1.06c-.18.36-.53.53-.89.53l-4.79.71c-2.13.35-4.43-.18-6.2-1.42-.35-.18-.71-.71-.89-1.06-.18-.35-.18-.89-.18-1.42 0-2.13.89-4.96.89-4.96l.01-.01Z"/><path fill="#C24F02" stroke="#0D200F" stroke-linecap="round" stroke-linejoin="round" stroke-width=".5" d="m135.2 42.47.71.35 22.34-12.59 9.92-28.88-.71-.35-7.98 4.61-16.84 28.89-7.44 7.98v-.01Z"/><path fill="#FF893A" stroke="#0D200F" stroke-linecap="round" stroke-linejoin="round" stroke-width=".5" d="M146.54 41.76v.71l35.81 5.5 5.32-1.95v-.71l-28.36-11.17-12.76 7.62h-.01Z"/></svg>