<svg xmlns="http://www.w3.org/2000/svg" xmlns:xlink="http://www.w3.org/1999/xlink" fill="none" viewBox="0 0 242 233"><defs><path id="explore__a" fill="#5CA029" d="M210.32 14.471h-.01l-.16-.3c.06.1.12.2.17.3Z"/></defs><path fill="#0D200F" d="M165.29 204.321c0 7.63-6.36 14.69-17.28 19.86-10.89 5.16-26.17 8.37-43.65 8.37-17.48 0-33.27-3.21-44.68-8.37-11.45-5.18-18.3-12.24-18.3-19.86 0-7.62 6.84-14.68 18.3-19.88 11.41-5.17 27.21-8.38 44.68-8.38s32.76 3.21 43.65 8.38c10.93 5.18 17.28 12.25 17.28 19.88Z"/><path fill="#5CA029" d="m211.04 20.341-3.93 16.01c-2.08 7.22-8.69 7.2-14.72 5.21l-7.85 6.96-4.02-9.71c-6.2-.85-11.94-3.82-10.45-11.05.6-1.8 3.82-17.34 5-18.51l-2.96-2.96c.61-1.59 1.79-2.98 3.21-3.91 0 0 .02-.02.03-.02.97-.64 2.07-1.07 3.21-1.26 1.81-.91 21.76 4.6 24 4.88 2 .46 3.79 1.67 4.95 3.34v.02c.41.51 2.2 4.06 2.56 4.69.05.09.19.35.24.45h.01c.92 1.73 1.23 3.79.72 5.86Z"/><use xlink:href="#explore__a"/><path fill="#ED6912" stroke="#0D200F" stroke-linecap="round" stroke-linejoin="round" stroke-width=".5" d="M81.39 219.941c21.58 0 39.08-9.9 39.08-22.11 0-12.21-17.5-22.11-39.08-22.11s-39.08 9.9-39.08 22.11c0 12.21 17.5 22.11 39.08 22.11Z"/><path fill="#C24F02" stroke="#0D200F" stroke-linecap="round" stroke-linejoin="round" stroke-width=".5" d="M82.97 177.291c-2.4.68-4.95.63-7.33-.12-2.14-.73-4.18 16-4.18 16 1 5.34 9.79 5.58 13.74 3.23.6-.3 1.11-.74 1.5-1.28.39-.54.63-1.18.72-1.84.04-.04-2.23-16.64-4.45-15.99Z"/><path fill="#FFBD90" d="M52.42 210.661c-13-9.75-9.51-23.61 7.74-30.95 3.72-1.55 7.6-2.69 11.57-3.39-4.65.66-9.2 1.91-13.54 3.71-17.25 7.34-20.72 21.2-7.74 31 10.26 7.72 27.75 10.56 43.15 7.76-14.9 2.18-31.35-.73-41.18-8.13Z"/><path fill="#291100" stroke="#0D200F" stroke-linecap="round" stroke-linejoin="round" stroke-width=".5" d="M122.98 15.901c1.09.76 6.63 3.08 7.27 9.89.52 5.68.7 12.72.34 13.64-1.75-1.76-11.43-7.56-11.43-7.56.21-1 .82-6.7 1-7.73-.58-1.13-13.86-10.21-14.44-11.34 1.32-.27 2.67-.3 4-.1 1.73.14 12.48 2.86 13.26 3.2Zm-64.84 173.1c1.31.21 14.69 4 19.88-.44 4.33-3.71 9.36-8.65 9.75-9.55-2.48 0-13.48-2.54-13.48-2.54-.56.9-4.06 5.39-4.63 6.28-1.2.41-16.35.83-17.55 1.25 1.28 2.38 3.43 4.17 6 5h.03Z"/><path fill="#89DEFF" d="M80.34 179.061c43.82 0 79.34-35.52 79.34-79.34s-35.52-79.34-79.34-79.34S1 55.901 1 99.721s35.52 79.34 79.34 79.34Z"/><path fill="#1D94C2" d="M81.01 119.881c-1-1-2.7-.81-3.61-2 0 0-1.72-2-3.11-1.88-1.71-.32-3.4-.76-5.05-1.3-.08-1.07-.54-1.2-.64-1.21-.92-.1-2.15-1.48-3.45-1.62-1-.11-1.4-1.11-2.88-1.72-.89-.37.75-1.41 0-2-1.2-1 .29-3.3-1.61-3.91-.5-.59-1.04-1.16-1.61-1.69-1.61-1.17-3.86-.63-5.37-2-1.27-1.19-1-4-3.47-3.89-.48-.63-.18-1.76-1.26-2-1.75-1.42-.4-.55-.86-1.39-1.42-.26-2 .56-3 .33-.77-.19-1.12-1.13-2-1.15-1.79 0-.91-2.94-5-1.43-1.54-1.55 4-3.19-3.23-.91l-.22-.18c-.12 0-3 3.12-3 3.15-.73-.2-.34-1.21-1.93-2.19-.16.31-.27.67-.09.89 1.08 1.62 1 6.29.24 7.85-.51.76-1.15 1.44-1.88 2-.2.21-.23.52-.41.75-.59.48-1-.36-1.2 1.07-.1.66-.67 1-1 1.58-.33.58 0 1.1-.18 1.63-.09.3.62 1.3.63 1.3 1.31.32-2.26.68-1.13 3.2.19.44.11.49-.06.64-.27.42.67 1 1 1.63 1.66 3.08 1.07 4.8 3.27 8.47 1.52 3.12 2.47 4.84 2.84 5.16 2.87 2.45 4.43 3.93 4.66 4.42 1.23 2.58 0 5.43.89 8.06 0 3.85.19 3.83.82 9.82-.03.83-.11 1.66-.23 2.49-.34.09-.48-.54 1.34 4.15 0 .13-.14 1.58.79 1.54 0-.46-.56-1 0-1.38 2.06 6.29.5 1.2 0 2.31.29.57.37.95.26 1.16.15.45-.1.3-.06.5.4.39 1.27-.14 1.17 1-.93.15.45 1.49.83 1.71 0 .75.22.24.62.52 0 .12.33.41 1 .86.25 1.41 5.14 3.46 6.19 3.72.07-.23-.1-.17.75 0 .16-.05.49-.05 1 0-.59-.72-5.37-2.81-3.52-2.24-.45-.8-1.78-1.28-.44-1.59 0-1.67 2.28-.48-.94-2.56-.64-.49-.67-1.14.8-1.06.02-.16.08-.31.16-.45-.46-1.27.28-.68.15-1.11-.34-.18-.17 0-.3-.61-.23-.14-.42-.32-.56-.55a1.67 1.67 0 0 1-.25-.75c.89.08 1.66.9 2.64.41-1-3.29.51-.58 3.71-1.5.55-.15 1.16-1.39 1-1.61-.55-.76-2.85-2.2-2-2.5 2.63 1.81 5.27 1.7 5.75-.24.21-.12.39-.3.51-.51.12-.21.19-.45.2-.69.1-.33 1.14-1.94 1.53-1-.26.38-1 1.1 2.15-2 1.09-1.09-.33-3.11 1.46-3.94 1.24-.57 2.77-.42 3.78-1.54 1.82.21 3.29-.08 4.42-.87.27-2 1.91-3.19 2.69-4.89.88-1.92 0-5.53 1.27-6 .92.12 5.61-6.66 5.62-6.73.08-1.21-.12-2.41-.59-3.53Zm-23 31.62c0-.31-.67-.45-.45-.42.22.03 1.2-.62.42.42h.03Z"/><path fill="#1D94C2" d="M74.14 31.501c-.58-.09-.28.05-.29-.24-.5-.11 0-.3-.34-.49 0-.15.17-.16-.3-.15-.16 0-.07-.31-.45-.6.32-.61.81-.1 1-.38-.08-.18-.27-.28.09-.27.11 0 .33-.23.17-.39-.13 0-.24.13-.38.1.2-.36.89-.13-.06-.56 0-.42.58-.57-.36-.6 0-.12.16-.23-.14-.15.28-.14.29-.14.34-.21-.14-.2.11-.17.1-.31 0-.14-.22 0-.13-.2 1.11-.45.14-.86-.58-.57.88-.76-2.24-.22-2.71.57-.11-.77 2-1 2.17-1.07.17-.07-.68-.52-3.46.62.32.74-.28.2-.64.43-.32.42 0 .1.13.66.17.06.34.14.49.24-1 .19-1.84 1.05-3 .76-.81.72-1.05.16-.2-.26 1-.2 1.36-.95-.28-.29.91-.84 1.34-.32.86-.77.6-.52 1.67-.29 2-1.28 1.17-.47 3.37-.12 2.94-.88-.84-.19-6 1.32-5.76 2-4.53 1.85-1.92.44-1.78.21 1.43 0 2.37-1.17.27-.56-.2.55-.28.3-1.34.65-1-.78-.82.08-.51-.86.94-.35-.08-.8-.85-.21-.68.19-.57.21-.49-.12-1.67-1 1-.32.78-1.26.23-.2.48-.39.73-.56-.27-.22-.83-.13.47-.45-.3 0-.59.03-.88.1.75-.47 2.39-.54.51-.4.14-.09.3-.14.46-.16-.21-.12-.47-.17-.71-.13.11-.08.78-.29-.58-.12.56-.38 5.52-2 5.49-2 1.12-.54-6.56.71-14.53 3.68-.72.26-.81.3.41-.07-5 2.93-7.32 2.44-23.54 15.67 4-3.32 6.35-4.63 6.22-4.9-12 5-17.16 21-18.66 21.69-.23.43-.38.91-.43 1.4.46.42-1 2.5-1.06 2.62-.06.12-.66 2.78-.61 2.85.6-.18-.17.19 2.7-6.4 3.34-7.69 2.48-3.64 2.61-3.51-2.29 1.5-4.34 12.52-4.36 12.57-.58 2.09-2.41 1.15.08 8.06.38.53.47 1.22.94 1.7.62.65 1.66-.16 2.24.65.79 1.09.22 2.61 1.15 3.67 2.56 2.94 2.44 1.84 2.94 2.26-.3 1.3 1 2.32.64 3.63-.12 1.41.04 1.97.48 1.69.65.9.66 2.85 1 2.23 0 .14 2 2.23 2 2.39.07.09.17.14.28.16.11.02.23 0 .32-.06.1-.06.17-.14.21-.25.04-.11.04-.22 0-.33-.14-.49.94-1.72 1.5-1.28.4-1.8 0-.22-2.91-.89-2.17-3.35.17-6.7.66-7.34 1.49-2.64-3.58-3.51-3.64-3.5-.61-.52-.83.28 1.38-3.71.06.27 0 .21.25.28 1.14-1.7 1.76-2.67 1.8-2.44 1-2.83-2.34-1.6-2.38-1.58-1.28.58-1 2.47-2.51 2.9-.84-.68-1.85-.28-2.3-.56-.39-3-.28-5.1.31-6.3 4.53-9.15 5.43-5.74 6.56-7.55 2 .56 2.36.45 2.3 1.3 0 .15 0 .34.43.25.23.16.07.12.58 0 .09.41-.09.19.66-.49-.65-.67.82-.25 1.38-.26.08.11.16.2.26.29.28 0 .8.45 1.55 1.35 2.68-.26.4 1.54.74 2.89.3 1.2-1.26 3.94.46 3.67a4.01 4.01 0 0 0 1.42-2.59c.93-6.9 1.95-4.42 4.55-6.81.33-.58 3-1 3-1 .29-.14.28-.61.69-.62a.888.888 0 0 0 .67-.51c-.3-.54 0 0 .34-.88.76-2.52 1.35-3.46.48-.9 1.16 0 1-1.32 1.71-1.78.55.41 1.38-.49 1.76-1 .49-.72 1.75 0 1.67-.38-.77-.09-.66 0-.64-.22.76-.33 2.86.53 2.69-.71-.08-.58 1.24-1.54 1.63-1.54 1.33 0 2.26-.64 4.91-1 .28.81-1.62.32-1.84 1.56.33.85.44.35 2.05-.4.74.3 4.72-.57 4-1.35 0-.21.17-.4.16-.63-.33 0-1.12.58-1.42 1-.16.11-.09.1-.29 0-.52-.42-1.38-.21-1.74-.93-.1-.27-.11-.57-.02-.84s.28-.5.53-.65c-.2-.35-.56-.05-.81-.52.43-.26 0 .37 1.54-.22.59-.54 0-.93-.71-1-.71-.07-.74 0-3.9 1 .75-.77 1.75-1.23 2.82-1.29.87-.37 2.62-.37 5.25 0 1.71-.03 3.38-.51 4.84-1.4.35-.8.69-1.55-.45-1.55.09-.16.02-.34-.19-.53.14-.07.28-.15.4-.25 0-.09-.33-.35-.45-.32-.12.03-.17 0-.41-.4-1.72-.4 0-4.43-.42-5.11-4.2 2.36-2.5 1.19-3.33.74 0-.68 1-1.49 1.07-1.52.22-.27-.08.09-.71-.53.11-.67-.47-1.22-1.75-1.67a.973.973 0 0 0-.6.14.97.97 0 0 0-.4.47c-1.16 1.61-3.47 1.42-2.78 2.61.25.41-.88 2.38-3.53 2.52-.49.46-.7.69 0 0-.35 0-.53 0-.69.61-.11.41-3.11 3.49-2 2.22-.28.01-.55.06-.82.14-.07-.68.02-1.36.25-2 .38-.3 1.18-1.2 1.57-1.55-.19-1-.95.63-1.79-3.17-.72-.22-1.16.17.45-1.45-.27-.21-.23-.1-.18-.46 2.32-.98 4.68-1.85 7.09-2.59.79.47 3.65-1 3.8-1.06.13.47.39.44.8.19.41-.25-.4.94 2.34-.92.84 0 1.3-.75 2.08-.71.05.14.07.09-.11.19.87 0 .47 0 .9-.24.18.23.23.13-.07.38.07.06.07 0 .08.09.01.09 0 .23 0 .34 0 .28-.91.12-.7.34 1.25-.15.17.36.64.3v.2c.21.15-.28.68-.41.78-.59.13-1.16.32-1.7.57-.5 1.07-1.38 0-1.67.1-1.46.31-1.55 1-.14.77.15 0 .32.15.51.13.54.57.18.38.28.67 0 .11.2.13.22.26.02.13-.25.16-.3.31 0 1 .18.3.52.48.13.06 0 .22.2.41 0 0 .91.66 1.06.61.68-.22-.39-1-.06-1.51.27-.21.57.6.63.64.62.34.09.84.92 0 .15-.16.45 0 .55-.28.1-.28-.08-.37 0-.55.19-.34 0-.43 0-.43-.43-.14-.09-.57-.08-.76 0 0-.15 0 0-.11s.5-.26.44-.27c.77-.07.31.92.46 1 .15.08.15.31.38.21s.25-.27.42-.36c.17-.09.37 0 .54-.1.36-.2.28-.26.37-.29.47.06.81-.05.53-.4h.01v.01Zm-26.9 14.91c.21.13.24.74.7.29 1-1 .73 1.66.06 1.48-.22-.06-.31-.41-.31-.48 0-.84-.25 0-.45.22-.46.34-.88.73-1.27 1.15-.35.23-.81.35-.43-.25.38-.6.2-.83-.32-.55-.52.28-.54 0 .08-.31s1.31-.9 1-1.39c-.21-.3-.21-.7.1-.58s.59-.17.59-.1c.48-.11 1.22.71.33.44-.17.02-.08.08-.08.08Zm-1.53-3.69c.11 0 .2.07.31 0 .26-.11.26-.26.32-.19v.14c1.6.11.95.38.82.92-.09.36.37.29.39.36.02.07-1 2-1.07 1.32 0-.47-.16-.17-1.1-.31-.52-.08-.17-.32-.52-.72 0-.22.66-.34.52-.44-.66.15-1.33.26-2 .32-.35 0 .26-.45-.2-.42-1.86.12 2.07-.78 2.53-.98Zm-2.79 5.4c-.46 1.15-1.82 1.72-2 1.44-.18-.28.92-1.92 2.65-3.07.59-.4 0-.1-.16-.13s.93-.63 1-.66c.07-.03 1.52-.19 1.55.18 0 .16-1 .79-1.14.78-.12-.32-1.66.9-1.9 1.46Zm4.49 2.16c-3.14 1.46-4.17.12-3.43-.11.48-.05 4.33-1.09 3.43.11Zm.14-.6c0-.28-.08-.29.56-.49.12-.16.09-.15.19-.14-.24.32 0-.14 2 .29.07 1.22-1.9.37-2.72.34h-.03Zm10.57-23.7c-.7.18-1.42.3-2.15.35 2.37-.63-1.92.23 1.43-.78.16-.14.17-.14 1.22 0-.32.35-.93 0-.5.43Zm10.87 6.35c-.13.11 0-.1-.25 0s-.38 0-.21-.13c.78-.49.56.05.46.13Zm1.12-1c-.1 0-.39.12-.3 0 .72-.92.65-.3.78-.26.13.04-.16.39-.48.27v-.01Zm2.23-4.22c.11-.34-1.46.42.45-.57-.4.57.85.21.35.4-.01.01-.69.17-.8.18v-.01Zm7.88 3.2-.12.06c.08-.11.09-.12.12-.06Zm9.28.57s0 .17-.13.08c-.13-.09-.06-.14.13-.08Zm-.43-.3c0 .23-.2 0 0-.06-.01.04 0 .04 0 .04v.02Zm.08-.15c0 .07-.03.09-.09.08 0-.28.08-.13.09-.08Zm-9.28-2.19c-.06 0-.09 0 0 0s.05-.06 0 0Zm9.63-1.4s-.04 0-.05-.02c0-.01-.02-.03-.03-.05v-.04s.27.11.08.11Zm-.57-2.07c-.07-.05-.1-.13 0-.08s.05.07 0 .08Zm-1.88-.75c-.07 0-.06.08-.18 0s-.28.2-.29.06c-.01-.14 1-.22.47-.06Zm-1.31-.26s.03-.09 0-.02v.02Zm2.84.6a1.24 1.24 0 0 1-.38-.09c-.13.62-.24.25-.21.3.12-.32-.12-.55-.32-.48 0 .23-.18.2-.29-.08.76-.22-.78-.81-1.43-.58-.08.25 0 .14-.15 0-.17.06-.49 0-.59.08.13.28-.16-.1-.18.21.05 0 .07.1.13.12 0 .5-.28-.48-.57-.15-.29.33-.12.18-.22 0-.49.16-.44.5-.14 0 .1.11-3.6.26-2.47.63-.77.43-3.54.19-2.78.7.06.33.71.19.66.2 0 .47-1.57-.37-1.31.42-.21.11-.28.13-.22.09.41.48 1.58 0 2.06.8-.02.98-.63 1.78-1.17 2.49.53.35.72-.29.95.08 0 .17 0 0-.18.23.18.15.46.13.46.33-.13.71-1.1-.4-1.23.14-1 .56-.52.9.41.71.24-.17.13-.17-.19-.54 0-.16.44-.08.64.62-.76 1-.58.41-1 .46-.42.05-1.8 2-1.27 2.24.17.36-.28 1-.1 1 .18 0 .07-.24.3 1.46.09.63.64.86.68 1.55.73.1 1.35.27 1.78.88 1.54.74 1.86-2.05 1.9-2.12 1.9-.35.66-2.13 1.6-1.82.14-.55.8-.08 1.26-.81.11 0-.82 1.85 2.58-1.11l-.16-.36c.12-.09.73.68 1.14.13.68.41 2.69-.8 2.64-1-.62-.44-2.13.11-1.19-.5-.63-1.35 1.04.81 1.12.06 0 .07.24.12.33.1 0-.64-1.88-1.48-1.79-1.72.12 0 .75.7 1.06.53-.85-1.63-2-.68.16-.77 0-.08-.58-.52.08-.51.26-.26-.95-.53-.57-.66.54.34-.11-.48-.52-.61-.08 0-.15.19-.32-.17.27.09-.19-.52.88.26-.31-.58-.39-.6-.44-.62-.2.14-.63-.3-.27-.16 0-.16-.3-.19-.45-.19 0 .42-.23-.41-.2-.48.29 0-.29-.39-.38-.64.12 0 .24-.12.24.11 0 .23.34.15.17-.1.07-.07.06 0 .06-.12-.36-.33 0 .05 0-.28.4-.42-.75-.64-.6-.26Zm-11.9.38c-.21.08 0-.06.09 0s-.08-.02-.08-.02v.02h-.01Zm.21-.22c-.07.01-.15.03-.22.05.26-.09.17-.01.23-.07v.02h-.01Zm1.01-.37c-.19.06.07 0 .06 0h-.06Zm1.29.1c.07-.11.28-.09 0-.03v.03Zm-.89-.44s.07-.07.13 0h-.13Zm-.16.16c-.72.22-.22 0-.27 0 1.02-.31.56-.11.28-.03v.03h-.01Zm1.79-.59h-.19c.27-.06.42-.08.2-.03v.03h-.01Zm-.59-.26c.1-.05.15-.05 0-.03v.03Zm25.82 18.21s0-.05-.01 0h.01Zm6.58 3.97c-.21-.07.29.16-1-1.11-.33-.31-.8-.38-1.14-.65-.52-.42-.57-.95-1.82-1.12 0-.06.07-1.45-.44-1.57-2.08.11-.84-.33-1.19-.81-.16-.17-.14-.21-.12-.31.02-.1-.17-.21-.25-.12-.08.09.16.25.16.4-.82.6-.94-.77-.76 1.27-.14 0-.2-.21-.36-.23-.18.18 0 .22.51.53.17.15.05.39.17.55.12.16.34 0 .45.19.63.81.33 1.18.68.45.69 0-.16.64.95 1 0 0 .44-.21.55-.14.24.5.86.7 1 1.27.14.57-.89 0-.83.28.1.39.58.44.72.8.14.36-.61.52-.31.79 1.5.29 1.3.27 1.49.24.19-.03.25.19-.06.19-.86 0-1 1.61-.6 1.31.12-.1.06-.21.28-.32.22-.11.7.34.71-.17 0-.11 0-.2.14-.25 3.63-.37 2.82-1 2.55-1-.89-.12.65-1.66-1.49-1.47h.01Zm-40.9 4.14c.15-.36-.23-.13-.32-.15-.05-.18.15-.27.15-.43 0-.16-.4.29-.54.26-.16-.45.85-.62.7-.86-1-.24.43-.61-.24-1-1-.55-.6.25-1.3-.31-.2-.15.13-.43-.1-.55-.23-.12-.53.22-.56.08-.07-.33 2.13-1.44 1.27-1.57-1.15-.06-3.56 2.86-3.64 2.91-.71.44-1.55.69 1.59 1 .34 0 .39.4.89.18.16.08-.19.37-.42.41-.55.1-.22.58.49 0 .22-.17.37 0 .84-.36s-.15.67-.17.72c0 .21.2 0 .3.06.1.06.31 1.03 1.09-.39h-.03Zm36.1-5.41c-.26-.27-.55-.51-.87-.71-.14 0-.28.06-.42 0-.14-.06-.2-.12-.32-.11-.12 0-1 .33-.51.71.31.26 0 .44-.32.36-.32-.08-.53.07-.28.43.09.13 0 .32.16.44s.41.13.58.28c.17.15.06.79-.12.89-.18.1.15.73.86.78 1-.31.81-.63 1.29-.74.48-.11.45-.11.47-.15.16-.4-.33-1.14-.6-1.48-.27-.34.23-.44.11-.7h-.03Zm-69.36 32.64c-.06-.11 0-.25-.07-.35-.07-.1-.25-.14-.35-.24-2.33-2.22.34-.5-2.4-2.45-.19-.16-.09-.47-.49-.83-.51-.4-1.1-.68-1.74-.8-.64-.12-1.29-.09-1.91.1-.56.21-1 1-.57.91 1.54-.28 1.74-.85 2.37-.33.22.19-.26.39-.07.61.19.22.78.27 1.09.57.22.28.45.53.71.77.5.35.81 0 .71.71-.13 1 .71.89.85 1.07.45.61-1 .72-.5 1 .17.09.9.09 1.28.18s.56.31.88.36c2.55.35.21-1.23.21-1.28Zm6.47 4.66c.18-.51-.73-.8-1-1.28-.17-.41-.48-.75-.88-.95-.4-.2-.85-.26-1.28-.15-.65.11-.45-.74-1.44-.48-.33.22.23.4.28.6.82 2.86-2.55-.18-2 1.07.29.7.58.28 1.16.53.93.41.91-.38 1.53.94.17.27.67-.87 1.28-.39.29.22.53-.08.78-.08.8 0 1.31.89 1.56.19h.01Zm-3.95-49.45s1.63-1 2.26-1.35c.67-.7-2.56 1.45-2.25 1.31v.04h-.01Zm112.48 87.28c-.28-.41 0-1.08-.11-1.73-.22-.46-.31-.97-.24-1.47.66-8.1.27.31.33.35.2.25.23 2.85.02 2.85Zm.86 2.82c.4-2.17.24-2.13.42-2.28.35.73-2.28 11.25-.47 2.28h.05Zm1.82-15c-.36 2.24-.52 2.3-.38 2.42.14.12-.13.51-.14.51-1.19.12-.5-.51-.57-1.56 0-.57.06-1.77.57-2 .86-.79.31.7.71 0 .13-.16-.24.57-.24.63h.05Zm-39.94-65.08c-.18-.48-.2-.26-.07-.53-2-1.62-1.3-1.24-1.44-.68.19.32.08.09-.27.06 0 .04.72.79 1.4 1.59.16-.13.33-.25.5-.36-.04-.02-.08-.05-.12-.08Zm3.44-2.92c-.14.21-.02.47.23.76.21-.12.42-.23.63-.35-.13-.06-.34-.22-.86-.41Zm-20.73-16.89c-13-2.81 6.24 2 6.5 2.11-1.43-.2 2.93 1-.22.22-.34-.04.46.21 1.44.49-.74-.19-1.19-.25-1.06-.09 2 .67 4 1.14 5.93 2-.67-.11-1.35.05-2-.08.65.28 1.32.53 2 .74.44.52 1.25 1 .21.56.63.66 1.37 1.22 2.18 1.64 0 .55-2.42-1.37-2.1-.56.25.1 2.61 1.23 2.71 1.29-1.69.08 3.46 2 .61 1.4.38.5 1.08.4 1.54.79-.69.33-4.23-1.5-4.47-1.63.65.15 1.33.2 2 .13 0-.78-1.91-1.3-1.94-1.31-1-.15-2.08.08-3-.44-.6-.29-.22 0-.69 0s.1-.45-1.9-.56c.19.18.84.56.1.21l.09.12c-.14-.09-.34-.17-.59-.22.19.19.42.54.09.4-.18.21-.11 0 .22.3-.19.08-.16 0 0 .17-.16 0-.35-.07.14.23-.19 0-.37-.1-.57-.11.17.41.46.75.83 1-.89-.22-.57-.34-.57.17.21.14.3.29.29.45.47-.34.43-.32.57-.21.13 1.15 1.37 1.56 1.73 2.55-.29.33 1 1.6.11 1.22 0 .26.03.44.1.54-.94 1.14 1.48 3.74 2.19 3.38.1.06 0 0 .12.1.25.92 1.89 1 2 .61.11-.39 0-.63.15-.93-.04-.06-.07-.13-.1-.2 3.65 2.44 3.35 2.27 3.55 2.87.46-.32.94-.62 1.42-.91-.26-.31-1.16-1.07-1.62-1.79-.34-.53.06-1.37-1.36-1.7-2.18-.69-2.49-3.06-4-4.38 1.17-.92 2.4 1.65 2.33 1.89 1.01 1.07 2.23 1.91 3.59 2.48.65.06.55-.77 1.13-1 .65.34.84.06.84.31-.07 0-.13.29.1.55-.09.07-.33.11-.72.12-.78 1.15 1.24 1.08 1.95 2.25 2.53-1.34 5.24-2.4 8.06-3.15-7.89-5.96-17.82-11.24-29.91-14.02Zm14.46 5.3c-.72-.49-3.63-1.55-5.68-2.18.93.26 1.76.49 1.78.49-.05-.03 4.63 1.8 3.9 1.69Zm42.32 82.42h-.01a.72.72 0 0 1-.06.1c-.06.01-.12.01-.17.01-5 2.3-10.56 3.58-16.42 3.58-.19 0-.39 0-.58-.01.74 2.9 3.38 5.68 2.38 12.48-.08.59-4.61 8.1-3.9 9.86.07.17.31 4.18.31 4.29-2.46 10.62-2.18 10.19-3 10.74-.28.34-.24.8-.51 1.14.66 1.76 2.85-.9 4.25-1.19 9.41-7.76 11.49-13.8 17.06-25 .71-2.04 2.33-9.95 3.51-17.49-.93.54-1.88 1.03-2.86 1.49Zm-2.23 9.35c-.28-.41 0-1.08-.11-1.73-.22-.46-.31-.97-.24-1.47.66-8.1.27.31.33.35.2.25.23 2.85.02 2.85Zm.81 2.82h.05c.4-2.17.24-2.13.42-2.28.35.73-2.28 11.25-.47 2.28Zm-13.46-82.65c-.14.1-.2.11-.31.06.08-.04.17-.09.26-.13.02.02.04.05.05.07Z"/><path fill="#104F68" d="M148.05 58.081v1.18c5.27 76.33-86.84 113.78-101.56 112.14a79.42 79.42 0 0 0 49.66 6.1 79.427 79.427 0 0 0 43.44-24.83 79.339 79.339 0 0 0 19.94-45.89 79.37 79.37 0 0 0-11.48-48.7Z" opacity=".3"/><path fill="#C24F02" stroke="#0D200F" stroke-linecap="round" stroke-linejoin="round" stroke-width=".5" d="M47.9 181.251c1.82.33 3.5 1.18 4.84 2.45.81 1 0 1.49-1.92 1.13a9.72 9.72 0 0 1-4.85-2.45c-.8-.98.06-1.49 1.93-1.13Zm55.93-157.87c2.29.89 4.58 1.29 6.66 2.43 1-2.52 3-7.22 3-7.38-.49-1.5-2.36-2.11-3.7-2.69-1-.33-3-1-3.63-.09-.07.16-2.1 5.18-3.06 7.54.25.04.49.11.73.19Z"/><path stroke="#0D200F" stroke-linecap="round" stroke-linejoin="round" stroke-width=".5" d="M80.34 179.061c43.82 0 79.34-35.52 79.34-79.34s-35.52-79.34-79.34-79.34S1 55.901 1 99.721s35.52 79.34 79.34 79.34Z"/><path fill="#0D200F" d="m128.77 37.351-15.17-7-8.15 1.11c-3.3.45-6.65-.38-9.37-2.31a2.38 2.38 0 0 1-.83-1.05 2.415 2.415 0 0 1 .45-2.53c.31-.34.7-.58 1.14-.7l6.21-1.68 3.06-7.54 7.33 2.78-2.86 8.31c4.5-.08 17 9.4 18.19 10.6v.01Z" opacity=".3"/><path fill="#C24F02" d="M60.58 188.441c-1.75-.68-3.38-1.65-4.8-2.88-1.26-1.16-1.47-1.93-2.5-3.39-2.69-3.83-3-5.57-7.56-6.44-3.76-.71-5.75.64-6 1.83-.35 3.91 3.62 6.86 3.62 6.86a6.489 6.489 0 0 0 4 2c3.91.85 8.59 2.21 12.5 3.05-.86-.31 4 1.03.74-1.03Z"/><path fill="#FF893A" d="M39.58 178.361c.17-.7 4.13-1.3 5.67-1.66.3-.2.94-.65 1.25-.83.31-.18-2.92-.21-2.66-.35-2.62-.06-4 1-4.26 2-.02.3-.02.61 0 .91v-.07Z"/><path fill="#753002" d="M55.2 186.561c-.97-1.02-1.81-2.16-2.5-3.39-2.69-3.83-3-5.58-7.56-6.44-10.48-2-2.71 7-2.71 7 1.42 1.34 3.19 2.28 5.1 2.7 3.91.85 8.59 2.21 12.5 3.06-1.76-.7-3.4-1.69-4.83-2.93Z"/><path stroke="#0D200F" stroke-linecap="round" stroke-linejoin="round" stroke-width=".5" d="M60.58 188.481c-1.76-.69-3.39-1.67-4.82-2.9-.98-1.02-1.82-2.16-2.5-3.39-2.69-3.84-3-5.58-7.56-6.45-3.76-.7-5.75.64-6 1.83v.53c-.06.66.06 1.33.34 1.93.37 1.03.93 1.98 1.65 2.81.43.58.75.95.75.95.46.44.96.84 1.5 1.19.97.82 2.15 1.33 3.41 1.47l.19.05c3.91.84 8.59 2.2 12.49 3.05l-.21-.09c.42.1 3.56.78.76-.98Z"/><path fill="#C24F02" d="M122.13 16.811c-1.88-.25-3.78-.18-5.63.21-1.35.42-2.63 1.01-3.83 1.76-4.21 2.05-5.29 3.44-9.73 2-3.64-1.2-4.73-3.34-4.39-4.51 1.58-3.6 6.49-4.25 6.49-4.25 1.48-.48 3.08-.42 4.52.18 3.82 1.15 8.58 2.22 12.41 3.37-.92-.17 3.98.99.16 1.24Z"/><path fill="#753002" stroke="#753002" stroke-linecap="round" stroke-linejoin="round" d="M98.69 15.821c-.07.14-.15.28-.22.43-.35 1.17.75 3.31 4.38 4.51.9.32 1.84.52 2.79.59 1.49-.3 2.87-1.04 3.94-2.12-3-.59-8.74-1.4-10.89-3.41Z"/><path fill="#C24F02" d="M116.51 15.811c-1.35.41-2.64 1-3.83 1.75-4.21 2.06-5.29 3.45-9.74 2-10.12-3.34 1-7.42 1-7.42 1.9-.48 3.89-.45 5.77.1 3.83 1.15 8.59 2.23 12.41 3.38-1.87-.26-3.76-.2-5.61.19Z"/><path stroke="#0D200F" stroke-linecap="round" stroke-linejoin="round" stroke-width=".5" d="M121.76 15.561h.24c-3.83-1.15-8.59-2.22-12.42-3.37l-.18-.05a6.419 6.419 0 0 0-3.7-.36c-.64.04-1.27.14-1.88.31 0 0-.47.17-1.12.47-1.03.38-1.98.94-2.8 1.66-.54.39-.97.91-1.24 1.52-.08.16-.17.31-.24.48-.35 1.16.74 3.31 4.38 4.5 4.44 1.47 5.53.08 9.73-2 2.76-1.89 6.17-2.61 9.46-2 3.27-.1.17-.98-.23-1.16Z"/><path fill="#0D200F" d="m111.86 38.841.55-.26-.35-.49c-.63-.87-.74-1.66-.51-2.26.22-.59.83-1.14 1.94-1.41 1.35-.23 2.74-.14 4.04.29 1.31.42 2.5 1.16 3.45 2.14.83.95 1.02 1.83.83 2.49-.19.65-.81 1.26-1.99 1.55a8.44 8.44 0 0 1-6.18-1.31l-.16-.11-.19.03-4.01.57 2.6-1.23h-.02Z" opacity=".3"/><path fill="#0D200F" d="m115.1 36.031-6.31 4.51 4.69-6.37c.05.04.12.09.18.15.14.12.28.25.4.37 0 0 .02.02.03.02.09.08.19.18.26.24 0 0 .02.02.03.04.03.04.08.1.13.17a8.404 8.404 0 0 1 .58.88l.01-.01Z"/><path fill="#ED6912" stroke="#0D200F" stroke-linecap="round" stroke-linejoin="round" stroke-width=".5" d="M115.36 38.501c1.22 0 2.4-.49 3.26-1.35.86-.86 1.35-2.04 1.35-3.26 0-1.22-.49-2.4-1.35-3.26a4.626 4.626 0 0 0-3.26-1.35c-1.22 0-2.39.49-3.26 1.35-.86.86-1.35 2.04-1.35 3.26 0 1.22.49 2.4 1.35 3.26.87.86 2.04 1.35 3.26 1.35Z"/><path fill="#FAF6E3" d="M115.18 32.651c.33 0 .64-.13.88-.36.23-.23.36-.55.36-.88 0-.33-.13-.64-.36-.88-.23-.23-.55-.36-.88-.36-.33 0-.64.13-.88.36-.23.23-.36.55-.36.88 0 .33.13.64.36.88.23.23.55.36.88.36Z"/><path fill="#0D200F" d="m52.02 108.281.31.08.2-.25c1.46-1.84 3.88-2.51 5.62-1.64 1.8.91 2.32 3.22.95 5.33-1.39 2.12-4.06 2.97-5.91 2.03-.69-.38-1.22-.97-1.51-1.7a3.37 3.37 0 0 1-.07-2.28l.12-.36-.31-.21-2.64-1.81 3.23.82.01-.01Zm-3.41-.85v.06-.02l.02-.02h.01-.02l-.01-.02Z" opacity=".3"/><path fill="#0D200F" d="m49.32 108.391-4.38-6.64c.06-.04.13-.07.2-.11.33-.18.7-.34.82-.39h.02s.04-.02.07-.03c.06-.02.13-.04.22-.07.17-.05.38-.11.59-.15.15-.03.29-.06.41-.08l2.05 7.47Z"/><path fill="#ED6912" stroke="#0D200F" stroke-linecap="round" stroke-linejoin="round" stroke-width=".5" d="M45.84 106.091c1.22 0 2.4-.49 3.26-1.35.86-.86 1.35-2.04 1.35-3.26 0-1.22-.49-2.4-1.35-3.26a4.626 4.626 0 0 0-3.26-1.35c-1.22 0-2.4.49-3.26 1.35-.86.86-1.35 2.04-1.35 3.26 0 1.22.49 2.4 1.35 3.26.86.86 2.04 1.35 3.26 1.35Z"/><path fill="#FAF6E3" d="M43.46 102.031c.33 0 .64-.13.88-.36.23-.23.36-.55.36-.88 0-.33-.13-.64-.36-.88-.23-.23-.55-.36-.88-.36-.33 0-.64.13-.88.36-.23.23-.36.55-.36.88 0 .33.13.64.36.88.23.23.55.36.88.36Z"/><path fill="#0D200F" d="M54.41 53.371h.02c1.2.12 2.12.65 2.66 1.37.54.72.74 1.66.45 2.68a5.547 5.547 0 0 1-2.23 2.69c-1.02.63-2.22.92-3.41.81h-.04c-.78-.02-1.53-.3-2.11-.82-.58-.51-.96-1.22-1.06-1.99l-.05-.35-.35-.07-3.19-.64 3.38-.28.28-.02.13-.25c.51-1.01 1.3-1.86 2.28-2.41a5.6 5.6 0 0 1 3.23-.7l.01-.02Z" opacity=".3"/><path fill="#0D200F" d="m46.27 48.901-.74 7.76-1.74-7.81c.07-.01.15-.02.23-.04.3-.04.61-.06.8-.07h.2c.06 0 .14 0 .23.01.18.01.39.04.6.07.15.02.29.05.41.08h.01Z"/><path fill="#ED6912" stroke="#0D200F" stroke-linecap="round" stroke-linejoin="round" stroke-width=".5" d="M44.73 53.551a4.605 4.605 0 0 0 3.26-1.35c.43-.43.77-.94 1-1.5.23-.56.35-1.16.35-1.76 0-.6-.12-1.2-.35-1.76a4.587 4.587 0 0 0-2.5-2.5c-.56-.23-1.16-.35-1.76-.35-1.22 0-2.4.49-3.26 1.35-.86.86-1.35 2.04-1.35 3.26 0 1.22.49 2.4 1.35 3.26.86.86 2.04 1.35 3.26 1.35Z"/><path fill="#FAF6E3" d="M42.74 48.691c.16 0 .32-.03.47-.09.15-.06.29-.15.4-.27.12-.12.21-.25.27-.4a1.267 1.267 0 0 0 0-.94 1.09 1.09 0 0 0-.27-.4c-.12-.11-.25-.21-.4-.27a1.266 1.266 0 0 0-1.35.27c-.23.23-.36.55-.36.88 0 .33.13.64.36.88.23.23.55.36.88.36v-.02Z"/><path fill="#0D200F" d="M30.57 61.671h.02c1.2.12 2.12.65 2.66 1.37.54.72.74 1.66.45 2.68a5.547 5.547 0 0 1-2.23 2.69c-1.02.63-2.22.92-3.41.81h-.04c-.78-.02-1.53-.3-2.11-.82-.58-.51-.96-1.22-1.06-1.99l-.05-.35-.35-.07-3.19-.64 3.38-.28.28-.02.13-.25c.51-1.01 1.3-1.86 2.28-2.41a5.6 5.6 0 0 1 3.23-.7l.01-.02Z" opacity=".3"/><path fill="#0D200F" d="m22.17 57.681-.74 7.76-1.74-7.81c.07-.01.15-.02.23-.04.3-.04.61-.06.8-.07h.2c.06 0 .14 0 .23.01.18.01.39.04.6.07.15.02.29.05.41.08h.01Z"/><path fill="#ED6912" stroke="#0D200F" stroke-linecap="round" stroke-linejoin="round" stroke-width=".5" d="M20.63 62.331a4.605 4.605 0 0 0 3.26-1.35c.43-.43.77-.94 1-1.5.23-.56.35-1.16.35-1.76 0-.6-.12-1.2-.35-1.76a4.587 4.587 0 0 0-2.5-2.5c-.56-.23-1.16-.35-1.76-.35-1.22 0-2.4.49-3.26 1.35-.86.86-1.35 2.04-1.35 3.26 0 1.22.49 2.4 1.35 3.26.86.86 2.04 1.35 3.26 1.35Z"/><path fill="#FAF6E3" d="M18.64 57.471c.16 0 .32-.03.47-.09.15-.06.29-.15.4-.27.12-.12.21-.25.27-.4a1.266 1.266 0 0 0 0-.94 1.09 1.09 0 0 0-.27-.4c-.12-.11-.25-.21-.4-.27a1.266 1.266 0 0 0-1.35.27c-.23.23-.36.55-.36.88 0 .33.13.64.36.88.23.23.55.36.88.36v-.02Z"/><path fill="#0D200F" d="M60.8 26.411c1.46 0 2.61.32 3.31.79.35.23.57.49.68.75.11.25.13.53.03.84-.21.65-.94 1.34-2.08 1.88-1.12.53-2.55.86-3.98.86-1.14 0-2.1-.2-2.79-.51-.7-.32-1.09-.73-1.22-1.14l-.1-.32-.34-.02-1.93-.12 2.13-.24.26-.03.12-.23c.33-.63 1.1-1.26 2.18-1.73 1.07-.47 2.39-.76 3.75-.76l-.02-.02Z" opacity=".3"/><path fill="#0D200F" d="m49.72 21.641 2.54 7.34-4.81-6.35c.06-.04.12-.08.19-.12.26-.16.54-.31.7-.4.04-.02.07-.04.09-.05l.02-.01c.02 0 .04-.02.07-.03.06-.02.13-.05.21-.08.17-.06.38-.13.58-.19.15-.04.29-.08.4-.1l.01-.01Z"/><path fill="#ED6912" stroke="#0D200F" stroke-linecap="round" stroke-linejoin="round" stroke-width=".5" d="M48.32 26.921a4.605 4.605 0 0 0 3.26-1.35c.43-.43.77-.94 1-1.5.23-.56.35-1.16.35-1.76 0-.6-.12-1.2-.35-1.76a4.587 4.587 0 0 0-2.5-2.5c-.56-.23-1.16-.35-1.76-.35-1.22 0-2.4.49-3.26 1.35-.86.86-1.35 2.04-1.35 3.26 0 1.22.49 2.4 1.35 3.26.86.86 2.04 1.35 3.26 1.35Z"/><path fill="#FAF6E3" d="M45.89 23.021c.16 0 .32-.03.47-.09.15-.06.29-.15.4-.27.12-.12.21-.25.27-.4a1.267 1.267 0 0 0 0-.94 1.09 1.09 0 0 0-.27-.4 1.18 1.18 0 0 0-.4-.27 1.266 1.266 0 0 0-1.35.27c-.23.23-.36.55-.36.88 0 .33.13.64.36.88.23.23.55.36.88.36v-.02Z"/><path fill="#0D200F" d="m36.17 131.141-4.38-6.64c.06-.04.13-.07.2-.11.33-.18.7-.34.82-.39h.02s.04-.02.07-.03c.06-.02.13-.04.22-.07.17-.05.38-.11.59-.15.15-.03.29-.06.41-.08l2.05 7.47Z"/><path fill="#0D200F" d="m39.28 131.961.31.08.2-.25c1.46-1.84 3.88-2.51 5.62-1.64 1.8.91 2.32 3.22.95 5.33-1.39 2.12-4.06 2.97-5.91 2.03-.69-.38-1.22-.97-1.51-1.7a3.37 3.37 0 0 1-.07-2.28l.12-.36-.31-.21-2.64-1.81 3.23.82.01-.01Zm-3.41-.86v.06-.02l.02-.02h.01-.02l-.01-.02Z" opacity=".3"/><path fill="#ED6912" stroke="#0D200F" stroke-linecap="round" stroke-linejoin="round" stroke-width=".5" d="M32.69 128.841c1.22 0 2.4-.49 3.26-1.35.86-.87 1.35-2.04 1.35-3.26 0-1.22-.49-2.4-1.35-3.26a4.626 4.626 0 0 0-3.26-1.35c-1.22 0-2.4.49-3.26 1.35-.86.86-1.35 2.04-1.35 3.26 0 1.22.49 2.39 1.35 3.26.86.86 2.04 1.35 3.26 1.35Z"/><path fill="#FAF6E3" d="M30.31 124.781c.33 0 .64-.13.88-.36.23-.23.36-.55.36-.88 0-.33-.13-.64-.36-.88-.23-.23-.55-.36-.88-.36-.33 0-.64.13-.88.36-.23.23-.36.55-.36.88 0 .33.13.64.36.88.23.23.55.36.88.36Z"/><path fill="#BA855F" d="m221.81 162.121-27.32-20.44s-4.47-2.71-5.82-3.72c-1.35-1.01-11.23-14.08-11.84-15.23-.61-1.15-3.18-3.92-4.13-4.4 0 0-3.72-6.7-9-5.75-5.28.95-15.83-.14-20.3 2.91 0 0-7.58-1.42-9.34.47-1.76 1.89-3.59 4.06-2.57 8.26 0 0-2.57 2.77-2.23 4.2.34 1.43 4.53 5.07 9.34 2.2 0 0 1.42 2.33 2.3 2.54 0 0-2.1 7.65 2.71 10.15 0 0-.81 6.7 2.1 8.66 0 0-1.96 6.9 4.47 8.12 0 0 2.03.61 4.67-1.29s2.91-2.3 2.71-5.89c0 0-.07-1.42 1.55.14s4.87 3.05 4.6 4.53c-.27 1.48.27 9.27 9.88 12.11 9.61 2.84 6.83 1.89 6.83 1.89s2.71.95 3.38 2.26c.67 1.31 11.59 18.05 11.59 18.05s35.77 6.09 26.41-29.77h.01Z"/><path fill="#875D41" d="M215.35 188.381c-6.61-3.01-5.46-22.86-12.07-25.86-1.87-.86-3.74-1.71-5.44-2.86-1.86-1.26-3.48-2.84-5.08-4.41-2.5-2.46-5-4.92-7.51-7.38-2.28-2.24-5.41-4.67-8.35-3.41-1.75.76-2.86 2.68-4.7 3.18-1.64.45-3.39-.39-4.56-1.63-1.17-1.23-1.88-2.81-2.71-4.29a30.822 30.822 0 0 0-6.43-8.03c-1.97-1.75-4.18-3.26-5.94-5.24-1.75-1.98-3.04-4.59-2.65-7.2.38-2.62 2.92-4.97 5.51-4.44-1.16-.61-1.79-2.09-1.46-3.35 1.02-.06 2.04-.09 3.03-.13 2.56-.09 4.96-.18 6.77-.5 5.04-.91 8.7 5.56 8.73 5.62.03.05.07.08.11.1.87.44 3.42 3.16 4.02 4.3.59 1.12 10.52 14.26 11.91 15.31 1.35 1.01 5.66 3.62 5.82 3.72l27.25 20.38c.87 3.37 4.9 20.43-6.25 26.12Z"/><path stroke="#0D200F" stroke-linecap="round" stroke-linejoin="round" stroke-width=".5" d="m221.81 162.121-27.32-20.44s-4.47-2.71-5.82-3.72c-1.35-1.01-11.23-14.08-11.84-15.23-.61-1.15-3.18-3.92-4.13-4.4 0 0-3.72-6.7-9-5.75-5.28.95-15.83-.14-20.3 2.91 0 0-7.58-1.42-9.34.47-1.76 1.89-3.59 4.06-2.57 8.26 0 0-2.57 2.77-2.23 4.2.34 1.43 4.53 5.07 9.34 2.2 0 0 1.42 2.33 2.3 2.54 0 0-2.1 7.65 2.71 10.15 0 0-.81 6.7 2.1 8.66 0 0-1.96 6.9 4.47 8.12 0 0 2.03.61 4.67-1.29s2.91-2.3 2.71-5.89c0 0-.07-1.42 1.55.14s4.87 3.05 4.6 4.53c-.27 1.48.27 9.27 9.88 12.11 9.61 2.84 6.83 1.89 6.83 1.89s2.71.95 3.38 2.26c.67 1.31 11.59 18.05 11.59 18.05s35.77 6.09 26.41-29.77h.01Z"/><path stroke="#0D200F" stroke-linecap="round" stroke-linejoin="round" stroke-width=".5" d="M140.9 133.151s2.8.89 5.6.71m-2.89 9.44s2.9 1.11 5.96.21m34.24 30.34s-6.23-4.26-8.73-8.19m-7.52-4.68s-1.86-.84-4.36-4.76"/><path fill="#FFBD90" d="M151.18 145.731s-1.8.57-1.25 2.47c.55 1.9.95 3.88 2.44 3.77 1.49-.11 3.43-.61 4.67-.48"/><path stroke="#0D200F" stroke-miterlimit="10" stroke-width=".5" d="M151.18 145.731s-1.8.57-1.25 2.47c.55 1.9.95 3.88 2.44 3.77 1.49-.11 3.43-.61 4.67-.48"/><path fill="#FFBD90" d="M153.43 152.721s-1.02 2.88.81 4.77c0 0-2.77.74-5.01-.88 0 0-1.42-2.2-.41-3.16"/><path stroke="#0D200F" stroke-miterlimit="10" stroke-width=".5" d="M153.43 152.721s-1.02 2.88.81 4.77c0 0-2.77.74-5.01-.88 0 0-1.42-2.2-.41-3.16"/><path fill="#753002" stroke="#0D200F" stroke-miterlimit="10" stroke-width=".5" d="M157.5 117.191c-1.61-.55-3.21-1.18-5.08-.84-3.83.69-8.34-.65-8.95-.84v-.06l-.54-3.39s.1-.04.32-.09c.14-.03.32-.07.54-.12.18-.04.38-.08.61-.12.13-.03.26-.06.4-.08.06-.02.12-.03.18-.04l.15-.03c.1-.02.2-.04.31-.06.09-.02.19-.04.29-.06.09-.02.18-.03.27-.05.02 0 .04-.01.06-.01.07 0 .14-.03.22-.04.08-.02.17-.04.27-.05.08-.02.17-.03.26-.05.08-.02.17-.03.26-.05.08-.02.16-.03.25-.05.08-.01.16-.03.25-.04.08-.02.15-.03.23-.05.07-.02.14-.03.22-.04.06 0 .12-.02.18-.03.05-.01.1-.02.14-.03h.05l.16-.03c.04-.01.09-.02.14-.03.04 0 .09 0 .13-.02.05 0 .1-.02.14-.03.04 0 .07-.01.11-.02.03 0 .07-.01.1-.02.03 0 .07-.01.1-.01.04 0 .07-.02.1-.02.04 0 .07-.02.11-.02.03-.01.05-.01.08-.02.03 0 .06-.01.09-.01s.06 0 .08-.02c.03 0 .06-.01.09-.01s.06 0 .09-.02c.03 0 .05-.01.08-.01.03-.01.06-.01.09-.02h.09s.06-.02.09-.02h.09c.03-.01.06-.02.09-.02s.06 0 .09-.02c.05-.01.1-.02.14-.02l.15-.03.15-.03c.21-.04.42-.08.63-.11.04-.01.07-.02.11-.02l.17-.03c.05 0 .1-.02.16-.02.04-.02.08-.02.13-.03h.1s.07-.02.1-.02c.04 0 .07-.02.11-.02.02-.01.03-.01.05-.01h.05s.07-.02.1-.02c.04-.01.07-.01.11-.02.03 0 .07 0 .1-.02.04 0 .07 0 .1-.02.04 0 .08 0 .12-.02.05 0 .09-.01.14-.02.04 0 .09 0 .13-.02l.14-.03c.07-.01.13-.02.19-.03.07-.01.13-.02.19-.03.09-.01.17-.03.25-.04.09-.02.17-.03.26-.04.08-.02.16-.03.25-.04.07-.02.15-.03.22-.04l.2-.03c.06-.01.12-.02.17-.03.06-.01.11-.01.16-.02.04 0 .09 0 .13-.02.05 0 .09 0 .12-.02h.11s.06-.01.08-.02h.1c.03 0 .05 0 .07-.01h.19l.54 3.44.75 4.1v-.07Zm8.04 46.97h-.05s-.08.02-.12.02c-.04 0-.09.02-.14.02l-.15.03c-.06 0-.12.01-.18.02-.06 0-.13.02-.19.03-.08.02-.15.03-.23.04-.08 0-.16.03-.25.04-.08 0-.16.03-.25.04-.08.02-.17.03-.25.04-.06 0-.13.02-.19.04l-.19.03c-.05.01-.1.01-.14.02-.05.01-.09.02-.14.02h-.04c-.03.01-.06.01-.09.01l-.12.03h-.1c-.03 0-.05.02-.08.02h-.03s-.07.02-.1.02c-.04 0-.07 0-.11.02-.03.01-.06.01-.1.02h-.1c-.03.01-.07.02-.1.02-.04 0-.07.02-.11.02-.04 0-.08.02-.13.02-.05.01-.1.02-.16.03-.05 0-.11.02-.16.03-.04 0-.08 0-.12.02-.21.04-.42.07-.62.11l-.15.03-.15.03c-.05 0-.1.01-.14.02-.03.01-.06.01-.09.02h-.09c-.02.01-.05.01-.07.02h-.02s-.06 0-.09.02h-.09c-.03 0-.06 0-.09.02h-.09c-.03 0-.06 0-.08.02h-.09c-.03.01-.06.01-.08.02h-.09c-.03.01-.06.02-.09.02s-.07 0-.1.02h-.1s-.06.02-.1.02c-.03 0-.07.02-.11.02-.03 0-.06.02-.1.02-.04.01-.09.02-.14.03l-.14.03c-.04 0-.09.01-.14.02-.05 0-.1.02-.15.03-.07.01-.13.02-.19.04-.06 0-.13.02-.19.03-.07 0-.14.03-.22.04-.07.01-.15.03-.23.04-.08.02-.16.03-.24.05-.09.02-.17.03-.26.05-.08.01-.17.03-.26.05-.08 0-.17.03-.26.05-.09 0-.18.03-.27.05-.09.02-.18.03-.27.05-.09.02-.19.04-.28.05l-.29.06-.3.06c-.12.02-.23.05-.34.07-.13.02-.26.05-.39.08-.13.02-.24.05-.36.07-.11.02-.21.04-.31.07-.08 0-.16.03-.24.05-.09.02-.17.03-.24.05-.22.05-.33.08-.33.1l-1.16-6.4c.83-.1 1.97-.42 3.25-1.34 2.64-1.9 2.91-2.3 2.71-5.89 0 0-.08-1.42 1.55.14 1.63 1.55 4.87 3.04 4.6 4.53-.15.85-.05 3.73 1.84 6.58v.1Z"/><path fill="#ED6912" d="M181.5 67.441c-3.41-22.25-22.43-38.01-42.48-35.19-20.05 2.81-33.54 23.14-30.12 45.39 3.41 22.26 22.43 38.02 42.48 35.2 20.05-2.82 33.54-23.14 30.12-45.4Zm-35.83 42.32c-.58.08-1.15.14-1.72.18-15.78-1.36-29.52-14.73-32.28-32.69-3.15-20.55 9.3-39.32 27.82-41.92.57-.08 1.13-.14 1.7-.19 15.79 1.35 29.55 14.73 32.3 32.69 3.16 20.56-9.3 39.33-27.82 41.93Z"/><path fill="#753002" d="m153.53 112.471-8.6 1.79c-.71.14-1.42.27-2.15.37-20.05 2.82-39.07-12.94-42.48-35.2-.36-2.32-.53-4.63-.53-6.89 0-.52.01-1.04.03-1.55v-.31c.02-.53.05-1.06.1-1.59.04-.51.08-1.01.14-1.51.02-.14.03-.29.05-.43.06-.48.13-.97.21-1.45.07-.47.15-.95.25-1.42.09-.48.19-.95.3-1.42.05-.24.1-.47.17-.7.01-.07.02-.13.04-.19a39.938 39.938 0 0 1 .75-2.63l.12-.36c.14-.44.3-.88.46-1.31.13-.37.28-.74.43-1.1.14-.36.29-.73.45-1.08a34.733 34.733 0 0 1 1.01-2.15c.02-.04.05-.09.07-.13.22-.44.45-.87.7-1.3.22-.41.46-.81.7-1.2.13-.22.26-.43.4-.64.22-.35.45-.7.68-1.04.28-.42.58-.83.88-1.23.29-.39.59-.78.89-1.16.08-.1.17-.21.26-.31.27-.33.54-.66.83-.98.28-.32.56-.63.85-.93.07-.08.14-.16.22-.23.38-.4.78-.79 1.18-1.16.34-.34.68-.65 1.04-.95.03-.04.06-.07.09-.08.34-.31.7-.61 1.06-.89.04-.04.07-.07.11-.09.8-.64 1.62-1.24 2.48-1.8.31-.21.62-.41.94-.59.19-.13.39-.25.59-.36 1.14-.67 2.31-1.27 3.53-1.79.22-.1.44-.19.66-.28.16-.08.32-.14.49-.2.44-.18.88-.34 1.33-.48.28-.11.56-.2.84-.28.57-.19 1.16-.36 1.75-.5.46-.12.94-.23 1.41-.33l8.6-1.79c-.48.1-.96.21-1.43.33-.14.03-.28.07-.41.11-.38.1-.75.2-1.12.32-.06 0-.11.03-.17.05-.49.15-.97.31-1.44.49h-.02c-.46.16-.92.34-1.37.54-.09.02-.19.06-.28.12-.37.14-.74.31-1.1.49-.06.02-.13.05-.19.09-.45.2-.88.42-1.31.65-.06.03-.12.06-.18.1-.41.22-.81.45-1.21.69-.45.26-.89.54-1.32.83-.39.25-.77.51-1.15.79-.11.07-.22.15-.33.24-.34.24-.67.5-.99.76-.05.03-.09.06-.13.11-.33.25-.66.53-.98.81-.06.04-.11.09-.17.15-.35.3-.7.62-1.04.94-.02.02-.05.04-.07.07-.37.35-.73.71-1.08 1.08-.08.08-.16.16-.23.24-.3.31-.58.62-.86.94-.35.39-.69.79-1.01 1.2-.03.03-.05.06-.07.08-.3.37-.58.73-.85 1.11-.04.04-.07.08-.1.13-.3.4-.59.81-.86 1.22-.27.39-.53.78-.77 1.18-.28.42-.53.85-.78 1.29-.15.26-.29.51-.44.78-.44.79-.85 1.61-1.23 2.45-.2.43-.39.86-.57 1.3-.01.02-.01.03-.02.05-.21.5-.41 1.01-.59 1.52a40.499 40.499 0 0 0-1.02 3.13c-.15.53-.29 1.07-.42 1.61-.12.46-.22.93-.31 1.4-.04.18-.08.36-.11.54-.08.39-.15.79-.21 1.18-.02.1-.03.2-.05.3-.06.44-.13.87-.18 1.31-.02.14-.03.28-.05.41-.06.51-.1 1.02-.14 1.53-.05.53-.08 1.06-.1 1.59-.01.11-.01.21-.01.31-.02.51-.03 1.03-.03 1.55 0 2.27.17 4.57.53 6.9 3.41 22.26 22.43 38.02 42.48 35.2.73-.1 1.44-.22 2.15-.37l.01.01Z"/><path fill="#753002" d="M111.93 43.031h.02c-.4.37-.8.76-1.18 1.16.38-.4.76-.78 1.16-1.16Zm0 0c.35-.33.7-.65 1.06-.95-.36.3-.7.61-1.04.95h-.02Zm2.32-2.01Z"/><path stroke="#0D200F" stroke-linecap="round" stroke-linejoin="round" stroke-width=".5" d="M181.5 67.441c-3.41-22.25-22.43-38.01-42.48-35.19-.84.12-1.67.27-2.49.45.11-.03.23-.06.34-.08l-8.6 1.79c-1.17.24-2.32.55-3.45.91-.74.24-1.48.51-2.2.8-1.09.43-2.14.92-3.16 1.47-.76.4-1.5.84-2.22 1.3-.61.39-1.22.8-1.81 1.23-.6.43-1.17.88-1.73 1.35-.31.24-.61.5-.9.77-.28.26-.56.51-.83.77h-.01c-.1.1-.2.2-.3.29-.1.09-.2.19-.3.29-.19.19-.39.39-.58.59-.08.07-.15.15-.22.23-.29.3-.57.61-.85.93-.29.32-.56.65-.83.98-.09.1-.18.21-.26.31-.3.38-.6.77-.89 1.16-.3.4-.6.81-.88 1.23-.23.34-.46.69-.68 1.04-.14.21-.27.42-.4.64-.24.39-.48.79-.7 1.2-.25.43-.48.86-.7 1.3-.02.04-.05.09-.07.13a34.733 34.733 0 0 0-1.01 2.15c-.16.35-.31.72-.45 1.08-.15.36-.3.73-.43 1.1-.16.43-.32.87-.46 1.31l-.12.36a39.938 39.938 0 0 0-.75 2.63c-.02.06-.03.12-.04.19-.07.23-.12.46-.17.7-.11.47-.21.94-.3 1.42-.1.47-.18.95-.25 1.42-.08.48-.15.97-.21 1.45-.02.14-.03.29-.05.43-.06.5-.1 1-.14 1.51-.05.53-.08 1.06-.1 1.59v.31c-.02.51-.03 1.03-.03 1.55 0 2.26.17 4.57.53 6.89 3.41 22.26 22.43 38.02 42.48 35.2.73-.1 1.44-.23 2.15-.37l8.6-1.79-.47.09c19.12-3.69 31.76-23.49 28.44-45.12l-.02.01Z"/><path fill="#C24F02" d="M150.91 109.761c-2.34.33-4.67.38-6.96.18.57-.04 1.14-.1 1.72-.18 18.52-2.6 30.98-21.37 27.82-41.93-2.75-17.96-16.51-31.34-32.3-32.69 17.88-1.52 34.48 12.77 37.54 32.69 3.15 20.56-9.31 39.33-27.82 41.93Z"/><path stroke="#0D200F" stroke-linecap="round" stroke-linejoin="round" stroke-width=".5" d="M159.1 153.051s-13.42-9.02-11.89-18.41l-4.15-4.51s-5.77-.18-8.3-3.7m10.95 25.54s.89 2.41 6.25 1.08 5.59-.14 5.59-.14"/><path fill="#BA855F" d="M166.16 115.161c.36 1.02-.97 1.45-2.61 2.03-1.64.58-4.94 1.13-5.3.1-.36-1.03 2.65-2.35 4.28-2.93 1.63-.58 3.26-.23 3.62.8h.01Z"/><path stroke="#0D200F" stroke-linecap="round" stroke-linejoin="round" stroke-width=".5" d="M143.41 115.491s4.89 1.6 9.02.86c4.13-.74 6.97 3.25 11.44.68"/><path stroke="#0D200F" stroke-linecap="round" stroke-linejoin="round" stroke-width=".5" d="M157.8 117.301s3.23-2.17 3.97-3.05"/><path fill="#89DEFF" d="M167.4 93.111c0 .78 0 1.55-.04 2.32-.43.67-.88 1.32-1.37 1.95-1 1.35-2.1 2.62-3.3 3.79-.34.35-.71.7-1.08 1.01-4.53 4.11-10.15 6.89-16.48 7.78-.03 0-.05.01-.08.01-.55.08-1.1.13-1.64.17-1.47-.13-2.92-.36-4.35-.68-6.79-1.57-13.02-5.37-17.9-10.74-3.97-4.35-7.04-9.73-8.81-15.81-.53-1.76-.93-3.59-1.22-5.46-1.45-9.48.41-18.58 4.67-25.89.95-1.64 2.03-3.2 3.22-4.64.56-.7 1.16-1.37 1.78-2.01 4.79-4.98 11.02-8.38 18.15-9.38.57-.08 1.13-.14 1.7-.19.54.05 1.09.11 1.62.18-.28-.45-.18-.42-.05-.57.28.11.53.36.77.69.59.08 1.17.19 1.74.33 3.94 4.17 7.44 8.75 10.45 13.67a79.72 79.72 0 0 1 3.41 6.15c.24.47.48.93.68 1.41 0 0 .02.03.02.04.29.59.57 1.2.85 1.8.05.12.1.23.16.35.6 1.38 1.17 2.77 1.7 4.19.09.24.18.48.26.73 3.33 8.98 5.13 18.67 5.13 28.8h.01Z"/><path fill="#1D94C2" d="M165.66 77.851c0 1.29-.13 2.57-.41 3.82-.53-.27 1.17 1.83-6.67-13.86-1.35-2.26-2.45-4-3.32-5.33a57.42 57.42 0 0 0-1.51-2.21c.15.15.32.29.49.44 0-.4 0-.45-.57-1.86.59.89 1.14 1.71 1.65 2.47 6.08 9.13 6.28 9.71 8.93 17.31.39-.14.32.24.5-2.94 0-3.3-1.19-7.65-2.48-11.38-.08-.25-.17-.49-.26-.73-.37-1.06-.75-2.05-1.11-2.94-.23-.47-.42-.89-.59-1.25a5.43 5.43 0 0 1-.16-.35c-.28-.6-.56-1.21-.85-1.8 0-.01-.01-.02-.02-.03 0 .06.92 2.3 1.27 3.91-.13-.25-1.14-2.25-1.26-2.42.18.54.39 1.07.63 1.6-1.31-2.39-3.83-5.94-3.53-6.24.76.32 2.24 3.16 2.63 3.16-.04-.33-.18-.81-.42-1.43-.19-.54-.47-1.19-.83-1.93v-.02c-1.95-4.05-6.17-10.8-12.83-17.83l-.19-.04c-.57-.14-1.15-.25-1.74-.33.48.63.93 1.54 1.59 2.15 1.33.68 3.73 3.85 2.28 1.78.1-.06 1.3.78 1.18 1.44.67.83 3.49 3.7 3.62 4.83-.58.16-1.66-1-3.28-3.48-.36-.83-5.1-3.99-5.25-5.55-.44-.65-.71-1.04-.86-1.29-.53-.07-1.08-.13-1.62-.18-.57.05-1.13.11-1.7.19-7.13 1-13.36 4.4-18.15 9.38.33.71.42 1.36.15 1.7-.3.39-1.04.39-1.93.31-1.19 1.44-2.27 3-3.22 4.64-.05.34-.1.68.04 1.02.11.41.66.35.8.73.19.53.06.77.36 1.38.21.1.43.14.65.14.22 0 .45-.04.66-.14 1.05-.69 1.41 1.18 2.29 1.28.33 0 .22-.77 1.27-.98 2.73 0 1.82-.56 2.18-1.05.13-.18.41-.07.53-.29.11-.22 0-.55 0-.83 0-.28.28-.34.32-.56.05-.22-.54-.51-.69-.93-.56-1.69 2.43-2.6 1.25-4.05-.42-.52-.28-.7-.09-.95.64-.85 1.5.44 2.26 0 .75-.44.07-1.64 1.05-1.78.05 0 9.96 4.91 8.81 6.39-.22.19-.46.36-.71.51-.58.32-.67-.19-.96 0-1.05.8 1.34 1.13 1.52 1.22 1.51.75.27-.45.18-1.19-.06-.52.24 0 .38-.17.15-.17-.13-1.05-.12-1.19.14-1.31-.66-.4-.95-1.7 0-.26-.11-.26.59-.19.25.1.69.67.63.31-.18-.91-2.1-.88-2.84-1.97-2.2-.1-5.69-3.51-4.47-4.07.4.2.53.68.91.9 0-.17-.05-.34 0-.5.62.62 1.91 1.92 2.96 1.97 3.25.9 2.77 2.1 4.41 3.73.14.06.28.13.41.22 1.6 1.84 1.65.88 1.65 1.42 0 .54.44.55.68.88.13.17.2.37.34.53.13.15.16-.08.27 0 .1.07.22.22.36.28.13.06 0-.15.09-.17.1-.02.19.13.26.13 0-.18-.58-.77-.69-1.05.09-.09.12.12.27.07.16-.05-.39-.4-.4-.71.21-.23.98.72.11-.76-.15-.26 0 0-1.17-.69-.86-1.13-.79-.82-1.05-1.19-.29-.58.42.08.69-.19-.35-.34-.57-.69-.1-.79.16-.45.53-.23 1.05 0 .51 1.37 2.71 2.78 3.15 4 .33-.07.26-.12.52.15.53-.15.85.58 1.33.23 0-.38-.23-.85-.11-.85.72.07 1.9 1.31 1.49-.45.16-.12.29-.27.39-.44.86.72 5.32 9.05 2.24 7.36-.73.43-.32.76-.77 1.29-6.04-2.3-6.42-.97-5.66.57 2.72 5.59-4.7-2.36-8.09-1.06-.96-.69-.68-5.17-1.6-3.96-1.16-.39-2.2.55-3.33.24-.28.17-.54.36-.78.57-3.29-.89-6.02 3.1-7.05 2.6-.53.11-1.06.16-1.59.16-.52-.11-1.05-1.41-1.6-.5-.38.66 0 1.47-.34 2.1-.35.63-1.52.93-1.88 1.79-.98 2.29.43 3.38-.44 4.72-.68 1.05-2.27.92-2.83 2.1-4.81 10.02-4.11 7.9-2.7 12.06.41.65.52 2.15.21 3.65 1.77 6.08 4.84 11.46 8.81 15.81 3.55 2.49 2.84 1.98 4.52 1.11 1.41-.68 2.99-.89 4.52-.6 2.64.59 8.31-5.96 9.77-.93.33 1.15.64 1.06 2.17.57.31-.1.65-.13.98-.07.32.06.63.21.89.41.26.21.46.48.59.79.02.05.03.09.04.14.09.27.12.55.09.83 0 0-.43 3.16-.45 3.26-.75 2.18-.08 3.78.77 5.74.03 0 .05-.01.08-.01 6.33-.89 11.95-3.67 16.48-7.77 0-.61.06-1.87.6-2.11.9-.83.32.74.75 0 .13-.17-.26.6-.26.66h.06c-.03.15-.05.3-.07.43 1.2-1.17 2.3-2.44 3.3-3.79.49-3.64.81-6.87.78-8.91.23-1.59-.91-11.02-1.11-10.62h-.02Zm-23.03-31.44-.03.02c-.12 0 0 .15-.12.19-.44.17-.67-.94-.22-.94.94-.02.87.64.37.73Zm2.6-2.58c-.13-.07-.18-.09-.21 0-.27.07-.3-.26-.51-.3-.22.19-.38-.13-.57-.2-.22.28-.68 0-.65.88.04.87.21.7.09.87-2.72.6-3-2.1-3.15-2.44-.16-.34-.93-1.24-.8-1.36.33-.24-.49-.74-.56-1.3 0 0-.89-1.54.15-.83.74.5.53-.26.91.19.15.24.05.45.22.68.17.24.49.11.67.29.19.18.27.43.5.56.23.12.1-.38 0-1.06l.23-.09a.998.998 0 0 0-.33-.43c-.13 0 0 .88-1.05-.37a1.127 1.127 0 0 1-.12-1.05c0-.16-.07-.29-.06-.45 0-.16.17-.27.16-.44.35.2.12.56.33.83 2.17 2.74 0 1.22 2.46 2.31 3.58 1.69 4.1 4 2.29 3.71Z"/><path fill="#0D200F" d="m167.04 95.001-.1.16c-.42.66-.86 1.3-1.34 1.91-.99 1.33-2.07 2.58-3.25 3.73h-.01c-.33.35-.69.69-1.04.99v.01c-4.46 4.04-9.98 6.77-16.19 7.65h-.1c-.52.08-1.04.13-1.56.17-1.19-.11-2.37-.28-3.53-.51 1.86-2.82 3.61-5.73 5.2-8.75 5.93-11.24 9.87-23.87 10.68-37.86l.06-1.15v-.01c.14-3.29.11-6.66-.1-10.11.53.91 1.04 1.82 1.54 2.75l.06.11a82.668 82.668 0 0 1 9.72 40.9l-.04.01Z" opacity=".3"/><path stroke="#0D200F" stroke-linecap="round" stroke-linejoin="round" stroke-width=".5" d="M167.4 93.111c0 .78 0 1.55-.04 2.32-.43.67-.88 1.32-1.37 1.95-1 1.35-2.1 2.62-3.3 3.79-.34.35-.71.7-1.08 1.01-4.53 4.11-10.15 6.89-16.48 7.78-.03 0-.05.01-.08.01-.55.08-1.1.13-1.64.17-1.47-.13-2.92-.36-4.35-.68-6.79-1.57-13.02-5.37-17.9-10.74-3.97-4.35-7.04-9.73-8.81-15.81-.53-1.76-.93-3.59-1.22-5.46-1.45-9.48.41-18.58 4.67-25.89.95-1.64 2.03-3.2 3.22-4.64.56-.7 1.16-1.37 1.78-2.01 4.79-4.98 11.02-8.38 18.15-9.38.57-.08 1.13-.14 1.7-.19.54.05 1.09.11 1.62.18l.72.12c.59.08 1.17.19 1.74.33 3.94 4.17 7.44 8.75 10.45 13.67a79.72 79.72 0 0 1 3.41 6.15c.24.47.48.93.68 1.41 0 0 .02.03.02.04.29.59.57 1.2.85 1.8.05.12.1.23.16.35.6 1.38 1.17 2.77 1.7 4.19.09.24.18.48.26.73 3.33 8.98 5.13 18.67 5.13 28.8h.01Z"/><path fill="#ED6912" d="M241.11 173.541s-4.51 32.08-36.45 34.24l-8.42-14.34c.47-.53 1.11-1.35 1.65-2.39 0-.01.01-.01.01-.01.6-.91 1.73-2.53 2.96-3.56 7.04-5.92 16.15-22.34 22.51-22.88 1.31-.11 2.05-.59 2.35-1.28l15.39 10.22Z"/><path fill="#FCFCFB" d="M223.37 164.601c-6.36.54-15.47 16.96-22.51 22.88-1.79 1.51-2.81 2.93-3.33 4.22-1.54 3.78 1.17 6.38 1.17 6.38s-3.79-.46-7.04-1.4-3.43-8.08-1.81-10.24c1.63-2.17 2.89-11.01 9.93-20.79 7.04-9.77 18.04-10.46 18.04-10.46 2.24-.17 4.99 1.76 6.63 3.92 1.87 2.45 2.31 5.2-1.08 5.49Z"/><path stroke="#0D200F" stroke-linecap="round" stroke-linejoin="round" stroke-width=".5" d="M241.1 173.531s-4.51 32.08-36.45 34.24l-7.52-12.8c.33 1.93 1.57 3.11 1.57 3.11s-3.79-.46-7.04-1.4-3.43-8.08-1.81-10.24c1.63-2.17 2.89-11.01 9.93-20.79 7.04-9.77 18.04-10.46 18.04-10.46 3.81-.29 9.08 5.47 7.9 8.13l15.38 10.21Z"/><path fill="#C24F02" d="M240.83 173.651c-.14.83-.89 4.93-3.05 9.98-5.69-.42-11.27-2.45-16.88-3.85-1.97-.49-4.03-.91-6.01-.46-4.97 1.13-7.25 6.94-11.5 9.73-.86.56-1.91 1.01-2.88.7-.46-.15-.83-.54-1.01-.99.39-.42.84-.85 1.36-1.28 7.04-5.92 16.15-22.34 22.51-22.88 1.16-.1 1.88-.49 2.23-1.06l15.23 10.11Z"/><path stroke="#0D200F" stroke-linecap="round" stroke-linejoin="round" stroke-width=".5" d="M225.6 163.541s-1.42 1.07-4.73 1.96c-3.31.89-4.1 4.73-7.7 7.54"/><path fill="#81B85C" d="M175.07 9.251c-.06.08-.11.17-.15.25-.14.23-.27.47-.37.71-.12.23-.22.48-.3.73-.1.26-.18.53-.25.81l-1.89 7.7-2.04 8.31c-.51 2.07-.2 4.14.72 5.87l-2.29-4.3a8.22 8.22 0 0 1-.81-5.46c.02-.14.06-.27.09-.41l3.94-16.01c.07-.28.15-.56.25-.82.04-.12.08-.23.14-.34l2.96 2.96Z"/><use xlink:href="#explore__a"/><path fill="#315716" d="M175.35 32.361s-.02.01-.03.02c0 0 .02-.02.03-.02Z"/><path fill="#0D200F" d="m194.34 14.121-.58 2.38c.65.26 1.22.59 1.7.97.87.7 1.44 1.5 1.74 2.42.29.93.31 1.91.05 2.97l-3.57-.83c.1-.41.08-.81-.06-1.21-.13-.39-.4-.75-.79-1.06-.38-.31-.86-.54-1.43-.67-.77-.18-1.41-.15-1.91.09-.51.23-.82.6-.94 1.08-.1.41-.04.76.2 1.05.22.29.68.59 1.38.89l2.38 1.04c1.02.44 1.81.92 2.37 1.44.57.54.92 1.15 1.09 1.83.17.69.14 1.47-.08 2.36-.22.89-.65 1.68-1.32 2.3-.66.63-1.53 1.04-2.56 1.24-.67.13-1.39.15-2.18.07l-.57 2.33-3.16-.73.59-2.39c-.61-.27-1.15-.59-1.62-.96-.88-.69-1.46-1.51-1.79-2.44-.32-.94-.35-1.91-.1-2.91l3.57.83c-.11.45-.08.87.08 1.27.16.39.45.74.85 1.02.4.29.9.5 1.5.64.92.21 1.62.22 2.17 0 .54-.21.88-.58 1-1.08.1-.43.02-.81-.26-1.19-.28-.36-.81-.71-1.58-1.05l-2.4-1.02c-.91-.4-1.62-.86-2.14-1.37-.53-.52-.88-1.1-1.03-1.75-.15-.65-.13-1.39.08-2.22.22-.91.66-1.68 1.31-2.3.65-.61 1.48-1.03 2.48-1.25a6.29 6.29 0 0 1 1.81-.13l.58-2.37 3.16.73-.02-.02Z"/><path stroke="#B4DB9C" stroke-linecap="round" stroke-linejoin="round" d="m200.82 9.501-16.61-4.01s-4.23-1.18-6.74.67-2.99 3.66-3.47 5.59l-2.22 9.03"/><path stroke="#0D200F" stroke-linecap="round" stroke-linejoin="round" stroke-width=".5" d="m211.23 20.391-3.93 16.01c-1.11 4.51-5.68 7.31-10.21 6.26l-4.51-1.05-7.85 6.96-.02-.05-2.26-4.26-2.29-5.53-3.71-.86c-2.45-.57-4.39-2.14-5.47-4.19l-2.29-4.3a8.259 8.259 0 0 1-.72-5.87l3.94-16.01c.07-.28.15-.56.25-.82.08-.23.17-.46.27-.68.1-.21.2-.41.32-.61.06-.12.13-.25.22-.37.07-.13.15-.25.24-.36.02-.05.06-.1.1-.14.11-.16.23-.32.36-.46a4 4 0 0 1 .4-.43c.06-.07.12-.13.18-.2.06-.06.13-.12.19-.17.22-.21.44-.39.68-.56.13-.1.26-.19.39-.27 0 0 .02-.02.03-.02.2-.13.4-.25.6-.36.2-.11.4-.21.6-.3.23-.1.47-.19.71-.27.07-.03.14-.05.21-.07.06-.02.12-.03.18-.04.04-.02.08-.03.12-.05.04 0 .09-.02.13-.03.22-.06.44-.11.66-.14 0-.01.02-.01.04-.01h.1c.1-.02.19-.03.29-.05.1 0 .2-.02.3-.03.17 0 .33-.02.49-.02.07 0 .13-.01.2-.01.32 0 .65.02.98.05.32.04.64.09.97.17l20.63 4.78c.16.04.31.08.46.12.51.15.99.34 1.44.57.19.09.36.19.53.3.18.1.35.22.52.34.6.42 1.13.91 1.58 1.46.13.15.24.3.35.46.03.03.05.06.07.09 0 .01.01.01.01.02.19.26.36.55.52.84l2.18 4.12c1 1.77 1.35 3.91.82 6.05v-.01Zm3.17-5.92s1.41 2.78.6 5.49m-46.8-12.24s.41-3.15 1.59-4.22"/><path fill="#0D200F" d="M143.36 46.851c.57-.29 1.38-.31 2.35.17l.15.09a8.93 8.93 0 0 1 3.04 3.1c.74 1.27 1.15 2.7 1.2 4.16-.02 1.32-.49 2.15-1.11 2.53-.62.38-1.55.41-2.68-.19a8.901 8.901 0 0 1-3.96-5.42l-.05-.18-.15-.11-3.56-2.48-.02-.02h-.02l-.05-.04 3.01.93.58.18.07-.6c.13-1.13.61-1.83 1.21-2.14l-.01.02Z" opacity=".3"/><path fill="#0D200F" d="m146.62 49.681-8.28-.94 8.36-1.73c.01.08.03.17.04.27.02.19.04.4.05.57v.12c0 .11.01.21.02.27v.09c0 .06-.01.14-.02.24-.02.19-.05.42-.08.64-.03.17-.06.33-.09.45v.02Z"/><path fill="#ED6912" stroke="#0D200F" stroke-linecap="round" stroke-linejoin="round" stroke-width=".5" d="M147.75 52.861c1.29 0 2.52-.51 3.43-1.42.91-.91 1.42-2.14 1.42-3.43s-.51-2.52-1.42-3.43a4.843 4.843 0 0 0-3.43-1.42c-1.29 0-2.52.51-3.43 1.42-.91.91-1.42 2.14-1.42 3.43s.51 2.52 1.42 3.43c.91.91 2.14 1.42 3.43 1.42Z"/><path fill="#FAF6E3" d="M149.36 47.261c.35 0 .68-.14.92-.38s.38-.58.38-.92c0-.34-.14-.68-.38-.92s-.58-.38-.92-.38c-.34 0-.68.14-.92.38s-.38.58-.38.92c0 .34.14.68.38.92s.58.38.92.38Z"/><path fill="#E4F5D8" d="m154.87 76.251-10.24-5.57-1.85-6.62 10.24 5.57 1.85 6.62Z"/><path fill="#708470" d="m154.87 76.251-7.33 4.42-9.39-5.6 6.47-4.4 10.24 5.57.01.01Zm-2.65 4.85-4.58 2.76-2.29-1.24 4.58-2.77 2.29 1.24v.01Z"/><path fill="#E4F5D8" d="m152.22 81.101-2.29-1.24.08 3.37-7.95-4.33-.15-6.65 10.24 5.57.07 3.28Z"/><path fill="#B8CCC0" d="m150.01 83.231-4.58 2.76-7.95-4.33 4.58-2.76 7.95 4.33Z"/><path fill="#FAF6E3" d="m142.06 78.901-.15-6.58 2.72-1.64-1.85-6.62-5.64 3.4c1.22 4.57 1.45 9.28.34 14.2l4.58-2.76Z"/><path fill="#ED6912" d="m155.89 78.321-11.6-6.31-2.93-9.78 11.6 6.31 2.93 9.78Z"/><path fill="#708470" d="m141.67 64.721-1.46.89 2.15 6.49 1.31-.8-2-6.59v.01Z" opacity=".4"/><path stroke="#0D200F" stroke-linecap="round" stroke-linejoin="round" stroke-width=".5" d="m141.67 64.721 2.25 7.51 9.26 5.04"/><path fill="#ED6912" d="m152.77 81.461-2.29-1.24-.58 4.42-9.08-4.94.51-7.7 11.37 6.19.07 3.28v-.01Z"/><path stroke="#0D200F" stroke-miterlimit="10" stroke-width=".5" d="M137.48 81.691c1.15-5.29.92-9.97-.34-14.2l4.54-2.74-.68-2.28.37-.22 11.6 6.31 2.93 9.78-.37.22-2.34-1.28-1.02.61.53.29.07 3.28-.37.22-.6-.33-1.6.97-.3 2.31v.04l-.37.22-1.17-.64-2.93 1.77-7.95-4.33Zm0 0h.01"/><path stroke="#0D200F" stroke-linecap="round" stroke-linejoin="round" stroke-width=".5" d="m152.17 77.881-10.84-5.9-.37.22-.51 7.7 7.91 4.3"/><path fill="#0D200F" d="m140.94 66.871-3.29 1.99-.02-1.07 3.29-1.99.02 1.07Zm.07 1.6-3.29 1.99-.02-1.07 3.29-1.99.02 1.07Zm-.98 7.81-1.79 1.14-.02-1.07 1.79-1.14.02 1.07Z"/><path fill="#E5F8FF" d="M145.67 109.761c-.58.08-1.15.14-1.72.18-15.78-1.36-29.52-14.73-32.28-32.69-3.15-20.55 9.3-39.32 27.82-41.92.57-.08 1.13-.14 1.7-.19 15.79 1.35 29.55 14.73 32.3 32.69 3.16 20.56-9.3 39.33-27.82 41.93Z" opacity=".5"/><path fill="#ED6912" stroke="#0D200F" stroke-linecap="round" stroke-linejoin="round" stroke-width=".5" d="M120.68 196.901v6.87c0 5.77-3.81 11.53-11.39 15.94-15.25 8.86-40.06 8.86-55.41 0-7.73-4.46-11.59-10.32-11.58-16.17v-6.86c0 5.84 3.85 11.7 11.58 16.16 15.35 8.87 40.15 8.87 55.41 0 7.58-4.4 11.38-10.17 11.39-15.94Z"/><path fill="#0D200F" d="M120.13 208.431c-.36 2.34-3.67 5.69-5.26 7.18-.47-1.35-1.8-2.6-5.11-2.76-3.44 2.21-34.6.96-40.36-4.6-5.78-5.57-7.73-12.65-6.45-19.06.83-4.16 3.03-8.06 6.46-11.06 3.97.69 8.05 1.04 12.21 1.04 7.8 0 15.3-1.24 22.33-3.55.48.19.97.38 1.47.59 1.61.7 3.54 1.99 5.18 3.22 1.63 1.22 2.95 2.35 3.34 2.69 2.88 2.56 4.26 5.7 4.88 8.59.08.37.14.73.2 1.09l.14-.1c.37 1.13.96 3.1 1.34 5.23l-.03.9.25.7c.04.31.07.62.09.93.26 4.15-.2 5.88-.68 8.97Z" opacity=".3"/></svg>