<svg xmlns="http://www.w3.org/2000/svg" xmlns:xlink="http://www.w3.org/1999/xlink" fill="none" viewBox="0 0 249 234"><defs><path id="ask-kayak__a" fill="#ED6912" d="M145.02 144.43s-.03 0-.04-.01h.04v.01Z"/></defs><path fill="#0D200F" d="M248.74 147.55v.17c0 .02 0 .05-.02.07v.08c0 .02 0 .04-.02.05v.02c0 .03-.01.06-.03.08 0 .03-.01.06-.03.08 0 .03-.02.06-.04.08 0 .03-.02.05-.04.08-.01 0-.02.02-.02.03 0 .02-.03.03-.03.04-.02.03-.04.05-.06.07-.01 0-.01.02-.02.03-.02.01-.03.01-.03.02v.02c-.01.02-.04.05-.07.07-.02.02-.05.04-.08.06 0 .01 0 .02-.02.02-.01.02-.03.03-.05.04-.04.02-.06.04-.1.06-.02.02-.04.03-.07.05l-18.65 11.13-5.84-.45c-.65 4.29-3.45 8.67-8.57 12.89-7.48 6.15-18.87 11.11-32.3 14.58.55 2.24-.44 4.33-2.84 6.18l-4.11 3.36-.07.06c-.08.06-.17.13-.27.19-.13.1-.27.2-.41.29-.3.21-.62.42-.97.62-.13.08-.28.16-.42.24-.05.03-.11.06-.17.09h-.02c-.25.14-.51.28-.77.4-.22.11-.45.22-.67.33-.11.05-.23.1-.33.15-.18.07-.34.14-.51.21a9 9 0 0 1-.55.22c-.03.02-.05.03-.07.03-1.06.43-2.21.82-3.47 1.19-.25.08-.51.15-.77.22-.3.09-.63.17-.95.26-.31.08-.65.17-.98.25-.13.03-.28.07-.42.1l-6.01 6.2c-.06.05-.15.11-.21.17l-.06.05c-.11.09-.23.17-.35.25-10.03 13.48-32.91 22.9-59.52 22.9-35.86 0-64.94-17.1-64.94-38.19 0-12.86 10.82-24.24 27.4-31.16.26-4.7 3.08-9.52 8.71-14.15 20.28-16.68 69.43-24.62 109.75-17.73 4.85.83 9.36 1.84 13.49 2.99l10.52-6.28c.62-.37 1.48-.51 2.4-.44.06 0 .11 0 .15.02.05 0 .1.01.15.01l8.6.65c.12 0 .25.03.37.05h.03c.09.01.19.03.29.05.07.01.13.02.19.03 0 0 .03.01.04.01h.02c.08.02.15.03.22.05h.01l.15.05c.06.02.12.04.19.06l.07.02.09.03c.02 0 .05.02.07.03.03 0 .05.02.08.03.05.02.11.04.15.06h.01s.08.03.12.05c.05.02.09.04.13.06.05.02.1.05.13.07.03.01.05.02.08.03a1.78 1.78 0 0 0 .18.1c.03 0 .04.02.05.03.03 0 .05.03.06.03l30.64 18.26s.02 0 .03.02c.01.02.02 0 .03.02.02 0 .04.02.05.03l.03.02s.09.06.13.08l.12.09c.04.02.07.05.11.08.04.04.08.07.11.1.04.03.08.06.11.09l.09.09s.07.06.09.09l.06.07.03.03s.05.06.07.09c.02.03.04.06.07.09.01 0 .01.03.02.04l.03.06c.03.03.06.07.07.1.03.07.05.13.07.18.04.08.06.15.07.22.02.05.03.1.04.15.01.03 0 .05.01.08-.01 0-.01 0-.01.02h.01l-.03.01Z"/><path fill="#C24F02" stroke="#0D200F" stroke-miterlimit="10" stroke-width=".5" d="M32.76 209.63a5.07 5.07 0 1 0 0-10.14 5.07 5.07 0 0 0 0 10.14Zm46.83 24.03a5.07 5.07 0 1 0 0-10.14 5.07 5.07 0 0 0 0 10.14Zm66.87-23.57a5.07 5.07 0 1 0 0-10.14 5.07 5.07 0 0 0 0 10.14Z"/><path fill="#ED6912" d="M145.02 144.44s-.03-.01-.04-.02h.04v.02Z"/><use xlink:href="#ask-kayak__a"/><use xlink:href="#ask-kayak__a"/><path fill="#ED6912" d="M152.81 156.52v-.05c.29-9.58-5.91-19.22-18.58-26.54-24.68-14.25-64.57-14.25-89.09 0-12.24 7.11-18.34 16.43-18.31 25.76 0-.03-.01-.06-.01-.09-1.05 8.18.73 15.27 4.56 21.23l-1.47 15.12c-.02 8.88 5.85 17.79 17.61 24.58.73.42 1.48.83 2.23 1.23.67.36 1.35.7 2.05 1.02.44.22.9.43 1.35.62.59.28 1.2.55 1.82.79.38.16.76.32 1.15.46.21.08.42.16.63.25.1.03.2.08.3.11.78.3 1.57.59 2.36.85.82.28 1.65.55 2.48.79.09.03.18.07.28.09.4.12.79.24 1.19.34.38.12.76.22 1.15.33.69.18 1.38.35 2.09.52.35.08.69.17 1.03.25.65.15 1.3.3 1.95.43l.6.12c.85.16 1.71.33 2.57.47.78.14 1.58.27 2.36.38.13.03.26.04.38.06.15.03.31.05.46.07.68.08 1.37.17 2.05.25.24.04.49.06.73.08.81.1 1.62.17 2.44.24.03 0 .08.01.11.01.87.07 1.76.14 2.64.18.1.01.2.01.3.02.88.04 1.77.08 2.65.1.1.01.19.01.29 0 .76.03 1.52.04 2.28.04h.35c1.16 0 2.31-.03 3.47-.07.73-.02 1.46-.06 2.19-.09.95-.06 1.89-.12 2.84-.2.53-.04 1.06-.09 1.59-.15.35-.02.69-.07 1.02-.1.13-.01.26-.02.38-.04.82-.09 1.62-.19 2.43-.3l.25-.03c.92-.14 1.83-.29 2.75-.44.26-.04.52-.08.78-.14.49-.07.98-.16 1.45-.26.31-.06.61-.12.91-.19.64-.13 1.28-.27 1.91-.42.21-.04.43-.08.64-.14.82-.19 1.62-.4 2.43-.62.87-.23 1.73-.48 2.58-.74.01 0 .02-.01.03-.01.46-.13.9-.28 1.34-.43.35-.1.69-.21 1.02-.33.1-.03.21-.07.31-.1.71-.24 1.4-.49 2.08-.75.03 0 .04-.01.06-.02.29-.11.57-.22.86-.34.54-.2 1.08-.42 1.62-.66.14-.04.27-.09.39-.15.57-.23 1.12-.49 1.66-.74.14-.06.29-.13.43-.2.26-.13.53-.26.79-.39a31.885 31.885 0 0 0 1.85-.94 38.122 38.122 0 0 0 2.73-1.54c.11-.06.22-.12.33-.2a44.913 44.913 0 0 0 4.81-3.33c.55-.43 1.08-.87 1.59-1.31.03-.03.08-.07.11-.1.24-.21.48-.42.71-.65.52-.47 1.02-.95 1.49-1.45.19-.19.36-.36.53-.55.29-.31.58-.63.84-.95.3-.34.58-.68.84-1.02.79-1 1.49-2.02 2.1-3.05.11-.18.21-.35.31-.53.03-.03.05-.08.07-.11.29-.52.56-1.04.81-1.56.27-.56.5-1.14.71-1.7.3-.78.54-1.58.74-2.37.09-.34.16-.7.23-1.05a12.143 12.143 0 0 0 .23-1.43c.04-.22.06-.44.08-.66.05-.42.07-.84.08-1.26v-.12c0-.14.01-.28.01-.4l-1.3-14.93c3.8-5.83 5.68-12.78 4.91-20.85Z"/><path stroke="#0D200F" stroke-miterlimit="10" stroke-width=".5" d="M134.23 129.93c-24.68-14.25-64.57-14.25-89.09 0-12.21 7.09-18.31 16.37-18.31 25.67l-.02 8.11c-.01 4.68 1.51 9.35 4.59 13.76l-1.41 14.49c-.03 8.89 5.85 17.79 17.6 24.58.73.42 1.48.83 2.23 1.23.67.35 1.36.69 2.05 1.01.45.22.9.43 1.35.62.6.29 1.2.55 1.82.8.38.16.76.32 1.15.46.21.09.42.17.63.25.1.04.2.08.3.11.78.3 1.56.59 2.36.85.83.29 1.65.56 2.48.8.09.03.18.06.28.09.4.12.79.24 1.19.34.38.12.76.22 1.15.33.68.18 1.38.35 2.09.52.34.09.68.18 1.02.25.65.16 1.3.3 1.96.43.19.05.39.08.59.12.85.17 1.71.34 2.57.48.79.13 1.58.26 2.37.37.12.03.25.04.37.06.16.02.31.04.46.07.69.08 1.37.17 2.06.25.24.03.48.06.73.08.8.1 1.62.17 2.44.24h.11c.87.07 1.75.13 2.63.18.1.01.2.01.3.02.89.04 1.77.08 2.65.1h.29c.76.03 1.52.04 2.28.04h.36c1.16 0 2.3-.02 3.46-.06.73-.02 1.46-.06 2.19-.09.95-.06 1.89-.12 2.83-.2.53-.04 1.06-.1 1.59-.15.35-.03.69-.07 1.02-.1.12-.01.25-.03.37-.05.82-.09 1.63-.19 2.43-.3.09 0 .18-.02.26-.03.91-.14 1.83-.29 2.75-.44.26-.04.51-.09.78-.14.49-.08.97-.17 1.45-.27.3-.05.6-.12.9-.19.64-.13 1.28-.26 1.91-.42.21-.04.43-.08.64-.14.82-.19 1.62-.4 2.43-.62.87-.23 1.73-.47 2.58-.74h.03c.46-.13.9-.27 1.34-.43.34-.1.68-.21 1.02-.33.1-.03.21-.07.31-.1.7-.24 1.39-.48 2.07-.75.02 0 .03 0 .06-.02.28-.11.57-.22.86-.34.54-.2 1.08-.42 1.62-.67.13-.04.26-.1.39-.15.56-.23 1.11-.49 1.65-.74.14-.06.29-.13.43-.2.27-.12.53-.25.8-.39.44-.21.88-.41 1.31-.65.19-.1.36-.18.54-.28a47.27 47.27 0 0 0 2.73-1.55c.11-.05.22-.12.33-.2a44.913 44.913 0 0 0 4.81-3.33c.55-.43 1.08-.87 1.59-1.31.03-.04.08-.07.11-.1.23-.21.48-.42.71-.66.52-.46 1.01-.94 1.49-1.44.19-.19.36-.37.53-.55.28-.31.57-.63.84-.95.29-.33.57-.68.84-1.02.78-.99 1.49-2.02 2.09-3.04.11-.18.21-.36.31-.53.02-.04.05-.08.07-.11.28-.52.55-1.04.8-1.56.27-.56.5-1.14.71-1.7.3-.78.54-1.58.74-2.37.09-.35.17-.7.23-1.05.05-.19.08-.38.11-.57.06-.28.09-.58.12-.87.04-.22.06-.44.08-.66.04-.42.07-.84.08-1.26v-.12c0-.13.01-.28.01-.4l-1.25-14.26c.09-.11.17-.23.25-.34.19-.27.38-.55.55-.82.18-.28.36-.55.52-.83a23.806 23.806 0 0 0 2.06-4.21c0-.02.02-.05.03-.08.08-.21.16-.42.23-.63.07-.19.13-.39.2-.59.04-.13.08-.27.12-.41.08-.28.16-.57.23-.86.09-.34.17-.69.24-1.04v-.03c.02-.08.04-.16.05-.24.04-.2.08-.41.11-.61.08-.51.14-1.03.18-1.54.02-.24.04-.47.05-.71 0-.16.02-.32.02-.48v-.13l.02-8.02c.28-9.58-5.92-19.23-18.59-26.54Z"/><path fill="#753002" d="M123.83 134.44c19.44 9.37 19.41 20.01.23 29.62-28.16 14.11-48.9 11.34-70.19 0-19.02-10.14-19.55-20.25-.23-29.62 19.32-9.37 50.74-9.37 70.19 0Z" opacity=".3"/><path fill="#753002" d="M149.21 192.3c0 .12-.01.27-.01.4v.12c0 .22-.02.43-.03.65-.12.1-.25.2-.37.3-.28.23-.57.45-.87.67-.14.11-.29.22-.44.33-.28.2-.57.41-.86.61-.34.25-.69.49-1.05.72-.36.24-.72.48-1.09.71-.37.24-.75.47-1.13.7-.25.16-.51.31-.77.46-1.7.99-3.47 1.9-5.3 2.75-.35.17-.71.33-1.07.48-.33.15-.67.3-1.01.44-.39.17-.78.33-1.18.49-.43.18-.86.35-1.3.51-.43.17-.87.33-1.31.49-.44.16-.89.32-1.33.47-.43.15-.86.3-1.3.43-.96.32-1.93.62-2.91.89-.83.24-1.67.47-2.52.68-.16.05-.33.09-.49.12-.48.13-.96.24-1.44.35-1.3.3-2.61.58-3.94.82-.21.04-.42.08-.63.11-.28.06-.55.11-.82.15-.97.17-1.96.33-2.94.46-.49.07-.98.14-1.48.2-.42.06-.83.11-1.25.15-.52.06-1.03.12-1.55.17-1.74.17-3.5.3-5.26.39-.57.03-1.15.05-1.72.07-.61.02-1.23.04-1.85.05-.59 0-1.18.02-1.78.02H96.6c-.41 0-.81-.02-1.22-.03-1.03-.03-2.07-.07-3.1-.12-1.04-.05-2.07-.13-3.1-.21h-.12c-.99-.08-1.97-.18-2.96-.29l-1.53-.18c-.51-.06-1.01-.13-1.52-.21-.24-.03-.47-.06-.71-.1-.29-.04-.58-.08-.86-.13-.93-.14-1.86-.3-2.78-.48-.43-.08-.85-.16-1.28-.25l-.61-.12c-.56-.11-1.11-.23-1.67-.36-.52-.12-1.05-.24-1.57-.37-1.12-.27-2.23-.57-3.33-.88-.52-.15-1.04-.3-1.56-.46-.4-.12-.8-.25-1.19-.38-.48-.15-.95-.3-1.42-.47-.9-.3-1.79-.62-2.66-.96-.28-.1-.55-.21-.82-.32-.11-.04-.22-.08-.33-.13-.06-.01-.11-.04-.16-.06-.64-.25-1.26-.52-1.88-.79-.65-.28-1.29-.57-1.92-.87-.23-.11-.46-.21-.68-.32-.36-.17-.71-.35-1.06-.53-.23-.12-.47-.24-.7-.36-.08-.04-.15-.07-.22-.12-.73-.37-1.44-.77-2.14-1.17-6.24-3.6-10.91-7.77-14.02-12.22 1.79 1.37 3.76 2.69 5.93 3.94.7.4 1.41.8 2.14 1.17.07.05.14.08.22.12.23.12.47.24.7.36.35.18.7.36 1.06.53.22.11.45.21.68.32.63.3 1.27.59 1.92.87.62.27 1.24.54 1.88.79.05.02.1.05.16.06.11.05.22.09.33.13.27.11.54.22.82.32.87.34 1.76.66 2.66.96.47.17.94.32 1.42.47.39.13.79.26 1.19.38.52.16 1.04.31 1.56.46 1.1.31 2.21.61 3.33.88.52.13 1.05.25 1.57.37.56.13 1.11.25 1.67.36l.61.12c.43.09.85.17 1.28.25.92.18 1.85.34 2.78.48.28.05.57.09.86.13.24.04.47.07.71.1.51.08 1.01.15 1.52.21l1.53.18c.99.11 1.97.21 2.96.29h.12c1.03.08 2.06.16 3.1.21 1.03.05 2.07.09 3.1.12.41 0 .81.02 1.22.03h1.61c.6 0 1.19 0 1.78-.02.13 0 .26 0 .39-.01h.01c.49 0 .97-.02 1.45-.04.57-.02 1.15-.04 1.72-.07 1.76-.09 3.52-.22 5.26-.39.52-.05 1.03-.11 1.55-.17.42-.04.83-.09 1.25-.15.5-.06.99-.13 1.48-.2.98-.13 1.97-.29 2.94-.46.27-.04.54-.09.82-.15.21-.03.42-.07.63-.11 1.33-.24 2.64-.52 3.94-.82.48-.11.96-.22 1.44-.35.16-.03.33-.07.49-.12.85-.21 1.69-.44 2.52-.68a69.905 69.905 0 0 0 4.21-1.32c.44-.15.89-.31 1.33-.47.44-.16.88-.32 1.31-.49.44-.16.87-.33 1.3-.51.4-.16.79-.32 1.18-.49.34-.14.68-.29 1.01-.44.36-.15.72-.31 1.07-.48 1.83-.85 3.6-1.76 5.3-2.75.26-.15.52-.3.77-.46.38-.23.76-.46 1.13-.7.37-.23.73-.47 1.09-.71.36-.23.71-.47 1.05-.72.29-.2.58-.41.86-.61.15-.11.3-.22.44-.33.3-.22.59-.44.87-.67.62-.49 1.22-.98 1.79-1.49.25-.22.51-.45.75-.69.21-.18.41-.37.61-.57.42-.39.82-.79 1.19-1.2.2-.21.4-.42.59-.63.24-.26.47-.52.69-.79.24-.27.46-.53.67-.8.05-.07.11-.14.16-.21a24.01 24.01 0 0 0 .8-1.07l.68 7.72.57 6.54Z"/><path stroke="#FFBD90" stroke-linecap="round" stroke-linejoin="round" d="M138.99 178.38s-31.22 22.09-71.96 11.58c-46.94-12.11-39.34-37.38-39.34-37.38m13.89 34.02c-7.87-5.43-10-10.25-10-10.25"/><path fill="#C24F02" d="M121.47 137.53c18.65 9.84 18.75 25.8.22 35.64s-48.67 9.84-67.32 0c-18.65-9.84-18.75-25.8-.22-35.64s48.67-9.84 67.32 0Z"/><path fill="#708470" d="m133.62 97.03-5.98 15.9-22.81 3.91 5.98-15.9 22.81-3.91Zm1.84 10.82-3.74 9.93-5.09.88 3.73-9.94 5.09-.87h.01Z"/><path fill="#B8CCC0" d="m134.62 113.88-3.74 9.94-17.71 3.03 3.74-9.94 17.71-3.03Z"/><path fill="#FAF6E3" d="m116.91 116.91-8.32-10.07 2.22-5.91-11.02-8.03-4.61 12.24 9.66 11.69.02-.06 8.31 10.07 3.74-9.94v.01Z"/><path fill="#708470" d="m137.75 99.01-25.84 4.43-16.59-11.65 25.84-4.43L137.75 99v.01Z"/><path fill="#B8CCC0" d="m137.75 99.02-.3.79-25.84 4.43.01-.01-16.59-11.64.3-.8 16.59 11.65v.01l25.83-4.43Z"/><path fill="#708470" d="m98.89 95.3-1.18 3.18 11.32 7.48 1.07-2.86-11.21-7.8Z" opacity=".4"/><path stroke="#0D200F" stroke-miterlimit="10" stroke-width=".5" d="m98.89 95.3 12.73 8.94 20.62-3.53"/><path fill="#B8CCC0" d="m136.75 107.73-.3.79-5.09.87.3-.79 5.09-.87Z"/><path fill="#708470" d="m136.75 107.73-5.09.87 4.53 7.6-20.22 3.46-8.68-12.63 25.32-4.34 4.15 5.02v.02h-.01Z"/><path fill="#B8CCC0" d="m136.18 116.21-.3.79-20.22 3.46-8.68-12.63.3-.79 8.68 12.63 20.22-3.46Z"/><path stroke="#0D200F" stroke-miterlimit="10" stroke-width=".5" d="m113.18 126.88-8.28-10.01h-.06l-9.66-11.69 3.71-9.85-3.86-2.71.3-.8 25.84-4.43 16.59 11.64-.3.8-5.22.89-.83 2.2 1.19-.2 4.15 5.02-.3.79-1.33.23-1.31 3.47 2.37 3.98v.03l-.29.79-2.61.45-2.39 6.37-17.71 3.03Zm0 0v-.03"/><path stroke="#0D200F" stroke-miterlimit="10" stroke-width=".5" d="m131.41 102.91-24.13 4.13-.3.79 8.68 12.63 17.62-3.02"/><path fill="#0D200F" stroke="#0D200F" d="m96.92 104.97 2.28-6.06.61.74-2.28 6.07-.61-.74v-.01Zm2.06 2.39 2.27-6.06.62.75-2.28 6.05-.62-.74h.01Zm10.59 6.63.61.74-1.75 4.67-.62-.74 1.76-4.67Z"/><path stroke="#0D200F" stroke-miterlimit="10" stroke-width=".5" d="M88.91 175.66c39.76 0 72-32.24 72-72s-32.23-72-72-72-72 32.24-72 72 32.24 72 72 72Z"/><path fill="#B8CCC0" stroke="#0D200F" stroke-linecap="round" stroke-linejoin="round" stroke-width=".5" d="M75.06 44.61a.75.75 0 0 1 .68-.11c.1.04.16.1.17.17l1.29 7.79c.01.07-.02.15-.11.22-.02.02-.04.03-.06.04h-.01s-.03.02-.04.02h-.04s-.03.01-.05.02h-.35s-.07 0-.1-.03h-.03c-.01 0-.03-.01-.04-.02-.01 0-.02-.02-.04-.03h-.01s-.01-.03-.02-.03v-.05l-1.29-7.8v.03c-.03-.08 0-.17.1-.25l-.06.04.01-.01Z"/><path fill="#708470" stroke="#0D200F" stroke-linecap="round" stroke-linejoin="round" stroke-width=".5" d="m83.52 80.12-.41-.16-.1-.03h-.21s-.04.01-.06.02h-.05s-.03.01-.05.02h-.05s-.03.01-.05.02c-.01 0-.02 0-.03.02-.02 0-.03.02-.05.03-.01 0-.03.02-.05.03 0 0-.02.01-.03.02-.02.01-.03.02-.05.03-.01 0-.02.02-.04.03h-.01s-.03.03-.05.04c-.02.01-.03.03-.05.04l-.03.03-.05.05s-.01 0-.02.02h-.01s-.01.02-.02.03c-.02.02-.03.04-.05.06 0 0-.02.02-.02.03h-.01s0 .02-.01.03c-.01.02-.03.04-.04.06 0 .01-.02.03-.03.04v.02s-.03.04-.04.06c-.01.02-.03.04-.04.06 0 0-.03.04-.04.07a.3.3 0 0 0-.04.08l-.06.12s-.02.07-.04.1c0 .02-.02.04-.02.06 0 0 0 .03-.01.05 0 .02-.02.05-.03.07 0 .02-.01.04-.02.06v.02s-.01.05-.02.07c0 .02-.01.04-.02.06 0 .02 0 .03-.01.05 0 .02 0 .04-.02.06v.06s0 .04-.01.07c0 .02 0 .04-.01.07v.67s.02.04.02.06v.06s0 .04.02.06v.05l.03.06v.04s.01.02.02.03c0 .02.02.04.03.05 0 0 .04.07.06.09a.812.812 0 0 0 .13.11c.04.02.08.05.12.06l.41.16c.25.1.56.03.88-.23.62-.51 1.02-1.56.89-2.35-.06-.39-.25-.65-.5-.74l-.05.15Zm-11.39-4.79-.41-.16-.1-.03h-.21s-.04 0-.06.02h-.05s-.03.01-.05.02h-.05s-.03.01-.05.02c-.01 0-.02.01-.03.02-.02 0-.03.02-.05.03-.01 0-.03.02-.05.03 0 0-.02 0-.03.02-.02.01-.03.02-.05.03-.01 0-.02.02-.04.03h-.01s-.03.03-.05.04c-.02.01-.03.03-.05.04l-.03.03-.05.05-.02.02h-.01s-.01.02-.02.03c-.02.02-.03.04-.05.06 0 0-.02.02-.02.03 0 0 0 .02-.01.03-.01.02-.03.04-.04.06-.01.01-.02.03-.03.04v.02s-.03.04-.04.06c-.01.02-.03.04-.04.06 0 0-.03.04-.04.07a.3.3 0 0 0-.04.08l-.06.12s-.02.07-.04.1c0 .02-.02.04-.02.06 0 0 0 .03-.01.05 0 .02-.02.05-.03.07 0 .02-.01.04-.02.06v.02s-.01.05-.02.07c0 .02-.01.04-.02.06 0 .02 0 .03-.01.05 0 .02 0 .04-.01.06v.06s0 .04-.01.07v.74s.02.04.02.06v.06s.01.04.02.06v.05l.03.06V78s.01.02.02.03c.01.02.02.04.03.05 0 0 .04.07.06.09a.812.812 0 0 0 .13.11c.04.02.08.05.12.06l.41.16c.25.1.56.03.88-.23.62-.51 1.02-1.56.89-2.35-.06-.39-.25-.65-.5-.74l-.06.15h-.02Zm21.47-3.77-.41-.16-.1-.03h-.21s-.04.01-.06.02h-.05s-.03 0-.05.02h-.05s-.03.01-.05.02c-.01 0-.02.01-.03.02-.02 0-.03.02-.05.03-.01 0-.03.02-.05.03 0 0-.02.01-.03.02-.02 0-.03.02-.05.03-.01 0-.02.02-.04.03h-.01s-.03.03-.05.04c-.02.01-.03.03-.05.04-.01 0-.02.02-.03.03l-.05.05-.02.02h-.01s-.01.02-.02.03c-.02.02-.03.04-.05.06 0 0-.02.02-.02.03 0 0 0 .02-.01.03-.01.02-.03.04-.04.06-.01.01-.02.03-.03.04v.02s-.03.04-.04.06c-.01.02-.03.04-.04.06 0 0-.03.04-.04.07a.3.3 0 0 0-.04.08l-.06.12s-.02.07-.04.1c0 .02-.02.04-.02.06 0 0 0 .03-.01.05 0 .02-.02.05-.03.07 0 .02-.01.04-.02.06v.02s0 .05-.02.07c0 .02-.01.04-.02.06v.05c0 .02 0 .04-.01.06v.06s0 .04-.01.07v.74s.02.04.02.06v.06s.01.04.02.06v.05l.03.06v.04s0 .02.02.03c.01.02.02.04.03.05 0 0 .04.07.06.09.03.03.07.07.1.09 0 0 .02 0 .03.02.04.02.08.05.12.06l.41.16c.25.1.56.03.88-.23.62-.51 1.02-1.56.89-2.35-.06-.39-.25-.65-.5-.74l-.06.15h-.03Z"/><path fill="#B8CCC0" d="m71.29 53.32-.8-4.83s0 .02.01.03c-.03-.08 0-.17.1-.25a.75.75 0 0 1 .68-.11c.1.04.16.1.17.17l.79 4.78"/><path stroke="#0D200F" stroke-linecap="round" stroke-linejoin="round" stroke-width=".5" d="m71.29 53.32-.8-4.83s0 .02.01.03c-.03-.08 0-.17.1-.25a.75.75 0 0 1 .68-.11c.1.04.16.1.17.17l.79 4.78"/><path fill="#708470" stroke="#0D200F" stroke-linecap="round" stroke-linejoin="round" stroke-width=".5" d="M76.55 43.34c-.03-.19-.12-.3-.25-.33h.04l-.68-.26s-.03 0-.05-.01h-.17s-.01 0-.02.01h-.02s-.01 0-.02.01h-.02l-1.48 1.03s-.11.08-.16.12c-.09.06-.18.13-.26.19-.11.08-.22.16-.32.24-.03.02-.05.04-.08.06-.17.13-.34.27-.51.41l-.16.13a29.958 29.958 0 0 0-1.27 1.13l-1.19 1.12s-.01 0-.02.02c0 0-.01.02-.02.02l-.02.02s-.01.02-.02.03c0 0-.01.02-.02.02 0 0-.01.02-.02.03 0 0 0 .02-.02.03 0 0-.01.02-.02.03v.02c0 .01-.01.02-.02.03 0 0 0 .02-.02.03 0 0-.01.02-.02.03 0 .02-.02.05-.03.07v.04c0 .01 0 .02-.01.03v.48l.02.13v.13s0 .02.01.03c0 0 0 .02.01.03 0 0 0 .02.02.03l.03.03s.02.01.02.02c0 0 0 .01.02.02.02.02.04.03.07.04l.68.26s-.03-.02-.04-.02c.11.07.26.05.42-.07 0 0 .03-.02.04-.04l.94-.89.51-.72c.64-.91 1.54-1.61 2.59-1.99l.52-.19.72-.51s.03-.02.04-.03c.26-.22.44-.67.38-1.01l-.02-.13-.08.09-.02.01Z"/><path fill="#56CAF8" stroke="#0D200F" stroke-linecap="round" stroke-linejoin="round" stroke-width=".5" d="M90.92 53.34c-.16-.95-.61-1.57-1.2-1.8-.56-.19-3.43-1.27-3.88-1.71-.6-.28-1.3-.44-1.92-.12-.21-.71-.6-1.18-1.1-1.37-.88-.18-3.56-1.75-4.45-1.24-.66.32-1.92.92-1.72 1.82.47.87-3.87 3.55-4.24 4.08-.72.58-1.8.09-2.49.78-1.46 1.05-2.36 2.75-2.61 4.52-.5.52 2.79 17.4 2.8 18.38l1.17.37c-.1 1.63 2.2 2.06 3.3 2.59.35.14.75.14 1.17 0 .1.9.72 1.61 1.56 1.88a.7.7 0 0 1-.17-.14c.67.43 1.57.23 2.3.61.51.2 1.03-.35 1.41-.54 1.67.19 1.59.17 3.04-.64.39.12.98.45 1.36.08l6.66-5.64c1.26-1.5-.98-1.37 2.06-3.69l-3.06-18.22h.01Z"/><path stroke="#0D200F" stroke-linecap="round" stroke-linejoin="round" stroke-width=".5" d="m83.92 49.71-9.04 7.96a5.997 5.997 0 0 0-1.95 5.51l2.8 16.45"/><path stroke="#0D200F" stroke-linecap="round" stroke-linejoin="round" stroke-width=".5" d="m82.02 80.41-2.6-14.72c-.41-2.33.46-4.71 2.29-6.22l6.92-5.7c.48-.4 1.19-.35 1.61.12"/><path fill="#708470" stroke="#0D200F" stroke-linecap="round" stroke-linejoin="round" stroke-width=".5" d="M75.05 51.9c-.48.39-.94.8-1.37 1.21l-1.08 1.04c-.22.21-.16.47.14.58l.12.05c.32.12.8.04 1.06-.17.01-.01.03-.02.04-.04l1-.96c.43-.41.89-.82 1.37-1.21.45-.36.91-.72 1.4-1.07l1.51-1.07s.03-.02.04-.03c.26-.22.23-.49-.1-.62l-.12-.05c-.3-.12-.75-.05-1.03.14l-1.59 1.13c-.49.35-.96.7-1.4 1.07h.01Z"/><path fill="#FAF6E3" d="M191.3 31.4c0-.13 0-.26-.01-.39 0-.14 0-.27-.02-.41-.02-.14-.02-.28-.03-.42-.01-.14-.03-.27-.05-.41l-.06-.43a2.5 2.5 0 0 0-.05-.29c-.02-.05-.02-.09-.02-.14l-.09-.45c-.04-.15-.07-.3-.11-.44-.03-.16-.07-.31-.12-.46-.04-.15-.08-.3-.13-.45-.04-.14-.09-.29-.14-.44-.05-.14-.1-.29-.15-.43-.05-.14-.1-.28-.16-.42-.05-.14-.11-.28-.16-.41-.06-.14-.12-.27-.18-.41-.06-.14-.12-.27-.18-.41 0-.01-.01-.03-.02-.05-.07-.13-.13-.27-.19-.4l-.27-.51c-.13-.25-.27-.5-.42-.75-.01-.01-.01-.02-.02-.03-.16-.27-.33-.55-.5-.81l-.11-.17c-.11-.17-.23-.34-.35-.51-.07-.09-.13-.18-.2-.26-.06-.09-.13-.18-.2-.27-.05-.07-.11-.15-.17-.22-.03-.05-.07-.09-.11-.14-.07-.09-.14-.18-.22-.27-.1-.13-.22-.26-.32-.38-.11-.13-.22-.25-.33-.37-.02-.03-.05-.06-.08-.09-.09-.09-.18-.19-.27-.28-.12-.13-.23-.24-.35-.35-.13-.12-.25-.24-.38-.35-.12-.11-.25-.22-.38-.33-.12-.11-.25-.21-.38-.31-.12-.1-.25-.19-.37-.29-.12-.09-.25-.17-.37-.26l-.36-.24h-.01a6.73 6.73 0 0 0-.35-.22c-.03-.02-.09-.05-.09-.05L157.69 2.17l-.27-.15c-.12-.06-.23-.12-.35-.18a9.82 9.82 0 0 0-.34-.16c-.12-.05-.23-.1-.35-.15-.11-.04-.23-.09-.34-.13-.11-.04-.23-.08-.34-.11-.12-.03-.24-.07-.35-.1 0 0-.03-.01-.04-.01-.11-.02-.21-.04-.31-.06-.13-.03-.25-.05-.38-.07h-.01c-.12-.01-.24-.03-.37-.03s-.26-.02-.4-.02c-.15 0-.3.01-.45.03h-.11c-.14.01-.27.04-.4.08-.06 0-.11.01-.17.03-.03 0-.06.01-.09.02-.11.03-.22.06-.33.11-.05.01-.1.03-.14.05-.18.07-.35.16-.51.25l-13.97 8.12s-.09.05-.13.07c-1.53.88-2.48 2.77-2.49 5.45L135 34.4c-.01 5.41 3.79 12 8.5 14.72l.4.23-.08 9.93 12.42-2.8 12.39 7.15c2.36 1.37 4.51 1.5 6.05.6.03-.02.07-.04.1-.06l14-8.14c.16-.09.31-.19.45-.3.12-.1.24-.2.36-.32.24-.24.46-.51.66-.82.12-.18.23-.38.32-.58.08-.16.15-.31.2-.48.04-.09.07-.19.1-.29.02-.05.04-.1.05-.16l.06-.21c.01-.02.02-.04.02-.06.01-.05.03-.11.03-.17.03-.14.06-.27.08-.42.02-.07.04-.15.04-.23 0-.05.01-.1.02-.16.02-.13.04-.27.04-.41.01-.09.02-.18.02-.28.01-.05.01-.09.01-.14.01-.13.01-.27.01-.41v-.02l.06-19.19-.02.02h.01Z"/><path fill="#0D749C" d="M152.32 61.24c.09-.03.19-.07.29-.09-.11.03-.22.06-.33.11l.04-.02Zm.59-.17-.04.03c-.06 0-.11 0-.17.03l.21-.06Z"/><path fill="#0D749C" d="M152.91 61.07c.12-.02.24-.04.36-.05-.14 0-.27.04-.4.08l.04-.03Zm.49-.07h-.02s-.08 0-.11.02c.04 0 .08 0 .13-.02Z"/><path fill="#1D94C2" d="M153.83 60.98c-.15 0-.3 0-.45.03h.02c.15-.02.28-.03.43-.03Z"/><path fill="#808370" d="m191.32 31.38-.06 19.19v.57c0 .1-.01.19-.02.28 0 .14-.02.28-.04.41 0 .06-.02.11-.02.16 0 .08-.02.16-.04.23-.02.15-.05.28-.08.42 0 .06-.02.12-.03.17 0 .02 0 .04-.02.06l-.06.21c0 .06-.03.11-.05.16-.03.1-.06.2-.1.29-.05.17-.12.32-.2.48-.09.2-.2.4-.32.58-.2.31-.42.58-.66.82-.12.12-.24.22-.36.32-.14.11-.29.21-.45.3l-14.1 8.2a3.728 3.728 0 0 0 .81-.62c.26-.24.48-.52.67-.83.11-.18.22-.37.32-.58.01-.03.03-.06.04-.09.06-.13.11-.26.16-.4h.01c.05-.14.1-.29.14-.44.04-.12.07-.24.1-.37.01-.02.01-.05.02-.07.03-.13.05-.27.08-.42.03-.13.05-.26.06-.4.02-.13.04-.27.05-.42 0-.11 0-.22.02-.33v-.5l.05-19.19v-.55c0-.08 0-.16-.01-.25v-.11l-.03-.3c0-.14-.03-.28-.04-.42l-.06-.43c-.03-.14-.05-.29-.08-.43l-.09-.45c-.03-.15-.07-.29-.1-.44-.04-.15-.08-.3-.12-.46l-.12-.4c0-.02-.01-.03-.01-.05-.05-.14-.1-.29-.14-.44 0-.01 0-.03-.02-.04a.983.983 0 0 0-.05-.16c-.03-.07-.06-.15-.08-.23-.05-.11-.09-.23-.14-.35 0-.02 0-.05-.02-.07-.06-.14-.11-.27-.17-.41-.06-.14-.11-.27-.17-.41-.04-.1-.09-.2-.14-.3l14.28-7.77c.05.1.09.19.13.29.05.13.11.27.16.41.06.14.11.28.16.42.05.14.1.29.15.43.05.15.1.3.14.44.05.15.09.3.13.45.05.15.09.3.12.46.04.14.07.29.11.44l.09.45c0 .05 0 .09.02.14.02.09.04.19.05.29l.06.43c.02.14.04.27.05.41l.03.42c.01.14.02.27.02.41.01.13.01.26.01.39h-.04Z" opacity=".3"/><path fill="#0D200F" d="M145.84 26.85c2.02 1.17 3.66 4 3.65 6.32-.01 2.32-1.65 3.26-3.68 2.1-2.03-1.16-3.65-4-3.65-6.32 0-2.32 1.65-3.26 3.67-2.09l.01-.01Zm10.28 5.93c2.02 1.17 3.66 4 3.65 6.32-.01 2.32-1.65 3.26-3.68 2.1-2.03-1.16-3.65-4-3.65-6.32 0-2.32 1.65-3.26 3.67-2.09l.01-.01Zm10.28 5.94c2.02 1.16 3.65 4 3.65 6.32 0 2.32-1.65 3.26-3.67 2.1-2.02-1.16-3.66-4-3.65-6.33.01-2.33 1.65-3.26 3.68-2.09h-.01Z"/><path stroke="#0D200F" stroke-linecap="round" stroke-linejoin="round" stroke-width=".5" d="M175.15 64.38c-1.55.96-3.74.86-6.15-.54l-12.4-7.15-12.42 2.8.08-9.93-.39-.23c-4.71-2.71-8.52-9.3-8.5-14.71l.05-19.19c0-2.69.96-4.58 2.49-5.47.03 0 .08-.04.08-.04l14.02-8.15c.16-.09.33-.18.51-.25.04-.02.09-.05.14-.05.11-.05.22-.08.33-.11.03-.02.06-.02.09-.02.06-.02.11-.03.17-.03.13-.04.26-.07.4-.08h.11c.15-.02.3-.03.45-.03.14 0 .27 0 .4.02.13 0 .25.02.37.03h.01c.13.02.25.04.38.07.1.02.2.04.31.06h.04c.11.03.23.07.35.1.11.03.23.07.34.11.11.04.23.09.34.13.12.05.23.1.35.15.11.05.22.1.34.16.12.06.23.12.35.18l.27.15 25.13 14.51s.06.03.09.05c.12.07.23.14.35.22l.36.24c.12.09.25.17.37.26.12.1.25.19.37.29.13.1.26.2.38.31.13.11.26.22.38.33.13.11.25.23.38.35.12.11.23.22.35.35.09.09.18.19.27.28.03.03.08.09.08.09a12.31 12.31 0 0 1 .49.56c.06.06.11.12.16.19.08.09.15.18.22.27.04.05.08.09.11.14.06.07.12.15.17.22.07.09.14.18.2.27.07.08.13.17.2.26.12.17.24.34.35.51l.11.17c.17.26.34.54.5.81.01.01.01.02.02.03.15.25.29.5.42.75l.27.51c.06.13.12.27.19.4 0 .02.02.05.02.05.06.14.12.27.18.41.06.14.12.27.18.41.05.13.11.27.16.41.06.14.11.28.16.42.05.14.1.29.15.43.05.15.1.3.14.44.05.15.09.3.13.45.05.15.09.3.12.46.04.14.07.29.11.44l.09.45c.01.05.01.09.02.14.02.09.04.19.05.29l.06.43c.02.14.04.27.05.41 0 .14.02.28.03.42.01.14.02.27.02.41h.03v.38l-.06 19.19v.43c0 .05 0 .09-.01.14 0 .1 0 .19-.02.28-.01.14-.02.28-.04.41 0 .06-.02.11-.02.16 0 .08-.02.16-.04.23-.02.15-.05.28-.08.42-.01.06-.02.12-.03.17 0 .02-.01.04-.02.06l-.06.21a.75.75 0 0 1-.05.16c-.03.1-.06.2-.1.29-.05.17-.12.32-.2.48-.09.2-.2.4-.32.58-.2.31-.42.58-.66.82-.12.12-.24.22-.36.32-.14.11-.29.21-.45.3l-14.01 8.14v.01Zm0 0c.14-.08.27-.17.39-.27 0 .01-.02.02-.03.03-.11.09-.23.17-.36.24Z"/><path stroke="#0D200F" stroke-linecap="round" stroke-linejoin="round" stroke-width=".5" d="M177.21 52.34c-.18-8.72 1.65-21.27-7.41-26.77-3.4-2.03-14.71-8.57-20.04-11.69"/><path fill="#C24F02" stroke="#0D200F" stroke-linecap="round" stroke-linejoin="round" stroke-width=".5" d="M92.7 126.15c-1.01.62-1.87 2.03-1.87 3.2 0 1.17.86 1.56 1.87 1.01 1.01-.62 1.87-2.03 1.87-3.2 0-1.17-.86-1.64-1.87-1.01Z"/><path fill="#ED6912" stroke="#0D200F" stroke-linecap="round" stroke-linejoin="round" stroke-width=".5" d="M85.21 125.39c.03-.07-.08-1.31.08-1.25 0 0 0-.08.08-.08v-.16l.08-.08s0-.08.08-.08c-.03-.11.06-.15.08-.24l.08-.08s0-.08.08-.08l.56-.56.16-.16s.08 0 .08-.08c0 0 .08 0 .08-.08.07-.01.14.04.16-.08.84-.55 6.41 3.2 7.18 3.51-.18-.16-.82-.09-1.01 0-.77.34-1.34 1.01-1.71 1.72-.34.7-.69 1.8-.16 2.49 0 0 0 .08.08.08 0 .08.08.08.08.08l.08.08-6.01-3.43c-.07 0-.27 0-.24-.08l-.08-.08v-.08c-.13-.05-.07-.67-.08-.78.21-.31.31-.5.31-.55l-.04.05Z"/><path fill="#C24F02" stroke="#0D200F" stroke-linecap="round" stroke-linejoin="round" stroke-width=".5" d="M68.19 141c-1.01.62-1.87 2.03-1.87 3.2 0 1.17.86 1.56 1.87 1.01 1.01-.62 1.87-2.03 1.87-3.2.08-1.17-.78-1.64-1.87-1.01Z"/><path fill="#ED6912" stroke="#0D200F" stroke-linecap="round" stroke-linejoin="round" stroke-width=".5" d="M60.62 140.76c.03-.07-.08-1.31.08-1.25 0 0 0-.08.08-.08v-.16l.08-.08s0-.08.08-.08c-.03-.11.06-.15.08-.24l.08-.08s0-.08.08-.08l.72-.72s.08 0 .08-.08c0 0 .08 0 .08-.08.07-.01.14.04.16-.08.76-.49 6.8 2.94 7.57 3.2-.18-.16-.82-.09-1.01 0-.77.34-1.34 1.02-1.71 1.72-.37.72-.68 1.86-.16 2.57 0 0 0 .08.08.08 0 .08.08.08.08.08l.08.08-6.01-3.43c-.07 0-.27 0-.24-.08l-.08-.08v-.08c-.13-.05-.07-.67-.08-.78-.16-.16-.16-.23-.08-.31l-.04.04Z"/><path fill="#FCFCFB" stroke="#0D200F" stroke-linecap="round" stroke-linejoin="round" stroke-width=".5" d="m100.89 113.14.39-4.14-2.65 2.89-15.3 10.3-7.26 2.19c-8.12-4.76-16.93-9.99-21.46-12.49l-.86-1.33-7.41-12.8-3.51-2.03-.31.16 4.29 12.25c.08.23 0 .47-.16.7-.94.94-.55 2.97-.55 2.97l10.14 12.49c1.25 1.56 2.81 2.89 4.53 3.9 0 0 1.79 1.01 4.53 2.58l-4.53 5.54-17.32 8.82-4.92 1.48h7.1l30.36-9.68v-.08c5.38 3.04 10.46 5.93 11.78 6.71 3.28 1.79 8.66.7 8.66.7s.62-.31.55-.94c-.23-3.04-.94-6.87-3.9-8.82-.16-.16-3.2-1.95-7.57-4.53l15.37-16.86v.02h.01Z"/><path stroke="#0D200F" stroke-linecap="round" stroke-linejoin="round" stroke-width=".5" d="M46.81 108.15 42.52 95.9l.31-.16 3.51 2.03 7.41 12.72.86 1.33c9.52 5.31 38 22.32 38.55 22.71 2.97 1.95 3.67 5.77 3.9 8.82.08.62-.55.94-.55.94s-5.38 1.01-8.66-.7c-3.28-1.72-27-15.37-27-15.37a16.599 16.599 0 0 1-4.53-3.9l-10.14-12.49s-.39-2.03.55-2.97c.08-.23.16-.47.08-.7v-.01Z"/><path fill="#0D200F" d="m47.28 107.98-3.99-11.4 2.69 1.55 7.34 12.61v.02l.86 1.33.07.11.11.06c.36.2 1 .56 1.7.96.13.07.26.15.4.23.84.48 1.72.97 2.31 1.29-.32.12-.59.29-.81.51-.51.5-.64 1.19-.5 1.9.97 5.68 4.74 9.92 9.65 13.45 4.13 2.97 9.14 5.49 14.07 7.98.93.46 1.85.93 2.76 1.4 1.47.77 3.39.91 6.53.52.04 0 .08 0 .11-.01-.02.09-.05.2-.08.32-.04.23-.06.51.02.82-.08.72.24 1.39.7 1.85.27.27.6.5.95.68-1.35-.04-2.79-.3-4.1-1.02-1.63-.86-8.39-4.69-14.75-8.32-3.18-1.81-6.26-3.57-8.54-4.88-1.14-.65-2.08-1.19-2.74-1.57l-.76-.44-.2-.12-.05-.03h-.01c-1.67-.98-3.18-2.27-4.39-3.78l-10.06-12.39c0-.05-.01-.11-.02-.17-.02-.19-.04-.45-.03-.73.02-.6.15-1.17.48-1.5l.03-.03.03-.04c.21-.3.36-.7.23-1.13h-.02.03l-.02-.03Z" opacity=".1"/><path fill="#FF893A" stroke="#0D200F" stroke-linecap="round" stroke-linejoin="round" stroke-width=".5" d="m59.92 102.68-4.99 9.52-5.93-3.28v-.31l9.44-7.65 1.48 1.33v.39Z"/><path fill="#C24F02" stroke="#0D200F" stroke-linecap="round" stroke-linejoin="round" stroke-width=".5" d="m57.03 114-.31.16-9.83-5.54-4.37-12.72.31-.16 3.51 2.03 7.41 12.72 3.28 3.51Z"/><path fill="#FF893A" stroke="#0D200F" stroke-linecap="round" stroke-linejoin="round" stroke-width=".5" d="M52.04 113.69v.31l-15.76 2.42-2.34-.86v-.31l12.49-4.92 5.62 3.36h-.01Z"/><path fill="#0D200F" stroke="#0D200F" d="M93.44 142.12c.93.09 1.95-.15 2.75-.73v.21c0 .08-.02.11-.02.11a1.081 1.081 0 0 1-.16.24h-.02l-.03.03c-.68.47-1.56.68-2.36.54h-.01l-2.11-.31h-.04v-.03l-.07-.06-.01-.01v-.07h.03l.06-.07.01-.01h.09l1.93.16h-.04Z"/><path fill="#808370" d="M88.91 175.66c39.76 0 72-32.24 72-72s-32.23-72-72-72-72 32.24-72 72 32.24 72 72 72Z" opacity=".3"/><path fill="#F9F6FF" d="M53.71 81.81c-19.87 17.53-22.59 38.08-28.91 34.1-6.32-3.98.61-39.9 6.03-48.5 5.42-8.61 14.94-12.36 21.26-8.39 6.32 3.97 9.26 16.06 1.63 22.79h-.01Z"/><path fill="#F9F6FF" stroke="#0D200F" stroke-linecap="round" stroke-linejoin="round" stroke-width=".5" d="M46.44 13.99c-10.31 40.87-11 37.66 5.8 27.05-16.81 10.61-19.85 9.35 25.57 10.55-45.41-1.2-42.57-2.85-23.93 13.87-18.64-16.72-18.38-20-2.14 27.57C35.5 45.46 37.95 47.65 31.16 74.56c6.79-26.9 9.99-27.67-26.88 6.48 36.87-34.17 35.54-31.15 11.2-25.28C39.82 49.89 41.54 52.69 1 32.19c40.54 20.5 37.27 20.15 27.51 2.84 9.75 17.31 7.62 19.82 17.94-21.05h-.01v.01Z"/></svg>