<svg xmlns="http://www.w3.org/2000/svg" fill="none" viewBox="0 0 240 231"><path fill="#FAF6E3" d="m144.27 37.789-.07-20.22c-.01-2.92-1.07-4.94-2.76-5.83l-.2-.11c-.01-.01-.02-.01-.02-.01-.3-.14-.62-.24-.95-.32.07.01.14.03.21.05.05 0 .1.01.15.03.1.04.22.09.32.12.03.01.09.02.11.03l-17-9.88-.05-.03c-.15-.09-.3-.15-.45-.22-.14-.07-.29-.12-.46-.15l-.02-.02c-.13-.05-.31-.08-.46-.1-.07-.01-.13-.03-.2-.03-.05-.02-.08-.02-.13-.02-.07-.02-.15-.02-.22-.02-.2-.02-.39-.03-.61 0-.07-.02-.14 0-.22 0-.13.02-.28.03-.43.05h-.03s-.05 0-.08.02c-.13.01-.26.05-.41.08-.1 0-.18.05-.28.08-.07 0-.15.03-.22.05-.27.08-.57.18-.85.3-.41.17-.83.38-1.26.63l-22.57 13.02c-.36.21-.74.44-1.09.71-.25.17-.48.35-.71.55-.17.13-.33.28-.5.43-.24.2-.47.42-.7.65-.33.33-.66.68-.98 1.04-.2.23-.42.48-.6.73-.05.05-.1.1-.13.15-.22.26-.42.53-.6.81-.18.25-.35.51-.53.78l-.45.75c-.15.26-.3.51-.43.76a26.909 26.909 0 0 0-.74 1.54c-.11.26-.21.53-.33.81-.1.29-.2.57-.3.85-.01.03-.01.05-.03.08-.07.23-.15.48-.22.71-.01.04-.01.09-.03.12-.08.35-.18.68-.25 1.03-.07.3-.12.61-.17.91-.01.1-.03.21-.03.33-.03.13-.05.28-.05.41-.06.46-.08.91-.08 1.34l.07 20.23c0 2.81.99 4.8 2.62 5.75l17.2 9.99c1.65 1.16 4.04 1.1 6.69-.43l4.64-2.67 6.67 6.65 6.34-14.16 4.93-2.84c4.96-2.87 8.98-9.82 8.96-15.51h-.01Z"/><path fill="#753002" stroke="#0D200F" stroke-linecap="round" stroke-linejoin="round" stroke-width=".5" d="m115.35 169.239 5.01-6.71s3.27-2.98-1.57-8.86c-4.84-5.88-41.78-40.7-45.95-37.21-4.17 3.49-4.99 4.39-4.99 4.39l10.05 47.16 24.27 5.18 13.18-3.96v.01Z"/><path fill="#875D41" d="M15.13 212.839c-16.46-16.71-13.54-44.35 5.68-57.8 20.41-14.27 59.18-41.3 71.27-49.12 16.67-10.79 32.37-16.92 47.08-33.35s36.29-36.86 41.11-37.11 8.42-.82 10.05 2.94c0 0 8.01-.57 10.95 4.74 2.94 5.31 8.25 2.78 11.44 5.8 3.19 3.02 2.84 7.78 9.38 10.56 6.54 2.78 1.8 6.7 10.79 9.15 8.99 2.45 6.54 12.1 5.56 14.06-.98 1.96-2.94 7.03-11.12 7.85 0 0 1.96 4.74-2.45 10.46-4.41 5.72-5.88 16.35-14.88 17.82-8.99 1.47-35.63-3.92-49.86 1.96-14.22 5.88-31.88 24.36-42.83 39.56-7.26 10.08-20.63 30.37-28.82 42.89-5.55 8.5-13.8 14.91-23.44 18.07-13.86 4.54-33.77 7.07-48.76-7.34-.4-.38-.79-.77-1.16-1.15l.01.01Z"/><path fill="#BA855F" d="M213.56 77.859h-.02c-6.4 7.2-15.16 11.72-23.34 16.79-.91.56-1.86 1.18-2.36 2.14-.92 1.79.18 4.05 1.8 5.25 1.62 1.2 3.65 1.67 5.51 2.43 4.47 1.84 8.11 5.57 9.86 10.06.47 1.21.77 2.68 0 3.72-.27.37-.65.63-1.07.83-10.06-.25-26.41-2.38-38.28.08-6.39.1-13.55 5.99-22.48 12.79-.38.29-2.14-5.84-3.62-10.87.23-4.51.36-8.24-.04-7.85-3.43-3.15-25.08-7.16-28.52-10.95-.15-.16-.24-.27-.29-.3.62.86 14.83 17.92 8.03 22.06-36.69 22.33-63.32 56.79-100.54 78.22-2.74 1.58-5.9 3.13-8.94 2.78-9.4-16.56-4.9-38.5 11.57-50.01 20.41-14.27 59.18-41.3 71.27-49.12 16.67-10.79 32.37-16.92 47.08-33.34 11.68-13.04 27.68-28.61 36.2-34.59 1.42-.34 2.89-.51 4.36-.52-.83 1.68-1.68 3.38-2.51 5.07 3.28 1.78 7.58-2.74 10.76-.8 2.13 1.31 2.03 4.63 3.91 6.28 2.94 2.56 8.5-.52 11.08 2.42 1.81 2.07.53 5.49 1.8 7.94 1.86 3.57 7.42 2.69 10.57 5.19 4.22 3.36 1.79 10.27-1.79 14.3Z"/><path stroke="#0D200F" stroke-miterlimit="10" stroke-width=".5" d="M15.13 212.839c-16.46-16.71-13.54-44.35 5.68-57.8 20.41-14.27 59.18-41.3 71.27-49.12 16.67-10.79 32.37-16.92 47.08-33.35s36.29-36.86 41.11-37.11 8.42-.82 10.05 2.94c0 0 8.01-.57 10.95 4.74 2.94 5.31 8.25 2.78 11.44 5.8 3.19 3.02 2.84 7.78 9.38 10.56 6.54 2.78 1.8 6.7 10.79 9.15 8.99 2.45 6.54 12.1 5.56 14.06-.98 1.96-2.94 7.03-11.12 7.85 0 0 1.96 4.74-2.45 10.46-4.41 5.72-5.88 16.35-14.88 17.82-8.99 1.47-35.63-3.92-49.86 1.96-14.22 5.88-31.88 24.36-42.83 39.56-7.64 10.61-22.05 32.51-30.06 44.79-4.36 6.68-10.68 11.87-18.12 14.72-13.79 5.28-36.3 10-52.84-5.9-.4-.38-.79-.77-1.16-1.15v.02h.01Z"/><path stroke="#0D200F" stroke-linecap="round" stroke-linejoin="round" stroke-width=".5" d="M227.32 90.569s-4.56-.32-5.91 1.03c-1.35 1.35-4.17 5.19-6.87 5.05l.61-1.74s-1.84 3.19-.61 4.29m-72.56-7.8s11.17 9.82 13.61 19.74"/><path fill="#ED6912" d="m64.09 120.619-.92 1.58-53.31 37.67s-12.42 23.31-7.85 37.36 11.12 29.41 34.98 32.36c23.87 2.94 48.06-13.4 48.06-13.4l27.47-41.74 1.83-1.03.61-1.31.04-1.44 5.35-8.13s-14.71 13.75-34-10.44c-19.29-24.19-16.47-34.04-13.53-35.63l-6.34 3.65-1.47-.04-.94.54h.02Z"/><path fill="#C24F02" d="m120.36 162.539-5.34 8.13-.05 1.44-.62 1.3-1.83 1.03-27.47 41.74s-24.15 15.98-48.06 13.4c-12.02-1.3-20.37-8.21-20.94-8.3 8.83-3.87 23.39-17.94 27.39-23.73 10.26-14.89 21.77-16.91 32.67-31.35 1.77-2.35 3.76-5.05 3.16-7.94-.32-1.56-1.38-2.87-1.89-4.38-.52-1.51-.22-3.58 1.3-4.11.44-.15.93-.15 1.37-.34.91-.42 1.2-1.53 1.73-2.39.1-.16.23-.33.38-.45 1.27 1.75 2.67 3.59 4.21 5.53 18.97 23.79 33.51 10.88 33.99 10.44v-.02Z"/><path stroke="#0D200F" stroke-linecap="round" stroke-linejoin="round" stroke-width=".5" d="m64.09 120.619-.92 1.58-53.31 37.67s-12.42 23.31-7.85 37.36 11.12 29.41 34.98 32.36c23.87 2.94 48.06-13.4 48.06-13.4l27.47-41.74 1.83-1.03.61-1.31.04-1.44 5.35-8.13s-14.71 13.75-34-10.44c-19.29-24.19-16.47-34.04-13.53-35.63l-6.34 3.65-1.47-.04-.94.54h.02Z"/><path stroke="#0D200F" stroke-linecap="round" stroke-linejoin="round" stroke-width=".5" d="M63.16 122.199s-1.61 5.77 1.98 11.24"/><path stroke="#FFBD90" stroke-linecap="round" stroke-linejoin="round" d="M118.7 164.219s-14.1 11.83-33.77-12.51c-15.65-19.37-16.07-32.3-13.95-33.77"/><path fill="#0D200F" d="M145.65 137.099s-.05.08-.08.12c-.05.05-.09.11-.14.15.08-.08.15-.17.22-.27Zm.22-.38c.03-.05.05-.12.07-.17 0 .02 0 .04-.02.05-.02.04-.04.08-.05.12Zm.12 6.95v.03c0 .07-.04.14-.05.2.03-.07.05-.14.05-.23Zm-18.97 11.8c.05 0 .12-.03.17-.05-.05.03-.11.05-.17.06v-.01Zm20.7-61.54c.09-.08.17-.17.24-.26-.05.05-.09.1-.14.15-.03.04-.06.07-.1.11Zm-18.3 10.63s-.07.03-.11.03c.07-.02.14-.05.21-.08-.04.03-.06.05-.1.05Zm17.5-10.01.03-.03c.03-.02.07-.04.1-.06-.04.03-.08.06-.13.09Zm1.04-.88s.06-.08.08-.12c.05-.06.09-.13.13-.19-.05.1-.12.21-.21.31Zm-42.8-.9v-.78c-.05.26-.05.52 0 .78Z"/><path fill="#0D200F" d="m148.43 92.559-.02 7.28c0 .09-.02.18-.04.28 0 .08-.03.15-.05.23-.02.04-.03.06-.04.09-.04.1-.07.19-.13.28v.02s-.03.05-.05.07c-.04.07-.08.14-.14.21 0 0-.02.03-.04.04-.09.13-.19.24-.33.35-.14.14-.3.25-.47.37-.06.05-.13.09-.2.13 0 0-.05.03-.06.05l-16.31 9.48c-.14.08-.3.16-.46.24-.09.05-.18.08-.28.12-.08.04-.16.06-.24.09-.05.03-.12.05-.17.05-.16.05-.33.11-.5.14-.16.05-.34.08-.51.11-.11.02-.22.04-.34.05-.11.02-.22.04-.34.05-.2.02-.4.03-.59.04h-.54c-.17 0-.35 0-.53-.03-.16 0-.34-.03-.5-.05h-.05c-.13-.03-.26-.05-.39-.07-.04 0-.07 0-.11-.02-.18-.04-.37-.08-.55-.14a6.892 6.892 0 0 1-1.4-.58l-16.4-9.48c-1.05-.61-1.57-1.39-1.57-2.19l.08-7v-.78l.01-.01c.15-.64.65-1.26 1.5-1.75l16.3-9.47c2.06-1.2 5.42-1.2 7.49 0l16.41 9.47c1.04.6 1.55 1.39 1.55 2.17v.07c0 .08-.01.16-.03.24v.03c.01-.06.04-.12.04-.18Z"/><path fill="#0D200F" d="M147.18 94.369c.06-.04.12-.08.18-.13-.06.04-.12.08-.18.13Zm-.13.09s-.08.06-.13.09l.03-.03c.03-.02.07-.04.1-.06Zm.91-.79c-.07.09-.15.18-.24.26.04-.04.07-.07.1-.11.05-.05.09-.1.14-.15Zm-.6.58c.09-.07.17-.13.25-.2-.08.07-.16.14-.25.2Zm.81-.89c-.05.1-.12.21-.21.31.03-.04.06-.08.08-.12.05-.06.09-.13.13-.19Zm.26-.9v.1c0 .06-.03.12-.04.18v-.03c.02-.08.03-.16.03-.24h.01v-.01Z"/><path fill="#0D200F" d="M147.36 94.249c.09-.07.17-.13.25-.2-.08.07-.16.14-.25.2Zm-.31.21s-.08.06-.13.09l.03-.03c.03-.02.07-.04.1-.06Zm.91-.79c-.07.09-.15.18-.24.26.04-.04.07-.07.1-.11.05-.05.09-.1.14-.15Zm-.78.7c.06-.04.12-.08.18-.13-.06.04-.12.08-.18.13Zm.99-1.01c-.05.1-.12.21-.21.31.03-.04.06-.08.08-.12.05-.06.09-.13.13-.19Zm.26-.9v.1c0 .06-.03.12-.04.18v-.03c.02-.08.03-.16.03-.24h.01v-.01Z"/><path stroke="#0D200F" stroke-miterlimit="10" stroke-width=".5" d="M148.3 92.859c.15-.88-.36-1.79-1.53-2.47l-16.41-9.48c-2.07-1.2-5.43-1.2-7.49 0l-16.31 9.48c-1.02.6-1.54 1.38-1.54 2.16l-.02 7.37c0 .8.52 1.59 1.57 2.19l16.4 9.48c.24.14.5.25.76.36.21.08.43.15.64.22.18.05.37.1.55.14.04 0 .07.02.11.02.13.03.26.05.39.07h.05c.16.03.34.05.5.05.17.02.35.03.53.03h.54c.19 0 .39-.02.59-.04.12 0 .23-.03.34-.05.12-.02.23-.04.34-.05.17-.03.34-.06.51-.11.17-.04.34-.09.5-.14.05-.02.12-.04.17-.06.08-.03.16-.05.24-.09.1-.04.19-.07.28-.12.16-.07.32-.15.46-.24l16.31-9.48s.05-.03.06-.04c.07-.05.14-.09.2-.14.17-.12.34-.24.47-.36.14-.13.24-.24.33-.35 0 0 .03-.04.04-.05.05-.07.1-.14.14-.21.02-.02.04-.05.05-.06v-.03c.05-.09.09-.18.13-.28 0-.03.02-.05.04-.09.03-.07.05-.14.05-.23.02-.1.03-.19.04-.28l.02-7.38c0 .08 0 .15-.03.24l-.02.02Z"/><path fill="#1D94C2" d="m129.96 110.779 17.39-10.87s9.7 13.15 5.65 25.86c-.26.8-.66 1.51-1.19 2.06-2.82 2.89-13.03 13.04-15.19 10.4 0 0 2.22-.79 1.85-4.32-.37-3.53-2.55-21.49-8.5-23.14l-.01.01Z"/><path fill="#56CAF8" d="M138.71 138.289c-1.05.48-1.88.53-2.33-.05 0 0 2.08-.79 1.74-4.32-.34-3.53-2.35-21.48-7.93-23.11l1.98-1.59c5.39 2.25 7.27 21.17 7.6 24.93.2 2.3-.48 3.54-1.06 4.15v-.01Z"/><path stroke="#0D200F" stroke-miterlimit="10" stroke-width=".5" d="m129.97 110.779 17.39-10.87s10.33 14.27 5.18 27.17c0 0-13.4 14.22-15.91 11.15 0 0 2.22-.79 1.85-4.32-.37-3.53-2.55-21.49-8.5-23.14l-.01.01Z"/><path fill="#FFE9E7" d="m131.54 92.679-.43-.99-.23-.52.93-.54.76.44c.49.28.49.72 0 1l-1.03.6v.01Zm-4.31-4.68.76.44-.93.54-.46-.07-2.13-.31 1.03-.6c.24-.14.55-.21.86-.21.31 0 .62.07.87.21Z"/><path fill="#FBEDD7" d="m120.38 93.119 1.31.25 2.02-1.18-1.09-.63-4.62-1.41 1.66-.97c.3-.18.75-.25 1.17-.18l2.8.4 2.6.38 1.31.19 2.88-1.67c.08-.04.17-.08.24-.1l1.06-.3c.32-.09.66-.04.88.08.23.13.31.33.14.51l-.51.62s-.09.1-.17.14l-2.88 1.67.44 1 .66 1.5.6 1.37c.1.24-.02.5-.31.68l-1.66.97-2.46-2.66-1.09-.63-2.04 1.16.45.76c.15.26.03.53-.3.73l-.55.32-1.63-1.57-2.72-.94.55-.32c.33-.19.81-.26 1.26-.17Z"/><path fill="#808370" d="m106.37 66.949-17.53-10.18c-1.63-.95-2.62-2.94-2.62-5.75l-.07-20.23c0-.43.02-.88.08-1.34 0-.13.02-.28.05-.41 0-.12.02-.23.03-.33.05-.3.1-.61.17-.91.07-.33.15-.63.23-.96l17.73 9.52c-.05.15-.1.3-.13.45-.02.05-.03.1-.05.15-.08.35-.17.7-.25 1.03-.02.08-.03.17-.03.23-.07.28-.12.55-.15.81-.02.07-.02.13-.03.22v.02s-.02.07-.02.1c0 .1-.02.2-.02.32-.05.45-.08.9-.08 1.33l.07 20.22c0 2.84 1.01 4.83 2.62 5.75v-.04Z" opacity=".3"/><path stroke="#0D200F" stroke-linecap="round" stroke-linejoin="round" stroke-width=".5" d="m141.25 11.629.3.15c1.64.93 2.65 2.92 2.67 5.79l.03-.04.07 20.22c0 5.69-4 12.64-8.96 15.51l-4.93 2.84-6.34 14.16-6.67-6.65-4.64 2.67c-2.54 1.47-4.83 1.57-6.47.56h-.02l-17.43-10.12c-1.62-.94-2.62-2.93-2.62-5.75l-.07-20.23c0-.43.01-.88.08-1.34 0-.13.02-.28.05-.41 0-.11 0-.23.03-.33.05-.3.1-.61.17-.91.07-.35.17-.68.25-1.03.01-.04.01-.09.03-.12.07-.23.15-.48.22-.71.01-.03.01-.05.03-.08.1-.29.2-.57.3-.85.11-.28.21-.54.33-.81.11-.27.23-.51.36-.78.11-.25.25-.51.38-.76s.28-.49.43-.76l.45-.75c.18-.27.35-.53.53-.78.19-.28.38-.54.6-.81.03-.05.08-.1.13-.15.19-.25.4-.5.6-.73.32-.36.65-.71.98-1.04.24-.24.47-.45.7-.65.17-.15.33-.3.5-.43.23-.2.46-.38.71-.55.34-.26.73-.49 1.09-.71l22.57-13.02c.43-.25.85-.46 1.26-.63.29-.12.58-.22.85-.3.03 0 .07-.03.1-.03.05 0 .09-.02.12-.02.1-.03.18-.06.28-.08.14-.03.28-.06.41-.08.03-.02.08-.02.08-.02h.03c.15-.02.3-.03.43-.05.09 0 .15-.02.22 0 .21-.03.41-.02.61 0 .07 0 .15 0 .22.02.05 0 .08 0 .13.02.07 0 .13 0 .2.03.14.02.33.05.46.1l.02.02c.16.03.31.08.46.15.15.07.3.14.45.22l.05.03 17.38 10.1c-.07-.03-.13-.06-.2-.08Zm0 0c-.1-.05-.2-.1-.3-.13.03.02.08.03.12.03l.03.02s.1.05.15.08Z"/><path stroke="#0D200F" stroke-linecap="round" stroke-linejoin="round" stroke-width=".5" d="m131.16 14.769-19.47 11.57c-4.97 2.95-8.01 8.3-8.01 14.08v10.8"/><path fill="#0D200F" d="M126.64 29.539c5.38-3.11 9.77-.61 9.79 5.57.02 6.18-4.34 13.74-9.72 16.84-5.38 3.11-9.77.61-9.79-5.58-.02-6.19 4.34-13.73 9.72-16.84v.01Zm2.18 15.27 1.37-2.38-2.54-1.45-.02-6.38-1.95 1.13.02 7.31 3.13 1.77"/></svg>