<svg xmlns="http://www.w3.org/2000/svg" fill="none" viewBox="0 0 284 185"><path fill="#0d200f" stroke="#0d200f" d="M201.45 20.56c0 .36-.16.67-.54.97s-.96.55-1.73.75l1.48.73L24.92 49.49l-.06-.09c-1.21.19-2.58.3-4.04.3-2.55 0-4.84-.33-6.48-.86-.82-.26-1.45-.56-1.86-.88-.42-.32-.54-.58-.54-.77s.12-.45.54-.77c.41-.32 1.04-.62 1.86-.88 1.64-.53 3.93-.86 6.48-.86.19 0 .39 0 .58.01l-1.13-1.54L183.7 19.23c.04-.87.36-1.55 1.12-2.07.87-.58 2.39-.98 4.95-.98s5.5.66 7.85 1.59c1.17.46 2.17.98 2.85 1.51.35.26.6.51.76.73.17.23.22.41.22.55Z"/><path fill="#0d200f" d="m110.76 53.58.2.43-31.58 23.6-.57-28 27.65-1.65.25.55-6.95 2.94.68 1.51-.04.02h.05v-.02l1.57-.67 10.51.54z"/><path fill="#0d200f" d="m112.53 52.83-1.57 1.18-.2-.43z"/><path fill="#1d94c2" d="M190.69 2.95h-.01s0-.04-.02-.06c0 .02.02.04.03.06"/><path fill="#b2eaff" d="M191.94 6.84h-.01v-.02s.01.01.01.02m.1.42c0-.05 0-.09-.03-.14.01.04.03.09.04.14zm.03.14s-.02-.09-.04-.14l.03.14z"/><path fill="#b2eaff" d="M193.32 17.28v.8c0 .14 0 .26-.01.39v.39c0 .14-.01.28-.02.4 0 .13-.02.25-.03.37v.04c0 .15-.03.29-.04.42q-.03.24-.06.45v.02c-.03.18-.06.35-.1.49-.07.33-.16.6-.25.82-.05.09-.09.17-.14.24-.05.08-.11.15-.17.21-.09.09-.19.14-.29.15L8.13 49.4c.13-.02.26-.1.37-.24.07-.08.13-.17.18-.29a.35.35 0 0 0 .06-.14c.03-.05.05-.11.07-.17.06-.17.12-.36.17-.58q.045-.24.09-.51c.02-.15.05-.3.06-.45.02-.14.03-.28.05-.43 0-.11.02-.21.02-.33.01-.02.01-.05.01-.07 0-.13.01-.26.02-.4 0-.13.01-.26.01-.4V43.8c0-.13-.01-.26-.01-.39s0-.26-.02-.39c-.01-.12-.01-.25-.02-.38 0-.11 0-.23-.02-.35-.01-.11-.02-.21-.02-.32 0-.06 0-.12-.02-.18 0-.05-.01-.1-.01-.15 0-.08 0-.16-.02-.24 0-.08-.01-.16-.02-.24s-.01-.16-.02-.24c0-.05 0-.1-.02-.15v-.05c-.01-.06-.01-.12-.02-.17 0-.06-.01-.12-.02-.18 0-.05 0-.11-.02-.17 0-.06 0-.12-.02-.17 0-.05-.01-.1-.01-.14-.01-.05-.01-.09-.02-.14v-.13s-.01-.09-.02-.14c-.01-.04-.01-.09-.02-.13 0-.05-.01-.09-.01-.14 0-.04-.02-.08-.02-.12 0-.05 0-.09-.02-.13 0-.04-.01-.08-.01-.12a.6.6 0 0 1-.02-.13c-.01-.04-.01-.08-.02-.12 0-.04-.01-.09-.02-.13 0-.04-.01-.08-.01-.12 0-.05-.02-.11-.03-.16 0-.05 0-.1-.02-.15-.01-.05-.02-.1-.02-.15s-.02-.1-.03-.15c0 0 0-.03-.01-.04v-.11c-.02-.09-.03-.19-.05-.28-.02-.11-.03-.22-.05-.34l-.06-.29c-.02-.13-.05-.26-.07-.39-.02-.15-.05-.29-.08-.44-.01-.06-.02-.11-.04-.17l-.03-.19c-.02-.06-.03-.12-.04-.18s-.02-.12-.04-.17c-.01-.05-.02-.1-.03-.14 0-.05-.02-.09-.03-.14l-.03-.13c0-.04-.01-.09-.02-.13 0-.05-.02-.09-.03-.13l-.03-.12v-.02l-.03-.14-.03-.14c0-.04-.02-.09-.03-.14a.6.6 0 0 1-.04-.14l-.03-.13c-.02-.06-.03-.12-.05-.17-.01-.06-.03-.12-.04-.18-.02-.06-.03-.12-.05-.18-.01-.06-.03-.12-.04-.18-.03-.07-.05-.15-.07-.23s-.05-.16-.07-.25c-.02-.08-.05-.16-.07-.24-.03-.11-.07-.22-.1-.33s-.07-.22-.1-.33c-.04-.11-.07-.22-.11-.33 0 0-.01-.02-.01-.03-.05-.12-.09-.24-.13-.36-.04-.11-.08-.23-.13-.34-.04-.1-.08-.21-.12-.31s-.08-.2-.12-.29c0-.03-.02-.05-.03-.07-.03-.07-.06-.14-.09-.2-.04-.09-.08-.17-.12-.25s-.08-.15-.12-.22c-.03-.07-.07-.14-.11-.21a2 2 0 0 1-.11-.18c-.04-.06-.08-.12-.12-.17-.04-.06-.08-.11-.11-.16-.04-.05-.08-.1-.12-.14s-.08-.08-.11-.12c0 0-.08-.07-.13-.1-.04-.03-.08-.06-.13-.08h-.02c-.03-.02-.07-.03-.1-.04h-.02s-.07-.02-.1-.02l70.4-10.3L189.09 1h.15c.02 0 .04.01.07.02s.06.02.1.04.07.04.12.07c.02.01.04.02.06.05.02 0 .05.04.07.06q.06.045.12.12c.04.04.08.09.12.14.02.02.04.05.06.07.02.03.04.05.05.08h.01c.03.06.07.11.11.17s.08.12.11.19c.02.04.04.07.07.11.01.03.03.06.04.09.04.07.08.15.12.23s.08.16.12.25c.03.06.06.13.09.2 0 .02.02.04.02.06h.01l.12.3c.05.1.09.19.12.3h.01c.04.11.08.22.12.34.05.11.09.23.13.35s.08.24.12.37c.04.11.07.21.1.32.04.11.07.22.1.33.03.09.05.17.08.25.02.08.04.17.07.25l.06.23c.02.06.03.12.05.18.01.06.03.11.04.17.02.06.03.12.05.18 0 .06.03.12.04.17 0 .04.02.08.03.12 0 .01.01.01 0 .02h.01l.03.14c0 .05.02.09.03.14.02.05.03.09.03.14.02.05.03.09.04.14l.03.13c0 .05.02.09.03.13l.03.14c0 .04.02.09.03.13 0 .04.02.09.03.13 0 .05.02.1.03.14l.03.18c.02.06.03.12.04.18s.03.12.04.18l.03.18c.02.08.03.16.05.24 0 .06.03.13.04.2.04.22.08.45.12.68l.06.34c0 .09.03.18.04.27 0 .05.02.11.03.16 0 .05 0 .1.02.15 0 .05.02.1.02.15.01.04.01.07.02.11 0 .01.01.03.01.04 0 .05 0 .1.02.15.01.04.01.09.02.13 0 .04 0 .08.02.12v.13c0 .04 0 .08.02.12 0 .04 0 .09.02.13v.12c.01.05.01.09.02.13.01.05.01.09.01.13v.14c0 .04.02.09.02.13 0 .05 0 .09.02.14v.27c.01.06.01.12.01.18s.02.12.02.17c0 .06.02.12.02.17.01.06.02.12.02.18s.02.13.02.2c0 .08.02.16.02.24.01.08.02.16.02.24s.02.16.02.24c0 .1.02.21.03.32 0 .11.02.22.02.33s.02.23.02.35c.01.13.02.25.02.38s.02.26.02.38v.4c.01.13.01.27.01.4z"/><path fill="#56caf8" d="m66.48 18.92-1.02 2.95h-6.92v2.58l-7.87 2.89-8.34 4.2-.53 5.29-.18 1.75-19.08 2.31.83-1.67-.07-.15-1.69-3.67-5.69-2.31-1.19-1.88v-2.93l-1.3-1.59zm77.18-.06-3.86 3.01-1.25 3.22-.7 1.82-30.4 3.69-1.96-.96-.18-.52-1.37-3.93v-3.75l-7.52-4.64-1.93-1.97 44.2-6.46v4.05l3.65 1.12 1.33 5.32zm7.76 3.56.11-.55-3.92-7.27 3.38-5.3-1.07-2.58 8.41-1.23 2.14 2.63-2.31 2.84 6.44 2.58 1.89 6.4.34 1.15 4.09-.29-19.83 3.27z"/><path fill="#89deff" d="m144.83 25.1-.53.09-1.48 2.72-2.03-1.36L13.92 41.94c.07-.54.13-1.12.14-1.75l129.79-15.74zm48.49-7.99-46.91 7.73.96-1.75 45.88-7.56v.19c.01.13.02.25.02.38s.02.26.02.38v.4c.01.07.01.15.01.23z"/><path fill="#1d94c2" d="m138.55 25.09-.7 1.82-30.4 3.69-1.96-.96-.18-.52 33.25-4.03zM41.8 36.83l-.18 1.75-19.08 2.31.83-1.67-.07-.15zM170.92 20.8l-19.83 3.27.33-1.65 15.07-2.48.34 1.15z"/><path stroke="#0d200f" stroke-linecap="round" stroke-linejoin="round" stroke-width=".5" d="M193.31 16.88v-.4c0-.12-.01-.25-.02-.38 0-.13 0-.25-.02-.38 0-.12 0-.24-.02-.35 0-.11-.01-.22-.02-.33l-.03-.32c0-.08-.01-.16-.02-.24 0-.08 0-.16-.02-.24 0-.08 0-.16-.02-.24 0-.07-.01-.14-.02-.2 0-.06 0-.12-.02-.18 0-.05 0-.11-.02-.17 0-.05-.01-.11-.02-.17 0-.06 0-.12-.01-.18v-.27c-.01-.05-.01-.09-.02-.14 0-.04 0-.09-.02-.13v-.14s0-.08-.01-.13c0-.04 0-.08-.02-.13v-.12s0-.09-.02-.13c-.01-.04-.01-.08-.02-.12v-.13c0-.04-.02-.08-.02-.12s0-.09-.02-.13c0-.05-.02-.1-.02-.15 0-.01-.01-.03-.01-.04 0-.04 0-.07-.02-.11 0-.05 0-.1-.02-.15a1 1 0 0 1-.02-.15c0-.05-.02-.11-.03-.16 0-.09-.03-.18-.04-.27l-.06-.34c-.04-.23-.08-.46-.12-.68 0-.07-.03-.14-.04-.2-.02-.08-.03-.16-.05-.24l-.03-.18c0-.06-.03-.12-.04-.18 0-.06-.02-.12-.04-.18l-.03-.18-.03-.14-.03-.13-.03-.13c0-.05-.02-.09-.03-.14 0-.04-.02-.08-.03-.13 0-.04-.02-.09-.03-.13 0-.05-.02-.09-.04-.14 0-.05-.01-.09-.03-.14l-.03-.14-.03-.14h-.01v-.02l-.03-.12c0-.05-.03-.11-.04-.17-.02-.06-.03-.12-.05-.18 0-.06-.03-.11-.04-.17-.02-.06-.03-.12-.05-.18l-.06-.23c-.03-.08-.05-.17-.07-.25-.03-.08-.05-.16-.08-.25-.03-.11-.06-.22-.1-.33-.03-.11-.06-.21-.1-.32-.04-.13-.08-.25-.12-.37s-.08-.24-.13-.35c-.04-.12-.08-.23-.12-.34h-.01c-.03-.12-.07-.21-.12-.31l-.12-.3h-.01s0-.04-.02-.06c-.03-.07-.06-.14-.09-.2-.04-.09-.08-.17-.12-.25s-.08-.16-.12-.23c-.01-.03-.03-.06-.04-.09a.7.7 0 0 1-.07-.11c-.03-.07-.07-.13-.11-.19s-.08-.11-.11-.17h-.01s-.03-.05-.05-.08c-.02-.02-.04-.05-.06-.07-.04-.05-.08-.1-.12-.14a.7.7 0 0 0-.12-.12c-.02-.02-.05-.05-.07-.06a.13.13 0 0 0-.06-.05c-.05-.03-.08-.05-.12-.07s-.07-.03-.1-.04c-.03 0-.05-.02-.07-.02h-.15L75.55 17.61 5.09 27.91s-1.19 1.4-1.2 4.65c0 4.89 1.18 11.58 2.67 14.95.62 1.41 1.2 2.01 1.65 1.87-.02 0-.04.02-.06.02l184.07-26.93c.1-.01.2-.06.29-.15.06-.06.12-.13.17-.21.05-.07.09-.15.14-.24.09-.22.18-.49.25-.82.04-.14.07-.31.1-.49v-.02q.03-.21.06-.45c.01-.13.03-.27.04-.42v-.04c0-.12.02-.24.03-.37 0-.12.02-.26.02-.39v-1.99h-.02z"/><path fill="#b2eaff" stroke="#0d200f" stroke-linecap="round" stroke-linejoin="round" stroke-width=".5" d="M8.19 49.38s2.67-1.9 2.81-7.09l129.79-15.74 2.03 1.36 1.49-2.71 50.89-8.39s.42 3.59-2.7 5.52L8.2 49.39h-.01z"/><path fill="#708470" d="M78.56 39.3 53.63 24.91c-1.81-1.05-4.18-1.57-6.55-1.57s-4.73.52-6.53 1.57L15.78 39.3c-1.79 1.04-2.69 2.41-2.69 3.77v35.8c0 1.38.91 2.76 2.73 3.81l24.93 14.39c.11.07.23.13.35.19l.36.18c.12.06.24.11.37.16.09.04.18.08.26.11.17.07.33.13.51.19.07.03.14.05.22.07.09.03.19.06.28.09l.11.03c.06.02.13.04.19.05.14.04.28.07.42.1.12.03.23.05.36.08.3.06.61.12.92.16.29.05.58.08.88.1H46c.08 0 .16.01.24.02h.12c.12 0 .24.01.36.02h1.14c.11 0 .23 0 .34-.02.12 0 .25-.02.37-.03.1 0 .21-.02.31-.03h.09c.1 0 .19-.02.28-.03.23-.03.46-.06.69-.1.04 0 .08 0 .12-.02.12-.02.24-.04.36-.07s.24-.05.36-.08c.14-.03.28-.07.41-.1.09-.02.18-.05.28-.08s.19-.05.28-.09c.02 0 .04 0 .06-.02.02 0 .04 0 .05-.02.13-.04.26-.09.38-.13.18-.06.36-.13.53-.21.09-.04.19-.08.28-.12.05-.03.11-.05.16-.08.1-.05.19-.1.28-.15.12-.06.23-.12.34-.19L78.6 82.66s.08-.04.11-.07q.675-.405 1.17-.87s.09-.08.13-.13l.18-.18c.1-.1.18-.21.27-.31.14-.18.27-.37.37-.56.1-.17.18-.35.25-.52.07-.18.11-.35.15-.52v-2.73s0 .05-.01.08c0-.03.01-.05.01-.07V46.37s-.01.04-.02.06V43.7l.03-.11c.01-.08.03-.16.03-.25 0-.05.01-.09 0-.13v-.12c0-1.38-.91-2.76-2.73-3.81l.02.03z"/><path fill="#0d200f" d="M81.3 43.12s0 .07-.01.12c.01.04 0 .08-.01.12 0 .09-.01.18-.02.26 0 .03-.02.09-.02.11v2.71-.04 4.53l-4.14 7.48c-.63-.47-1.5-.92-2.41-1.36.16 2.82-.05 6.09-1.04 7.29-1.64 1.97-4.79-2.46-5.55-4.37l-2.24-5.69-.09-.23v-.04c-.04-.28-.14-.56-.32-.8-.23-.3-.58-.53-1.09-.61-.9-.15-1.4.23-1.4.23l-1.2-1.16.23-2.98 1.55-.33-2.43-6.17c-.75-1.92-.04-5.07 1.6-7.05 1.64-1.97 3.58-2.02 4.33-.1l1 2.55 1.14-2.08 2.21-.36 7.18 4.15c1.83 1.06 2.74 2.44 2.74 3.82z" opacity=".3"/><path fill="#0d200f" d="m65.76 54.01-.32-.8c.18.24.28.52.32.8" opacity=".3"/><path stroke="#708470" stroke-linecap="round" stroke-linejoin="round" d="M16.01 47.7 41.4 62.35s3.55 2.18 6.87 1.8 5.33-1.65 6.72-2.4 11.23-6.51 11.23-6.51"/><path stroke="#0d200f" stroke-miterlimit="10" stroke-width=".5" d="M78.59 39.12 53.66 24.73c-1.81-1.05-4.18-1.57-6.55-1.57s-4.73.52-6.53 1.57L15.81 39.12c-1.79 1.04-2.69 2.41-2.69 3.77v35.8c0 1.38.91 2.76 2.73 3.81l24.93 14.39c.11.07.23.13.35.19l.36.18c.12.06.24.11.37.16.09.04.18.08.26.11.17.07.33.13.51.19.07.03.14.05.22.07.09.03.19.06.28.09l.11.03c.06.02.13.04.19.05.14.04.28.07.42.1.12.03.23.05.36.08.3.06.61.12.92.16.29.05.58.08.88.1h.02c.08 0 .16.01.24.02h.12c.12 0 .24.01.36.02h1.14c.11 0 .23 0 .34-.02.12 0 .25-.02.37-.03.1 0 .21-.02.31-.03 0 0 .06 0 .09-.01.1 0 .19-.02.28-.03.23-.03.46-.06.69-.1.04 0 .08 0 .12-.02.12-.02.24-.04.36-.07s.24-.05.36-.08c.14-.03.28-.07.41-.1.09-.02.18-.05.28-.08s.19-.05.28-.09c.02 0 .04 0 .06-.02.02 0 .04 0 .05-.02.13-.04.26-.09.38-.13.18-.06.36-.13.53-.21.09-.04.19-.08.28-.12.05-.03.11-.05.16-.08.1-.05.19-.1.28-.15.12-.06.23-.12.34-.19l24.77-14.39s.08-.04.11-.07q.675-.405 1.17-.87s.09-.08.13-.13l.18-.18c.1-.1.18-.21.27-.31.14-.18.27-.37.37-.56.1-.17.18-.35.25-.52.07-.18.11-.35.15-.52v-2.73s0 .05-.01.08c0-.03.01-.05.01-.07V46.18s-.01.04-.02.06v-2.73l.03-.11c.01-.08.03-.16.03-.25v-.25c0-1.38-.91-2.76-2.73-3.81z"/><path fill="#0d200f" d="m69.53 48.75-9.25 5.38h-.02l-5.82 3.39-.03.02-1.96 1.14c-.8.46-1.82.8-2.94 1h-.07c-.66.11-1.35.16-2.05.16-1.93 0-3.79-.43-5.09-1.18l-.27-.16-1.23-.71-.82-.48-.04-.02h-.02l-.12-.08-.43-.25-.59-.34-.75-.44-.22-.12-.15-.09-.15-.08-.77-.45-.18-.1-.78-.45-.03-.02-3.43-1.98-.26-.16-2.7-1.56-.49-.28-.5-.28-.18-.1-3.29-1.9 5.88-3.42.21-.12 1.16-.67.2-.12.36-.21.32-.18 1.65-.96.05-.03.71-.41.05-.03.15-.09 3.68-2.14 2.69-1.56c.47-.28 1.02-.51 1.62-.69s1.26-.32 1.95-.4c.26-.03.52-.05.79-.07.23-.02.46-.02.7-.02h.39c1.79.05 3.49.48 4.7 1.17l2.86 1.65 2.44 1.41.67.39 1.78 1.03.09.05 5.54 3.2.1.05 1.55.9 1.18.68.14.08.73.42.2.12.1.06-.02.05z"/><path fill="#faf6e3" stroke="#0d200f" stroke-linecap="round" stroke-linejoin="round" stroke-width=".5" d="M36.6 18.54c.1-.08.28-.11.4-.07.06.02.1.06.1.1l.77 4.64s0 .09-.07.13c0 0-.02.02-.04.03h-.23s-.04 0-.06-.02h-.02s-.02 0-.02-.01l-.02-.02v-.04l-.77-4.64v.02s0-.1.06-.15l-.1.02z"/><path fill="#708470" stroke="#0d200f" stroke-linecap="round" stroke-linejoin="round" stroke-width=".5" d="m41.64 39.69-.24-.09s-.04-.01-.06-.02h-.2s-.02 0-.03.01h-.02s-.02 0-.03.02c0 0-.02.01-.03.02l-.02.01s-.02 0-.03.02l-.02.02s-.02.02-.03.02l-.03.03s-.01 0-.02.02c0 .01-.02.02-.03.03v.02l-.03.03s0 .01-.01.02c0 0-.02.02-.03.04 0 0-.01.02-.02.02 0 .01-.02.02-.02.04 0 0-.02.03-.02.04 0 0-.02.03-.02.04 0 .02-.02.03-.03.05 0 .02-.02.05-.04.07 0 .02 0 .03-.02.05v.1c0 .01 0 .02-.01.03v.73s0 .02.01.04v.02s0 .02.02.04v.03s.01.02.02.03a.4.4 0 0 0 .1.1l.02.01c.02 0 .05.03.07.04l.24.09c.15.06.33.02.52-.14.37-.3.61-.93.53-1.4-.04-.23-.15-.39-.29-.44l-.17.19zm6-5.1-.24-.09s-.04 0-.06-.02h-.16s-.02 0-.03.01h-.06s-.02 0-.03.02c0 0-.02.01-.03.02h-.02s-.02.01-.03.02c0 0 0 .01-.02.02 0 0-.02.02-.03.02l-.03.03-.02.02c0 .01-.02.02-.03.03v.02c0 .01-.02.02-.03.03l-.01.02s-.02.03-.03.05c0 0-.01.02-.02.02 0 0-.02.03-.02.05 0 0-.02.03-.02.04 0 0-.02.03-.02.04 0 .02-.02.03-.03.05 0 .02-.02.05-.04.07 0 .02 0 .03-.02.05v.1c0 .01 0 .02-.01.03v.73s0 .02.01.04v.02s0 .02.02.04v.03s.01.02.02.03a.4.4 0 0 0 .1.1h.02c.02.01.05.03.07.04l.24.09c.15.06.33.02.52-.14.37-.3.61-.93.53-1.4-.04-.23-.15-.39-.29-.44l-.17.18z"/><path fill="#faf6e3" d="m34.35 23.72-.48-2.88v.02q-.03-.075.06-.15c.1-.08.28-.11.4-.07.06.02.1.06.1.1l.47 2.85"/><path stroke="#0d200f" stroke-linecap="round" stroke-linejoin="round" stroke-width=".5" d="m34.35 23.72-.48-2.88v.02q-.03-.075.06-.15c.1-.08.28-.11.4-.07.06.02.1.06.1.1l.47 2.85"/><path fill="#faf6e3" stroke="#0d200f" stroke-linecap="round" stroke-linejoin="round" stroke-width=".5" d="M37.49 17.78c-.02-.11-.07-.18-.15-.19h.02l-.41-.16h-.14l-.88.62s-.06.05-.1.07c-.05.04-.1.08-.16.12-.06.05-.13.09-.19.14-.02.01-.03.02-.05.03-.1.08-.2.16-.31.24-.03.03-.06.05-.09.08l-.4.34-.36.33-.71.67h-.01v.02h-.01v.03s0 .01-.01.03v.07s0 .01-.01.02v.02s0 .03-.02.04v.43s.01 0 .02.02v.08s0 .01.01.02l.02.02h.01s.03.02.04.02l.41.16s-.02 0-.02-.01c.07.04.16.03.25-.04 0 0 .02 0 .03-.02l.56-.53.3-.43c.38-.54.92-.96 1.54-1.19l.31-.11.43-.3s.02-.01.02-.02c.16-.13.26-.4.23-.6v-.08h-.01l-.13.05z"/><path fill="#6f46bf" stroke="#0d200f" stroke-linecap="round" stroke-linejoin="round" stroke-width=".5" d="M46.04 23.73c-.09-.57-.36-.94-.72-1.07-.33-.12-2.04-.75-2.31-1.02-.36-.17-.78-.26-1.15-.07-.12-.42-.36-.7-.66-.81-.53-.11-2.12-1.04-2.65-.74-.39.19-1.14.55-1.02 1.08.28.52-2.3 2.12-2.53 2.43-.43.35-1.07.05-1.48.47-.87.63-1.41 1.64-1.56 2.69-.3.31 1.66 10.36 1.67 10.95l.69.22c-.06.97 1.31 1.23 1.96 1.54.21.08.45.08.7 0 .06.53.43.96.93 1.12a1 1 0 0 1-.1-.08c.4.26.93.14 1.37.36.3.12.62-.21.84-.32.99.11.95.1 1.81-.38.23.07.58.27.81.05l3.97-3.36c.75-.89-.58-.82 1.23-2.2l-1.82-10.85h.02z"/><path stroke="#0d200f" stroke-linecap="round" stroke-linejoin="round" stroke-width=".5" d="m41.88 21.57-5.39 4.74c-.93.82-1.37 2.06-1.16 3.28l1.67 9.8"/><path stroke="#0d200f" stroke-linecap="round" stroke-linejoin="round" stroke-width=".5" d="m40.74 39.86-1.55-8.77c-.25-1.39.28-2.81 1.37-3.7L44.68 24a.69.69 0 0 1 .96.07"/><path fill="#708470" d="m57.55 15.43 12.92 11.02-4.07 22.78-12.93-11.02 4.07-22.78zm10.8 1.95 8.07 6.89-.91 5.09-8.08-6.89.91-5.09z"/><path fill="#b8ccc0" d="m73.73 20.21 8.08 6.89-3.16 17.69-8.08-6.89z"/><path fill="#faf6e3" d="m70.57 37.9-12.29 4.4-4.8-4.09-11.29 7.64 9.94 8.49 14.28-5.11-.05-.04 12.29-4.4z"/><path fill="#ed6912" d="m60.82 12.21-4.61 25.81-16.59 11.65 4.61-25.81 16.58-11.65z"/><path fill="#753002" d="m61.47 12.76-4.61 25.81-16.58 11.65-.65-.55 16.58-11.65 4.61-25.81z"/><path stroke="#0d200f" stroke-miterlimit="10" stroke-width=".5" d="m44.13 47.51 12.73-8.94 3.68-20.6"/><path fill="#753002" d="m68.67 16.12.65.55-.91 5.09-.65-.55z"/><path fill="#ed6912" d="m68.67 16.12-.91 5.09 8.69-1.67-3.61 20.2-14.82 3.87 4.52-25.28 6.14-2.2h-.01z"/><path fill="#753002" d="m77.1 20.08-3.61 20.2-14.82 3.87-.65-.55 14.82-3.87 3.61-20.2z"/><path stroke="#0d200f" stroke-miterlimit="10" stroke-width=".5" d="m78.66 44.8-12.25 4.38v.06l-14.28 5.11-8-6.83-3.86 2.71-.65-.55 4.61-25.81 16.58-11.65.65.55-.93 5.21 1.79 1.53.21-1.19 6.14-2.2.65.55-.24 1.33 2.82 2.41 4.55-.88v.02l.66.55-.47 2.6 5.18 4.41zm0 0-.02-.02"/><path stroke="#0d200f" stroke-miterlimit="10" stroke-width=".5" d="m62.32 19.51-4.31 24.1.65.55 14.82-3.87 3.14-17.6"/><path fill="#291100" d="M36.54 60.86s-.05 0-.07-.02h.07z"/><path fill="#315716" stroke="#0d200f" stroke-linecap="round" stroke-linejoin="round" stroke-width=".5" d="M31.02 47.53s0-.05.02-.08c0 .03-.01.06 0 .08 0 .15 1.32 1.15 1.48 1.17h.09-.1c-.16-.02-1.46-.99-1.48-1.17z"/><path fill="#faf6e3" d="m27.67 27.91 2.44.97h.07c.03-.01.05 0 .06-.02l.53-.36s.02 0 .02-.02v-.03s0-.02-.01-.03l-.02-.02-2.42-.96s-.04-.01-.06 0c-.02 0-.04 0-.06.02l-.56.39s-.01 0-.02.02v.04s.01.01.02.01h.01z"/><path fill="#315716" d="M33.8 29.54s-.02-.03-.03-.04c.09.06.08.07.03.04"/><path fill="#0d200f" d="M37.93 56s-.04.03-.06.04-.03.03-.05.04l-.15-.09c.06-.07.12-.13.19-.18l.08.19z"/><path fill="#faf6e3" d="M33.8 29.54s-.02-.03-.03-.04c.09.06.08.07.03.04"/><path fill="#0d200f" stroke="#0d200f" d="M31.31 48.22v.1c.03.27.06.55.09.85.09.86.2 1.82.3 2.83l-1.76-1.02c.36-.87.87-2.12 1.31-3.19l.02.19c0 .07 0 .13.02.18v.06z"/><g opacity=".4"><path fill="#0d200f" d="m60.69 47.75.07 1.07.61-.63z"/><mask id="a" width="2" height="2" x="60" y="47" maskUnits="userSpaceOnUse" style="mask-type:luminance"><path fill="#fff" d="m60.69 47.75.07 1.07.61-.63z"/></mask><g mask="url(#a)"><path fill="#0d200f" d="m60.69 47.75.54-.84-1.67-1.08.13 1.99zm.07 1.07-1 .07.15 2.25 1.57-1.62zm.61-.63.72.7.85-.87-1.02-.66-.54.84zm-1.68-.37.07 1.07 2-.13-.07-1.07zm1.79 1.7.61-.63-1.44-1.39-.61.63zm.43-2.17-.68-.44-1.09 1.68.68.44z"/></g></g><path fill="#c24f02" stroke="#0d200f" stroke-linecap="round" stroke-linejoin="round" stroke-width=".5" d="m58.52 36.91-.22.21c-.17.05-.38.05-.62-.02-.12-.04-.25-.08-.37-.16l.28.08.28.08c.06.02.19 0 .24 0s.13-.02.2-.07c0 0 .06.02.07-.04.06.02.07-.04.07-.04z"/><path fill="#ed6912" stroke="#0d200f" stroke-linecap="round" stroke-linejoin="round" stroke-width=".5" d="M57.05 36.8c.08.05.15.1.23.13a.4.4 0 0 1-.23-.13"/><path fill="#ed6912" stroke="#0d200f" stroke-linecap="round" stroke-linejoin="round" stroke-width=".5" d="m58.3 37.12-3.54 3.46-.04.12c-.02.06-.07.04-.07.04l-.07.04-.06-.02s-.07.04-.13.02l-.12-.04-.06-.02-.12-.04-.06-.02-.06-.02-.06-.02c-.19-.22-.3-.33-.33-.34l.04.09-.06-.02-.12-.04-.06-.02-.12-.04-.06-.02-.18-.06-.06-.02-.12-.04-.06-.02-.06-.02s-.06-.02-.04-.07c0 0-.06-.02-.04-.07l-.06-.02-.06-.02-.04-.07s-.06-.02-.04-.07l-.06-.02c-.06-.02-.04-.07-.1-.09l-.04-.07s-.06-.02-.04-.07l-.04-.07-.04-.07-.04-.07-.04-.07-.08-.14-.04-.07-.04-.07-.04-.07s.02-.06-.04-.07c0 0 .02-.06-.04-.07l.02-.06s.02-.06-.04-.07l.04-.12.02-.06.04-.12.02-.06.04-.12.02-.06.04-.12.02-.06.02-.06s.04-.07.09-.1l3.68-3.59s.02-.01.04-.01.03-.01.04 0h.01l.01-.01c.2-.24.56-.33 1-.2.85.24 1.7 1.16 1.94 2.03.14.62-.07 1.07-.51 1.18"/><path fill="#0d200f" stroke="#0d200f" d="m53.22 39.54-.03-.03.07-.18-.39-.13s-.04-.04-.06-.05l-.02-.02c-.03-.03-.06-.05-.09-.08v-.01s-.01-.02-.03-.05v-.02a1 1 0 0 1-.04-.07.1.1 0 0 0-.03-.04v-.01c-.01-.01-.02-.02-.02-.03v-.06l-.05-.07c0-.01-.01-.03-.02-.05 0-.02-.02-.05-.03-.08s-.03-.07-.05-.12v-.02c0-.01-.01-.03-.02-.05 0-.02-.02-.05-.03-.08 0-.01-.01-.03-.02-.05 0-.03 0-.08-.01-.13 0-.02 0-.03-.01-.05v-.04l.03-.11.03-.11v-.03s.04-.03.05-.05l1.33-1.27c.31.92.8 1.79 1.43 2.57l-.9.87h-.02l-.03.03c-.02 0-.05.01-.09.02h-.06l-.22-.06-.28-.08-.06-.02h-.01s-.03-.02-.04-.03c-.01 0-.03-.02-.06-.03-.01 0-.03-.02-.05-.03l-.02-.02c-.02-.02-.05-.06-.09-.09z" opacity=".2"/><path fill="#fcfcfb" d="m48.01 26.39 9.8 15.92-.4-.11-6.43 6.54-.09-7.66-4.33-13.31-1.55-2.54 2.94 1.15.06.02z"/><path fill="#fcfcfb" d="M69.75 36.06s-.02.2-.07.53v.06c-.02.13-.04.28-.07.44v.05c-.02.08-.03.17-.05.26-.05.29-.13.62-.22.97-.21.81-.52 1.73-.96 2.55-.16.31-.34.59-.54.86-.04.05-.08.1-.11.15-.04.06-.09.11-.13.16-.05.05-.1.11-.15.16-.15.16-.39.4-.69.71l-.13.13c0 .02-.03.03-.04.05l-.19.19-.22.22c-.15.14-.3.3-.47.46-.14.13-.28.27-.43.42l-.05.05-.05.05-.28.28c-.52.52-1.1 1.08-1.71 1.69-.23.23-.48.47-.72.71-.74.72-1.52 1.49-2.31 2.26 0 .02-.03.03-.04.05-1.09 1.06-2.2 2.14-3.25 3.17-1.27 1.24-2.47 2.4-3.47 3.37-1.66 1.61-2.77 2.69-2.77 2.69-.36.34-.75.67-1.15.97-.66.11-1.35.16-2.05.16-1.93 0-3.79-.43-5.09-1.18l-.27-.16-1.23-.71-.82-.48-.04-.02c.16-.16.32-.32.49-.48l.03-.03c1.98-1.92 4.39-4.22 6.86-6.57.26-.24.51-.49.77-.73.44-.42.89-.85 1.34-1.27.23-.22.46-.44.69-.65.28-.27.57-.54.85-.8h.02c.07-.07.14-.13.21-.2.33-.31.65-.61.97-.92h.01c1.71-1.63 3.34-3.16 4.76-4.5 0 0 .05-.05.08-.07v-.01l.02-.02c.58-.54 1.12-1.05 1.61-1.51.04-.04.08-.08.12-.11 1.86-1.75 3.08-2.88 3.17-2.96 1.07-.92 2.37-1.28 3.7-1.35 1.11-.06 2.23.08 3.23.28.04 0 .08.02.12.03.04 0 .07 0 .1.02.03 0 .05 0 .08.02.23.04.37.18.45.31.01.02.03.04.04.06.01.03.03.05.03.07.04.08.05.15.05.15l-.04-.02z"/><path fill="#fcfcfb" d="m60.28 54.13-5.86 3.41-1.04-1.49v-.02l-.25-.34 2.8-2.7 3.75-3.62.44.07h.03l.06 2.01.08 2.68z"/><path stroke="#0d200f" stroke-linecap="round" stroke-linejoin="round" stroke-width=".5" d="M69.74 36.11v.07c0 .06 0 .15-.03.27 0 .04 0 .08-.02.13v.06c-.03.19-.06.42-.11.69v.05c-.05.29-.13.62-.21.96-.2.8-.5 1.72-.93 2.55-.1.18-.21.37-.32.54-.07.12-.14.22-.21.32-.06.08-.11.15-.18.22-.09.11-.18.21-.28.31-.15.15-.39.37-.68.65l-.13.13c-.01.02-.03.03-.04.05-.36.36-.81.79-1.32 1.29-.62.6-1.33 1.3-2.1 2.06-.71.69-1.47 1.44-2.25 2.21l-.15.15c-.21.21-.43.42-.64.63l-.04.04h.06l.06 1.97.08 2.68-5.82 3.38-1.04-1.5-.03.02c-.6.58-1.13 1.1-1.55 1.52-.14.14-.28.27-.4.39-.07.07-.13.13-.2.19-.1.1-.2.19-.28.27l-.11.11q-.06.045-.09.09l-.07.07c-.06.06-.1.09-.1.09-.34.32-.69.62-1.06.9-.64.1-1.44.18-2.13.18-1.93 0-3.79-.43-5.09-1.18l-.27-.16-1.23-.71-.82-.48c.27-.26.55-.53.83-.81 1.92-1.85 4.2-4.02 6.54-6.26.26-.24.51-.49.77-.73.44-.42.89-.85 1.34-1.27.23-.22.46-.44.69-.65.27-.26.54-.52.81-.77v-.3l-.05-3.79v-.04l-.02-.95v-.68l-.31-.91-3.7-11.4-.32-1-.89-1.46-.66-1.08.8.31.57.22 1.16.46.39.15 5.78 9.36.15.24.02.03.55.9 1.01 1.64.08.13v.02l.25.4.1.15.12.19 1 1.63.03.04h.02c.57-.54 1.09-1.04 1.58-1.5.04-.04.08-.08.12-.11 1.85-1.75 3.05-2.88 3.16-2.95 1.1-.94 2.45-1.29 3.82-1.35h.27c.3 0 .61 0 .91.03h.04c.65.04 1.29.14 1.89.26l.3.06c.47.08.57.59.57.59h-.01z"/><path stroke="#0d200f" stroke-linecap="round" stroke-linejoin="round" stroke-width=".5" d="M21.14 39.57h-.02l-3.78 2.21c-.9.52-1.23 1.04-1.23 1.24s.34.74 1.27 1.27l3.03 1.75.36.21.21.12 7.2 4.16.18.1.5.28.49.28 2.7 1.56.26.15 3.43 1.99.03.02.78.46.18.1.77.45.15.08.15.09.22.12.75.44.59.34.43.25.12.07h.02l.04.03.82.48 1.23.71.27.16c1.3.75 3.15 1.18 5.09 1.18.7 0 1.39-.05 2.05-.16h.07c1.12-.2 2.14-.54 2.94-1l1.96-1.14.03-.02 5.82-3.38h.02l12.37-7.2.02-.02"/><path fill="#0d200f" stroke="#0d200f" d="M246.3 28.95s-.01.1-.15.23-.37.27-.7.39c-.66.25-1.6.42-2.66.42s-2.01-.17-2.66-.42c-.33-.13-.56-.26-.7-.39s-.15-.21-.15-.23.01-.1.15-.23.37-.27.7-.39c.66-.25 1.6-.42 2.66-.42s2.01.17 2.66.42c.33.13.56.26.7.39s.15.21.15.23Zm.42 12.93s0 .1-.15.23c-.14.13-.37.27-.7.39-.66.25-1.6.42-2.66.42s-2.01-.17-2.66-.42c-.33-.13-.56-.26-.7-.39s-.15-.21-.15-.23.01-.1.15-.23.37-.27.7-.39c.66-.25 1.6-.42 2.66-.42s2.01.17 2.66.42c.33.13.56.26.7.39s.15.21.15.23Zm-15.56-12.93s-.01.1-.15.23-.37.27-.7.39c-.66.25-1.6.42-2.66.42s-2.01-.17-2.66-.42c-.33-.13-.56-.26-.7-.39s-.15-.21-.15-.23.01-.1.15-.23.37-.27.7-.39c.66-.25 1.6-.42 2.66-.42s2.01.17 2.66.42c.33.13.56.26.7.39s.15.21.15.23Z" opacity=".3"/><path fill="#0d200f" stroke="#0d200f" d="m280.5 83.52-37.97 21.42-.03.03-48.94 33.06-82.7 45.5-6.67-4.34 78.07-42.94 48.94-33.07.02-.01.02-.01 37.97-21.42-92.81-56.71 5.42-1.81z"/><path fill="#b2eaff" d="m283.67 83.67-44.87 18.51-48.13 35.54-54.07 24.75-25.76 21.64-26.86-15.51.63-1.68-2.6.55L1 120.69l34.25-25.23 48.71-22.98L127.8 39.4l3.83-.29-1.44-1.52 4.3-3.24 39.34-14.1z"/><path fill="#89deff" d="m283.67 83.67-44.88 18.52-104.3-67.84 39.34-14.09zM83.96 72.49l106.71 65.23-54.08 24.75L35.24 95.46z"/><path fill="#56caf8" d="m191.24 72.26-1.17.68-10.9-1.23 1.7-.99 8.12.25zM101.18 84.7l-1.04 1.85-1.94.38-.95-1.43-3.38-.31.95-1.3zm-4.8 1.67.57 1.6-2.1.47-.7-.94.16-.61z"/><path fill="#56caf8" d="m181.45 65.59-3.53-1.29-2.57-.13.42-1.85 1.73-1.36-29.45-20.41-1.81 1.05-3.92-2.13-7.44 6.47-2.25 6.19-5.8 3.4-.42 2.6-8.18 5.74-4.67 5.33-4.16.93 2.67-1.55-.56-1.42-7.98 4.01-4.23 6.93v2.6l2.9.19.62-1.98 4.28-1.23-1.4-1.55-.76-2.9 3 2.22 4.15-2.17-1.9 3.84.02 1.6-7.56 4.89-1.14 3.65 3.63.87-3.6 3.1 2.56 1.85 2.44-.93 1.3.87.33 4.76.78 3.16 5.25 3.03 11.51-.14 4.37-4.12 3.52-1.18 3.54 2.04 3.84.12 5.92 1.53 1.05 2.74 2.35.98 2.14.13 3.67 1.46 2.54-.1 2.99 1.11 1.81-1.05 3.07-3.52-.03-.02-1.82-2.91-.33-1.67-2.47-.93.42-3.59-2.79-1.61-3.98-1.05-.88-6.8-2.68-2.79-2.96 2.85-8.99-.87-5.99-1.86 1.17-.68 9.52 1.43 3.74 1.17 3.28-5.99-.97-2.05-3.85.38-1.27 1.35-5.56-.49.1-1.05 4.38-.19 4.18-1.17 4.89-2.35 5.75.12 8.47 2.66.52-1.05-3.01-3.21.2-3.1 3.93-1.17 2.26 1.3 2.24-1.06 4.71 2.1-1.52-2.72 4.17.81zm-58.06 11.32 1.17-1.55h.01l4.44-.22.73.99-4.14 1.49-1.44 1.21-2.4.28-.92-1.58zm2.03 7.38-1.71.87.75.93v.02l-7.13 2.16-1.93-1.12-5.95 5.08-1.4-.81 1.17-3.15-1.4-1.05 2.12-2.11 4.17-.55.32.8 1.71.49 1-1.7-5.19-.96 4.6-.44 4.9.74 1.29-.75-3-1.1 1.6-.93 3.94.67 4.36-2.54 3.01 2.48zm10.73-9.4-4.62-1.73-.17-2.94 2.46-.74h.01l1.06 1.74c.26.08 5.26 1.61 5.83 1.57h.04c.19.11-4.37 2-4.61 2.1M49.88 94.34l-2.55 2.23-1.71 3.94-6.92 4.02-6.5 1.43 9.38-7.78zM115.1 118l1.4 3.52 4.4 3.77-2.43 3.16 2.46 1.42 2.58 2.4-1.03 6.3 2.25.19.75 2.29 3.73-.19.87 1-4.26 1.48-3.85-.5-8.36-6.06-7.35-6.14-5.01.31-7.56-1.1-4.07-2.66-.9-2.64-3.04-.61-.48.56-3.44.51-3.64-.25-2.72.83-2.61.25-.35.54-6.52 1.04-1.73-.76-7.57-1.14-5.11.39-4.07-.62-5.03-2.9-3.47-.81-6.74.47-3.51 1.85-.14 4.3-1.92.31.26-2.38-4.55 1.07-.42-1.48-1.71-.18.31-1.05h-2.88l1.8-2.66 7.08-2.76.91-3.64 8.31-3.65 3.78-1.64 4.84-3.43 1.27-1.86 2.5-.9.86 1.3-1.94 5.72 2.89.12 5.17-1.76 1.92.56 2.4-.65-.54-.68.26-1.33-2.62-.46-2.31-1.83 5.05-1.59 2.58.26.13-1.83 9.21-.3.8 1.39-4.1 2.38-1.21 1.89 2.23-1.3 4 .03-3.82 3.28 1.55.47-1.33 1.51 1.75 2.41-.22 3.13 4.11 1.72-.44.52-4.41-.98-3.28.98-2.11 2.66 2.02 2.3 3.93 1.11 2.34-1.54 2.68.56 3.21-1.38 2.54 1.53 2.66-.32.34-.47 1.3-.78.45-1.51 6.93-2.78 4.5.14 3.1-1.54 3.76 2.98 8.85-2.17z"/><path fill="#56caf8" d="m36.5 107.95.94 1.04-3.58 2.73-5.62 1.08-1.25-1.46 5.79-1.22 2.8-2.7z"/><path fill="#e5f8ff" d="m283.67 83.67-44.45 18.71-47.99 36.17-54.64 23.91-25.75 21.64-7.74-4.07 4.71-2.14 10.27-9.2 22.13-14.89.1-6.71 1.21-.7 6.59 3.8 25.2-11.92 14.4-3.52 14.83-14.08 2.19-10.44 16.28-6.92 6.53-5.95c.29-.16 6.43-5.03 8.79-6.19 2.34-1.18 21.44-5.33 22.25-5.77l7.31-6.34 3.77-.1 4.2.49 9.84 4.2z"/><path stroke="#0d200f" stroke-linecap="round" stroke-linejoin="round" stroke-width=".5" d="m283.67 83.67-44.87 18.51-47.56 36.38-54.64 23.91-25.76 21.64-26.62-15.37.39-1.82-2.93.36L1 120.69l34.25-25.23 48.71-22.98L127.8 39.4l3.83-.29-1.44-1.52 4.3-3.24 39.34-14.1z"/><path fill="#1d94c2" d="m183.84 49.01-.97 3.14-2.96-.23 2.15-3.08-1.95-1.98 1.55-.9z"/><path fill="#1d94c2" d="m183.84 35.19 2.7 4.53-4.25-1-.87 1.11.83-3.21-2.79-.37-.08 2.04-8.3 1.24-1.86 3.67 5.49-2.07L179 43.6l-.76 1.06-3.75-2.17 1.96 4.08-1.71 1.49-.4 2.47 3.62.62-.08 1.8-5.13-1.49-1.5.87 2.03 1.79 3.96.56 2.17 4.82-2.83 2.22-33.87-22.02 4.16 1.06 3.11-1.31 8.15-1.58 6.39-.75 13.96-5.64 12.12-1.15 3.22 1.85zm46.89 35.34-2.97 2.48-5.26.17-5.52 1.5-3.92 4.51-3.1-.31-5.35-3.09 1.58-3.15-.66-1.61.74-2.41 2.34-1.36 1.28-1.61 2.99 1.11 2.4-.71-3.7-3.12 5.82 1.02 5.61 1.14 4.49.38 1.73 2.22zm-35.89-1.6-4.69.98-2.46-1.42 1.16-4.13 2.77.11zm22.07-8.11-5.87 1.3-2.01 1.17h-6.84l-1.34-1.45 3.47.71.74-.93 9.07-1.42zm-87.46 39.48-3.74 3.53-11.51.14-5.25-3.03-.77-3.16-.34-4.75-1.29-.87-2.45.93-2.56-1.86 3.6-3.09-3.63-.87 1.07-3.4 5.32 3.25-.09.09 1.4 1.05-1.18 3.16 1.41.81 2.84-2.43zm-28.27-15.6-1.04 1.85-1.94.38-.95-1.43-3.38-.31.95-1.3zm-4.8 1.67.57 1.6-2.1.47-.7-.94.16-.61zm33.7 55.49-4.27 1.48-3.84-.49-8.36-6.06-7.35-6.15-5.01.31-7.56-1.09-4.07-2.67-.9-2.64-3.04-.61-.48.56-3.44.51-2.04-.14-2.39-1.58 1.56-.67 2.54 1.53 2.66-.31.33-.48 1.31-.78.45-1.5 6.93-2.79 4.5.14 3.1-1.54 3.75 2.98 8.86-2.16 1.77.29 1.41 3.52 4.4 3.78-2.43 3.15 2.46 1.42 2.58 2.4-1.03 6.31 2.24.19.76 2.29 3.72-.2zM74.95 118.4l-.44.51-4.41-.97-.59.18-12.44-8.23 2.35-.65-.53-.67.26-1.34-2.62-.46-2.31-1.82 5.05-1.59 2.58.26.13-1.84 9.21-.3.8 1.39-4.1 2.38-1.21 1.89 2.23-1.3 4 .03-3.82 3.28 1.55.47-1.33 1.51 1.75 2.41-.22 3.13zM49.88 94.35l-2.55 2.22-1.71 3.94-1.46.85L40.59 99l.98-.82zm21.99-.5.12 2.79-6.61-.38-6.64-2.34-5.75 3.34-3.84.36 2.54-4.57 5.42-3.4 5-3.9 7.33-.2 7.33-4.26-1.35 3.77.23 2.96 2.63 1.52z"/><path fill="#0d200f" stroke="#0d200f" d="M70.31 84.05s0 .04-.02.08l-.05.05c-.14.15-.45.32-.94.43-.48.11-1.06.14-1.67.09l-.18-.02-.15.1-1.18.81.26-.55.23-.49-.5-.19c-.51-.19-.79-.42-.9-.59-.05-.08-.05-.12-.05-.14s0-.06.07-.13c.18-.2.62-.41 1.3-.5.66-.09 1.43-.06 2.17.11.75.17 1.24.45 1.47.69.11.12.13.2.14.23zm58.78-21.38s0 .04-.02.08l-.05.05c-.14.15-.45.32-.94.43-.48.11-1.07.14-1.67.09l-.18-.02-.15.1-1.18.81.26-.55.23-.49-.5-.19c-.5-.19-.78-.42-.89-.59-.05-.08-.05-.12-.05-.14s0-.06.07-.13c.18-.2.62-.4 1.3-.5.65-.09 1.43-.06 2.17.11.75.17 1.24.45 1.47.69.11.12.14.2.14.23zm-15.56 59.99s0 .04-.02.08l-.05.06c-.14.15-.45.32-.94.43-.48.11-1.07.14-1.67.09h-.18l-.15.09-1.18.81.26-.55.23-.49-.5-.19c-.5-.19-.79-.42-.9-.59-.05-.08-.05-.12-.05-.14s0-.06.07-.13c.18-.2.62-.4 1.3-.5.65-.09 1.43-.06 2.17.11.75.17 1.24.45 1.47.69.11.12.14.2.14.23Zm101.33-56.52s0 .04-.02.08l-.05.05c-.14.15-.44.32-.94.43-.48.11-1.06.14-1.67.09l-.18-.02-.15.1-1.18.81.26-.55.23-.49-.5-.19c-.5-.19-.79-.42-.89-.59-.05-.08-.05-.12-.05-.14s0-.06.07-.13c.18-.2.62-.4 1.3-.5.65-.09 1.43-.06 2.17.11.75.17 1.24.45 1.47.69.11.12.13.2.14.23z" opacity=".3"/><path fill="#faf6e3" d="m242.78 28.16 6.18-.99-6.18-1.09"/><path stroke="#0d200f" stroke-linecap="round" stroke-linejoin="round" stroke-width=".5" d="m242.78 28.16 6.18-.99-6.18-1.09"/><path fill="#ed6912" stroke="#0d200f" stroke-linecap="round" stroke-linejoin="round" stroke-width=".5" d="M240.64 30.33c1.73 0 3.14-1.41 3.14-3.14s-1.41-3.14-3.14-3.14-3.14 1.41-3.14 3.14 1.41 3.14 3.14 3.14"/><path fill="#ff893a" d="M240.5 26.61c.56 0 1.02-.46 1.02-1.02s-.46-1.02-1.02-1.02-1.02.46-1.02 1.02.46 1.02 1.02 1.02"/><path fill="#faf6e3" d="m239.79 38.93-3.97 4.84 5.34-3.29"/><path stroke="#0d200f" stroke-linecap="round" stroke-linejoin="round" stroke-width=".5" d="m239.79 38.93-3.97 4.84 5.34-3.29"/><path fill="#ed6912" stroke="#0d200f" stroke-linecap="round" stroke-linejoin="round" stroke-width=".5" d="M242.03 41.37c1.73 0 3.14-1.41 3.14-3.14s-1.41-3.14-3.14-3.14-3.14 1.41-3.14 3.14 1.41 3.14 3.14 3.14"/><path fill="#ff893a" d="M243.2 40.35c.56 0 1.02-.46 1.02-1.02s-.46-1.02-1.02-1.02-1.02.46-1.02 1.02.46 1.02 1.02 1.02"/><path fill="#faf6e3" d="m226.92 28.33 5.54 2.91-4.29-4.57"/><path stroke="#0d200f" stroke-linecap="round" stroke-linejoin="round" stroke-width=".5" d="m226.92 28.33 5.54 2.91-4.29-4.57"/><path fill="#ed6912" stroke="#0d200f" stroke-linecap="round" stroke-linejoin="round" stroke-width=".5" d="M225.79 29.42c1.73 0 3.14-1.41 3.14-3.14s-1.41-3.14-3.14-3.14-3.14 1.41-3.14 3.14 1.41 3.14 3.14 3.14"/><path fill="#ff893a" d="M226.63 25.93c.56 0 1.02-.46 1.02-1.02s-.46-1.02-1.02-1.02-1.02.46-1.02 1.02.46 1.02 1.02 1.02"/><path fill="#faf6e3" d="m122.4 59.75.98 6.18 1.09-6.18"/><path stroke="#0d200f" stroke-linecap="round" stroke-linejoin="round" stroke-width=".5" d="m122.4 59.75.98 6.18 1.09-6.18"/><path fill="#ed6912" stroke="#0d200f" stroke-linecap="round" stroke-linejoin="round" stroke-width=".5" d="M123.37 60.75c1.73 0 3.14-1.41 3.14-3.14s-1.41-3.14-3.14-3.14-3.14 1.41-3.14 3.14 1.41 3.14 3.14 3.14"/><path fill="#ff893a" d="M124.96 58.48c.56 0 1.02-.46 1.02-1.02s-.46-1.02-1.02-1.02-1.02.46-1.02 1.02.46 1.02 1.02 1.02"/><path fill="#faf6e3" d="m63.62 80.9.98 6.17 1.09-6.17"/><path stroke="#0d200f" stroke-linecap="round" stroke-linejoin="round" stroke-width=".5" d="m63.62 80.9.98 6.17 1.09-6.17"/><path fill="#ed6912" stroke="#0d200f" stroke-linecap="round" stroke-linejoin="round" stroke-width=".5" d="M64.59 81.9c1.73 0 3.14-1.41 3.14-3.14s-1.41-3.14-3.14-3.14-3.14 1.41-3.14 3.14 1.41 3.14 3.14 3.14"/><path fill="#ff893a" d="M66.18 79.63c.56 0 1.02-.46 1.02-1.02s-.46-1.02-1.02-1.02-1.02.46-1.02 1.02.46 1.02 1.02 1.02"/><path fill="#faf6e3" d="m106.84 119.51.98 6.18 1.09-6.18"/><path stroke="#0d200f" stroke-linecap="round" stroke-linejoin="round" stroke-width=".5" d="m106.84 119.51.98 6.18 1.09-6.18"/><path fill="#ed6912" stroke="#0d200f" stroke-linecap="round" stroke-linejoin="round" stroke-width=".5" d="M107.81 120.52c1.73 0 3.14-1.41 3.14-3.14s-1.41-3.14-3.14-3.14-3.14 1.41-3.14 3.14 1.41 3.14 3.14 3.14"/><path fill="#ff893a" d="M109.4 118.25c.56 0 1.02-.46 1.02-1.02s-.46-1.02-1.02-1.02-1.02.46-1.02 1.02.46 1.02 1.02 1.02"/><path fill="#faf6e3" d="m208.48 63.39.98 6.18 1.09-6.18"/><path stroke="#0d200f" stroke-linecap="round" stroke-linejoin="round" stroke-width=".5" d="m208.48 63.39.98 6.18 1.09-6.18"/><path fill="#ed6912" stroke="#0d200f" stroke-linecap="round" stroke-linejoin="round" stroke-width=".5" d="M209.45 64.4c1.73 0 3.14-1.41 3.14-3.14s-1.41-3.14-3.14-3.14-3.14 1.41-3.14 3.14 1.41 3.14 3.14 3.14"/><path fill="#ff893a" d="M211.04 62.13c.56 0 1.02-.46 1.02-1.02s-.46-1.02-1.02-1.02-1.02.46-1.02 1.02.46 1.02 1.02 1.02"/><path stroke="#e5f8ff" stroke-linecap="round" stroke-linejoin="round" d="m76.83 123.24-7.34-4.82"/><path stroke="#e62b17" stroke-miterlimit="10" d="M109.28 88.26c.36-.56.51-.85.51-.85"/><path fill="#b2eaff" d="m190.67 137.72-54.08 24.75-4.67-3.09 8.28-5.57.1-6.71 1.2-.7 6.59 3.81 25.2-11.92 13.08-3.2zm93-54.05-44.88 18.52-9.47-6.16c2.07-1.57 5.39-4.05 6.98-4.84 2.34-1.17 21.44-5.33 22.25-5.77l7.31-6.34 3.78-.1 4.19.49z"/><path stroke="#e5f8ff" stroke-linecap="round" stroke-linejoin="round" d="m238.79 102.19-62.15-40.07m-44.94 97.41-52.13-34.28"/><path stroke="#b2eaff" stroke-linecap="round" stroke-linejoin="round" d="m176.06 61.72-33.79-22.09"/><path stroke="#e5f8ff" stroke-linecap="round" stroke-linejoin="round" d="m134.73 34.69 7.13 4.74"/><path stroke="#b2eaff" stroke-linecap="round" stroke-linejoin="round" d="m79.12 124.75-1.79-1.16m-8.47-5.54-12.63-8.22"/><path fill="#0d200f" d="M138.2 87.74c.12-.24.04-.53.19-.91.09-.21-.25-.29-.57-.33 0 0 .02-.02.02-.03.03-.05.06-.11.09-.16.02-.03.04-.07.06-.11 0-.02.02-.03.03-.05.02-.02.03-.05.04-.07.03-.06.06-.11.08-.17 0-.02.02-.04.03-.06.03-.06.06-.12.08-.17.03-.06.05-.11.08-.17 0-.02.02-.05.03-.07 0-.03.03-.07.04-.1.02-.05.04-.11.07-.16 0-.02.02-.04.03-.06 0-.03.02-.06.04-.09.03-.07.05-.14.08-.21.04-.12.08-.22.12-.32.02-.05.03-.1.05-.15.01-.04.02-.08.04-.11 0-.03.02-.06.03-.08v-.04s0-.02.01-.03v-.02l.03-.11c0-.02 0-.04.02-.06 0 0 0-.04.01-.06v-.13c.4-.19.25-.25.19-.26h-.03c.21-.2.08-.58-.14-.97-.07-.12-.14-.24-.22-.35-.06-.08-.12-.17-.18-.25-.09-.11-.16-.21-.24-.3-.07-.09-.14-.16-.19-.22a.3.3 0 0 1-.06-.07s.06-.07.07-.1c.02-.04.02-.08 0-.11 0-.02-.02-.03-.03-.05 0 0-.02-.03-.05-.05 0 0-.02-.02-.04-.03 0 0-.02 0-.03-.02h-.02s-.02 0-.03-.01c0 0-.02-.01-.03-.01-.03 0-.06-.02-.09-.03h-.03l-.07-.02c-.16-.04-.36-.07-.59-.09-.04 0-.08 0-.12-.01h-2.89c-.11 0-.22 0-.34.01-.17 0-.35.02-.52.03-.1 0-.18 0-.28.02l-.39.02c-.08 0-.15.01-.23.02-.15 0-.3.02-.45.03-.08 0-.17.01-.25.02-.2.01-.4.03-.59.04-.09 0-.18.01-.27.02-.15 0-.29.02-.44.04-.36.03-.72.07-1.05.1-.1 0-.2.02-.31.03-.16.02-.32.03-.48.05-.11 0-.22.03-.33.04-.13.01-.26.03-.38.04-3.65.44-8.51 2.3-8.51 2.3l-8.59 8.9c-10.53 4.16-24.41 9.65-25.1 9.94-.09.04-.17.07-.25.11-.03.01-.06.03-.09.04-.29.14-.46.26-.56.35 0 0-.01.01-.01.02s-.03.03-.04.04c-.03.04-.05.08-.07.1v.07h-.01c-.18.11-.37.24-.57.38-.14.1-.29.21-.44.32-.1.07-.19.15-.29.22-.04.04-.09.07-.14.11l-.28.22c-.14.11-.27.22-.4.32-.21.18-.41.34-.58.49-.1.09-.19.17-.28.24-.16.14-.28.25-.35.31l-.04.04c-.24.09-.43.17-.59.25-.08.04-.15.08-.22.11-.1.06-.17.11-.23.16-.08.07-.13.12-.15.18v.09s.02.05.05.08c.03.04.08.07.12.08.01 0 .03.01.04.01h.01s0 .02.02.04c-.02 0-.04 0-.05-.01-1.61 1.58-2.5 2.82-3.22 4.12l-.02.04s-1.35.52-1.58.83c0 0-.6.23-.49.48 0 0-1.68 1.1-.88 1.53.81.42 1.21.44 1.21.44s-.15.51 1.03.14c0 0 .21-.09.6-.06 0 0 6.75-.21 7.52-.31 0 0-.09.48.93.18 0 0 .5-.13.51-.22 0 0 4.35-.54 6.72-1.38 2.36-.83 3.88-1.46 4.18-1.96h.02c.07 0 .24-.01.48-.02.63-.04 1.7-.13 2.34-.29l.03-.02c.16-.03.33-.06.51-.1.92-.22 1.94-.62 2.93-1.12.19-.1.39-.21.58-.31.25-.14.51-.3.75-.45l.36-.24c.24-.16.47-.33.68-.5s.42-.34.61-.51c.16-.15.31-.29.43-.42.07-.07.13-.14.19-.21.02-.02.04-.05.06-.07.06-.07.11-.14.16-.21.07-.1.14-.2.18-.3.02-.03.04-.07.05-.1l.84-.04-.1.07c-.03.02-.05.03-.06.05-.02.01-.02.02-.02.02l.31.04s16.02-6.45 17.2-6.95c.18-.08.33-.14.46-.19h.17c.07 0 .24-.01.48-.02.63-.04 1.7-.13 2.34-.29l.03-.02c.16-.03.33-.06.51-.1.92-.22 1.94-.62 2.92-1.12.2-.1.39-.2.58-.31.25-.14 1.75-1.35 1.99-1.51 0 0 1.73-3.32 2.01-3.53s.61-1.21.85-1.43c.29-.26-.46-.45-.27-.68l-.51-.3c.02.13.75-.15 1.93-.6 0 0-.64-.72-.52-.95v-.13z" opacity=".3"/><path fill="#e62b17" fill-rule="evenodd" d="M130.76 60.17c-.58-.14-1.17-.18-1.77-.13l-.08-1c.69-.05 1.39 0 2.07.15l-.23.97zm-3.53.24c-.56.19-1.12.43-1.69.74l-.47-.88c.61-.33 1.23-.6 1.85-.8l.31.95zm5.92.96c-.25-.2-.49-.37-.74-.52l.52-.86a7.6 7.6 0 0 1 1.67 1.35l-.73.68c-.22-.23-.45-.45-.71-.66zm-9.21.77c-.5.35-1 .74-1.5 1.16l-.64-.77c.51-.43 1.04-.84 1.57-1.21zm11.61 3.36c-.14-.67-.33-1.3-.61-1.87l.9-.43c.31.66.54 1.37.68 2.1l-.98.2zm-14.52-.94c-.45.44-.9.89-1.34 1.36l-.73-.68c.45-.48.91-.95 1.38-1.4zm-2.61 2.79c-.42.49-.83.98-1.22 1.48l-.78-.62c.4-.5.82-1.01 1.25-1.51l.76.65zm17.33 2.19q.06-1.065.03-2.04l1-.04c.03.69.01 1.41-.03 2.14zm-19.73.81c-.4.53-.77 1.05-1.13 1.56l-.82-.58c.36-.51.74-1.04 1.15-1.58zm19.26 3.31c.1-.7.2-1.39.28-2.06l.99.12c-.08.69-.18 1.39-.28 2.09zm-21.47-.17c-.39.58-.74 1.13-1.05 1.61l-.85-.53c.31-.49.67-1.05 1.06-1.64l.83.55zm20.84 4.32c.1-.7.21-1.39.32-2.08l.99.15c-.11.69-.21 1.38-.31 2.07l-.99-.14zm-23.37-.25-.87-.49.02-.05c.02-.04.05-.09.09-.16.08-.14.2-.35.36-.61l.86.51c-.15.26-.27.46-.35.6-.04.07-.07.12-.09.16zm22.91 4.46c.04-.7.11-1.41.19-2.11l.99.11c-.08.69-.14 1.38-.18 2.06zm.11 4.27c-.09-.7-.14-1.42-.16-2.14l1-.02c.01.69.06 1.37.15 2.03zm-30.82-.48c-.16.23-.34.49-.54.77l-.81-.59c.2-.27.37-.52.53-.75zm-1.67 2.27c-.35.45-.74.94-1.18 1.46l-.77-.64c.43-.52.81-.99 1.16-1.44zm33.73 2.37c-.33-.65-.6-1.33-.8-2.03l.96-.28c.19.64.43 1.26.73 1.86l-.89.46zm-36.13.51c-.39.44-.8.91-1.24 1.39l-.74-.67q.66-.72 1.23-1.38zm38.87 2.88c-.58-.48-1.09-1-1.54-1.55l.78-.63c.4.5.86.97 1.4 1.41zm-41.38-.11c-.41.43-.84.88-1.3 1.35l-.71-.7c.45-.46.88-.9 1.28-1.33l.73.69zm45.1 2.3c-.7-.29-1.34-.61-1.92-.95l.5-.86c.55.32 1.15.62 1.81.89zm-47.71.37c-.43.42-.87.86-1.34 1.3l-.69-.72c.46-.44.9-.87 1.33-1.29zm50.77.65c-.36-.09-.71-.19-1.05-.29l.29-.96c.33.1.66.19 1.01.28h.03l.06.02c.05.02.14.04.24.07.21.06.5.14.87.25l-.28.96c-.36-.11-.66-.19-.86-.25-.1-.03-.18-.05-.24-.07l-.08-.02zm5.86 1.81c-.78-.27-1.58-.52-2.34-.76l.3-.95c.76.24 1.57.5 2.36.77l-.32.95zm-72.12-.99c.79-.15 1.52-.22 2.18-.2l-.03 1c-.55-.02-1.21.04-1.96.18l-.18-.98zm12.79 1.11c-.44.41-.9.84-1.37 1.27l-.67-.74c.47-.43.92-.85 1.36-1.26zm-16.86.05a34 34 0 0 1 2.01-.66l.28.96c-.62.18-1.27.4-1.95.64zm8.51-.55c.31.31.5.71.59 1.18.07.37.07.76 0 1.15l-.99-.15c.05-.31.04-.58 0-.82-.05-.29-.17-.5-.32-.66zm71.06 1.7c-.3-.15-.67-.31-1.09-.48l.38-.93c.44.18.83.35 1.16.52zm-83.47.43c.65-.29 1.29-.56 1.93-.82l.38.93c-.63.25-1.26.53-1.9.81l-.41-.91zm18.01.89c-.23.21-.46.41-.7.62-.26.23-.51.45-.77.66l-.64-.77c.25-.2.5-.42.75-.64.23-.21.47-.41.7-.62l.67.75zm-20.85.43c.31-.15.63-.3.94-.45l.43.9-.93.45c-.31.15-.57.31-.79.46l-.58-.82q.405-.285.93-.54m15.16.89c-.28.57-.64 1.16-1.04 1.76l-.83-.56c.39-.57.72-1.12.97-1.64zm2.62 1.18c-.56.4-1.13.77-1.69 1.11l-.52-.86c.54-.33 1.08-.68 1.62-1.07l.58.81zm-19.11 2.54c-.66-.59-1.06-1.35-.94-2.17l.99.14c-.06.38.11.83.62 1.29zm15.66-.46c-.62.31-1.24.59-1.84.83l-.05-.12c-.26.32-.54.63-.82.95l-.75-.66c.44-.5.87-1 1.26-1.5l.33.26c.47-.2.94-.41 1.42-.65zm-3.76 1.5c-.67.2-1.33.36-1.97.48l-.19-.98c.61-.12 1.24-.27 1.88-.46zm-8.05.6c-.74-.13-1.41-.32-2-.55l.37-.93c.52.21 1.13.38 1.81.5zm4.07.16c-.71.06-1.39.08-2.04.05l.03-1c.61.02 1.25 0 1.92-.05l.08 1zm3.67.87c-.46.48-.93.96-1.4 1.42l-.7-.71c.47-.46.93-.93 1.38-1.4zm-2.83 2.81c-.5.47-.99.92-1.46 1.35l-.67-.74c.47-.43.96-.88 1.45-1.34l.69.73zm-2.95 2.68c-.54.48-1.05.91-1.51 1.3l-.65-.76c.45-.38.96-.82 1.5-1.29zm-3.81 3.2-.06.05-.07.03c-.34.13-.7.26-1.07.38l-.3-.95c.33-.1.64-.21.94-.33.03-.03.08-.06.14-.11.13-.1.32-.26.56-.45l.63.77c-.24.2-.44.35-.57.46q-.105.075-.15.12l-.04.03zm-3.37 1.03q-1.065.24-2.19.42l-.16-.99c.74-.12 1.45-.26 2.14-.41l.22.98zm-4.4.73c-.74.09-1.47.17-2.21.24l-.09-1c.72-.07 1.45-.14 2.18-.23zm-4.41.41c-.76.05-1.5.09-2.21.12l-.04-1c.7-.03 1.44-.07 2.19-.12l.07 1zm-4.43.2c-.39 0-.76.02-1.1.02l-.02-1c.34 0 .71-.01 1.09-.02z" clip-rule="evenodd"/><path fill="#753002" d="m120.94 95.25-2.25-1.03-1.15-4.91 1.22.02 2.25.97-.03 2z"/><path fill="#0d200f" d="M119.25 96.1c-.74 2.64-2.55 4.47-4.4 4.44-.17 0-.34-.02-.5-.06v.04c-.61 0-1.74-.43-2.41-.72-.25-.11-.44-.2-.51-.23h-.02c-1.56-.92-2.2-3.41-1.45-6.07.74-2.64 2.55-4.46 4.4-4.43.14 0 .28.01.41.04v-.03l2.01.6.69.2v-.02c1.8.76 2.57 3.4 1.78 6.24m-24.3 12.33c-.74 2.64-2.55 4.47-4.4 4.44-.17 0-.34-.02-.5-.06v.04c-.61 0-1.74-.43-2.41-.72-.25-.11-.44-.2-.51-.23h-.02c-1.56-.92-2.2-3.41-1.45-6.07.74-2.64 2.55-4.46 4.4-4.43.14 0 .28.01.41.04v-.03l2.01.6.69.2v-.02c1.8.76 2.57 3.4 1.78 6.24"/><path fill="#708470" d="M93.33 107.97c-.47 1.67-1.62 2.83-2.65 2.73.92-.18 1.68-1.16 2.01-3.7.32-2.46-1.16-2.75-1.26-2.77.29-.11.58-.13.86-.05 1.08.3 1.55 2 1.05 3.79z"/><path fill="#b8ccc0" d="M92.94 107.93c-.16.55-.45 1.01-.79 1.29-.39.93-.9 1.36-1.48 1.48-.07 0-.14-.02-.21-.04-1.08-.3-1.55-2-1.04-3.79.38-1.33 1.18-2.33 2-2.64.08.02 1.15.23 1.3 1.76.33.43.43 1.17.22 1.94"/><path fill="#fcfcfb" d="M91.87 107.26c.57-.65.75-1.43.39-1.75-.36-.31-1.11-.04-1.68.61s-.75 1.43-.39 1.75c.36.31 1.11.04 1.68-.61"/><path fill="#708470" d="M117.63 95.64c-.47 1.67-1.62 2.83-2.65 2.73.92-.18 1.68-1.16 2.01-3.7.32-2.46-1.16-2.75-1.26-2.77.29-.11.58-.13.86-.05 1.08.3 1.55 2 1.05 3.79z"/><path fill="#b8ccc0" d="M117.24 95.6c-.16.55-.45 1.01-.79 1.29-.39.93-.9 1.36-1.48 1.48-.07 0-.14-.02-.21-.04-1.08-.3-1.55-2-1.04-3.79.38-1.33 1.18-2.33 2-2.64.08.02 1.15.23 1.3 1.76.33.43.43 1.17.22 1.94"/><path fill="#fcfcfb" d="M116.17 94.94c.57-.65.75-1.43.39-1.75-.36-.31-1.11-.04-1.68.61s-.75 1.43-.39 1.75c.36.31 1.11.04 1.68-.61"/><path fill="#ed6912" d="M66.8 89.94s.89-3.3 1.92-4.79c0 0-.27-.75.64-1.27s30.86-14.71 30.86-14.71 4.11-1.77 7.85-.63 11.78 4.51 11.41 6.6c0 0 2.88 5.28 2.65 6.28 0 0 .39.3 0 .58 0 0 1.3 7.24.36 11.39l-1.6.96s-.66-3.29-1.83-2.98-3.91 2.03-3.91 2.03-1.52.89-2.51 3.55c-1 2.65-.82 2.11-1.79 2.68s-14.29 7.25-14.29 7.25l-.37-.3s.86-1.53-.13-2.42c0 0-.83-.6-6.89 3.11 0 0-1.13.48-1.66 1.89s-.89 3.7-3.35 3.91-5.43.63-11.77-2.3-6.21-2.93-6.4-4.6-.87-8.94.38-14.34c0 0-1.19-1.23.42-1.9h.01z"/><path fill="#faf6e3" d="M122.14 82v.04c-3.73 1.86-32.73 16.32-35.28 17.49-2.73 1.25-4.47.6-4.47.6-4.93.22-10.6 5.89-10.6 5.89-.41-2.93-5.42-14.18-5.42-14.18-.08-.09-1.12-1.25.43-1.89 0 0 .89-3.31 1.92-4.79 0 0-.27-.75.64-1.27s30.86-14.71 30.86-14.71 4.11-1.77 7.85-.63 11.78 4.51 11.42 6.59c0 0 2.87 5.29 2.65 6.28 0 0 .39.3 0 .58"/><path fill="#fcfcfb" d="M119.28 74.48c-.6.88-1.27 1.05-1.27 1.05s-26.1 13-29.46 14.61c-3.36 1.62-4.24 1.69-6.07 1.54s-7.02-2.11-10.7-4.41c-3.35-2.1-3.31-2.67-3.28-2.75 0 0-.27-.76.64-1.28S100 68.53 100 68.53s4.11-1.77 7.85-.63 11.78 4.51 11.42 6.59h.01z"/><path stroke="#b8ccc0" stroke-linecap="round" stroke-linejoin="round" d="M68.81 85.07s11.57 8.16 17.51 6.07"/><path stroke="#fcfcfb" stroke-linecap="round" stroke-linejoin="round" d="M66.58 100.29s-1.67.94.61 2.16 13.31 8.52 17.89 7.46 27.22-13.04 35.61-17.11c0 0 2.45-.87 1.46-1.4"/><path stroke="#fcfcfb" stroke-linecap="round" stroke-linejoin="round" d="M67.21 99.03s-1.67.94.61 2.16 13.31 8.52 17.89 7.46 27.22-13.04 35.61-17.11c0 0 1.93-.66.94-1.19"/><path fill="#0d200f" d="m116.5 83.66-2.79 1.37c-.13-1.42-.31-3.27-.48-5.03-.03-.29.13-.57.39-.7l1.44-.71c.47 1.66 1.01 3.53 1.44 5.07M93.43 95l-5.09 2.5c-.12-1.33-.29-3.08-.46-4.8-.04-.43.19-.84.57-1.03l4.01-1.97c.21-.1.46.03.48.27.17 1.74.35 3.58.49 5.04zm6.14-3.01-4.78 2.35c-.13-1.4-.31-3.31-.5-5.15-.02-.22.1-.44.3-.54l3.89-1.91c.27-.13.58.04.61.34.16 1.6.34 3.38.48 4.9zm6.47-3.18-4.85 2.39c-.13-1.4-.3-3.2-.47-4.93-.03-.35.15-.69.47-.85l3.83-1.88c.24-.12.53.04.56.31.17 1.77.35 3.59.47 4.96zm6.18-3.04-4.65 2.29c-.11-1.3-.29-3.14-.47-4.98-.03-.33.14-.64.44-.79l3.58-1.76c.28-.14.6.05.63.35.17 1.69.34 3.47.47 4.89m7.87-3.87-3.23 1.59c-.43-1.54-.98-3.41-1.45-5.07l2.71-1.33c.67 1.54 1.33 3.33 1.97 4.81m-1.51-5.01 1.76 4.67s1.45-.74.99-1.46l-1.85-4.09z"/><path fill="#0d200f" d="M122.84 90.26c-.02.72-.06 1.42-.15 2.07-1.02 1.39-1.8.68-1.99 1.2-.29-.95-.84-2.37-1.63-2.16-1.17.32-3.91 2.03-3.91 2.03s-1.52.89-2.52 3.55c-1 2.65-.82 2.11-1.79 2.68s-14.29 7.25-14.29 7.25l-.37-.3s.86-1.53-.13-2.42c0 0-.82-.6-6.88 3.1 0 0-1.14.49-1.66 1.89-.53 1.41-.89 3.7-3.35 3.91-.38.03-.78.07-1.2.1l.86-20.8c.35-.87 1.35-2.28 4.19-3.43 4.47-1.81 28.67-14.02 28.67-14.02s1.25-.57.03-1.88l-1.13-.92c-1.35-.89-2.61-1.23-1.82-1.39.19.09.37.17.56.26.12.06.24.11.37.18.07.04.15.08.23.11 1.61.8 3.03 1.65 3.84 2.45.05.05.09.09.13.14.04.04.08.09.12.13.26.3.43.6.46.88v.12s0 .08-.01.12c0 0 2.87 5.29 2.65 6.28 0 0 .39.3 0 .58 0 0 .59 3.27.69 6.68.02.53.02 1.06 0 1.58z" opacity=".1"/><path fill="#fcfcfb" d="M122.11 95.14c-1.93.85-1.5-.4-1.45-1.37 0-.1.02-.18.04-.24.19-.52.97.18 1.99-1.2.8-1.1.6-1.7.15-2.07.01-.52 0-1.05 0-1.58.38.3.81.73.86 1.21.08.87.38 1.69.41 2.23.02.53-.05 2.19-1.98 3.04zm-35.3 15.99c-.53.11-1.21.93-2.5 1.12s-2.88.16-2.88.16.52-1.49-4.01-2.57c0 0 .55-.3-.41-.68-.95-.38-.92.2-.92.2l-8.73-4.72s.14-.75-.57-.85c0 0-.49-.31-.5.03 0 0-2.15-1.57-.78-1.9l.18-.14-.07-1.18s-1.14.5-1.19 1.16c0 0-.5.23-.22.92 0 0-1.11 1.8.07 3.41 1.19 1.6 1.64 1.9 1.64 1.9s.19 1.24 1.24 1.01c0 0 .17-.11.62.23 0 0 7.33 3.67 8.12 3.9 0 0 .23 1.19 1.15 1.03 0 0 .46-.03.42-.24 0 0 4.45 1.32 6.5.64s3.3-1.37 3.28-2.47c-.02-1.11.07-1.09-.45-.98v.02zm-20.8-5.58s-.76-.82-1.17-1.46c-.42-.63-.21-.99-.21-.99.35.56 1.43 1.35 1.43 1.35l-.05 1.09zm10.06 5.48-8.42-4.21-.22-1.33 8.65 4.59v.96h-.01zm4.61 1.21c-1.45-.18-2.98-.64-2.98-.64l-.16-.99s1.68.67 2.45.91c.78.25.68.72.68.72z"/><path stroke="#b8ccc0" stroke-linecap="round" stroke-linejoin="round" d="M76.89 109.69s-.12 3.49-.06 4m46.59-24.2s.44 1.19-.34 2.65m.91.21s-.03 2.23-3 2.97m-54.12 9.26s-.12 3.49-.06 4m.58.01s5.18 3.05 8.37 4.07m-8.06-5.71s5.18 3.05 8.37 4.07m10.8 1.37c-1.42 1.84-5.6 1.63-5.6 1.63s.15-1.12.03-1.77m-15.47-4.77s-1.38-1.16-1.55-2.39m1.34-4.22s-1.12.65-.57 1.51"/><path stroke="#0d200f" stroke-linecap="round" stroke-linejoin="round" stroke-width=".5" d="M124.13 91.93c-.02-.53-.32-1.35-.41-2.23-.04-.48-.47-.91-.86-1.21v-.08c0-.12 0-.24-.01-.36 0-.08 0-.16-.01-.24v-.27c0-.13 0-.25-.02-.38v-.13l-.03-.4c0-.14-.02-.27-.03-.4 0-.06-.01-.11-.02-.16 0-.07 0-.15-.02-.23-.01-.12-.02-.25-.04-.37 0-.05 0-.1-.01-.14 0-.07-.02-.15-.02-.22l-.06-.5c-.03-.27-.06-.53-.09-.77-.02-.13-.03-.25-.05-.36 0-.09-.03-.18-.04-.27v-.02c-.01-.07-.02-.13-.02-.2 0-.04-.01-.07-.02-.11v-.15c-.02-.09-.03-.18-.04-.26 0-.05-.02-.11-.02-.15 0-.05-.02-.09-.02-.13v-.06s0-.05-.01-.07v-.04a1 1 0 0 0-.03-.13v-.06c.32-.24.11-.48.03-.56 0 0-.01 0-.02-.01h-.01c.09-.4-.31-1.46-.83-2.61-.16-.35-.32-.7-.49-1.05-.13-.26-.25-.51-.37-.75-.17-.34-.33-.65-.47-.92-.14-.28-.27-.51-.36-.68-.05-.09-.09-.15-.11-.21 0 0 0-.02-.01-.03-.01 0-.02-.03-.02-.03.01-.08.02-.15 0-.23 0-.09-.03-.19-.07-.28-.02-.05-.04-.1-.07-.14-.02-.06-.05-.1-.08-.15-.02-.03-.04-.07-.06-.09 0-.02-.03-.05-.05-.07 0 0-.02-.02-.02-.03 0 0-.03-.05-.04-.06a.3.3 0 0 0-.05-.06c-.04-.04-.08-.09-.12-.13 0-.01-.02-.02-.04-.04l-.1-.1c-.21-.2-.44-.4-.72-.6-.05-.03-.09-.07-.14-.1-.05-.04-.11-.08-.16-.11-.05-.04-.11-.08-.16-.12-.03-.02-.06-.04-.1-.07-.03-.02-.05-.03-.08-.05h-.02c-.05-.04-.11-.07-.16-.11 0 0-.05-.03-.08-.05-.16-.1-.33-.21-.51-.31-.06-.04-.13-.08-.19-.11-.06-.04-.13-.08-.2-.11-.14-.08-.28-.15-.43-.23-.07-.04-.14-.08-.22-.11-.02-.01-.05-.03-.08-.04h-.02c-.19-.1-.38-.2-.57-.29-.08-.04-.16-.08-.23-.11-.12-.06-.24-.12-.37-.18-.19-.09-.37-.18-.56-.26-.1-.04-.2-.09-.3-.13l-.41-.19c-.08-.03-.16-.07-.24-.1l-.48-.21c-.09-.03-.17-.07-.26-.11-.21-.09-.42-.17-.62-.25-.1-.04-.19-.08-.29-.12-.16-.06-.31-.12-.46-.18-.38-.14-.75-.28-1.1-.4-.11-.04-.21-.07-.32-.11-.17-.06-.34-.12-.5-.17-.11-.04-.23-.07-.34-.11-.14-.05-.27-.09-.4-.13-3.74-1.14-7.85.63-7.85.63S70.38 83.25 69.46 83.77c-.07.04-.14.09-.2.13-.02.02-.05.04-.07.06-.22.19-.33.39-.38.57v.04s-.01.06-.02.08c-.01.08 0 .16 0 .22 0 .03 0 .06.01.09.01.05.02.07.02.07a9 9 0 0 0-.64 1.18c-.06.12-.11.26-.17.39-.02.07-.05.13-.08.2-.05.13-.11.27-.16.4-.08.2-.15.4-.22.59-.12.33-.22.63-.3.91-.05.16-.1.32-.14.46-.08.27-.14.48-.18.58 0 .06-.02.08-.02.08-.2.08-.36.18-.48.27-.07.05-.12.1-.16.16-.07.09-.12.17-.15.26-.04.12-.05.24-.04.36 0 .03.01.06.02.1 0 .04.02.08.03.12v.02c.03.08.06.15.1.22.06.12.14.22.19.28.02.03.04.05.05.06h.01s.02.06.05.13c-.02-.02-.05-.04-.06-.06-.71 3.07-.84 5.74-.75 8.64v.1s-1.13.5-1.18 1.16c0 0-.5.23-.22.92 0 0-1.11 1.8.07 3.41 1.19 1.6 1.64 1.9 1.64 1.9s.19 1.24 1.24 1.01c0 0 .17-.11.62.23 0 0 7.33 3.67 8.12 3.9 0 0 .23 1.19 1.15 1.03 0 0 .46-.03.42-.24 0 0 4.45 1.32 6.5.64s3.29-1.37 3.28-2.47h.02c.07.03.26.12.51.23.67.29 1.8.73 2.4.72v-.05h.01c.16.03.33.05.49.05.87.01 1.73-.38 2.48-1.08a6.1 6.1 0 0 0 .95-1.15l.24-.39c.15-.27.29-.56.42-.86.12-.3.23-.62.32-.95.08-.28.14-.55.19-.82.03-.14.05-.29.06-.43 0-.05.02-.09.02-.14.02-.14.03-.29.03-.43.01-.22.02-.43 0-.65 0-.08 0-.16-.02-.23l.9.41a1 1 0 0 1-.06.13c0 .04-.03.06-.04.08v.03l.37.3s13.32-6.68 14.29-7.25c.15-.09.27-.15.38-.2.05.04.11.08.17.11h.02c.07.03.26.12.51.23.67.29 1.8.73 2.4.72v-.05c.18.03.34.05.51.05.87.01 1.73-.38 2.47-1.08a6.1 6.1 0 0 0 .95-1.15c.41-.63.74-1.38.98-2.2.14-.5.23-1 .28-1.48l1.11.5c.11.35.48.47 1.48.04 1.93-.84 2-2.5 1.98-3.04h-.03z"/><path fill="#0d200f" d="m79.86 97.46-5.6-2.42.93-4.02c.1-.43.56-.66.96-.49l4.07 1.76c.3.13.47.45.42.77l-.77 4.4zm-6.76-3.19-5.03-2.92.85-3.68a.85.85 0 0 1 1.28-.53l3.26 2.03c.39.24.59.71.49 1.16z"/><path fill="#ffa210" stroke="#e5900a" stroke-linecap="round" stroke-linejoin="round" d="M80.348 107.588c.143-.867-.276-1.657-.936-1.766-.659-.109-1.31.506-1.452 1.372-.143.867.276 1.657.935 1.766.66.108 1.31-.506 1.453-1.372m-12.245-6.667c.142-.866-.276-1.657-.936-1.765-.66-.109-1.31.505-1.452 1.372-.143.866.276 1.657.935 1.765.66.109 1.31-.505 1.453-1.372"/><path stroke="#0d200f" stroke-linecap="round" stroke-linejoin="round" stroke-width=".5" d="m56.54 41.58-4.8 4.82"/><path fill="#faf6e3" stroke="#0d200f" stroke-linecap="round" stroke-linejoin="round" stroke-width=".5" d="M20.01 42.69c-.13 0-.28-.04-.32-.15a.15.15 0 0 1 0-.13c.03-.08.48-.48.55-.53.24-.19.52-.33.81-.43h.17c.06.01.11.03.16.07.17.14.15.42.04.6-.12.22-.33.39-.56.47-.27.08-.56.11-.84.11h-.01z"/><path fill="#0d200f" stroke="#0d200f" stroke-linecap="round" stroke-linejoin="round" stroke-width=".5" d="M34.58 34.91c.53-.36 1.03-.44 1.42-.26l1.28.61.06.03c.39.18.66.62.71 1.27.1 1.3-.69 2.96-1.76 3.7-.53.36-1.03.44-1.41.26l-1.34-.63c-.39-.18-.66-.62-.72-1.28-.1-1.3.69-2.96 1.77-3.69z"/><path fill="#faf6e3" d="M37.48 36.95c.08.89-.44 2.03-1.19 2.56s-1.42.23-1.5-.65.45-2.03 1.19-2.56 1.42-.24 1.5.65"/><path fill="#0d200f" stroke="#0d200f" stroke-linecap="round" stroke-linejoin="round" stroke-width=".5" d="M36.09 36.99c.36-.23.68-.07.72.36 0 .25-.04.5-.15.73s-.26.43-.46.58c-.38.26-.72.12-.77-.34-.01-.27.04-.53.17-.77.05-.11.12-.21.2-.31.07-.09.15-.17.25-.24.02 0 .03-.02.05-.03v.02z"/><path fill="#faf6e3" stroke="#0d200f" stroke-linecap="round" stroke-linejoin="round" stroke-width=".5" d="M38.59 53.68c-.13.09-.26.18-.39.28-.56.43-1.06.93-1.47 1.5l-.18-.1-.78-.45-.03-.02-3.43-1.98-.26-.16-2.7-1.56-.49-.28-.5-.28-.18-.1-7.2-4.16-.21-.12-.36-.21c.12-.97.28-2 .35-2.68.03-.27.05-.52.08-.77.04-.39.08-.75.11-1.09.07-.69.13-1.31.18-1.92.1-1.36.15-2.67.13-4.53-.02-1.2.21-2.84.67-3.95.07-.16.14-.31.23-.46.36-.67.87-1.27 1.41-1.79.79-.77 1.64-1.36 2.13-1.71.34-.25.75-.39 1.17-.41.96-.03 2.28.33 3.77.94.48.2.98.42 1.47.66 1.28.63 2.53 1.42 3.44 2.5.07.08.14.17.21.26.26.34.49.7.67 1.09.23.5.37 1.02.45 1.56.03.27 0-.14.08.66-.19.14-.38.28-.56.44-.05.05-.1.09-.14.13-.59.53-1.1 1.16-1.46 1.84-.18.34-.33.7-.43 1.07v.03c-.03.08-.04.16-.06.24-.05.23-.08.46-.1.69v.13c-.08 1.76 1.23 2.06 3.3 1.57l1.11 13.15h-.02z"/><path fill="#0d200f" d="M27.44 30.25h-.01c-.68-.29-1.38-.5-2.11-.65.01-.01.02-.03.03-.04.12-.15.25-.29.36-.4l.08-.08c.12 0 .33.03.64.11.36.09.79.22 1.23.39.44.16.88.36 1.26.55.29.15.53.3.7.44-.02.05-.05.11-.08.19-.07.14-.16.29-.25.42l-.3-.15c-.08-.04-.16-.09-.25-.13-.36-.19-.82-.43-1.3-.65"/><path fill="#b2eaff" stroke="#0d200f" stroke-linecap="round" stroke-linejoin="round" stroke-width=".5" d="M22.62 30.26c-.12.08-.24.16-.35.25-.28.21-.5.5-.63.83.1-.4.25-.78.46-1.13.22-.38.48-.81.8-1.02.47-.31.91-.47 1.07-.4.1.04-.02.29-.07.39-.33.6-.76.76-1.28 1.09z"/><path fill="#b2eaff" stroke="#0d200f" stroke-miterlimit="10" stroke-width=".5" d="M31.19 31.46c.85.77 1.59 1.9 2.16 3.15.06.14.11.28.14.43v.2c-.02.62-.37 1.94-.88 2.22-.29.16-.49-.15-.64-.53v-.02c-.8-2.76-1.76-4.2-1.73-4.58.03-.33.58-1.15.93-.87z"/><path fill="#0d200f" stroke="#0d200f" d="M29.99 44.16c-.24 1.48-.95 3.59-1.88 5.76l-6.82-3.94.39-3.53.1-.91.23-2.14v-.02s0-.02.02-.03c0-.01.01-.02.02-.03 0 0 .02 0 .03-.01h.05l.03.01h.02s.04.01.06.02c2.77.61 5.36 1.73 7.3 3.37.22.19.35.34.41.49.06.14.1.32.06.6l-.05.35h.02z"/><path fill="#faf6e3" stroke="#0d200f" stroke-linecap="round" stroke-linejoin="round" stroke-width=".5" d="M31.77 45.59s.7 1.18.69 1.23c.25.26.47.62.63.93.03.05.06.11.07.17.04.25-.23.62-.47.74-.02.02-.05.03-.08.03h-.09c-.16-.02-1.46-1.02-1.48-1.17v-.08c.03-.09.11-.21.2-.34.02-.03.04-.05.05-.08.1-.14.2-.27.28-.36-.04-.09-.23-.58-.26-.62-.13-.26.35-.66.46-.46z"/></svg>