<svg xmlns="http://www.w3.org/2000/svg" width="36" height="36" fill="none" viewBox="0 0 36 36"><path fill="url(#a)" d="M18 33.75c8.699 0 15.75-7.052 15.75-15.75S26.698 2.25 18 2.25 2.25 9.302 2.25 18 9.302 33.75 18 33.75"/><path fill="#fff" d="M20.753 9.736a1.245 1.245 0 0 0-.455-1.695 1.233 1.233 0 0 0-1.687.456l-.594 1.037-.594-1.037a1.23 1.23 0 0 0-1.687-.456 1.244 1.244 0 0 0-.454 1.695l1.31 2.286-4.144 7.232H9.111c-.683 0-1.236.556-1.236 1.242s.553 1.24 1.236 1.24h11.625c.102-.268.21-.73.095-1.154-.171-.638-.806-1.328-1.87-1.328H15.3zM13.091 23.11c-.21-.235-.683-.611-1.097-.735-.632-.189-1.11-.07-1.352.033l-.92 1.607a1.245 1.245 0 0 0 .454 1.695 1.23 1.23 0 0 0 1.687-.457z"/><path fill="#fff" d="M25.008 21.737h1.881c.682 0 1.236-.556 1.236-1.241 0-.686-.554-1.242-1.236-1.242h-3.303l-3.722-6.495c-.276.264-.806.938-.886 1.702-.103.983.051 1.81.515 2.62q2.337 4.087 4.678 8.172c.34.594 1.095.798 1.687.456.591-.342.795-1.1.454-1.695z"/><defs><linearGradient id="a" x1="18" x2="18" y1="2.25" y2="33.75" gradientUnits="userSpaceOnUse"><stop stop-color="#2AC9FA"/><stop offset="1" stop-color="#1F65EB"/></linearGradient></defs></svg>