<svg xmlns="http://www.w3.org/2000/svg" fill="none" viewBox="0 0 203 238"><path fill="#FF893A" stroke="#0D200F" stroke-linecap="round" stroke-linejoin="round" stroke-width=".5" d="M56.74 193.38c-3.16 1.83-3.18 4.79-.04 6.62l15.42 8.96c3.14 1.82 8.25 1.83 11.42 0l52.33-30.22c3.17-1.82 3.18-4.79.04-6.61l-15.42-8.96c-3.14-1.83-8.26-1.83-11.42 0l-52.33 30.21Z"/><path fill="#FFBD90" d="m135.11 173.85-15.22-8.84c-3.1-1.8-8.14-1.8-11.27 0L56.97 194.8c-.89.47-1.62 1.2-2.08 2.1-.05-1.22.72-2.46 2.35-3.4l51.64-29.8c3.12-1.8 8.17-1.8 11.28 0l15.22 8.84c2.06 1.2 2.74 2.89 2.04 4.42-.05-1.13-.82-2.26-2.31-3.12v.01Z"/><path fill="#C24F02" d="M77.99 206.73c2.43 0 4.41-1.01 4.41-2.25s-1.97-2.25-4.41-2.25c-2.44 0-4.41 1.01-4.41 2.25s1.97 2.25 4.41 2.25ZM130 178.56c2.43 0 4.41-1.01 4.41-2.25s-1.97-2.25-4.41-2.25c-2.44 0-4.41 1.01-4.41 2.25s1.97 2.25 4.41 2.25Z"/><path fill="#0D200F" d="m125.87 166.93 4.15 2.33-24.32 13.83-.1-1.49-.06-.81-.7.41-14.35 8.48-.3.17.06.34.13.79-17 9.46c-.83.49-1.77.74-2.74.74-.97 0-1.91-.26-2.74-.73a1.3 1.3 0 0 1-.48-.48c-.12-.21-.18-.44-.18-.66 0-.24.06-.46.17-.64v-.02c.11-.2.28-.36.48-.48l35.11-18.1h.01l22.85-13.12.01-.02Z"/><path fill="#C24F02" stroke="#0D200F" stroke-linecap="round" stroke-linejoin="round" stroke-width=".5" d="M105.07 180.09v3.69c-.03.25-.11.48-.26.69-.14.21-.34.37-.56.47l-9.87 5.69c-.62.32-1.3.48-1.98.48-.68 0-1.36-.17-1.98-.48h-.01l-1.72-1.01v-3.69l1.72 1.01c.62.3 1.31.47 2 .47s1.36-.17 1.97-.45h.03l9.87-5.72c.22-.08.43-.25.56-.45.15-.21.23-.44.26-.69h-.02l-.01-.01Z"/><path fill="#FF893A" stroke="#0D200F" stroke-linecap="round" stroke-linejoin="round" stroke-width=".5" d="M138.2 186.57c0 1.21-.79 2.43-2.38 3.34v-.03l-52.23 30.15c-3.17 1.82-8.28 1.82-11.42 0l-15.35-8.93c-1.56-.9-2.34-2.08-2.34-3.28v-11.08c0 1.17.76 2.33 2.27 3.24l.07.04 15.35 8.92c3.14 1.83 8.23 1.83 11.41.03h.01l52.3-30.2c1.52-.92 2.27-2.08 2.27-3.27l.04 11.08v-.01Z"/><path fill="#1D94C2" stroke="#0D200F" stroke-miterlimit="10" stroke-width=".5" d="m116.36 174.59-42.35 24.46c-1.97 1.13-3.97 1.42-5.76.96-.14-.03-.29-.07-.43-.12.03 0 .07.03.11.04l-4.42-1.1c-2.91-.72-5.26-3.35-6.15-7.36L27.33 54.22c-.1-.41-.17-.85-.22-1.3l-.04-.44c-.03-.29-.07-.59-.07-.88v-1.13c.01-.36.03-.72.06-1.07v-.07c.04-.52.12-1.03.22-1.54 0-.04-.03-.04 0-.14.01-.1.07-.18.07-.28.07-.37.15-.72.25-1.07.03-.08.06-.18.06-.26l.07-.19c.12-.4.25-.79.39-1.16.03-.07.07-.15.07-.22v-.06c.21-.48.43-.96.65-1.42l.07-.15c.1-.18.22-.41.28-.51.06-.11.11-.21.17-.3.19-.34.39-.66.59-.95l.06-.08c.19-.28.39-.55.59-.81l.22-.26c.15-.19.32-.39.48-.56l.26-.28c.18-.18.34-.34.52-.51l.19-.23.11-.1.34-.26c.15-.12.3-.25.45-.36l.1-.07c.23-.17.5-.33.74-.47l42.36-24.46c.32-.18.65-.34.98-.48l.29-.14c.3-.14.62-.23.94-.33h.04c.25-.07.5-.12.74-.17h.22c.18-.04.36-.04.54-.04h.04c.18-.01.37-.01.56 0h.07c.21 0 .43.03.65.06.23.03.47.07.7.14l3.98 1.03c3.24.41 5.95 3.14 6.9 7.51l30.08 137.23c1.42 6.46-1.58 14.18-6.75 17.16h.01v-.01Z"/><path fill="#F3F6F3" d="M82.16 16.32c3.88-2.23 7.84-.08 8.91 4.77l30.06 137.14c1.07 4.87-1.19 10.62-5.04 12.84l-42.83 24.72c-3.88 2.23-7.83.08-8.9-4.79L34.29 53.86c-1.07-4.86 1.19-10.61 5.05-12.83l4.02-2.32c1.69-.97 3.42-.04 3.88 2.08.5 2.32 2.24 3.23 3.92 2.29l23.03-13.52c1.67-.98 2.64-3.48 2.18-5.59-.46-2.11.52-4.63 2.2-5.6l3.58-2.06h.01v.01Z"/><path fill="#0D749C" d="M67.77 29.52c.16-.11.29-.27.36-.46.07-.18.09-.39.05-.58-.09-.4-.41-.57-.72-.39-.16.11-.29.27-.36.46s-.09.39-.05.58c.08.39.41.56.72.39Z"/><path fill="#56CAF8" d="M32.09 53.11v-1.13c0-.38.04-.75.07-1.13.05-.52.12-1.03.21-1.54 0-.14.06-.28.08-.41.07-.36.15-.72.25-1.07.04-.15.08-.31.13-.46.11-.39.24-.77.38-1.15.03-.09.06-.18.1-.27.19-.49.4-.96.64-1.42.11-.22.22-.43.34-.64.06-.1.11-.21.17-.3.19-.33.39-.64.59-.96.02-.03.03-.05.05-.07.19-.28.39-.55.59-.81.07-.09.14-.18.22-.26.15-.19.32-.38.48-.57l.26-.27c.17-.17.35-.35.52-.51l.25-.23c.15-.13.3-.24.46-.36.16-.12.29-.24.44-.35.28-.19.55-.38.84-.54l42.15-24.37c.32-.17.64-.33.97-.46l.25-.1c.31-.12.62-.23.93-.32h.04c.25-.07.5-.12.75-.16h.21c.18 0 .36-.05.53-.05h.7c.22 0 .43.03.64.06.24.03.48.08.71.14l-4.74-1.24c-.23-.06-.47-.1-.71-.14a6.92 6.92 0 0 0-.64-.06h-.67c-.17 0-.35 0-.53.05h-.22c-.25.04-.5.09-.75.16h-.04c-.32.09-.63.2-.93.32l-.29.14c-.33.14-.66.3-.97.48L34.36 37.47c-.25.14-.5.3-.74.47l-.1.07c-.15.11-.3.23-.45.35l-.35.26-.1.1-.19.23c-.17.16-.35.33-.52.51l-.26.27c-.17.18-.33.37-.48.56l-.23.27c-.2.26-.4.53-.59.81l-.06.07c-.21.3-.4.62-.58.95-.06.1-.11.2-.17.3-.06.1-.19.34-.28.51l-.06.15c-.23.46-.44.93-.64 1.42v.05c0 .07-.05.15-.07.22-.14.37-.27.76-.39 1.15l-.06.2c0 .08-.04.17-.06.26-.1.35-.18.71-.25 1.07 0 .1-.05.19-.07.28-.02.1 0 .08 0 .13-.1.51-.17 1.02-.21 1.54v.07c-.03.35-.05.71-.06 1.06v1.13c0 .3.05.59.07.88l.04.44c.06.44.13.87.23 1.29l29.9 136.68c.88 3.99 3.22 6.61 6.12 7.33l4.72 1.18c-2.88-.72-5.24-3.34-6.12-7.33L32.43 55.73c-.09-.43-.17-.86-.22-1.29 0-.15 0-.3-.05-.44-.06-.31-.08-.61-.1-.89h.03Z"/><path fill="#0D749C" d="M36.07 79.85c-.11-.39-.31-.75-.58-1.05-.27-.3-.61-.53-.99-.68-.71-.23-1.15.18-1 .91l2.19 9.7c.1.39.3.75.56 1.05.27.3.6.53.97.68.71.23 1.15-.19 1-.91l-2.16-9.71.01.01Zm3.43 15.53c-.11-.39-.3-.75-.57-1.05-.27-.3-.61-.53-.98-.68-.71-.23-1.15.17-1 .91l2.15 9.7c.11.39.3.75.57 1.05.27.3.61.53.98.68.71.23 1.16-.18 1-.91l-2.15-9.7Z"/><path fill="#EAEBDB" d="M103.64 91.89c.74-.43 1.5-.01 1.7.92l6.45 30.08c.2.94-.24 2.04-.98 2.47l-50.57 29.2c-.74.43-1.51.02-1.71-.91l-6.45-30.08c-.2-.93.24-2.04.98-2.47l50.57-29.2h.01v-.01Z"/><path fill="#B8CCC0" d="M64.35 120.6c.46-.27.94 0 1.06.57l.22 1.01c.13.59-.15 1.28-.61 1.54l-7.55 4.36c-.46.27-.94 0-1.06-.58l-.22-1.01c-.12-.58.15-1.27.61-1.53l7.55-4.36Zm1.07 4.99c.46-.27.94 0 1.06.57l.22 1.01c.13.59-.15 1.28-.61 1.54l-3.56 2.06c-.47.27-.94 0-1.07-.58l-.22-1.01c-.12-.58.15-1.27.61-1.54l3.56-2.06.01.01Zm17.81-15.89c.45-.26.92 0 1.04.56l.21.99c.12.57-.15 1.25-.6 1.51l-8.22 4.74c-.45.26-.92 0-1.04-.56l-.21-.99c-.12-.57.15-1.25.6-1.51l8.22-4.74Zm-3.18 7.5c.46-.27.92 0 1.04.56l.21 1c.12.57-.14 1.25-.6 1.51l-3.96 2.28c-.45.26-.92 0-1.04-.56l-.21-1c-.12-.57.15-1.25.6-1.51l3.96-2.28Zm-11.68 22.12c.46-.27.94 0 1.06.58l.22 1.01c.13.59-.15 1.28-.61 1.54l-3.56 2.06c-.47.27-.94.01-1.07-.58l-.22-1.01c-.13-.59.15-1.28.61-1.54l3.56-2.06h.01Zm-1.07-4.99c.46-.27.94 0 1.06.58l.22 1.01c.13.59-.15 1.28-.61 1.54l-7.55 4.36c-.46.27-.94 0-1.06-.58l-.22-1.01c-.12-.58.15-1.28.61-1.54l7.55-4.36Zm15.7-3.39c.46-.27.92 0 1.04.56l.21 1c.12.57-.14 1.25-.6 1.51l-3.96 2.28c-.45.26-.92 0-1.04-.56l-.21-1c-.12-.57.15-1.25.6-1.51l3.96-2.28Zm3.18-7.51c.45-.26.92 0 1.04.56l.21 1c.12.57-.15 1.25-.6 1.51l-8.22 4.74c-.45.26-.92 0-1.04-.56l-.21-1c-.12-.57.15-1.25.6-1.51l8.22-4.74Zm10.98-18.32c.71-.41 1.44 0 1.63.88l.36 1.69c.19.9-.23 1.96-.93 2.36l-5.23 3.02c-.71.41-1.44.02-1.64-.88l-.36-1.69c-.19-.89.23-1.96.94-2.37l5.23-3.02v.01Zm4.67-2.7c.63-.37 1.29-.01 1.47.8l.43 2.01c.17.81-.21 1.76-.84 2.13l-1.12.65c-.64.37-1.3.01-1.47-.79l-.43-2.01c-.17-.81.21-1.76.85-2.13l1.12-.65-.01-.01Zm3.91 16.16c.72.38.97 1.54.55 2.58l-.45 1.15-.02.05-.91 2.31-.05.1-.06.1-.07.08-.07.06-.04.02-.08.03h-.18l-.08-.03-1.59-.86h-.04l-.79-.45c-.36-.19-.61-.58-.71-1.05-.1-.47-.05-1.01.15-1.54.21-.52.54-.92.91-1.13.37-.21.78-.24 1.14-.05l.21.1.12-.29c.2-.52.54-.91.91-1.12.37-.21.78-.25 1.14-.06h.01Zm.11 2.35c.27-.69.11-1.45-.36-1.7-.22-.13-.49-.11-.75.04s-.47.41-.6.74l-.12.29-.26.64-.45-.24-.21-.1c-.23-.12-.49-.11-.75.04s-.47.41-.6.74-.17.69-.1 1.01c.07.32.23.57.46.69l.79.43 1.58.85.87-2.23.48-1.2"/><path fill="#EAEBDB" d="m118.37 160.28-50.57 29.2c-.74.43-1.5.02-1.7-.92l-6.45-30.08c-.2-.94.25-2.04.98-2.47l50.57-29.2c.74-.43 1.5 0 1.7.92l.7 3.26.19.85 2.94 13.74.67 3.13.36 1.67.41 1.89 1.18 5.53c.2.94-.25 2.04-.98 2.47v.01Z"/><path fill="#B8CCC0" d="M72.08 157.34c.47-.27.94 0 1.07.57l.22 1.01c.13.59-.15 1.28-.61 1.54l-6.2 3.58-1.35.78c-.46.27-.94 0-1.07-.58l-.22-1.01c-.12-.58.16-1.27.61-1.54l1.35-.78 6.2-3.58v.01Zm1.07 4.98c.47-.27.94-.01 1.07.58l.22 1.01c.13.59-.15 1.28-.61 1.54l-3.56 2.06c-.46.27-.94 0-1.06-.58l-.22-1.01c-.13-.59.15-1.28.61-1.54l3.56-2.06h-.01Zm17.59 5.36c.45-.26.92 0 1.04.56l.21 1c.12.57-.15 1.25-.6 1.51l-3.96 2.28c-.45.26-.92 0-1.04-.56l-.21-1c-.12-.57.15-1.25.6-1.51l3.96-2.28Zm3.17-7.5c.46-.27.92 0 1.04.56l.21 1c.12.57-.14 1.25-.6 1.51l-8.21 4.74c-.45.26-.92 0-1.04-.56l-.21-1c-.12-.57.15-1.25.6-1.51l8.21-4.74Zm-6.12-6.24c.45-.26.92 0 1.04.56l.21 1c.12.57-.15 1.25-.6 1.51l-3.96 2.28c-.45.26-.92 0-1.04-.56l-.21-1c-.12-.57.15-1.25.6-1.51l3.96-2.28Zm3.17-7.5c.46-.27.92-.02 1.04.56l.21.99c.12.57-.14 1.25-.6 1.51l-8.21 4.74c-.45.26-.92 0-1.04-.56l-.21-.99c-.12-.58.15-1.25.6-1.51l8.21-4.74ZM76.1 176.06c.47-.27.94 0 1.07.58l.22 1.01c.13.59-.15 1.28-.61 1.54l-3.56 2.06c-.46.27-.94 0-1.06-.58l-.22-1.01c-.13-.59.15-1.28.61-1.54l3.56-2.06h-.01Zm-1.07-4.98c.47-.27.94 0 1.07.58l.22 1.01c.13.59-.15 1.28-.61 1.54l-6.2 3.58-1.35.78c-.46.27-.94 0-1.07-.58l-.22-1.01c-.13-.59.15-1.28.61-1.54l1.35-.78 6.2-3.58Zm29.86-29.23c.71-.41 1.44-.02 1.64.88l.36 1.69c.19.9-.23 1.96-.94 2.37l-5.23 3.02c-.71.41-1.44.02-1.64-.88l-.36-1.69c-.19-.9.23-1.96.94-2.37l5.23-3.02Zm4.67-2.7c.64-.37 1.3 0 1.47.79l.43 2.01c.17.81-.21 1.76-.85 2.13l-1.11.64c-.64.37-1.3 0-1.47-.79l-.43-2.01c-.17-.81.21-1.76.85-2.13l1.11-.64Zm3.92 16.16c.72.39.97 1.55.56 2.59l-.46 1.15-.02.05-.92 2.31-.05.1-.06.1-.08.09-.07.06-.03.02-.08.03h-.18l-.07-.03-1.59-.86-.04-.02-.8-.42c-.35-.2-.6-.58-.7-1.05-.1-.47-.05-1.01.15-1.54.21-.51.54-.91.91-1.13.37-.22.78-.25 1.14-.06l.21.11.11-.3c.21-.51.54-.9.91-1.12.37-.22.78-.25 1.14-.07h.02v-.01Zm.11 2.35c.27-.69.1-1.45-.36-1.7a.75.75 0 0 0-.75.04 1.5 1.5 0 0 0-.6.74l-.11.29-.26.64-.45-.24-.2-.11a.75.75 0 0 0-.75.04 1.5 1.5 0 0 0-.6.74c-.13.33-.17.69-.1 1.01.07.32.24.57.47.69l.79.43 1.58.86.87-2.23.48-1.2"/><path fill="#0D200F" d="m112.95 131.91-52.54 29.92c-.9.51-1.83.02-2.08-1.12l-9.41-43.91c-.25-1.13.29-2.48 1.19-3l52.33-29.79 10.5 47.9h.01Zm-11.13-50.8-52.57 29.93c-.9.53-1.83.02-2.07-1.11l-2.22-10.34c-.24-1.13.29-2.47 1.19-3l52.5-29.89 3.16 14.42h.01v-.01Z" opacity=".3"/><path fill="#FCFCFB" stroke="#0D200F" stroke-miterlimit="10" stroke-width=".5" d="M118.9 44.66c.9-.52 1.83-.02 2.07 1.12l2.22 10.34c.24 1.13-.29 2.48-1.19 3L60.56 94.59c-.9.52-1.83.01-2.07-1.12l-2.22-10.34c-.24-1.14.29-2.48 1.19-3l61.44-35.47Z"/><path fill="#5CA029" d="M68.7 78.76c.32-.19.63 0 .72.39l.51 2.4-.7.41-.34-1.59-1.88 4.74c-.08.2-.2.34-.35.43-.15.09-.3.1-.43.02l-1.73-.93-1.28 3.23-.63-.34 1.36-3.43c.08-.2.2-.34.35-.43.15-.09.3-.1.43-.02l1.73.93 1.8-4.54-1.26.73-.19-.89 1.76-1.02.14-.08h-.01v-.01Zm28.91-15.61c.49-.28 1 0 1.14.61l.23 1.07c.13.62-.16 1.35-.66 1.64l-5.1 2.95c-.49.28-1 .02-1.14-.6l-.23-1.07c-.13-.62.16-1.36.65-1.65l5.1-2.95h.01Z"/><path fill="#B8CCC0" d="M86.66 69.47c.49-.28 1 0 1.13.62l.23 1.07c.13.62-.16 1.35-.65 1.63L75.93 79.4c-.49.28-1 .01-1.13-.61l-.23-1.07c-.13-.62.15-1.36.65-1.64l11.44-6.61Z"/><path fill="#FCFCFB" stroke="#0D200F" stroke-miterlimit="10" stroke-width=".5" d="M122.86 61.88c.9-.52 1.83-.02 2.07 1.12l9.41 43.9c.24 1.14-.29 2.48-1.19 3L71.7 145.38c-.9.52-1.83.02-2.07-1.12l-9.41-43.9c-.24-1.14.29-2.48 1.19-3l61.45-35.48Z"/><path fill="#B8CCC0" d="M78.1 111.21c.56-.32 1.14-.01 1.29.7l.26 1.23c.15.71-.18 1.55-.74 1.87l-4.33 2.5c-.57.33-1.14 0-1.3-.7l-.26-1.23c-.15-.71.18-1.55.74-1.88l4.33-2.5h.01v.01Zm8.75-11.57c.33-.19.67-.01.76.41.09.42-.11.92-.44 1.11l-7 4.04c-.33.19-.68 0-.76-.41-.08-.41.11-.92.44-1.11l7-4.04Zm9.03 1.39c.56-.32 1.12-.01 1.27.68l.26 1.21c.15.69-.17 1.51-.73 1.84l-4.81 2.78c-.55.32-1.12.01-1.27-.68l-.26-1.21c-.15-.69.18-1.52.73-1.84l4.81-2.78Z"/><path fill="#708470" d="M99.74 91.91c.55-.32 1.12-.01 1.27.68l.26 1.21c.15.69-.18 1.52-.73 1.84l-9.98 5.76c-.55.32-1.12.01-1.27-.68l-.26-1.21c-.15-.69.18-1.52.73-1.84l9.98-5.76Zm22.6-8.85c.77-.45 1.57-.01 1.78.97l.52 2.44c.21.98-.25 2.14-1.02 2.59l-1.36.78c-.78.45-1.58.02-1.79-.97l-.52-2.44c-.21-.98.25-2.14 1.03-2.59l1.36-.78Z"/><path fill="#B8CCC0" d="M119.97 93.39c.3-.17.61 0 .69.37l.26 1.21c.08.38-.1.83-.4 1l-4.02 2.32c-.3.17-.61 0-.69-.37l-.26-1.21c-.08-.38.1-.83.4-1l4.02-2.32Z"/><path fill="#708470" d="M76.8 105.15c.56-.32 1.14 0 1.29.7l.26 1.23c.15.71-.18 1.55-.74 1.87l-9.18 5.3c-.56.32-1.14.01-1.29-.7l-.26-1.23c-.15-.7.18-1.55.74-1.87l9.18-5.3Z"/><path fill="#B8CCC0" d="M81.68 127.91c.56-.32 1.14-.01 1.29.7l.26 1.23c.15.7-.18 1.54-.74 1.86l-4.33 2.5c-.57.33-1.14.01-1.29-.69l-.26-1.23c-.15-.71.18-1.55.74-1.88l4.33-2.5v.01Z"/><path fill="#708470" d="M80.38 121.85c.56-.32 1.14-.01 1.29.7l.26 1.23c.15.71-.18 1.55-.74 1.87l-9.18 5.3c-.56.32-1.14.01-1.29-.7l-.26-1.23c-.15-.71.18-1.55.74-1.87l9.18-5.3Z"/><path fill="#B8CCC0" d="M99.46 117.73c.56-.32 1.12-.01 1.27.68l.26 1.2c.15.7-.17 1.51-.73 1.84l-4.81 2.78c-.55.32-1.12.02-1.27-.68l-.26-1.2c-.15-.69.18-1.52.73-1.84l4.81-2.78Z"/><path fill="#708470" d="M103.32 108.6c.55-.32 1.12-.01 1.27.68l.26 1.21c.15.69-.18 1.52-.73 1.84l-9.98 5.76c-.55.32-1.12.01-1.27-.68l-.26-1.21c-.15-.69.18-1.52.73-1.84l9.98-5.76Z"/><path fill="#B8CCC0" d="M90.43 116.33c.33-.19.68 0 .77.42.09.42-.11.92-.44 1.11l-7 4.04c-.33.19-.68 0-.76-.41-.08-.41.11-.93.44-1.12l7-4.04h-.01Z"/><path fill="#708470" d="M116.66 86.34c.86-.5 1.74-.02 1.98 1.07l.44 2.05c.23 1.09-.27 2.38-1.13 2.87L111.6 96c-.87.5-1.75.02-1.99-1.07l-.44-2.05c-.23-1.09.27-2.38 1.14-2.88l6.35-3.67v.01Zm10.43 16.35c.88.47 1.18 1.88.68 3.15l-.55 1.39-.03.07-1.11 2.8-.06.12-.07.12-.09.1-.08.07-.04.03-.09.03h-.21l-.1-.04-1.93-1.05-.05-.03-.96-.52c-.44-.24-.74-.7-.86-1.27-.12-.57-.07-1.24.18-1.88.25-.63.65-1.11 1.11-1.37.46-.26.94-.29 1.38-.07l.25.14.14-.36c.25-.62.65-1.11 1.1-1.36.45-.25.95-.3 1.39-.07Zm.14 2.86c.33-.84.13-1.76-.44-2.08-.27-.15-.6-.12-.91.06-.31.18-.57.5-.73.89l-.14.36-.31.78-.54-.29-.25-.14c-.28-.14-.6-.13-.91.04-.31.17-.57.51-.73.91-.16.4-.2.83-.12 1.22.08.39.28.69.56.84l.96.52 1.92 1.04 1.06-2.71.58-1.46"/><path fill="#5CA029" d="M82.76 89.67c.3-.17.61 0 .69.37l1 4.65c.08.38-.1.83-.4 1l-17.94 10.36c-.3.17-.61 0-.69-.37l-1-4.65c-.08-.38.1-.83.4-1l17.94-10.36Z"/><path fill="#EAEBDB" d="M121.11 163.45c-.68 3.22-2.51 6.17-5.02 7.63l-42.83 24.73c-1.73.99-3.46 1.11-4.95.53l-.58-2.69c-.2-.94.24-2.04.98-2.47l50.57-29.2c.74-.43 1.5 0 1.71.92l.12.56v-.01Z"/><path fill="#E62B17" stroke="#0D200F" stroke-linecap="round" stroke-linejoin="round" stroke-width=".5" d="m184.88 219.69-3.59 1.08-1.04 3.32-3.91-5.39 8.54.99Z"/><path fill="#6F46BF" stroke="#0D200F" stroke-linecap="round" stroke-linejoin="round" stroke-width=".5" d="m34.3 156.18-3.98-1.97.6-3.46 5.11-1.45-1.73 6.88Z"/><path fill="#56CAF8" stroke="#0D200F" stroke-linecap="round" stroke-linejoin="round" stroke-width=".5" d="m4.86 79.24 1.2 3.53-3.46-.56 1.77-7.72.49 4.75Z"/><path fill="#6F46BF" stroke="#0D200F" stroke-linecap="round" stroke-linejoin="round" stroke-width=".5" d="m117.85 27.08 7.08-1.33-2.28 3.32-3.5.59-1.3-2.58Z"/><path fill="#ED6912" stroke="#0D200F" stroke-linecap="round" stroke-linejoin="round" stroke-width=".5" d="m44.16 233.49-.62 4.24-2.78-.53-3.38-4 6.78.29Z"/><path fill="#56CAF8" stroke="#0D200F" stroke-linecap="round" stroke-linejoin="round" stroke-width=".5" d="m66.68 86.93-3.74.37-1.65 3.07-2.81-6.05 8.2 2.61Z"/><path fill="#E62B17" stroke="#0D200F" stroke-linecap="round" stroke-linejoin="round" stroke-width=".5" d="m153.02 172.01-2.67-3.55 2.09-2.82 5.22 1-4.64 5.37Z"/><path fill="#6F46BF" stroke="#0D200F" stroke-linecap="round" stroke-linejoin="round" stroke-width=".5" d="m143.98 212.38-3.52-1.22 2.56-2.39 5.02 6.13-4.06-2.52Z"/><path fill="#56CAF8" stroke="#0D200F" stroke-linecap="round" stroke-linejoin="round" stroke-width=".5" d="m202.68 153.97-3.2 2.21-.79-3.96 2.02-2.92 1.97 4.67Z"/><path fill="#FFA210" stroke="#0D200F" stroke-linecap="round" stroke-linejoin="round" stroke-width=".5" d="m49.49 116.12 7.09-1.34-2.29 3.32-3.5.6-1.3-2.58ZM93.65 1l2.56 3.57-4.58 2.59-3.34-2L93.65 1Z"/><path fill="#6F46BF" stroke="#0D200F" stroke-linecap="round" stroke-linejoin="round" stroke-width=".5" d="m29.87 102.99 1.38-4.06 2.64 1.03 2.59 4.55-6.61-1.52Z"/><path fill="#E62B17" stroke="#0D200F" stroke-linecap="round" stroke-linejoin="round" stroke-width=".5" d="m24.94 228.23-.52 3.69-2.84-2.06 5.07-6.09-1.71 4.46Z"/><path fill="#56CAF8" stroke="#0D200F" stroke-linecap="round" stroke-linejoin="round" stroke-width=".5" d="m131.74 115.29 6.21 3.66-3.91.99-3.03-1.86.73-2.79Z"/><path fill="#FFA210" stroke="#0D200F" stroke-linecap="round" stroke-linejoin="round" stroke-width=".5" d="m130.22 133.06 3.25 2.79-1.93 2.07-5.19.71 3.87-5.57Z"/><path fill="#6F46BF" stroke="#0D200F" stroke-linecap="round" stroke-linejoin="round" stroke-width=".5" d="m165.93 132.91 2.07-3.13-1.33-3.22 6.46 1.64-7.2 4.71Z"/><path fill="#ED6912" stroke="#0D200F" stroke-linecap="round" stroke-linejoin="round" stroke-width=".5" d="m29.8 219.14-4.13 1.63-2.17-2.76 2.35-4.77 3.95 5.9Z"/><path fill="#56CAF8" stroke="#0D200F" stroke-linecap="round" stroke-linejoin="round" stroke-width=".5" d="m94.34 230.64 2.65 2.62-3.34 1.04-1.88-7.69 2.57 4.03Z"/><path fill="#E62B17" stroke="#0D200F" stroke-linecap="round" stroke-linejoin="round" stroke-width=".5" d="m173.33 149.6 2.94 2.54-3.63 1.76-3.34-1.22 4.03-3.08Z"/><path fill="#6F46BF" stroke="#0D200F" stroke-linecap="round" stroke-linejoin="round" stroke-width=".5" d="m160.37 148.4 2.66 6.7-3.7-1.61-1.25-3.33 2.29-1.76Zm-22.5-114.21 3.51 2.64-3.59 3.84-3.79-.9 3.87-5.58Z"/><path fill="#56CAF8" stroke="#0D200F" stroke-linecap="round" stroke-linejoin="round" stroke-width=".5" d="m107.35 101.33 4.28-.32.08 2.83-3.17 4.17-1.19-6.68Z"/><path fill="#FFA210" stroke="#0D200F" stroke-linecap="round" stroke-linejoin="round" stroke-width=".5" d="m6.53 123.34-1.08 3.6 2.21 2.69-6.66.3 5.53-6.59Z"/><path fill="#6F46BF" stroke="#0D200F" stroke-linecap="round" stroke-linejoin="round" stroke-width=".5" d="m54.28 226.94-1.88-4.02 2.62-2.32 4.9 2.05-5.64 4.29Z"/><path fill="#ED6912" stroke="#0D200F" stroke-linecap="round" stroke-linejoin="round" stroke-width=".5" d="m137.83 144.74-3.35 1.63.12-3.5 7.88.78-4.65 1.09Z"/><path fill="#56CAF8" stroke="#0D200F" stroke-linecap="round" stroke-linejoin="round" stroke-width=".5" d="m167.18 179.21 2.94 2.55-3.63 1.75-3.34-1.22 4.03-3.08Z"/><path fill="#E62B17" stroke="#0D200F" stroke-linecap="round" stroke-linejoin="round" stroke-width=".5" d="m182.01 167.81 5.1 5.09h-4.03l-2.47-2.56 1.4-2.53Z"/><path fill="#0D200F" d="M44.66 32.15c.52-.3 1.07-.3 1.52-.06.4.2.73.6.92 1.14 1.18-.22 2.33-.04 3.36.51 1.6.84 2.88 2.51 3.49 4.86l1.25 4.83.38-.22c.84-.49 1.74 0 2.02 1.06l.44 1.69-17.06 9.85-.44-1.69c-.28-1.06.18-2.33 1.01-2.81l.38-.22-1.25-4.83c-1-3.84.16-8.24 2.65-10.85-.21-1.27.35-2.69 1.33-3.26Z"/><path fill="#ED6912" d="M53.08 15.69c3.51-2.03 7.3-.04 8.46 4.43l7.3 28.14c1.16 4.48-.74 9.75-4.25 11.77L42.52 72.77c-3.51 2.03-7.3.04-8.46-4.43l-7.3-28.14c-1.16-4.48.74-9.75 4.25-11.77l22.07-12.74Zm4.96 30.27-.44-1.69c-.28-1.06-1.18-1.54-2.02-1.06l-.38.22-1.25-4.83c-.61-2.35-1.89-4.02-3.49-4.86a5.059 5.059 0 0 0-3.36-.51c-.19-.54-.52-.94-.92-1.14-.46-.25-1-.25-1.52.06-.98.56-1.53 1.99-1.33 3.26-2.48 2.61-3.64 7.01-2.65 10.85l1.25 4.83-.38.22c-.84.48-1.29 1.74-1.01 2.81l.44 1.69 17.06-9.85Zm-7.11 10.37c1.59-.92 2.63-2.95 2.72-5.05l-7.01 4.05c1.02 1.45 2.7 1.92 4.29 1Z"/><path fill="#0D200F" d="M53.65 51.29c-.1 2.1-1.13 4.13-2.72 5.05-1.59.92-3.27.46-4.29-1l7.01-4.05Z"/><path fill="#ED6912" d="m38.85 73.5-13.56-2.4c-2.18-.39-4.04-2.24-4.8-5.16l-7.3-28.14 13.56 2.4 7.3 28.14c.75 2.91 2.62 4.78 4.8 5.16Z"/><path fill="#FF893A" d="M56.67 14.96h-.09a.783.783 0 0 0-.26-.04c-.07 0-.14-.02-.21 0-.16-.02-.32-.02-.48 0h-.08c-.11 0-.22.02-.34.04-.12 0-.24.04-.36.06-.1.02-.21.05-.32.07-.06.02-.12.04-.19.06-.1.03-.21.06-.32.11-.1.03-.2.07-.31.12-.21.09-.42.2-.62.32L31.02 28.45c-.16.09-.32.19-.47.3-.35.24-.69.51-1 .83-.15.14-.3.3-.44.45-.12.13-.23.26-.32.4-.18.21-.34.44-.49.67-.26.39-.49.82-.7 1.25-.04.06-.06.14-.1.2-.03.06-.06.13-.08.19-.15.36-.29.73-.42 1.12v.04c-.06.19-.12.4-.17.6-.06.17-.09.33-.12.51-.02.05-.03.1-.04.15-.05.23-.08.46-.11.7-.04.22-.06.45-.07.67-.02.14-.03.29-.03.43-.02.39-.02.77 0 1.16 0 .18.02.35.05.53 0 .15.03.3.06.44.02.16.05.32.07.46.05.23.09.45.15.68l-13.56-2.4c-.06-.22-.11-.45-.15-.68-.03-.16-.06-.31-.07-.46l-.06-.44c-.02-.18-.04-.35-.05-.53-.02-.39-.02-.78 0-1.16 0-.14.02-.29.03-.43.02-.23.05-.46.07-.69.03-.19.06-.38.09-.56 0-.05 0-.08.03-.13 0-.06 0-.11.03-.17.04-.17.07-.32.12-.48.05-.2.1-.41.17-.6v-.04c.12-.39.27-.77.43-1.13.02-.06.05-.13.08-.19.02-.06.04-.1.06-.15.09-.19.19-.38.29-.57 0-.02.02-.04.03-.06.14-.24.27-.47.42-.7.09-.14.19-.28.3-.42.08-.12.18-.24.28-.35.44-.55.93-1.02 1.47-1.42.09-.07.19-.14.29-.2.13-.09.27-.18.4-.25l22.07-12.74c.32-.19.63-.33.95-.45.1-.03.19-.06.3-.09.11-.04.21-.06.32-.09.13-.04.26-.06.38-.08.09-.02.19-.03.27-.04.11-.02.22-.03.32-.03.35-.02.71 0 1.05.06l4.03.71 9.54 1.69h-.05ZM13.09 92.74s-.03.08-.03.13c0-.05 0-.08.02-.13h.01Zm.02-.17c-.02.06-.03.11-.03.17 0-.06.03-.11.04-.17h-.01Zm.81-2.44a.64.64 0 0 0-.08.19c.02-.06.05-.12.07-.19h.01Zm.07-.14s-.05.09-.06.15c0 0 .05-.1.07-.15h-.01Z"/><path stroke="#FFBD90" stroke-linecap="round" stroke-linejoin="round" d="m26.53 39.07 7.81 30.18s1.09 3.09 3.67 4.11"/><path fill="#FF893A" d="M13.09 92.74s-.03.08-.03.13c0-.05 0-.08.02-.13h.01Zm.02-.17c-.02.06-.03.11-.03.17 0-.06.03-.11.04-.17h-.01Zm.81-2.44a.64.64 0 0 0-.08.19c.02-.06.05-.12.07-.19h.01Zm.07-.14s-.05.09-.06.15c0 0 .05-.1.07-.15h-.01Z"/><path stroke="#0D200F" stroke-miterlimit="10" stroke-width=".5" d="m68.83 48.27-7.3-28.15c-.76-2.94-2.65-4.81-4.86-5.17h-.09l-9.44-1.68-4.03-.71c-.34-.06-.7-.07-1.05-.06-.1 0-.21 0-.32.03-.08 0-.18.02-.27.04-.12.02-.25.05-.38.08l-.32.09c-.1.03-.19.06-.3.09a6.8 6.8 0 0 0-.95.45L17.45 26.02c-.13.07-.27.16-.4.25-.09.06-.19.13-.29.2-.54.4-1.03.87-1.47 1.42-.1.11-.19.23-.28.35l-.3.42c-.15.22-.28.45-.42.7 0 .02-.02.04-.03.06-.1.19-.19.37-.29.57-.03.05-.05.09-.06.15a.64.64 0 0 0-.08.19c-.16.36-.31.74-.43 1.13v.04c-.06.19-.12.4-.17.6-.05.16-.08.32-.12.48-.02.06-.03.11-.03.17-.02.05-.03.08-.03.13-.04.18-.06.36-.09.55-.03.23-.06.46-.07.7 0 .14-.02.29-.03.43-.02.38-.02.77 0 1.16 0 .18.03.35.05.53l.06.44c.02.16.05.31.07.46.04.23.09.45.15.68l7.3 28.14c.75 2.91 2.62 4.77 4.8 5.16l13.48 2.38.08.02c1.17.2 2.43 0 3.66-.72l22.07-12.74c3.51-2.03 5.41-7.29 4.25-11.77v-.03Z"/><path fill="#56CAF8" stroke="#0D200F" stroke-linecap="round" stroke-linejoin="round" stroke-width=".5" d="m70.7 37.51-2.95 3.32-3.17-1.48-.07-5.32 6.19 3.48Zm-60.61 1.55 3.8-2.2 2.13 4.81-2.31 3.13-3.62-5.74Z"/></svg>