<svg width="256" height="32" viewBox="0 0 256 32" fill="none" xmlns="http://www.w3.org/2000/svg">
  <ellipse cx="16" cy="16" rx="16" ry="16" fill="#003580"/>
  <path d="M15.8461 20.0224L13.4924 20.02V17.2055C13.4924 16.6042 13.7256 16.2912 14.2402 16.2197H15.8462C16.9914 16.2197 17.7322 16.9418 17.7322 18.1105C17.7322 19.3108 17.0102 20.0212 15.8462 20.0224H15.8461ZM13.4924 12.4311V11.6903C13.4924 11.0421 13.7667 10.7338 14.368 10.6939H15.573C16.6057 10.6939 17.2247 11.3117 17.2247 12.3467C17.2247 13.1345 16.8003 14.0546 15.6105 14.0546H13.4924V12.4311ZM18.8517 15.2397L18.4262 15.0006L18.7978 14.6829C19.2303 14.3113 19.9547 13.4756 19.9547 12.0337C19.9547 9.82531 18.2421 8.40108 15.5918 8.40108H12.5675V8.3999H12.2229C11.4375 8.42921 10.808 9.06807 10.7998 9.85814V22.389H15.6516C18.5973 22.389 20.4986 20.7855 20.4986 18.3015C20.4986 16.9641 19.8844 15.8212 18.8517 15.2397Z" fill="white"/>
  <path d="M21.7627 20.658C21.7627 19.7007 22.5347 18.9263 23.486 18.9263C24.4396 18.9263 25.2153 19.7007 25.2153 20.658C25.2153 21.614 24.4396 22.3897 23.486 22.3897C22.5347 22.3897 21.7627 21.614 21.7627 20.658" fill="#00BAFC"/>
  <ellipse cx="53.3335" cy="16" rx="16" ry="16" fill="#297FFF"/>
  <path d="M57.9992 14.1135C57.739 14.1142 57.4821 14.1717 57.2465 14.2819C57.0108 14.392 56.8019 14.5523 56.6345 14.7515V14.341H55.2671V21.0173H56.7871V18.6791C57.1267 18.964 57.5559 19.1201 57.9992 19.1201C58.6522 19.1106 59.2748 18.8424 59.7304 18.3744C60.1859 17.9064 60.4371 17.2768 60.429 16.6237C60.4371 15.9707 60.1859 15.3411 59.7304 14.8731C59.2748 14.4051 58.6522 14.1369 57.9992 14.1274V14.1135ZM60.429 16.6237C60.4371 15.9707 60.1859 15.3411 59.7304 14.8731C59.2748 14.4051 58.6522 14.1369 57.9992 14.1274L60.429 16.6237ZM57.8494 17.7332C57.6282 17.7426 57.4093 17.6857 57.2207 17.5696C57.0322 17.4536 56.8826 17.2837 56.7914 17.082C56.7001 16.8803 56.6713 16.6559 56.7087 16.4377C56.746 16.2194 56.8478 16.0174 57.0009 15.8574C57.154 15.6975 57.3515 15.5871 57.5679 15.5403C57.7843 15.4935 58.0097 15.5126 58.2152 15.595C58.4207 15.6774 58.5969 15.8194 58.721 16.0027C58.8451 16.1861 58.9116 16.4023 58.9118 16.6237C58.9151 16.7664 58.8902 16.9083 58.8386 17.0413C58.7869 17.1744 58.7096 17.2959 58.6109 17.399C58.5122 17.502 58.3941 17.5846 58.2635 17.642C58.1328 17.6993 57.9921 17.7304 57.8494 17.7332Z" fill="white"/>
  <path d="M62.9335 18.2103C62.9341 18.3909 62.881 18.5676 62.7811 18.7181C62.6811 18.8685 62.5388 18.9859 62.3721 19.0554C62.2054 19.1249 62.0218 19.1434 61.8446 19.1085C61.6674 19.0736 61.5046 18.9869 61.3767 18.8594C61.2488 18.7318 61.1616 18.5692 61.1261 18.3921C61.0907 18.2151 61.1086 18.0314 61.1776 17.8645C61.2466 17.6976 61.3635 17.5549 61.5137 17.4545C61.6638 17.3541 61.8403 17.3005 62.0209 17.3005C62.1407 17.3002 62.2593 17.3234 62.37 17.369C62.4807 17.4146 62.5813 17.4815 62.6661 17.566C62.7508 17.6505 62.8181 17.751 62.864 17.8615C62.9099 17.9721 62.9335 18.0906 62.9335 18.2103Z" fill="#FCAF17"/>
  <path fill-rule="evenodd" clip-rule="evenodd" d="M53.4422 13.7031C53.2737 13.7036 53.1088 13.6541 52.9684 13.5609C52.828 13.4677 52.7184 13.3349 52.6535 13.1793C52.5886 13.0238 52.5714 12.8525 52.6039 12.6871C52.6365 12.5217 52.7173 12.3698 52.8363 12.2504C52.9553 12.131 53.107 12.0496 53.2723 12.0166C53.4375 11.9835 53.6089 12.0002 53.7646 12.0646C53.9204 12.1289 54.0536 12.2381 54.1473 12.3782C54.2409 12.5182 54.291 12.683 54.291 12.8515C54.2913 12.9632 54.2696 13.0739 54.2271 13.1772C54.1847 13.2805 54.1222 13.3744 54.0433 13.4535C53.9645 13.5326 53.8708 13.5954 53.7676 13.6382C53.6645 13.681 53.5539 13.7031 53.4422 13.7031Z" fill="white"/>
  <path d="M54.2047 14.3411H52.6875V18.8955H54.2047V14.3411Z" fill="white"/>
  <path fill-rule="evenodd" clip-rule="evenodd" d="M43.7334 12.2161V13.4892H45.7055V18.8924H47.2255V13.4892H49.1976V12.2161H43.7334Z" fill="white"/>
  <path d="M51.6242 14.3162C51.3533 14.3157 51.0865 14.3829 50.8482 14.5118C50.6098 14.6406 50.4075 14.827 50.2595 15.054V14.3411H48.8921V18.8928H50.4176V16.9956C50.4106 16.8265 50.4387 16.6578 50.5002 16.5002C50.5617 16.3425 50.6552 16.1993 50.7748 16.0797C50.8945 15.96 51.0377 15.8665 51.1953 15.805C51.353 15.7435 51.5217 15.7154 51.6908 15.7224C51.7709 15.7237 51.8507 15.7321 51.9293 15.7474V14.3605C51.8283 14.3451 51.7264 14.3368 51.6242 14.3356" fill="white"/>
  <ellipse cx="90.6665" cy="16" rx="16" ry="16" fill="#717376"/>
  <path d="M87.7928 22.7307C87.2224 22.7307 86.7583 23.1948 86.7583 23.7652C86.7583 24.3356 87.2224 24.7997 87.7928 24.7997C88.3632 24.7997 88.8273 24.3356 88.8273 23.7652C88.8273 23.1948 88.3632 22.7307 87.7928 22.7307Z" fill="#FCB615"/>
  <path d="M84.9012 22.731C84.3308 22.731 83.8667 23.195 83.8667 23.7655C83.8667 24.3359 84.3308 24.7999 84.9012 24.7999C85.4716 24.7999 85.9357 24.3359 85.9357 23.7655C85.9357 23.195 85.4716 22.731 84.9012 22.731Z" fill="#ED353F"/>
  <path d="M90.6829 22.7307C90.1125 22.7307 89.6484 23.1948 89.6484 23.7652C89.6484 24.3356 90.1125 24.7997 90.6829 24.7997C91.2533 24.7997 91.7174 24.3356 91.7174 23.7652C91.7174 23.1948 91.2533 22.7307 90.6829 22.7307Z" fill="#02AF56"/>
  <path d="M96.4652 22.7307C95.8947 22.7307 95.4307 23.1948 95.4307 23.7652C95.4307 24.3356 95.8947 24.7997 96.4652 24.7997C97.0356 24.7997 97.4996 24.3356 97.4996 23.7652C97.4996 23.1948 97.0356 22.7307 96.4652 22.7307Z" fill="#00A8DF"/>
  <path d="M93.5748 22.7307C93.0044 22.7307 92.54 23.1948 92.54 23.7652C92.54 24.3356 93.0041 24.7997 93.5745 24.7997C94.1449 24.7997 94.609 24.3356 94.609 23.7652C94.6093 23.1948 94.1454 22.7307 93.5748 22.7307Z" fill="#A14699"/>
  <path d="M95.486 13.8622C95.486 11.1243 93.421 9.05898 90.6833 9.05898C87.9456 9.05898 85.8805 11.1243 85.8805 13.8622C85.8805 16.5989 87.9456 18.6655 90.6833 18.6655C93.4197 18.6655 95.486 16.5989 95.486 13.8622ZM83.8667 13.8622C83.8667 10.0667 86.9131 7.19995 90.6833 7.19995C94.4785 7.19995 97.4999 10.0404 97.4999 13.836V19.6719C97.4999 20.2657 97.0861 20.6782 96.4674 20.6782C95.8223 20.6782 95.4348 20.2657 95.4348 19.6719V17.9679H95.331C94.531 19.3368 92.9297 20.5245 90.5546 20.5245C86.8881 20.5245 83.8667 17.6841 83.8667 13.8622Z" fill="white"/>
  <ellipse cx="128" cy="16" rx="16" ry="16" fill="#EEC218"/>
  <path d="M137.083 19.1001C138.795 14.0837 136.116 8.6292 131.1 6.91688C126.083 5.20494 120.629 7.88367 118.917 12.8997C117.205 17.9161 119.883 23.3706 124.9 25.0829C129.916 26.7949 135.371 24.1161 137.083 19.1001Z" fill="#161616"/>
  <path d="M119.873 21.1062C121.367 20.3935 126.451 17.8984 127.452 17.3111C128.275 16.8316 129.501 16.1245 129.501 16.1245L130.02 17.1838L130.814 22.4044L131.42 22.0544L131.823 14.7626C133.048 13.9969 134.127 13.2517 135.257 12.4723C135.671 12.1864 136.092 11.8958 136.529 11.598C136.391 11.3305 136.24 11.0697 136.077 10.817C135.601 11.0465 135.139 11.2656 134.685 11.4812C133.445 12.0697 132.26 12.6316 130.984 13.3092L124.468 10.0129L123.862 10.3629L127.986 13.6603L128.642 14.6383L128.643 14.6402C128.643 14.6402 127.418 15.3476 126.592 15.8208C125.582 16.3947 120.879 19.5503 119.515 20.4868C119.627 20.698 119.746 20.9044 119.873 21.1062" fill="#EEC218"/>
  <ellipse cx="165.333" cy="16" rx="16" ry="16" fill="#D32F2F"/>
  <path d="M167.512 11.1107C167.512 10.6456 167.656 10.2147 167.901 9.85718C167.165 10.0742 166.623 10.748 166.623 11.5551V12.977L167.512 13.0215V11.1107Z" fill="white"/>
  <path d="M166.623 20.8891C166.623 21.6961 167.165 22.3699 167.902 22.5869C167.656 22.2293 167.512 21.7984 167.512 21.3334V18.6663H166.623V20.8891Z" fill="white"/>
  <path d="M168.845 18.6667H167.957V21.3339C167.957 22.141 168.498 22.8148 169.235 23.0318C168.99 22.6742 168.845 22.2433 168.845 21.7783V18.6667Z" fill="white"/>
  <path d="M168.845 10.6666C168.845 10.2016 168.99 9.77064 169.235 9.41309C168.498 9.63015 167.957 10.3039 167.957 11.1109V13.0444L168.845 13.0889V10.6666Z" fill="white"/>
  <path d="M158.824 10.0969C158.174 10.4844 157.733 11.1882 157.733 11.9994V20.4443C157.733 21.2565 158.174 21.9592 158.824 22.3467C158.694 22.0346 158.622 21.6926 158.622 21.333V11.1107C158.622 10.7521 158.694 10.41 158.824 10.0969Z" fill="white"/>
  <path d="M159.956 10.222C159.956 9.86342 160.028 9.52136 160.157 9.20825C159.507 9.59577 159.067 10.2985 159.067 11.1107V21.3341C159.067 22.2889 159.672 23.096 160.519 23.4101C160.167 22.9585 159.956 22.3933 159.956 21.7784V10.222Z" fill="white"/>
  <path d="M171.068 8.88863C170.086 8.88863 169.29 9.68435 169.29 10.6661V13.5554L164.845 13.3333V10.2218C164.845 8.99517 163.85 8 162.623 8C161.395 8 160.401 8.99517 160.401 10.2218V21.7782C160.401 23.0059 161.395 24 162.623 24C163.85 24 164.845 23.0059 164.845 21.7782V18.2223H169.29V21.7782C169.29 22.7599 170.086 23.5556 171.068 23.5556C172.049 23.5556 172.845 22.7599 172.845 21.7782V10.6662C172.845 9.68444 172.049 8.88872 171.068 8.88872" fill="white"/>
  <ellipse cx="202.667" cy="16" rx="16" ry="16" fill="#CC0D21"/>
  <path d="M210.939 15.3964C211.475 15.93 211.875 16.6611 211.738 17.4723C211.602 18.0693 211.294 18.6136 210.853 19.0382C210.412 19.4629 209.857 19.7493 209.255 19.8624C208.878 19.9355 208.496 19.9766 208.113 19.9851H204.729L206.338 13.5718L209.057 12.6348L207.712 18.008C208.723 17.9941 209.403 17.2271 209.348 16.5251C209.292 15.8199 208.952 15.4559 208.506 15.2547C208.611 15.2159 210.102 14.2654 209.791 13.2822C209.464 12.2975 207.969 12.4295 207.102 12.6559C206.285 12.8455 205.481 13.0911 204.698 13.3911L203.044 19.9851H200.461L201.838 14.4864C201.806 14.4848 199.784 15.4056 199.784 15.4056L200.474 12.6295C201.27 12.2686 204.648 10.9042 206.813 10.5479C209.73 10.0699 211.575 10.9085 212.095 12.3422C212.614 13.7746 211.877 14.8827 210.939 15.3964Z" fill="white"/>
  <path d="M196.868 14.4554L196.31 16.6808C196.023 17.8228 195.235 18.9782 193.758 19.028L193.066 21.7831C193.92 21.7242 194.759 21.5388 195.558 21.233C197.221 20.5409 198.495 19.3137 198.955 17.3584L200.102 12.7756C200.055 12.799 197.775 13.882 196.872 14.4357L196.868 14.4554Z" fill="white"/>
  <path d="M197.882 10.3999L196.872 14.4357C197.775 13.882 200.055 12.799 200.102 12.7756L200.699 10.3999H197.882Z" fill="#B1B1B1"/>
  <ellipse cx="240" cy="16" rx="16" ry="16" fill="#161616"/>
  <path d="M249.6 15.9999C249.6 16.3277 249.583 16.6553 249.55 16.9814C249.518 17.3014 249.469 17.6195 249.405 17.9346C249.341 18.2471 249.262 18.5538 249.168 18.8546C249.075 19.1553 248.967 19.4493 248.845 19.7367C248.724 20.0238 248.589 20.3035 248.441 20.5758C248.293 20.8479 248.133 21.1117 247.96 21.3674C247.788 21.6227 247.604 21.8691 247.408 22.1064C247.212 22.3435 247.006 22.5707 246.788 22.7881C246.571 23.0053 246.344 23.2118 246.106 23.4077C245.869 23.6034 245.623 23.7876 245.367 23.9604C245.112 24.1329 244.848 24.2932 244.576 24.4412C244.304 24.589 244.024 24.7238 243.737 24.8455C243.45 24.9669 243.156 25.0745 242.855 25.1683C242.554 25.2618 242.247 25.3407 241.935 25.4049C241.62 25.4693 241.301 25.5179 240.981 25.5503C240.329 25.6164 239.671 25.6164 239.018 25.5503C238.698 25.5179 238.38 25.4693 238.065 25.4049C237.753 25.3409 237.446 25.2621 237.145 25.1683C236.845 25.0748 236.551 24.9672 236.263 24.8455C235.976 24.724 235.696 24.5893 235.424 24.4412C235.152 24.2934 234.888 24.1332 234.632 23.9604C234.377 23.7878 234.131 23.6036 233.893 23.4077C233.656 23.2121 233.429 23.0055 233.212 22.7881C232.995 22.571 232.788 22.3437 232.592 22.1064C232.396 21.8693 232.212 21.623 232.039 21.3674C231.867 21.112 231.707 20.8481 231.559 20.5758C231.411 20.3038 231.276 20.0241 231.154 19.7367C231.033 19.4495 230.925 19.1555 230.832 18.8546C230.738 18.554 230.659 18.2474 230.595 17.9346C230.53 17.6195 230.482 17.3014 230.449 16.9814C230.383 16.3288 230.383 15.6711 230.449 15.0184C230.482 14.6984 230.53 14.3803 230.595 14.0652C230.659 13.7527 230.738 13.446 230.832 13.1452C230.925 12.8446 231.033 12.5506 231.154 12.2632C231.276 11.976 231.411 11.6963 231.559 11.424C231.706 11.1519 231.867 10.8881 232.039 10.6325C232.212 10.3771 232.396 10.1307 232.592 9.89341C232.788 9.65635 232.994 9.42911 233.212 9.21168C233.429 8.99452 233.656 8.78799 233.893 8.59208C234.13 8.39644 234.377 8.21222 234.632 8.03943C234.888 7.86692 235.152 7.70663 235.424 7.55857C235.696 7.41079 235.976 7.27604 236.263 7.15432C236.55 7.03288 236.844 6.92527 237.145 6.8315C237.446 6.73801 237.752 6.65915 238.065 6.59494C238.38 6.53049 238.698 6.48194 239.018 6.44947C239.671 6.38338 240.329 6.38338 240.981 6.44947C241.301 6.48194 241.62 6.53049 241.935 6.59494C242.247 6.65888 242.554 6.73774 242.855 6.8315C243.155 6.925 243.449 7.03261 243.737 7.15432C244.024 7.27577 244.304 7.41052 244.576 7.55857C244.848 7.70636 245.112 7.86665 245.367 8.03943C245.623 8.21195 245.869 8.39617 246.106 8.59208C246.343 8.78772 246.571 8.99425 246.788 9.21168C247.005 9.42884 247.212 9.65608 247.408 9.89341C247.603 10.1305 247.788 10.3768 247.96 10.6325C248.133 10.8878 248.293 11.1517 248.441 11.424C248.589 11.696 248.724 11.9757 248.845 12.2632C248.967 12.5503 249.075 12.8443 249.168 13.1452C249.262 13.4458 249.341 13.7524 249.405 14.0652C249.469 14.3803 249.518 14.6984 249.55 15.0184C249.583 15.3445 249.6 15.6721 249.6 15.9999Z" fill="#D9270B"/>
  <path d="M241.385 24.251C241.05 24.251 240.719 24.2348 240.392 24.2024C240.066 24.1702 239.744 24.1226 239.428 24.0596C239.112 23.9969 238.801 23.9195 238.497 23.8275C238.193 23.7357 237.895 23.6301 237.605 23.5107C237.314 23.3915 237.031 23.2593 236.755 23.114C236.48 22.9689 236.213 22.8116 235.955 22.6421C235.696 22.4728 235.447 22.292 235.207 22.0998C234.967 21.9078 234.737 21.7051 234.517 21.4917C234.297 21.2786 234.088 21.0556 233.89 20.8227C233.692 20.5901 233.506 20.3483 233.331 20.0975C233.156 19.8469 232.994 19.588 232.844 19.3207C232.695 19.0537 232.558 18.7792 232.435 18.4972C231.931 17.3405 231.671 16.092 231.672 14.8302C231.672 14.6619 231.676 14.4947 231.685 14.3285C231.694 14.1624 231.708 13.9975 231.726 13.8337C231.743 13.67 231.765 13.5076 231.792 13.3464C231.818 13.1853 231.848 13.0256 231.883 12.8672C231.918 12.709 231.956 12.5522 231.999 12.3969C232.042 12.2417 232.088 12.088 232.139 11.936C232.19 11.7841 232.244 11.6338 232.302 11.4853C232.36 11.3368 232.422 11.1901 232.488 11.0453C232.553 10.9005 232.623 10.7577 232.695 10.6168C232.768 10.4759 232.844 10.3371 232.924 10.2003C233.004 10.0636 233.087 9.929 233.173 9.79659C233.26 9.66422 233.35 9.53412 233.443 9.40629C233.536 9.27849 233.632 9.15308 233.731 9.03004C233.83 8.90704 233.932 8.78653 234.038 8.6685C234.143 8.55051 234.251 8.43512 234.362 8.32233C234.474 8.20958 234.587 8.09953 234.704 7.99219C234.542 8.09961 234.384 8.21175 234.228 8.32861C234.073 8.4454 233.922 8.56672 233.775 8.69255C233.627 8.81832 233.484 8.9484 233.344 9.0828C233.204 9.21714 233.069 9.35559 232.937 9.49816C232.806 9.64065 232.679 9.78707 232.557 9.9374C232.434 10.0877 232.316 10.2416 232.203 10.3993C232.089 10.5569 231.98 10.7181 231.876 10.8827C231.772 11.0473 231.673 11.2152 231.579 11.3864C231.485 11.5575 231.397 11.7317 231.313 11.9091C231.229 12.0864 231.151 12.2666 231.078 12.4496C231.005 12.6327 230.938 12.8184 230.876 13.0068C230.814 13.1952 230.758 13.3861 230.708 13.5794C230.657 13.7727 230.613 13.9684 230.575 14.1663C230.537 14.3641 230.504 14.564 230.478 14.7661C230.453 14.968 230.433 15.1719 230.42 15.3777C230.407 15.5834 230.4 15.7908 230.4 15.9999C230.4 16.3277 230.416 16.6553 230.449 16.9814C230.482 17.3014 230.53 17.6195 230.595 17.9346C230.659 18.2471 230.738 18.5538 230.832 18.8546C230.925 19.1553 231.033 19.4493 231.154 19.7367C231.276 20.0238 231.411 20.3035 231.559 20.5758C231.706 20.8479 231.867 21.1117 232.039 21.3674C232.212 21.6227 232.396 21.8691 232.592 22.1064C232.788 22.3435 232.994 22.5707 233.212 22.7881C233.429 23.0053 233.656 23.2118 233.893 23.4077C234.13 23.6034 234.377 23.7876 234.632 23.9604C234.888 24.1329 235.152 24.2932 235.424 24.4412C235.696 24.589 235.976 24.7238 236.263 24.8455C236.55 24.9669 236.844 25.0745 237.145 25.1683C237.446 25.2618 237.752 25.3407 238.065 25.4049C238.38 25.4693 238.698 25.5179 239.018 25.5503C239.344 25.5834 239.672 25.6 240 25.5999C240.177 25.5999 240.353 25.5952 240.527 25.5857C240.702 25.5762 240.875 25.5621 241.047 25.5434C241.219 25.5248 241.389 25.5016 241.559 25.474C241.728 25.4464 241.895 25.4144 242.061 25.378C242.227 25.3417 242.392 25.3011 242.554 25.2562C242.717 25.2114 242.878 25.1625 243.037 25.1094C243.196 25.0564 243.353 24.9994 243.509 24.9383C243.664 24.8773 243.817 24.8124 243.968 24.7436C244.12 24.6749 244.269 24.6024 244.415 24.5261C244.562 24.4499 244.707 24.37 244.849 24.2865C244.992 24.203 245.132 24.116 245.269 24.0255C245.407 23.935 245.542 23.8412 245.674 23.7439C245.807 23.6467 245.936 23.5461 246.064 23.4424C246.191 23.3386 246.315 23.2317 246.437 23.1217C246.558 23.0117 246.677 22.8986 246.793 22.7826C246.909 22.6665 247.022 22.5476 247.132 22.4258C247.031 22.4975 246.929 22.5673 246.826 22.6353C246.722 22.7033 246.617 22.7694 246.511 22.8336C246.405 22.8977 246.297 22.9599 246.188 23.0202C246.079 23.0804 245.969 23.1387 245.857 23.1949C245.746 23.2511 245.633 23.3053 245.519 23.3574C245.405 23.4095 245.29 23.4595 245.173 23.5074C245.057 23.5553 244.939 23.601 244.821 23.6446C244.702 23.6881 244.582 23.7294 244.461 23.7686C244.341 23.8077 244.219 23.8446 244.096 23.8791C243.973 23.9137 243.849 23.946 243.724 23.976C243.599 24.0059 243.474 24.0335 243.347 24.0587C243.22 24.0839 243.093 24.1067 242.964 24.1271C242.836 24.1475 242.706 24.1654 242.576 24.1809C242.446 24.1963 242.315 24.2092 242.184 24.2196C242.052 24.2301 241.92 24.2379 241.787 24.2431C241.654 24.2484 241.52 24.251 241.385 24.251Z" fill="#C81D1A"/>
  <path d="M247.825 11.2784C247.825 11.252 247.825 11.2256 247.824 11.1993C247.823 11.173 247.822 11.1467 247.821 11.1206C247.82 11.0945 247.818 11.0684 247.816 11.0424C247.814 11.0165 247.812 10.9906 247.809 10.9648C247.807 10.939 247.804 10.9133 247.801 10.8877C247.797 10.8621 247.794 10.8366 247.79 10.8112C247.786 10.7858 247.782 10.7605 247.778 10.7354C247.773 10.7102 247.768 10.6851 247.763 10.6601C247.758 10.6351 247.753 10.6102 247.747 10.5855C247.742 10.5607 247.736 10.5361 247.73 10.5115C247.724 10.487 247.717 10.4626 247.71 10.4383C247.703 10.414 247.696 10.3898 247.689 10.3657C247.682 10.3417 247.674 10.3177 247.666 10.2939C247.658 10.2701 247.65 10.2464 247.642 10.2229C247.633 10.1993 247.624 10.1759 247.615 10.1526C247.606 10.1293 247.597 10.1062 247.588 10.0832C247.557 10.0435 247.525 10.0042 247.494 9.96505C247.462 9.92594 247.43 9.88707 247.398 9.84846C247.366 9.80986 247.333 9.7715 247.301 9.73341C247.268 9.69532 247.235 9.65748 247.201 9.61991C247.168 9.58234 247.134 9.54504 247.1 9.50799C247.066 9.47095 247.032 9.43417 246.998 9.39767C246.963 9.36116 246.928 9.32492 246.893 9.28896C246.858 9.25299 246.823 9.2173 246.787 9.18188C246.752 9.14647 246.716 9.11133 246.68 9.07647C246.643 9.04161 246.607 9.00703 246.57 8.97273C246.534 8.93843 246.497 8.90441 246.459 8.87068C246.422 8.83695 246.385 8.80351 246.347 8.77035C246.309 8.7372 246.271 8.70433 246.233 8.67176C246.195 8.63918 246.156 8.6069 246.117 8.57492C246.079 8.54293 246.04 8.51125 246 8.47986C245.961 8.44847 245.921 8.41738 245.882 8.38659C245.859 8.3773 245.836 8.36826 245.813 8.35948C245.79 8.35071 245.767 8.3422 245.743 8.33395C245.72 8.32571 245.697 8.31773 245.673 8.31002C245.65 8.30231 245.626 8.29487 245.602 8.28771C245.579 8.28054 245.555 8.27366 245.531 8.26704C245.507 8.26043 245.483 8.2541 245.458 8.24805C245.434 8.242 245.41 8.23623 245.385 8.23075C245.361 8.22527 245.336 8.22007 245.312 8.21517C245.287 8.21026 245.262 8.20565 245.237 8.20132C245.213 8.19699 245.188 8.19297 245.163 8.18925C245.138 8.18552 245.112 8.1821 245.087 8.17897C245.062 8.17584 245.037 8.17302 245.011 8.1705C244.986 8.16799 244.96 8.16578 244.935 8.16388C244.909 8.16198 244.883 8.16039 244.857 8.15911C244.832 8.15784 244.806 8.15688 244.78 8.15624C244.754 8.15559 244.728 8.15527 244.702 8.15527C244.595 8.15526 244.489 8.16064 244.382 8.1714C244.278 8.18196 244.175 8.19776 244.072 8.21872C243.971 8.23952 243.871 8.26518 243.773 8.29568C243.675 8.3261 243.58 8.36111 243.486 8.40071C243.393 8.44021 243.302 8.48405 243.213 8.53222C243.125 8.5803 243.039 8.63245 242.956 8.68866C242.873 8.74478 242.792 8.80471 242.715 8.86845C242.638 8.9321 242.564 8.99929 242.493 9.07002C242.423 9.14067 242.356 9.2146 242.292 9.29181C242.228 9.36894 242.168 9.44908 242.112 9.53224C242.056 9.61532 242.004 9.70115 241.956 9.78975C241.907 9.87825 241.864 9.96926 241.824 10.0628C241.785 10.1562 241.75 10.2518 241.719 10.3497C241.689 10.4475 241.663 10.5473 241.642 10.649C241.621 10.7515 241.605 10.855 241.595 10.9591C241.573 11.1714 241.573 11.3854 241.595 11.5977C241.605 11.7019 241.621 11.8054 241.642 11.9079C241.663 12.0095 241.689 12.1093 241.719 12.2072C241.749 12.305 241.784 12.4006 241.824 12.4941C241.864 12.5875 241.907 12.6785 241.956 12.7671C242.004 12.8556 242.056 12.9415 242.112 13.0246C242.168 13.1077 242.228 13.1878 242.292 13.2651C242.355 13.3422 242.423 13.4161 242.493 13.4868C242.564 13.5575 242.638 13.6247 242.715 13.6884C242.792 13.7521 242.872 13.812 242.956 13.8682C243.039 13.9243 243.124 13.9765 243.213 14.0246C243.302 14.0727 243.393 14.1166 243.486 14.1562C243.58 14.1957 243.675 14.2307 243.773 14.2612C243.871 14.2916 243.971 14.3172 244.072 14.3381C244.175 14.3591 244.278 14.3749 244.382 14.3855C244.595 14.407 244.809 14.407 245.021 14.3855C245.125 14.3749 245.229 14.3591 245.331 14.3381C245.433 14.3173 245.533 14.2917 245.63 14.2612C245.728 14.2308 245.824 14.1958 245.917 14.1562C246.011 14.1166 246.102 14.0728 246.19 14.0246C246.279 13.9766 246.365 13.9244 246.448 13.8682C246.531 13.8121 246.611 13.7522 246.688 13.6884C246.765 13.6248 246.839 13.5576 246.91 13.4868C246.981 13.4162 247.048 13.3423 247.112 13.2651C247.175 13.1879 247.235 13.1078 247.292 13.0246C247.348 12.9415 247.4 12.8557 247.448 12.7671C247.496 12.6786 247.54 12.5876 247.579 12.4941C247.619 12.4007 247.654 12.305 247.684 12.2072C247.715 12.1094 247.741 12.0096 247.761 11.9079C247.782 11.8054 247.798 11.7019 247.809 11.5978C247.82 11.4917 247.825 11.3851 247.825 11.2784Z" fill="white"/>
  <path d="M247.118 10.2201C247.118 10.266 247.116 10.3119 247.111 10.3576C247.106 10.4025 247.1 10.4471 247.091 10.4912C247.082 10.535 247.071 10.5779 247.057 10.6201C247.044 10.6622 247.029 10.7034 247.012 10.7437C246.995 10.7839 246.976 10.8231 246.956 10.8613C246.935 10.8994 246.912 10.9364 246.888 10.9722C246.864 11.008 246.838 11.0425 246.811 11.0757C246.783 11.1089 246.754 11.1408 246.724 11.1712C246.694 11.2017 246.662 11.2306 246.628 11.2581C246.595 11.2855 246.561 11.3113 246.525 11.3355C246.489 11.3597 246.452 11.3821 246.414 11.4029C246.376 11.4236 246.337 11.4425 246.296 11.4595C246.256 11.4765 246.215 11.4916 246.173 11.5048C246.131 11.5179 246.088 11.5289 246.044 11.5379C246 11.5469 245.955 11.5537 245.91 11.5583C245.819 11.5675 245.727 11.5675 245.635 11.5583C245.59 11.5537 245.546 11.5469 245.502 11.5379C245.458 11.5289 245.415 11.5179 245.373 11.5048C245.331 11.4917 245.29 11.4766 245.249 11.4595C245.209 11.4425 245.17 11.4236 245.132 11.4029C245.094 11.3822 245.057 11.3597 245.021 11.3355C244.985 11.3113 244.95 11.2855 244.917 11.2581C244.884 11.2306 244.852 11.2017 244.822 11.1712C244.791 11.1408 244.762 11.109 244.735 11.0757C244.707 11.0425 244.682 11.008 244.657 10.9722C244.633 10.9364 244.611 10.8994 244.59 10.8613C244.569 10.8232 244.55 10.784 244.533 10.7437C244.516 10.7035 244.501 10.6623 244.488 10.6201C244.475 10.578 244.464 10.535 244.455 10.4912C244.446 10.4471 244.439 10.4025 244.435 10.3576C244.425 10.2662 244.425 10.174 244.435 10.0826C244.439 10.0378 244.446 9.99318 244.455 9.94903C244.464 9.90525 244.475 9.86228 244.488 9.82012C244.501 9.778 244.516 9.73681 244.533 9.69654C244.55 9.65631 244.569 9.61711 244.59 9.57896C244.611 9.54084 244.633 9.50387 244.657 9.46805C244.682 9.43227 244.707 9.39776 244.735 9.3645C244.762 9.33129 244.791 9.29945 244.822 9.26898C244.852 9.23855 244.884 9.20961 244.917 9.18217C244.95 9.15475 244.985 9.12894 245.021 9.10473C245.057 9.08056 245.094 9.0581 245.132 9.03735C245.17 9.01664 245.209 8.99776 245.249 8.9807C245.29 8.96369 245.331 8.94861 245.373 8.93547C245.415 8.92237 245.458 8.91132 245.502 8.90233C245.546 8.8933 245.59 8.88649 245.635 8.88194C245.727 8.87269 245.819 8.87269 245.91 8.88194C245.955 8.88649 246 8.8933 246.044 8.90233C246.088 8.91129 246.131 8.92233 246.173 8.93547C246.215 8.94857 246.256 8.96365 246.296 8.9807C246.337 8.99772 246.376 9.0166 246.414 9.03735C246.452 9.05805 246.489 9.08052 246.525 9.10473C246.561 9.1289 246.595 9.15472 246.628 9.18217C246.662 9.20958 246.694 9.23852 246.724 9.26898C246.754 9.29941 246.783 9.33125 246.811 9.3645C246.838 9.39772 246.864 9.43224 246.888 9.46805C246.912 9.50383 246.935 9.5408 246.956 9.57896C246.976 9.61708 246.995 9.65627 247.012 9.69654C247.029 9.73677 247.044 9.77796 247.057 9.82012C247.071 9.86224 247.082 9.90521 247.091 9.94903C247.1 9.99318 247.106 10.0378 247.111 10.0826C247.116 10.1283 247.118 10.1742 247.118 10.2201Z" fill="#65140C"/>
  <path d="M246.669 10.2093C246.669 10.2399 246.667 10.2704 246.664 10.3009C246.661 10.3307 246.656 10.3604 246.65 10.3898C246.644 10.419 246.637 10.4476 246.628 10.4757C246.62 10.5037 246.61 10.5311 246.598 10.558C246.587 10.5848 246.574 10.6109 246.56 10.6363C246.547 10.6617 246.532 10.6863 246.516 10.7101C246.499 10.734 246.482 10.7569 246.464 10.7791C246.446 10.8012 246.426 10.8224 246.406 10.8427C246.386 10.863 246.365 10.8822 246.343 10.9005C246.32 10.9188 246.297 10.936 246.274 10.9521C246.25 10.9682 246.225 10.9831 246.2 10.997C246.174 11.0107 246.148 11.0233 246.121 11.0347C246.095 11.046 246.067 11.0561 246.039 11.0648C246.011 11.0735 245.982 11.0809 245.953 11.0869C245.924 11.0929 245.894 11.0974 245.864 11.1004C245.803 11.1066 245.742 11.1066 245.681 11.1004C245.651 11.0974 245.622 11.0929 245.592 11.0869C245.563 11.0809 245.534 11.0736 245.506 11.0648C245.478 11.0561 245.451 11.046 245.424 11.0347C245.397 11.0233 245.371 11.0108 245.346 10.997C245.32 10.9832 245.296 10.9682 245.272 10.9521C245.248 10.936 245.225 10.9188 245.203 10.9005C245.181 10.8823 245.16 10.863 245.139 10.8427C245.119 10.8224 245.1 10.8012 245.082 10.7791C245.063 10.757 245.046 10.734 245.03 10.7101C245.014 10.6863 244.999 10.6617 244.985 10.6363C244.971 10.6109 244.959 10.5848 244.947 10.558C244.936 10.5312 244.926 10.5037 244.917 10.4757C244.909 10.4476 244.901 10.419 244.895 10.3898C244.889 10.3604 244.885 10.3307 244.882 10.3009C244.875 10.24 244.875 10.1786 244.882 10.1177C244.885 10.0878 244.889 10.0581 244.895 10.0287C244.901 9.99958 244.908 9.97097 244.917 9.9429C244.926 9.91484 244.936 9.88741 244.947 9.86059C244.959 9.8338 244.971 9.8077 244.985 9.78229C244.999 9.7569 245.014 9.73228 245.03 9.70843C245.046 9.6846 245.063 9.66161 245.082 9.63947C245.1 9.61735 245.119 9.59614 245.139 9.57585C245.16 9.55559 245.181 9.53632 245.203 9.51803C245.225 9.49978 245.248 9.48259 245.272 9.46647C245.296 9.45037 245.32 9.43541 245.346 9.42159C245.371 9.40781 245.397 9.39524 245.424 9.38387C245.451 9.37254 245.478 9.3625 245.506 9.35375C245.534 9.34503 245.563 9.33767 245.592 9.33168C245.622 9.32566 245.651 9.32113 245.681 9.3181C245.742 9.31194 245.803 9.31194 245.864 9.3181C245.894 9.32113 245.924 9.32566 245.953 9.33168C245.982 9.33764 246.011 9.345 246.039 9.35375C246.067 9.36247 246.095 9.37251 246.121 9.38387C246.148 9.39521 246.174 9.40778 246.2 9.42159C246.225 9.43538 246.25 9.45034 246.274 9.46647C246.297 9.48256 246.32 9.49975 246.343 9.51803C246.365 9.53629 246.386 9.55556 246.406 9.57585C246.426 9.59611 246.446 9.61732 246.464 9.63947C246.482 9.66159 246.499 9.68457 246.516 9.70843C246.532 9.73226 246.547 9.75688 246.56 9.78229C246.574 9.80767 246.587 9.83378 246.598 9.86059C246.609 9.88739 246.62 9.91482 246.628 9.9429C246.637 9.97095 246.644 9.99956 246.65 10.0287C246.656 10.0581 246.661 10.0878 246.664 10.1177C246.667 10.1481 246.669 10.1787 246.669 10.2093Z" fill="#161616"/>
  <path d="M246.92 9.51571C246.92 9.5306 246.919 9.54548 246.918 9.5603C246.916 9.57484 246.914 9.58929 246.911 9.6036C246.908 9.6178 246.905 9.63173 246.9 9.6454C246.896 9.65907 246.891 9.67242 246.886 9.68547C246.88 9.69852 246.874 9.71122 246.867 9.72359C246.861 9.73596 246.853 9.74795 246.846 9.75955C246.838 9.77115 246.829 9.78234 246.82 9.79312C246.812 9.80391 246.802 9.81423 246.792 9.8241C246.782 9.83396 246.772 9.84334 246.761 9.85224C246.751 9.86114 246.739 9.86951 246.728 9.87735C246.716 9.88519 246.704 9.89247 246.692 9.8992C246.679 9.90592 246.667 9.91204 246.654 9.91756C246.641 9.92308 246.627 9.92797 246.614 9.93223C246.6 9.93649 246.586 9.94007 246.572 9.94298C246.558 9.9459 246.543 9.94811 246.529 9.94958C246.499 9.95259 246.469 9.95259 246.439 9.94958C246.425 9.94811 246.41 9.9459 246.396 9.94298C246.382 9.94007 246.368 9.93649 246.354 9.93223C246.341 9.92797 246.327 9.92308 246.314 9.91756C246.301 9.91205 246.288 9.90592 246.276 9.8992C246.264 9.89247 246.252 9.88519 246.24 9.87735C246.229 9.86952 246.217 9.86115 246.207 9.85224C246.196 9.84334 246.185 9.83396 246.176 9.8241C246.166 9.81423 246.156 9.80391 246.147 9.79312C246.139 9.78234 246.13 9.77115 246.122 9.75955C246.114 9.74795 246.107 9.73596 246.1 9.72359C246.094 9.71122 246.088 9.69851 246.082 9.68547C246.077 9.67242 246.072 9.65907 246.067 9.6454C246.063 9.63173 246.06 9.6178 246.057 9.6036C246.054 9.58929 246.052 9.57484 246.05 9.5603C246.047 9.53065 246.047 9.50077 246.05 9.47112C246.052 9.45658 246.054 9.44213 246.057 9.42781C246.06 9.41362 246.063 9.39969 246.067 9.38602C246.072 9.37235 246.077 9.359 246.082 9.34596C246.088 9.33291 246.094 9.3202 246.1 9.30783C246.107 9.29546 246.114 9.28348 246.122 9.27187C246.13 9.26027 246.139 9.24908 246.147 9.2383C246.156 9.22752 246.166 9.21719 246.176 9.20733C246.185 9.19746 246.196 9.18808 246.207 9.17918C246.217 9.17028 246.229 9.16191 246.24 9.15407C246.252 9.14624 246.264 9.13896 246.276 9.13223C246.288 9.1255 246.301 9.11938 246.314 9.11386C246.327 9.10835 246.341 9.10346 246.354 9.0992C246.368 9.09494 246.382 9.09136 246.396 9.08845C246.41 9.08552 246.425 9.08332 246.439 9.08184C246.469 9.07884 246.499 9.07884 246.529 9.08184C246.543 9.08332 246.558 9.08552 246.572 9.08845C246.586 9.09135 246.6 9.09494 246.614 9.0992C246.627 9.10346 246.641 9.10835 246.654 9.11386C246.667 9.11938 246.679 9.1255 246.692 9.13223C246.704 9.13895 246.716 9.14624 246.728 9.15407C246.739 9.16191 246.751 9.17028 246.761 9.17918C246.772 9.18808 246.782 9.19746 246.792 9.20733C246.802 9.21719 246.812 9.22752 246.82 9.2383C246.829 9.24908 246.838 9.26027 246.846 9.27187C246.853 9.28347 246.861 9.29546 246.867 9.30783C246.874 9.3202 246.88 9.33291 246.886 9.34596C246.891 9.359 246.896 9.37236 246.9 9.38602C246.905 9.39968 246.908 9.41361 246.911 9.42781C246.914 9.44213 246.916 9.45658 246.918 9.47112C246.919 9.48593 246.92 9.50082 246.92 9.51571Z" fill="white"/>
</svg>
