<?xml version="1.0" encoding="utf-8"?>
<!-- Generator: Adobe Illustrator 23.0.4, SVG Export Plug-In . SVG Version: 6.00 Build 0)  -->
<svg version="1.1" id="Layer_1" xmlns="http://www.w3.org/2000/svg" xmlns:xlink="http://www.w3.org/1999/xlink" x="0px" y="0px"
	 viewBox="0 0 800 500" style="enable-background:new 0 0 800 500;" xml:space="preserve">
<style type="text/css">
	.st0{fill:#BE8764;}
	.st1{fill:#D18969;}
	.st2{fill:#E18B96;}
	.st3{fill:#00A698;}
	.st4{fill:#96694B;}
	.st5{fill:#7F5E47;}
	.st6{fill:#A0384F;}
	.st7{fill:#D1435B;}
	.st8{fill:#BA6B4D;}
	.st9{opacity:0.5;fill:#A82C47;}
	.st10{fill:#E5A389;}
	.st11{opacity:0.5;fill:#BA6B4D;}
	.st12{fill:#007264;}
	.st13{fill:#73CEC6;}
	.st14{fill:#D8B59C;}
	.st15{fill:#FFAB95;}
	.st16{fill:#F6BA5B;}
	.st17{fill:#FFC6BB;}
	.st18{fill:#FFEBD0;}
	.st19{fill:#A5856D;}
	.st20{opacity:0.7;fill:#D8B59C;}
	.st21{fill:#FFFFFF;}
	.st22{opacity:0.7;fill:#007264;}
	.st23{fill:#FFDAA4;}
	.st24{opacity:0.4;fill:#E0A28C;}
	.st25{fill:none;stroke:#FFFFFF;stroke-width:1.58;stroke-linecap:round;stroke-linejoin:round;stroke-miterlimit:10;}
	.st26{fill:#E1AA82;}
	.st27{fill:#444560;}
	.st28{fill:#FFB54D;}
	.st29{opacity:0.35;fill:#E18B96;}
</style>
<g>
	<path class="st0" d="M193.8,392.9c0,0-2,4.4-3.4,6.9c-1.4,2.5-4.6,7.1-4.6,7.1s19.3-0.7,19.1-3.2s-0.6-8.9-0.6-8.9l-1.7-4.7
		l-0.5-4.8l-7.6,2"/>
	<path class="st1" d="M242.6,395.9v3.9c0,0,18.3-1.4,17.8-2c-0.5-0.6-5.3-3.7-5.3-3.7"/>
	<path class="st2" d="M197,235.6c0,0-1.9,1.6-1.6,3.4s4.3,20.5,4.2,22.6s2.6,6.3,3,6.5c0.4,0.2,15.9,3.9,16.4,4.2
		c0.5,0.3,25.1,0.7,25.1,0.7s19.9-35.5,15.7-35.1c-0.8,0.1-20,2.8-20,2.8"/>
	<path class="st3" d="M85,426.7c0,0,7.3-10.4-2.4-21.8c0,0,10.9,2.4,10.6,19.8"/>
	<path class="st3" d="M80.7,428.6c0,0-8-5.6-8.2-18.6c0,0-2.2,4.7-2.2,8.8c0,0-3.1-8,0-17.7c0,0-6.5,13.8-2.4,29.2"/>
	<path class="st4" d="M168.2,300.4c0,0-0.9,3-2,4.1c-1.1,1.1-2.1,2.1-3.2,2.4c-1.2,0.3-1.6,0.4-2.4,0.8s-2.2,4.2-2.5,4.3
		c-0.3,0.1-1.3,0.4-1.4,0c-0.1-0.4,0-1.1,0-1.1s-0.8,0.6-1,1c-0.2,0.4-0.7,1.5-0.9,1.5c-0.3,0.1-1.3-0.4-1.4-0.7
		c-0.1-0.3,0.5-2.4,0.5-2.4s-1.1,0.7-1.6,1c-0.5,0.3-1.2,1.9-1.5,2.1c-0.3,0.1-1.4-0.7-1.4-1.2c0-0.5,0.7-2.5,0.7-2.5
		s-1.4,0.3-1.8,0.4c-0.3,0.1,0-1.4,0-1.7c0-0.3,2.2-2.5,3-2.6s2.7-1.5,3.2-1.7c0.5-0.2,1.8-1,1.8-1"/>
	<path class="st5" d="M270.8,257.4c0,0,2.9-7.2,6-8.7c3.1-1.5,8.2-0.6,8.7,0c0.4,0.6,0.3,0.8-0.6,1.1c-0.9,0.4-3.8-0.4-6.3,0.9
		c-2.5,1.3-5.4,7.7-5.4,7.7"/>
	<path class="st0" d="M196.3,238c0,0-8.6,9.5-9.3,11.9c-0.7,2.3-2.9,9.7-3.3,10.1s-1.7,5.1-2.7,6.4c-1,1.3-3.6,7-5.2,8.6
		c-1.6,1.6-10.3,19.2-10.9,20c-0.6,0.8-2,3-2,3.9s3.2,3.4,4.9,3c1.7-0.4,3-3.3,5.5-4.5s8.8-12.5,11.6-14.4c2.8-1.9,6.2-8.8,6.2-8.8
		s0.2-1,1.3-1.5c1-0.5,2.4-2.4,2.9-3.2c1.1-2.4,2-2.3,2.8-3s1.7-0.7,4.9-3.6c3.2-2.9,7.7-12.5,7.7-12.5l0.9-11.2"/>
	<path class="st4" d="M282.1,267.6c0,0-5.7,10.5-7.3,13.3c-1.7,2.8-3.1,6-6.9,8.7c-3.8,2.6-6.6,3.4-7.7,2.9c0,0-1.6,0.1-2.5-0.7
		c-0.9-0.9-4.9-8.2-5.3-9.2c-0.4-1-4.2-15.8-4.2-16.3c0-0.4,3.9-18.2,4-19.1c0.1-0.9,1.6-3.4,3.8-3.5c2.2-0.1,6,3.8,6,3.8
		s3.4,14.3,3.1,16.6c-0.3,2.3,1.5,9.5,1.5,9.5l6.7-7.6"/>
	<path class="st1" d="M213.5,160.8"/>
	<path class="st6" d="M262,332.3c0,0,0.9,1.9-0.9,5.8c-1.8,4-1.4,8.2-7.5,7.9s-16,0.7-18.2-6.2c-2.2-7,8.6-15.8,8.6-15.8"/>
	<path class="st0" d="M221.4,339.9c0,0-2,7.1-2.6,8.2c-0.7,1.1-0.3,5.3-1.6,7.7c-1.3,2.4-8.4,25.6-9.5,29.1
		c-1.1,3.5-3.4,9.9-3.4,9.9s-3-1.4-6.1-1.9c-3.1-0.5-4.4,0-4.4,0s4-31.6,3.7-36.5c-0.2-4.9-0.4-8.8,0.9-10.6c1.3-1.8,2.2-2.1,2-4.1
		c-0.2-2-0.7-4.9,0-7.2"/>
	<path class="st4" d="M200.5,342.6c2.4,1,5,2,5.9,1.8c2-0.4,5.3-0.2,7.7,0c1.2,0.1,3.2,1.6,5,3c0.8-2.1,2.3-7.4,2.3-7.4l-20.9-5.4
		c-0.7,2.3-0.2,5.2,0,7.2C200.5,342.1,200.5,342.3,200.5,342.6z"/>
	<path class="st0" d="M258,328.9c0,0,4.2,8.9,4,12.8s-6.6,34.1-6.8,38.3c-0.2,4.2,0.7,13,0,14.1c-0.7,1.1-7.2,2.4-8.7,1.3
		c-1.5-1.1-4.1,2.2-3.9,0.4c0.2-1.7-0.9-4.8,0-6.8s1.2-3.5,1.4-6.6s-2.4-24-3-31.1c-0.6-7.1,0.3-7.9,0-10.8
		c-0.3-2.9-2.6-6.8-2.3-8.6"/>
	<path class="st4" d="M240.8,345.2c1.2-0.6,2.8-1.5,3.9-2.7c2.3-2.4,5.5-6.2,8.9-6.2c2.4,0,5.7-0.3,7.9,1.8
		c-1.1-4.2-3.5-9.3-3.5-9.3l-19.4,3.1c-0.2,1.8,2,5.7,2.3,8.6C241.1,342.3,240.9,343.3,240.8,345.2z"/>
	<path class="st7" d="M254.2,296.5c0,0,0,4.6,0,5.8c0,1.2-0.6,1,0,2.2c0.6,1.2,0,3.6,0,3.6s6.8,21.7,7.8,24.2c0,0-4.9-1.2-8.4-1.2
		c-3.5,0-10.4,1.4-12.6,2.4s-4,2.4-4.4,3.2c-0.4,0.8-1.2,3.2-1.2,3.2s-2.8-8.1-2.9-10.1c-0.1-2-0.5-5.7-1.1-7.3
		c-0.6-1.6-2.7-1.8-2.7-1.8s-1.2,10.1-1.8,11.5s-1.3,6.4-2.3,7.7c-1,1.4-2.8,2.4-8.7,1.6c-6-0.8-9.2-4.2-13.3-5
		c-4-0.8-6.7,1.2-6.3-0.8s2.9-24.4,3.5-26.4c0.6-2,0.8-7.2,1.2-8.4c0.4-1.2,1.5-4.8,1.2-5.4c-0.4-0.6-0.7-1.9,0-3.4
		c0.7-1.4,2.4-3.4,2.2-4.2"/>
	<path class="st8" d="M196.3,239.1"/>
	<path class="st0" d="M209.4,247.4l-7.2,3c0,0-0.2,4,0,6.6c0.2,2.6,3.1,8.5,3.1,8.9l1.1,7.6l3,4.4l6.4-18.8"/>
	<path class="st0" d="M239.2,215.2c0,0,1.2,12.7,1.4,14.2c0.2,1.5,16.8,8.2,18.3,10.2c1.5,2,3.1,7.9,3.1,7.9s-9.5-1.9-15.9-1.2
		c-6.4,0.7-10.8,7.7-16.1,7.1c-5.3-0.7-11.2-9-14.8-10.6c-3.5-1.5-19.9-3.6-19.9-3.6s4.7-6,11.1-7.6c3.2-0.8,14.8-3.8,15.7-5.4
		c0.9-1.6,3.1-10,2.6-13.6"/>
	<path class="st4" d="M219.3,227.6c0,0-0.2,0.1-0.6,0.1c-2.3,0.6-10.8,2.8-13.7,4.1c-3.4,1.5-5.4,3.1-5.4,3.1s0,0,1.3,0.6
		c1.3,0.6,7.2-1.5,10.5-2c3.4-0.4,11.8-0.6,11.8-0.6s3.9-1.7,4.6-1.9c0.7-0.1,5.6,1.8,7.5,1.9c1.9,0.1,4.1-14.9,4.1-14.9
		s-4.9,4.7-6.9,2.8c-2.1-1.9-8.2-2.9-8.2-2.9s-1.6,7.1-3,8.1"/>
	<path class="st9" d="M214.1,330.7c0,0,6.1-5.4,6.7-6.6c0.7-1.2-3.5-5.7-4.5-6.8c-1-1.1-5.8-7.6-5.6-8.2c0.2-0.6,2.9-8.2,4-8.1
		c1.1,0.1,2,2.6,15,3.5c12.9,0.9,19.6-1.9,19.6-1.9l4.8-0.8c0-1.7,0-5.1,0-5.1l-49.9-8.5c0.2,0.8-1.5,2.7-2.2,4.2
		c-0.7,1.4-0.4,2.8,0,3.4c0.4,0.6-0.8,4.2-1.2,5.4c-0.4,1.2-0.6,6.4-1.2,8.4c-0.6,2-3.2,24.4-3.5,26.4c-0.3,2,2.3,0,6.3,0.8
		c3.1,0.6,5.8,2.8,9.6,4.1L214.1,330.7z"/>
	<path class="st10" d="M228.2,209.9"/>
	<path class="st10" d="M221.4,209.4"/>
	<path class="st1" d="M235.2,203.2"/>
	<path class="st0" d="M254.3,245.1c0,0,2.5,11.9,2.5,15.7s-3.5,9.6-3.6,10.7c-0.1,1.2,0.5,8.4,0.9,11.5c0.4,3.1-0.1,5.2,0,7.7
		c0.1,2.5,0.9,5.5,0,5.8c-0.9,0.3-4.6,2.1-10.9,3.5s-16.4,1-22-0.7s-10.6-5.1-13.8-6.2s-5-4.4-4.9-5c0.1-0.6,1.6-12.6,2.6-15.1
		s1-7.1,1-8.2s-1-12.8-0.6-16.8c0.4-4,2.4-10.1,2.4-10.1"/>
	<path class="st0" d="M283.9,258.5c0,0-3.1-6.1-4.7-7.4s-8.2-3.7-9.3-3.9c-1-0.2-1.6,2.2-1,2.6c0.6,0.4,5,2.6,5.9,3
		c0.9,0.4,2.9,3.2,2.9,3.2l-5.6-3.2c0,0-6.2-1.8-6.5-1c-0.3,0.8-0.6,1.7,0,2.1c0.6,0.4,6.9,2.6,7.3,3.1c0.4,0.5,1.6,1.4,1.6,1.4
		s-4.2-1.6-5-1.4c-0.7,0.2-1.3,2.9-1.3,3.3s-0.7,1.2-0.4,2.1s0.6,2.8,1.5,3c0.9,0.3,1.8,2,2.5,2.2c0.7,0.1,1.3,0,1.3,0
		s3.8,3.9,5.4,3s3.1-2.4,4-4.2S284.4,259.4,283.9,258.5z"/>
	<g>
		<g>
			<path class="st4" d="M277.8,267.4c-0.4-0.6-3.2-2.4-3.2-2.4h1.8c0,0-1.2-2.8-1.6-3c-0.4-0.2-0.1-3.4-0.1-3.4s-4.2-1.6-5-1.4
				c-0.7,0.2-1.3,2.9-1.3,3.3c0,0.4-0.7,1.2-0.4,2.1c0.3,0.9,0.6,2.8,1.5,3c0.9,0.3,1.8,2,2.5,2.2c0.7,0.1,1.3,0,1.3,0
				s3.8,3.9,5.4,3C278.3,269.6,278.1,267.8,277.8,267.4z"/>
		</g>
	</g>
	<path class="st0" d="M268.4,260.5c0,0,3.6,1.2,3.8,1.2c0.2,0-2.7-2-3.4-2.1L268.4,260.5z"/>
	<path class="st0" d="M210.4,243.1c0,0-5.5,5.8-5.4,9.4s3.3,10.1,4,10.2"/>
	<path class="st0" d="M262.5,249.8c-1.1-5.1-3-9.1-3-9.1s-0.5,1.6-1.3,2.4c-0.8,0.8-3.6,3.3-3.6,3.3l0.7,3.4"/>
	<path class="st0" d="M273.2,267.8l5.4,3C278.6,270.8,276.3,272.5,273.2,267.8z"/>
	<path class="st4" d="M202.3,263.3c-0.3-2.4,2-4.6,4.1-5.8c0.5-0.3,0.9-0.4,1.3-0.4c1.9,0,2.7,5.2,7.6,6.9
		c4.9,1.7,11.6,0.8,11.6,0.8s-2.4,2.5-5.7,3c-3.4,0.4-5.1,1.6-9.1,7.3s-4.3,10.4-4.4,11.9s-0.1,6.1-0.1,6.1s-5.5-0.8-4.9-5
		c0.6-4.2,2.2-12.4,1.7-17C204,268.6,202.5,265.5,202.3,263.3z"/>
	<path class="st11" d="M253.4,271c0,0-4.9-5.1-5.3-5.8c-0.4-0.7,2.1,0.4,4.5,0s4.2-1.1,4.2-1.1"/>
	<path class="st11" d="M218.7,260.4c0,0,0.9,2.4,4.1,2.2s2.1-2.4,1.1-3.5C222.9,258,218.7,258.2,218.7,260.4z"/>
	<path class="st11" d="M249.4,261.5c0,0,0.9,2.4,4.1,2.2c3.2-0.1,2.1-2.4,1.1-3.5C253.5,259.1,249.3,259.3,249.4,261.5z"/>
	<path class="st4" d="M235,292.6c0.2-0.3,2.1-1.6,4.4-1.9c2.4-0.3,4.7,2.4,4.7,2.4s-1.5-1-4.7-0.5C236.2,293.1,235,292.6,235,292.6z
		"/>
	<path class="st3" d="M555.6,145.7c-0.7,0.7-5,10-6.1,11.1c-1.1,1.1,3.7,3.5,3.7,3.5s-5.5,3.7-6.5,4.9s-2.6,15.5-2.6,15.5l2.8,3.6
		l-3.7,1.6l2.3,15.7c0,0,14.5-12.3,14.4-13.1c-0.1-0.8-1.1-3-1.1-3s3.8-0.7,4.7-2.6c0.9-1.9,6.1-10.2,6.1-10.2l2-6.3"/>
	<path class="st12" d="M617.4,159.3c0.5,1.4,1.8,13.2,1.7,14.3s-6.1-0.8-6.1-0.8s0.6,5.4,0,9.8c-0.6,4.5-4,13.1-3.7,13.9
		s-2.2,4.4-2.2,4.4s-13-31.3-13.1-31.3s4.3-18.1,4.3-18.1"/>
	<path class="st3" d="M588,171.4c0,0-4.3,0.7-5.4,2.7c-1.1,2-1.2,3.6-1.2,3.6s-1.3-0.5-2.8-3.2s-0.7-4.2-0.7-4.2"/>
	<path class="st3" d="M597.8,162.7c0,0,2.6-1,4.6,0.1s2.4,5.2,2.4,5.2s-2.8-1.1-3.7-1.2s0.5,3.9-3.7,3.5s-5.4,0.1-5.4,0.1l-1.8-2.2"
		/>
	<path class="st13" d="M581.1,86c0,0-16.5-22.6-34.5-34.8C528.5,39,518,37.4,518,37.4s-6.3,5.3-9.7,5s2.2-2.6-2.4-4.7
		c-4.6-2.2-20.3,4.6-26.5,8.1c-6.1,3.6-21.3,18.5-20.8,20c0.5,1.5,15.2-1.3,19.7-2.1c4.5-0.7,17.7-9.1,18.8-6.4
		c1.1,2.7-3.4,6.4-0.2,7.1c3.1,0.7,14.7,4.4,14.7,4.4s16.6-3.6,16.3-0.6c-0.2,1.9-2.1,2.5-2.4,3.7l0,0l0,0c-0.1,0.3,0,0.7,0.3,1.1
		c1.1,4.2,5.6,18.8,14.4,25.3c4.1,3,8.4,5,12,6.3c7.3,10.4,15.8,18.4,15.8,18.4L581.1,86z"/>
	<path class="st3" d="M570,72.5c-0.1,0-8.9-4.2-14.8-8.2c-6-4-33-19.1-34.2-18.1c-1.1,1,4.3,6.6-0.2,4.6c-4.5-1.9-20.6-4.5-26.3-4.3
		c-4.2,0.2-18.7,5.8-26.6,8.7c-0.8,0.7-1.5,1.4-2.2,2.2c-4.1,4.1-7.3,7.7-7.1,8.4c0.5,1.5,15.2-1.3,19.7-2.1
		c4.5-0.7,17.7-9.1,18.8-6.4c1.1,2.7-3.4,6.4-0.2,7.1c3.1,0.7,14.7,4.4,14.7,4.4s16.6-3.6,16.3-0.6c-0.2,1.9-2.1,2.5-2.4,3.7
		c-0.1,0.3,0,0.7,0.3,1.1c1.1,4.2,5.6,18.8,14.4,25.3c4.1,3,8.4,5,12,6.3c7.3,10.4,15.8,18.4,15.8,18.4L581.1,86
		C581.1,86,576.7,80,570,72.5z"/>
	<path class="st14" d="M314.5,298.5c0,0,132.7,48,267.7-15.9c0,0-45.6,43.9-72,51.5c-26.5,7.6-134.9,0-134.9,0"/>
	<path class="st3" d="M117.3,417.9c0,0-5.3-10.6-12.7-13c0,0,14.1-1.1,19.7,10.9"/>
	<path class="st15" d="M582.1,166.7c0,0,75.6,160.3,62.4,249l33.8,3c0,0-9.7-102.4-87.6-261.9"/>
	<path class="st3" d="M121.4,417.8c0,0-6.7-8.7-1.3-16c5.5-7.3,0.3-22.8,0.3-22.8s11.1,13,10,22.8c-1.1,9.8,6.9,18.7,6.9,18.7"/>
	<path class="st3" d="M122.4,409.6c0,0,13.3-5.8,16.6-13.5c0,0,1.3,10.6-8.2,17.5"/>
	<path class="st3" d="M639.5,410.8c0,0,2.1-8.1-16.3-16.6c0,0,23.9,1,28,17.8"/>
	<path class="st3" d="M647.6,412.4c0,0,4.7-16,24.7-25.5c0,0-15.3,20.3-13,32.4"/>
	<path class="st12" d="M657,412.9c0,0,15.7-7.1,21.1-7.9c5.4-0.8,14.3-10.9,14.3-10.9s-2.4,12.1-8.2,15.7
		c-5.8,3.5-4.9,10.3-4.9,10.3"/>
	<path class="st16" d="M245.2,396.7c-0.2,0.1-0.4,0.1-0.4,0.1S245,396.7,245.2,396.7C245.2,396.7,245.2,396.7,245.2,396.7z"/>
	<path class="st2" d="M628.9,242.9c-10.4-26.3-22.9-55.1-38-86.1l-8.7,9.9c0,0,17.9,37.9,34.7,87.1
		C621.5,250.8,625.5,247,628.9,242.9z"/>
	<path class="st17" d="M629.7,294.6c0,0,5.9-5.8,15.6-7.4l3.7,10.9l-17.1,4.5"/>
	<path class="st17" d="M639,332.4c0,0,11.8-4.9,19.8-2.9l3.9,13.9l-20.8,4.2"/>
	<path class="st15" d="M609.3,232.5c0,0,5.2-7,12.3-8.2l3.1,8.1c0,0-10.3,2-12.4,8.2"/>
	<path class="st12" d="M596.3,168.2c0,0,7.8-8.8,10.8-20.2c3-11.4-3.7-27-3.7-27l-1.5,4.7c0,0-1.9-11.4-17-15.7
		c-15.1-4.3-26.9-14.6-26.9-14.6s-4.6,9.9-5.7,17.8s4.2,18.9,4.2,18.9l-9.6-4.1c0,0,2.2,23.8,14,36.2S593.8,171.4,596.3,168.2z"/>
	<circle class="st18" cx="665.2" cy="64.8" r="23"/>
	<path class="st19" d="M639.3,263.3c-0.7,0.4-19.9,4.7-20.3,6.2c-0.4,1.6,0.5,2,1.1,2.2s20.4-5.1,20.8-5.9c0.4-0.8-1.1-2.3-1.1-2.3"
		/>
	<path class="st19" d="M633.8,308.9c0,0,23.4,13,24.5,13.3c1,0.3,1.6,1.5,1.4,2.5c-0.2,1-1.4,2-1.4,2l-1.1-3c0,0-17.4-8.8-19.4-9.7
		s-3.1-1.9-3.1-1.9l0.5,2.2c0,0-2.4-2-3-3.2s1.1-3.3,1.1-3.3"/>
	<path class="st19" d="M639.5,335.1c0,0-0.8,7.9,0.8,10.2c1.6,2.3,22.1,14.3,24.7,15.8s5.1,3,5.6,3.7c0.5,0.7-1.8,2.5-1.8,2.5l0.7,3
		c0,0,3.8-3.7,3.9-5.3c0.1-1.6-2.5-3.2-3.6-3.9c-1-0.7-27.4-15.4-28.2-18.4C640.8,339.8,639.5,335.1,639.5,335.1z"/>
	<path class="st19" d="M645.8,381.5c0,0-3.7,3.6-4.8,5s0.5,2.6,0.8,2.5s1.8-1.9,3-2.7s1.2-1.5,1.2-1.5"/>
	<path class="st18" d="M582.2,282.6c0,0-0.9,47.9-97.6,73.7c-96.8,25.8-170.1-57.8-170.1-57.8s83.6,38.5,155.5,27.3
		S582.2,282.6,582.2,282.6z"/>
	<path class="st20" d="M374,330.7c-29.8-5.8-58.7-31.8-58.7-31.8L374,330.7z"/>
	<path class="st3" d="M548.4,96.7c0,0-29,4.6-39.3,16.9s-18.1,28.1-18.1,28.1s4.3,4,3.3,6c-1,2-8.3,5.9-9.2,10.1
		c-0.9,4.2-4.5,32.1-4.5,33.7c0,1.7-0.8,9.3,0.7,10.1s0,1.8,0.1,4c0.1,2.2,6.1,33.5,8.7,34.6c2.6,1.1,14.1-30.8,16.6-33.8
		c2.5-3-0.5-12.2,1.1-11.6s11.7-1.2,12.8-5.7c1.1-4.5,0.1-6.6,4.4-12.7c4.3-6.1,24.7-28.3,29.4-35.3c4.6-6.9,17.5-13.4,19.3-21.6
		S558.9,99.5,548.4,96.7z"/>
	<path class="st13" d="M550.2,98.9c-3-0.1-23.7-12.6-39.8-13c-16-0.4-26.3,0.9-26.3,4.7c0,3.7-6.7,3.9-8.6,2
		c-1.8-1.8-17.5,9.4-20.9,13.4c-3.3,4-17.8,31.1-18.3,32.4c-0.5,1.3,26.3-13.4,27.4-14.2s6.4-8.7,6.4-8.7l7.3,5.1
		c0,0,19-7.3,25.3-7.2c6.2,0.1,25.8,6.4,25.8,6.4"/>
	<path class="st13" d="M569.6,86.9c2.2-1.4,3.5-28.1,7.1-29.3c3.6-1.2,7.2-1.2,7.1-2.4c-0.2-1.2-5.4-9.5-5.4-9.5s1.1-2.5,1.5-8.4
		c0.4-5.9,6.2-10.1,5.1-16.9S581,6.8,581,6.8s22.2,19,27,33.9c4.9,14.9-4.6,22.2-5.1,23.1c-0.5,0.8,3.9,7.4,3.9,8.8
		c0,1.3-5.3,4.2-5.3,4.2s5.8,12.9,1.8,20.6s-11.2,13.3-11.2,13.3"/>
	<path class="st13" d="M595.9,89.4c0,0,16.2-12.9,43.3-2.3c27,10.6,47.1,19.9,51,26.2c3.9,6.3,12,22.4,11.9,33.3s-4.1,25.1-4.1,25.1
		l-16.2-21.5c0,0-15.9-10.9-26.3-16.5s-34.5-12.9-34.5-12.9l-30,4.1l-7.6,0"/>
	<path class="st3" d="M510.5,85.9c-3-0.1-5.8-0.1-8.3,0c3.6,1.3,7.1,2.8,8.2,3.3c2.2,1.2-8.4,2.7-8.4,2.7l11.5,3.7
		c0,0-21.2,0.9-34.7,5.5c-13.4,4.5-24.3,13.6-24.3,13.6l-7.7,4.5c-4.9,8.7-10,18.5-10.4,19.2c-0.5,1.3,26.3-13.4,27.4-14.2
		c1.1-0.7,6.4-8.7,6.4-8.7l7.3,5.1c0,0,19-7.3,25.3-7.2s25.8,6.4,25.8,6.4l21.6-20.9C547.2,98.8,526.5,86.3,510.5,85.9z"/>
	<path class="st3" d="M598.4,109.7c1,0.4,33.9,21,45.3,28.3s4.6,10.7,5.4,12.7s7.1,0.4,10.6,4.2c3.5,3.8,14,9.7,19.7,24.8
		c5.7,15.1,0.4,47.3,0.4,47.3s-11-21.7-28.1-36.5s-11.7-11-30.8-22.1c-19.1-11.1-19.3-9.6-23.9-10.9c-4.6-1.4-12.6-2.5-12.6-2.5
		s-3.4-8.9-4.7-13c-1.3-4.1,2-15.3,2-15.3"/>
	<path class="st3" d="M568.6,79c0,0-15.2,6.4-17.1,13.7c-1.9,7.4-6.8,24.6,8.3,29.5c15.1,4.9,31.1,5.5,31.4,3
		c0.3-2.5,7.4-22.9,7.4-22.9"/>
	<path class="st3" d="M560,124.3c0,0,12.2,10.4,14.5,9.6s2-5.1,3.6-4.4s6.1,5.2,9.1,4.1c3-1.1,10.5-10.7,10.5-10.7"/>
	<path class="st13" d="M494,180.4c0,0,9.1-27.6,14-36c4.8-8.4,13.4-19.7,13.4-19.7s-9.8,18.7-12,22.6S494,180.4,494,180.4z"/>
	<path class="st3" d="M601.6,76.8c0,0,5.2-2.9,5.3-4.2c0-1.2-3.3-6.4-3.9-8.2c-2.2-2.4-4.7-5.8-4.9-8.1c-0.2-3.7-3-17.6-3-17.6
		s0.6,14.7-0.4,16.1c-1.1,1.3-3.3-3.2-8.8-7.1c-1.8-1.3-4.1-4.2-6.3-7.6c-0.5,3.9-1.2,5.6-1.2,5.6s5.2,8.3,5.4,9.5
		c0.2,1.2-3.5,1.2-7.1,2.4c-3.6,1.2-4.9,27.8-7.1,29.3l22.5,23.8c0,0,7.2-5.5,11.2-13.3C607.4,89.6,601.6,76.8,601.6,76.8z"/>
	<path class="st3" d="M701.2,139.5c-2.2-1.5-4.3-3.2-5.5-5c-3.4-4.8-15.6-16.3-15-15.4c0.6,0.9,3.6,9.8,2.6,8.8
		c-1-1-20.3-22.5-30.3-26.9c-7.1-3.1-22.9-12.7-31.5-18c-16.3-1-25.6,6.3-25.6,6.3l-12.4,35.5l7.6,0l30-4.1c0,0,24.1,7.3,34.5,12.9
		s26.3,16.5,26.3,16.5l16.2,21.5c0,0,3.9-14.1,4.1-25.1C702.1,144.5,701.8,142,701.2,139.5z"/>
	<path class="st13" d="M598.4,109.7c1,0.4,33.9,21,45.3,28.3s4.6,10.7,5.4,12.7s7.1,0.4,10.6,4.2c3.5,3.8,14,9.7,19.7,24.8
		c5.7,15.1,0.4,47.3,0.4,47.3s-11-21.7-28.1-36.5s-11.7-11-30.8-22.1c-19.1-11.1-19.3-9.6-23.9-10.9c-4.6-1.4-12.6-2.5-12.6-2.5
		s-3.4-8.9-4.7-13c-1.3-4.1,2-15.3,2-15.3"/>
	<path class="st3" d="M681.8,208.7c-3.2-2.8-20.3-34.8-22-37.4c-1.8-2.6-27.1-20.7-27.1-20.7l14,6.7c0,0-5.7-8.6-5.9-11.3
		c-0.2-1.9-4-9.5-6.2-13.9c-14.3-9-35.3-22.1-36.1-22.5l-16.7,16.9c0,0-3.4,11.2-2,15.3s4.7,13,4.7,13s8.1,1.2,12.6,2.5
		c4.6,1.4,4.8-0.2,23.9,10.9c19.1,11.1,13.7,7.3,30.8,22.1c17.1,14.9,28.1,36.5,28.1,36.5S681.2,218.8,681.8,208.7
		C681.8,208.7,681.8,208.7,681.8,208.7z"/>
	<path class="st21" d="M631.3,177.6c0.8,0.2,5.4-2.5,6.4-3.5c1-1,0.2,4.4-0.9,6.4"/>
	<path class="st22" d="M572.4,113.5c0,0-5.2-8.4-16.1-13.6c0,0,9.8,5.4,12.7,2.3c2.1-2.2,0.3-9.6-0.9-13.6c-0.2-0.8,0.7-1.4,1.3-0.8
		c2.7,2.4,7,6.3,8.7,8.1c2.5,2.7,5.6,2,6.5,1.3c0.5-0.4,1.5-5.3,2.4-10.1c0.2-0.9,1.6-0.8,1.6,0.1c0.1,5.3,0.6,11,2,11.9
		c2.8,1.7,3.6,4.3,7.2,4.6c3.7,0.2,7.9-3.3,17.5-1.9c1.9,0.3,3.8,0.7,5.6,1.1c1,0.2,0.7,1.7-0.3,1.6c-3-0.4-6-0.6-8.3-0.6
		c-7.3,0.2-12,0.7-15.6,3.9c-3.6,3.2-6,3.2-4.7,5.1c1.3,1.9,12.5,8.5,19,13.1c2.5,1.8,5.4,4.5,7.9,7.2c0.7,0.7-0.3,1.8-1.1,1.2
		c-4.8-3.9-10.7-8.2-14.7-9.9c-7.9-3.2-17-5.1-18.8-6.1c-1.6-0.9-10,2.6-11.2,3.1c-0.1,0-0.2,0.1-0.3,0.1l-3.8-0.1"/>
	<path class="st21" d="M650.2,133.9c0,0-2.7-9.8-1.3-10.9c1.4-1.1,10.5,15.9,10.5,15.9"/>
	<path class="st21" d="M669.2,96.7c-1.3-0.3-15.4,0.6-13.4,2.2s18.8,1.9,18.8,1.9"/>
	<path class="st21" d="M543,161c0,0-14.1,2.2-14,3.9c0,1.7,9.4,3,9.4,3"/>
	<path class="st21" d="M489.7,120.2c0.4-1.1,2.8-9.4,4.6-10c1.8-0.6,3.7,7,3.7,7"/>
	<path class="st21" d="M522.9,79.2c1.1,0.3,10.7,0.3,12.4,2.4s-8.2,5-8.2,5"/>
	<path class="st13" d="M519.4,112.6c8.8-3.3,19.7-4,19.7-4s-14.2,11.6-14.7,12.4c-0.5,0.8,17.1-9.5,20.9-9.2
		c3.8,0.3,8.4-0.8,13.9,2.1c3.5,1.8,8.3,7.5,11.4,11.5c1.5-1.9,2.7-3.8,3.1-5.9c1.8-8.2-14.8-20-25.3-22.8c0,0-29,4.6-39.3,16.9
		c-2.4,2.8-4.6,5.8-6.6,8.7C508.4,118.4,515.1,114.2,519.4,112.6z"/>
	<path class="st23" d="M74.5,430.2c-0.3,0.1-0.6,0.3-0.9,0.4c0,0,0.3,0,0.9,0C74.5,430.4,74.5,430.3,74.5,430.2z"/>
	<path class="st13" d="M580,134c0,0-1.9,4-1.7,7.2c0.2,3.2,4.9,13.6,6.1,13.8c1.2,0.2,14.9,3.3,14.9,3.3s-12.2-3.7-14.4-9.3
		C582.7,143.2,580,134,580,134z"/>
	<path class="st13" d="M528.7,48.5c0,0,9.5,10.3,14.8,16.8c5.2,6.6,13.2,19.3,13.2,19.3S544.1,59.1,535,50.6"/>
	<path class="st13" d="M594.8,58.4c0,0-1,14.7-1.7,17c-0.7,2.3-4.5,11.7-4.5,11.7s8.5-8.9,8.5-13.8
		C597.1,68.6,594.8,58.4,594.8,58.4z"/>
	<path class="st13" d="M623.8,103.1c0,0,15.4,4.8,23.5,7.6s27.4,18.3,27.4,18.3s-23.2-14.5-33.3-18
		C631.3,107.5,623.8,103.1,623.8,103.1z"/>
	<path class="st13" d="M596.6,128.7c1.6,0.5,20.9,11.2,25.7,13.7c4.8,2.4,9.4,7,9.4,7s-15.9-5.6-21.9-9.3
		C603.6,136.4,596.6,128.7,596.6,128.7z"/>
	<path class="st24" d="M485.9,322.9c-9.6,9.1-21.4,19.1-29.3,22c-15.6,5.7-35,4.8-35,4.8s12.6,3.5,15.9,4.7
		c1.5,0.6-10.6,1.8-24.4,2.8c21.6,5,45.7,6,71.6-0.9c96.8-25.8,97.6-73.7,97.6-73.7S547.8,309.9,485.9,322.9z"/>
	<path class="st3" d="M563,138c0,0,0,12,3.8,18.8s14.8,11.6,14.8,11.6s-12.8-13.1-14.4-20.1c-1.6-7-2.8-14.9-2.8-14.9L563,138z"/>
	<path class="st5" d="M270.2,266.3c0,0,54.5,37.6,54.9,37.9c0.1,0.1-0.2,0.2-0.6,0.2c-1.7,0-3.3-0.5-4.7-1.5
		c-8.4-6-47.3-32.7-49.6-34.6c-1.6-1.3-1.8-3.8-1.8-3.8"/>
	<path class="st5" d="M278.3,249.8"/>
	<path class="st8" d="M203.1,260.4"/>
	<path class="st9" d="M231.8,320.2c0,0,2.4-5.5,4.1-7.1c1.7-1.5,5.1-3.1,5.1-3.1s-4.2,6.7-5.2,9.3c-1,2.5-1.8,9.6-1.8,9.6
		S231.5,322.5,231.8,320.2z"/>
	<path class="st25" d="M232.8,303.3c0,0,0.1,5.8-4.2,9.2c-4.3,3.3-9.1,2.7-11.3,4.2c-2.2,1.5-5,7-5,7"/>
	<path class="st25" d="M235,304.4c0,0,1.9,9.5-7,13.3"/>
	<path class="st0" d="M200.3,264.9c-0.8,0.3,8.4-7.6,8.7-8.9c1.1-5.9-4-3.5-4-3.5"/>
	<path class="st0" d="M254.6,246.4c0,0,1.5-0.3,3.5,0c2,0.3,4.8,5.4,4.8,5.4s-1.4-11.9-5.9-13.9"/>
	<path class="st0" d="M241.6,230.4c0.3,0.2,3,4.8,5.2,5.6s7.9,2.2,9.7,3.8s5.2,5.8,5.2,5.8s-1-5.6-4.1-7.4
		C254.9,236.7,241.6,230.4,241.6,230.4z"/>
	<path class="st0" d="M163.9,296.6c0,0-2.8,2.2-3.9,3.5s-4.3,2.1-5.3,2.9c-1,0.8-2.9,1.9-2.5,2.4c0.3,0.5,1.3,0.9,1.9,0.9
		c0.6-0.1,4-1.8,4.7-2c0.7-0.2,3.3,0.1,5.1-0.1c1.8-0.2,3.4-2.3,3.6-2.8c0.3-0.5,0.6-1.7,0.6-1.7s-1.1-0.3-1.1-0.7"/>
	<path class="st26" d="M202.6,348.5c0,0,1.9,6.1,5,7.4s5.8-1,7.1-1.9c1.3-1,1.1-2.2,1.1-2.2s-1.1,1.4-5.6,0.6
		S202.6,348.5,202.6,348.5z"/>
	<path class="st4" d="M190.9,273.3c0,0-1-2.2-3.1-3.4c-2.1-1.2-4-1.4-4-1.4s2.5,1.7,3.3,3.5s2.8,4.2,2.8,4.2s1.3-2.6,1.4-2.8
		C191.5,273.3,190.9,273.3,190.9,273.3z"/>
	<path class="st8" d="M233.7,240.1c0,0,1.4,1.2,2.3,3c1,1.8,1.8,3.4,1.8,3.4s0-3,0-3.9S233.7,240.1,233.7,240.1z"/>
	<path class="st10" d="M240.4,205.6"/>
	<path class="st0" d="M222.9,189.3c1.4-0.8,3-0.9,4.5-0.4c2.9,1,7.7,2.9,9,4c1.9,1.7,4,23.1,3.2,24.4c-0.7,1.3-9.2,10.1-18.9,11.4
		c-0.9,0.1-4.6-7.6-4.8-7.9c-0.1-0.3-1.2-9.3-1.6-9.9c-0.4-0.6-1-3.4-1.5-4.6c-0.5-1.2,0.9-10.2,2.6-12.2
		C216.7,192.8,220.4,190.7,222.9,189.3z"/>
	<path class="st26" d="M237.2,208.8c0,0,0.5-3.8,1.2-4.2c0.7-0.5,2.6-1.5,3-1.1c0.4,0.3,1.3,3.6,0.6,4.4c-0.7,0.8-2,1.7-2,1.7
		s-0.1,2.2-0.7,2.6c-0.6,0.5-1.1,0.7-1.6,0.2S237.2,208.8,237.2,208.8z"/>
	<path class="st4" d="M218.4,207.9c0,0,0.3,4.1-0.1,5.5s-1.2,2-1.2,2s2.2,1.4,2.6,2c0.4,0.6,0.2,4.3,0.7,5.1
		c0.5,0.7,0.6,2.8,1.2,3.6c0.6,0.8,1.5,2.2,1.5,2.2s-2.5,0.7-2.9,0.4c-0.4-0.3-4.1-7-4.4-7.5c-0.3-0.5-0.7-9.9-1.3-10.2
		s-1.9-2.8-1.9-5.2c-0.1-2.4,1.8-10.6,2.3-11.3c0.4-0.7,4.5-3.1,4.5-3.1s-2.7,6.7-2.4,9.5c0.4,2.8,1.1,5.7,1.2,6
		C218.3,207.2,218.4,207.9,218.4,207.9z"/>
	<path class="st21" d="M226.9,220.3c0,0-0.9-0.9-3.1-0.8c-2.2,0.2-2.5,1.9-2.5,2.3s6.4-0.5,6.1-0.8
		C227.2,220.7,226.9,220.3,226.9,220.3z"/>
	<path class="st26" d="M217.1,215.4c0,0,1.7-0.3,2.3-0.3s1.6,0.5,1.6,0.5l-1.3,1.8"/>
	<path class="st4" d="M208.4,282.6c0,0,1.6-1,2-1s4.6,1.7,11.5,1.3c6.8-0.4,17.2-1.7,22.7-1.3c5.5,0.3,9.5,0.7,9.5,0.7l-0.2-1.5
		l-19-5.7l-29.1,2"/>
	<path class="st27" d="M224.8,208.9c0,0-0.3,1,0,2c0.3,1,1.8,1.2,1.9,0c0.1-1.2-0.1-2.4-0.8-2.9
		C225.2,207.4,224.8,208.9,224.8,208.9z"/>
	<path class="st27" d="M215.7,210.2c0,0-0.3,0.9,0,1.8c0.3,0.9,1.7,1.1,1.8,0s-0.1-2.2-0.7-2.7C216.1,208.9,215.7,210.2,215.7,210.2
		z"/>
	<path class="st27" d="M223,203.3c0,0,2.5,0.5,3.3,0.7c0.8,0.2,2.5,1.3,2.7,1c0.2-0.2,0.7-1.2,0.4-1.5c-0.3-0.3-3-1.5-3.8-1.7
		s-1.8-0.2-2.2,0C223.1,202.1,223,203.3,223,203.3z"/>
	<path class="st27" d="M213.4,207.7c0.3-0.3,1.4-2,2-2.1s1.3,0.2,1.3-0.5s0.2-1.6-0.3-1.7s-1.8,0.4-2.5,1.2
		c-0.8,0.9-0.9,1.8-0.8,2.1C213.2,207.1,213.4,207.7,213.4,207.7z"/>
	<path class="st28" d="M197,235.6c0,0,3.4,2.8,6.2,6.9c2.7,4.1,4.6,8.3,4.5,11.8s-0.9,7.8-2,9.7c-1.1,1.9-1.6,3.3-2.5,3.5
		c-1,0.1-1,0.1-1,0.1s1.3,3.2,1,5.8s-0.6,3.3-1,4.4c0,0,8.9,3.1,13.7,3.2s10.5-1.9,20.5-2c10-0.1,18.8,2,18.8,2s-0.6-8,0-10.1
		c0.6-2.1,3.6-9,3.4-11.4s-2.6-14.5-3-16.4c-0.4-1.9,2.5-4.4,3-4.6s1.2-0.6,1.2-0.6s-4-2-7.3-3.6c-3.4-1.5-7.4-2.3-7.4-2.3
		s2.2,3.6,0.7,6c-1.5,2.4-4.4,5.8-11.1,5.7c-6.7-0.1-13.5-0.8-15.6-3c-2.1-2.2-7.9-10.1-8-10.8c-0.2-0.7-3.9,0.9-8.9,2.9
		C197.1,234.8,197,235.6,197,235.6z"/>
	<path class="st21" d="M225.2,262.1c0,0-4.1-3.3-4.2-3.7s1.3-2.2,1.7-2.1c0.4,0.1,3.9,3.7,4,4.4
		C226.9,261.3,225.2,262.1,225.2,262.1z"/>
	<path class="st21" d="M229.5,258.2c0,0-3.2-4.6-3.2-5.2c0-0.6,1.6-1.4,2.2-1.4s2.8,5.1,2.9,5.6S229.7,258.6,229.5,258.2z"/>
	<path class="st21" d="M234.9,256.2c0.2-0.3,0.1-6,0.5-6.4s2-0.3,2.4-0.1c0.4,0.2-0.2,5.9-0.3,6.2S234.9,256.2,234.9,256.2z"/>
	<path class="st21" d="M242.9,251.4c0,0-2.8,4.7-2.6,4.9c0.2,0.2,0.8,1.3,1.8,0.8c1.1-0.4,2.9-4.4,2.9-4.8
		C245,251.8,242.9,251.4,242.9,251.4z"/>
	<path class="st21" d="M243.1,258.8c0,0,3.4-2.9,3.8-2.9c0.4,0,1.5,1.2,0.8,2.2c-0.6,0.9-4.2,2.7-4.6,2.5
		C242.8,260.2,242.7,259.2,243.1,258.8z"/>
	<path class="st28" d="M234.3,256.4"/>
	<path class="st5" d="M219.9,266.1c0,0,6.9-2.2,12.9-3c6.1-0.8,10.5,0.7,10.9,0.4c0.4-0.3-1.1-8.3-3.2-10.8c0,0-2.1,2.4-2.5,2.8
		c-0.4,0.4-2.5,0.6-2.5,0.6s0.1-2,0.9-3c0.8-1,3.3-2.1,3.3-2.1s-1.1,0.5-3.2,0c-2.1-0.5-3-2.5-3-2.5s4.9-0.7,6.2,0.9
		c0,0,0.1-1.7,0.5-2.9c0,0,0.9,1,0.7,2.9c0,0,1.1-1.3,2.3-1.4c1.2-0.1,2.8,0.1,2.8,0.1s-1.4,1-2.1,1.6c-0.7,0.7-1.9,0.8-1.9,0.8
		s2.9-0.2,3.6,0.4c0.7,0.6,0.9,1.1,0.9,1.1s-2.7,0.7-4.4-0.1c0,0,2.9,4.5,3.7,11.9c0,0,4,1.5,4.4,1.9c0,0-5.2-0.4-7.6-0.4
		c-2.4,0.1-3.1,2-5.9,2.4c-2.8,0.4-6.4-1.9-9.4-2C224.3,265.7,219.9,266.1,219.9,266.1z"/>
	<path class="st23" d="M556.5,456.4c97.8,11.4,166.1,29.8,186.3,35.7c4,1.1,8.8-0.4,11.4-3.7c3.3-4,7.4-10.7,10.7-20.2
		c2.9-9.2,3.3-16.9,2.9-22.4c-0.4-4.4-3.3-8.5-7.7-9.6c-31.6-9.2-171.6-47-359.8-47c-37.2,0-72.5,1.5-105.5,3.9l0,0
		c0,0-18.9-0.6-32.9-1.5c-14-0.9-32,7.8-39.4,8.7c-7.3,0.9-16.1,0.1-27.2,0.7c-11.2,0.7-14.6,5.1-14.6,5.1l0,0
		c-72.8,11.3-122.9,25-140.3,30.1c-4.4,1.1-7.4,5.1-7.7,9.6c-0.4,5.1,0,12.9,2.9,22.4c2.9,9.6,7.4,16.2,10.7,20.2
		c2.6,3.3,7.4,4.8,11.4,3.7c20.2-5.9,88.9-24.3,186.3-35.7C244.1,456.4,381.4,444.8,556.5,456.4"/>
	<path class="st29" d="M556.5,456.4c97.8,11.4,166.1,29.8,186.3,35.7c4,1.1,8.8-0.4,11.4-3.7c3.3-4,7.4-10.7,10.7-20.2
		c2.9-9.2,3.3-16.9,2.9-22.4c-0.4-4.4-3.3-8.5-7.7-9.6c-31.6-9.2-171.6-47-359.8-47c-2.2,0-4.5,0-6.7,0c3.2,0.7,5.7,1.5,6.7,2.3
		c4.7,3.9,6.2,7.6,9.7,9.5c3.5,1.9,28.3,18.4,34.9,19.5s13.6,2.1,13.6,2.1s-10.1,8.6-14.2,11.6c-4,3-11.1,12.1-11.1,12.1h6.6
		c0,0-2,1.8-13,5 M453.5,413.6c8.6-6.9,30.3-6.5,30.3-6.5s-5.6,5.4-13.6,6.5C462.1,414.7,453.5,413.6,453.5,413.6z M491.9,429.3
		c-4.5,2.5-23.2,12-23.2,12s12.1-12,16.7-14c4.5-2,9.6-5.1,9.6-5.1S496.5,426.8,491.9,429.3z M522.9,428.7
		c-3.9-3.5-12.8-10.8-12.8-10.8c20.2,1.8,33.2,13.9,33.2,13.9S526.8,432.3,522.9,428.7z M538.2,406.1c-3.3,1.1-15.9-1.1-18.3-1.2
		c-2.4-0.1-13.3-0.9-12.1-1.8c1.1-0.9,19-3.3,19-3.3c4.8-0.7,22.5,3.2,22.5,3.2S541.4,405,538.2,406.1z M582.2,417.9
		c-5.7,2.8-22.2,0-22.2,0s9.2-5.3,16.7-7.3c7.5-1.9,21.9,0,21.9,0S587.9,415.1,582.2,417.9z M645.9,431.8
		c-9.2-1.5-15.9-6.9-15.9-6.9c20.4-2.4,42.3,3.5,42.3,3.5S655.2,433.3,645.9,431.8z"/>
	<path class="st19" d="M623.2,227l-42.1,56.5l-6.7,4.6c0,0,45.4-62.6,47.2-63.8c1.8-1.1,2.6-1,3.1,0c0.6,1,1.5,3.3-0.8,6.1"/>
	<path class="st29" d="M156.2,410.1c1.6,0.7,3.7,1.4,6.5,1.8c8,1.1,17.8-1.1,21,0c3.3,1.1,18.3,6.4,25.2,6.7s17.5,1.6,23.8,1.5
		c6.3-0.1,11.4-8.8,18.8-8.2c7.5,0.6,13.3,2.8,16.2-0.6c2.9-3.4,8.1-10.4,8.1-10.4s14,3.1,20.9-1.3c6.9-4.3,3.3-1.1,6.9-4.3
		c1-0.9,2.6-2,4.4-3.3c-4.5,0.3-8.9,0.6-13.3,0.9l0,0c0,0-18.9-0.6-32.9-1.5c-14-0.9-32,7.8-39.4,8.7c-7.3,0.9-16.1,0.1-27.2,0.7
		c-11.2,0.7-14.6,5.1-14.6,5.1l0,0C172.3,407.4,164.1,408.8,156.2,410.1z"/>
	<path class="st13" d="M130.4,405.1c0,0,1.5-11.7-2.7-16.8c-4.2-5.1-10.6-17.1-10.6-17.1s1.5,11.1,5.3,18.5S130.4,405.1,130.4,405.1
		z"/>
	<path class="st13" d="M118,408.4c0,0-5.4-5.1-13.3-3.5c0,0,6.2,4.9,9.9,5.2C118.2,410.4,118,408.4,118,408.4z"/>
	<path class="st29" d="M336.3,396.7c-4.6,0-8.3,1.1-8.3,2.4c0,0.3,0.2,0.5,0.5,0.8c-0.1,0-0.3,0-0.5,0c-3.5,0-6.4,0.7-6.4,1.6
		c0,0.9,2.9,1.6,6.4,1.6c3.5,0,6.4-0.7,6.4-1.6c0,0,0,0,0-0.1c0.6,0,1.3,0.1,1.9,0.1c4.6,0,8.3-1.1,8.3-2.4
		C344.6,397.7,340.9,396.7,336.3,396.7z"/>
	<ellipse class="st29" cx="364.7" cy="417.8" rx="5.7" ry="1.4"/>
	<ellipse class="st29" cx="335.9" cy="433.5" rx="6.6" ry="1.8"/>
	<path class="st26" d="M250.4,346.6c0.8,0,4.9,2.7,6.5,2.7s0.1,19.7,0.1,19.7s4.6-23.1,5-27.2c0,0-1.9,4.4-5.1,4.4
		C253.6,346.1,250.4,346.6,250.4,346.6z"/>
	<path class="st4" d="M204.3,291.9c0,0-3-1.8-2.9-4.7c0.1-2.9,1.7-3.2,2.3-6.8"/>
	<path class="st0" d="M254.1,282.3c0,0,2,3.5,2,8.4s-1.8,5.8-2.5,6s-4.9-1.6-4.9-1.6"/>
</g>
</svg>
