<svg xmlns="http://www.w3.org/2000/svg" width="206" height="185" viewBox="0 0 206 185" fill="none">
  <g clip-path="url(#clip0_138_877)">
    <mask id="mask0_138_877" style="mask-type:luminance" maskUnits="userSpaceOnUse" x="0" y="0" width="206" height="185">
      <path d="M0 0H206V185H0V0Z" fill="white"></path>
    </mask>
    <g mask="url(#mask0_138_877)">
      <path d="M152.111 143.681L182.571 161.46C191.774 166.834 191.716 175.535 182.455 180.91C173.195 186.273 158.234 186.284 149.031 180.91L121.424 164.818L118.175 162.924C110.283 158.314 98.1534 157.666 88.9034 160.945L118.671 143.687C127.932 138.323 142.898 138.323 152.111 143.681Z" fill="#0D200F" stroke="#0D200F" stroke-width="0.5" stroke-miterlimit="10" stroke-linejoin="round"></path>
      <path d="M88.8875 147.682L88.9075 155.003C88.9075 155.003 88.9135 154.998 88.9185 154.998C89.5215 154.786 90.1285 154.595 90.7465 154.414C91.2695 154.26 91.8035 154.128 92.3365 153.995C92.4795 153.963 92.6115 153.931 92.7545 153.9C93.0865 153.82 93.4245 153.756 93.7575 153.693C94.2596 153.596 94.7633 153.507 95.2685 153.427C95.5065 153.39 95.7335 153.348 95.9715 153.316C96.5489 153.236 97.1285 153.173 97.7095 153.125C97.8525 153.114 97.9895 153.093 98.1315 153.083C98.8543 153.025 99.5786 152.986 100.303 152.966C100.488 152.961 100.678 152.961 100.863 152.961C101.423 152.955 101.988 152.955 102.548 152.966C102.986 152.976 103.43 152.992 103.869 153.019C103.948 153.024 104.022 153.024 104.101 153.03C104.656 153.067 105.216 153.12 105.77 153.178C105.961 153.199 106.156 153.221 106.346 153.247C106.748 153.3 107.149 153.348 107.545 153.412L108.142 153.507C108.422 153.56 108.702 153.608 108.988 153.666C110.152 153.887 111.304 154.171 112.437 154.515C112.675 154.584 112.918 154.658 113.15 154.733C113.33 154.791 113.504 154.855 113.679 154.918C114.035 155.04 114.387 155.171 114.735 155.311C114.915 155.39 115.1 155.459 115.279 155.534C115.623 155.682 115.971 155.836 116.309 155.995C116.463 156.064 116.616 156.139 116.769 156.213C117.25 156.452 117.72 156.701 118.174 156.966L121.423 158.86L149.031 174.952C149.543 175.254 150.077 175.53 150.621 175.79C150.763 175.859 150.906 175.922 151.054 175.997C151.55 176.23 152.052 176.448 152.57 176.644C152.639 176.67 152.702 176.702 152.776 176.729C153.252 176.909 153.727 177.074 154.213 177.238C154.298 177.27 154.393 177.291 154.477 177.318C154.879 177.44 155.291 177.556 155.697 177.663C156.004 177.747 156.31 177.838 156.622 177.912C157.055 178.023 157.494 178.103 157.932 178.193C158.186 178.246 158.439 178.31 158.693 178.352L158.883 178.384C159.015 178.411 159.152 178.427 159.284 178.448C159.829 178.538 160.373 178.612 160.922 178.681L161.403 178.74C161.503 178.75 161.609 178.766 161.709 178.777C162.237 178.83 162.782 178.867 163.32 178.899C163.442 178.904 163.558 178.909 163.68 178.92C163.896 178.931 164.113 178.947 164.329 178.952C164.546 178.957 164.757 178.947 164.974 178.952C165.407 178.957 165.835 178.962 166.273 178.957C166.432 178.952 166.59 178.962 166.754 178.957C166.955 178.952 167.156 178.931 167.356 178.925C167.753 178.915 168.154 178.888 168.55 178.862C168.73 178.856 168.91 178.851 169.079 178.835L169.639 178.771C170.034 178.733 170.429 178.689 170.822 178.639C171.007 178.612 171.192 178.602 171.377 178.575C171.551 178.549 171.715 178.511 171.884 178.485C172.306 178.421 172.718 178.342 173.136 178.267C173.326 178.23 173.532 178.204 173.722 178.167C173.965 178.114 174.203 178.055 174.435 178.007C174.536 177.981 174.641 177.965 174.742 177.938C175.228 177.822 175.714 177.7 176.184 177.567C176.295 177.535 176.4 177.498 176.517 177.466C176.68 177.424 176.849 177.365 177.013 177.312C177.497 177.161 177.976 176.997 178.45 176.819C178.582 176.766 178.725 176.718 178.857 176.665C178.92 176.639 178.984 176.623 179.047 176.596C179.412 176.453 179.755 176.294 180.109 176.135C180.315 176.044 180.526 175.96 180.722 175.864C181.312 175.583 181.89 175.279 182.454 174.952C187.114 172.251 189.449 168.702 189.433 165.158L189.412 157.836C189.409 158.97 189.18 160.092 188.736 161.136C188.344 162.046 187.83 162.899 187.209 163.672C186.881 164.081 186.517 164.489 186.115 164.877C185.112 165.858 183.886 166.781 182.428 167.63C181.873 167.959 181.292 168.261 180.695 168.543C180.495 168.638 180.289 168.723 180.083 168.813C179.67 169.001 179.253 169.178 178.83 169.344C178.698 169.397 178.556 169.439 178.424 169.492C177.948 169.667 177.473 169.832 176.987 169.986C176.823 170.039 176.654 170.086 176.49 170.14C175.904 170.315 175.307 170.479 174.705 170.622C174.604 170.649 174.499 170.665 174.398 170.691C173.965 170.787 173.527 170.872 173.093 170.957C172.676 171.036 172.264 171.11 171.841 171.174C171.488 171.227 171.139 171.275 170.785 171.323C170.389 171.376 169.998 171.418 169.602 171.455C169.237 171.487 168.873 171.519 168.508 171.545C168.112 171.572 167.716 171.599 167.314 171.609C166.955 171.63 166.601 171.636 166.236 171.641C165.803 171.646 165.375 171.641 164.937 171.636C164.504 171.625 164.076 171.614 163.637 171.599C163.516 171.593 163.4 171.588 163.278 171.577C162.638 171.54 161.999 171.487 161.361 171.418L160.88 171.36C160.333 171.296 159.786 171.218 159.242 171.126C159.11 171.105 158.973 171.089 158.841 171.063C158.524 171.004 158.207 170.935 157.89 170.872C157.457 170.781 157.013 170.691 156.585 170.59C156.273 170.511 155.961 170.428 155.65 170.341C155.243 170.23 154.831 170.124 154.435 169.996C153.863 169.819 153.295 169.625 152.734 169.413C152.67 169.386 152.607 169.354 152.533 169.328C152.021 169.128 151.516 168.912 151.017 168.681C150.87 168.618 150.726 168.549 150.584 168.474C150.045 168.213 149.514 167.933 148.994 167.635L121.386 151.544L118.137 149.65C117.531 149.298 116.909 148.974 116.272 148.679C115.933 148.518 115.589 148.364 115.242 148.218C115.064 148.138 114.882 148.064 114.698 147.995C114.348 147.859 113.996 147.728 113.642 147.602C113.462 147.538 113.288 147.475 113.113 147.416C113.034 147.39 112.96 147.358 112.876 147.332C112.717 147.278 112.559 147.247 112.395 147.199C111.952 147.056 111.505 146.926 111.053 146.812C110.805 146.746 110.554 146.684 110.303 146.626C109.854 146.523 109.404 146.427 108.951 146.339C108.797 146.313 108.644 146.27 108.491 146.244C108.369 146.223 108.243 146.207 108.116 146.186L107.519 146.09C107.121 146.027 106.721 145.972 106.32 145.926C106.13 145.899 105.934 145.873 105.744 145.857C105.649 145.851 105.559 145.83 105.464 145.825C105.002 145.775 104.539 145.736 104.075 145.708C103.995 145.703 103.921 145.703 103.842 145.697C103.506 145.677 103.17 145.659 102.833 145.644H102.516C101.956 145.634 101.391 145.634 100.831 145.639C100.683 145.644 100.535 145.634 100.393 145.639C100.356 145.639 100.308 145.644 100.271 145.644C99.5425 145.666 98.8185 145.703 98.1005 145.761H98.0365C97.9205 145.766 97.8045 145.788 97.6835 145.798C97.101 145.851 96.5196 145.914 95.9395 145.989C95.8605 146 95.7815 146 95.7025 146.016C95.5435 146.042 95.3905 146.074 95.2375 146.101C94.7319 146.178 94.2281 146.267 93.7265 146.366C93.5945 146.392 93.4565 146.408 93.3245 146.435C93.1185 146.472 92.9235 146.525 92.7225 146.568C92.5795 146.599 92.4475 146.631 92.3055 146.663C91.7933 146.783 91.2842 146.916 90.7785 147.061C90.7575 147.066 90.7415 147.072 90.7155 147.082C90.0855 147.263 89.4735 147.454 88.8605 147.692L88.8875 147.682Z" fill="#D0D4BD" stroke="#0D200F" stroke-width="0.5" stroke-miterlimit="10" stroke-linejoin="round"></path>
      <path d="M152.101 130.386L182.562 148.164C191.764 153.539 191.705 162.24 182.444 167.614C173.184 172.978 158.223 172.989 149.021 167.614L121.413 151.523L118.164 149.629C110.272 145.018 98.1435 144.371 88.8935 147.65L118.661 130.391C127.922 125.028 142.888 125.028 152.101 130.386Z" fill="#FAF6E3" stroke="#0D200F" stroke-width="0.5" stroke-miterlimit="10" stroke-linejoin="round"></path>
      <path d="M165.44 152.101C167.442 153.268 167.432 155.162 165.419 156.33C163.406 157.497 160.147 157.497 158.145 156.33C156.143 155.162 156.153 153.268 158.171 152.101C160.184 150.939 163.438 150.939 165.44 152.101ZM153.596 145.252C155.599 146.419 155.588 148.313 153.575 149.48C151.563 150.647 148.303 150.647 146.301 149.48C144.299 148.313 144.309 146.419 146.327 145.252C148.34 144.085 151.594 144.085 153.596 145.252ZM142.26 139.273C144.262 140.44 144.251 142.334 142.238 143.501C140.226 144.668 136.966 144.668 134.964 143.501C132.962 142.334 132.973 140.44 134.991 139.273C137.003 138.105 140.263 138.105 142.26 139.273Z" fill="#0D200F"></path>
      <path d="M8.98047 127.399L41.2005 108.591L73.8305 127.51L41.6105 146.318L8.98047 127.399Z" fill="#0D200F" stroke="#0D200F" stroke-width="0.5" stroke-miterlimit="10" stroke-linejoin="round"></path>
      <path d="M204.822 90.553C202.645 96.793 197.685 102.177 189.925 106.708C183.77 110.3 177.431 112.883 170.907 114.464C164.372 116.045 157.916 116.772 151.524 116.645C145.127 116.518 138.402 115.77 131.344 114.401C126.194 113.292 121.492 112.692 117.229 112.608C112.971 112.523 109.078 112.862 105.554 113.631C102.031 114.401 98.8031 115.642 95.8761 117.351L88.1901 121.839L54.5811 102.352L62.2671 97.864C68.7121 94.102 75.0151 91.364 81.1741 89.656C87.3033 87.9516 93.6404 87.1105 100.002 87.157C106.389 87.2 113.41 87.99 121.059 89.529C125.47 90.383 129.295 90.94 132.533 91.195C135.766 91.45 138.772 91.322 141.566 90.808C144.357 90.293 147.037 89.2946 149.485 87.858C152.412 86.149 154.308 84.228 155.185 82.091C156.052 79.953 155.777 77.666 154.372 75.231C152.961 72.796 150.489 70.551 146.95 68.498C143.41 66.445 139.839 65.23 135.798 64.588C131.751 63.946 127.821 63.925 124.007 64.525C120.187 65.119 116.817 66.281 113.89 67.989L78.2901 47.346C87.2181 42.136 97.4501 38.687 108.977 37.026C120.499 35.361 132.406 35.7 144.689 38.05C156.971 40.4 168.566 44.735 179.475 51.065C190.231 57.304 197.685 63.883 201.842 70.811C205.995 77.735 206.982 84.314 204.822 90.553Z" fill="#0D200F" stroke="#0D200F" stroke-width="0.5" stroke-miterlimit="10" stroke-linejoin="round"></path>
      <path d="M106.59 32.066L106.527 53.691L70.9269 33.047L70.9899 11.423L106.59 32.066ZM147.072 39.308C145.239 35.859 139.856 32.215 135.476 30.559C130.907 28.761 125.946 28.055 121.054 28.188C116.031 28.378 110.97 29.525 106.596 32.061L106.532 53.685C116.015 48.338 128.82 48.625 138.419 53.553C143.585 56.37 148.055 59.962 148.319 65.299L148.382 43.674C148.382 42.274 147.949 40.814 147.077 39.303L147.072 39.308ZM80.8849 85.91L80.8219 107.536L47.2119 88.049L47.2759 66.424L80.8849 85.91Z" fill="#C24F02" stroke="#0D200F" stroke-width="0.5" stroke-miterlimit="10" stroke-linejoin="round"></path>
      <path d="M197.136 55.633C193.369 64.896 184.278 70.403 175.598 74.409C159.095 81.899 141.541 81.926 124.044 78.478C114.44 76.43 104.213 75.639 94.7362 78.668C90.6262 79.836 84.6302 83.815 80.8902 85.911L80.8262 107.536C84.0332 105.758 89.9442 101.901 93.3522 100.755C103.151 97.175 113.938 97.965 123.981 100.097C141.498 103.546 159.016 103.525 175.535 96.028C184.521 91.9 194.003 86.07 197.458 76.249L197.522 54.625C197.405 54.965 197.273 55.298 197.141 55.633H197.136Z" fill="#753002" stroke="#0D200F" stroke-width="0.5" stroke-miterlimit="10" stroke-linejoin="round"></path>
      <path d="M197.516 54.63C195.34 60.87 190.379 66.254 182.619 70.785C176.465 74.377 170.125 76.96 163.601 78.541C157.066 80.123 150.611 80.849 144.219 80.722C137.821 80.595 131.096 79.847 124.039 78.478C118.888 77.368 114.186 76.769 109.923 76.685C105.665 76.6 101.772 76.939 98.2485 77.708C94.7255 78.478 91.4985 79.719 88.5704 81.428L80.8845 85.916L47.2755 66.429L54.9625 61.941C61.4075 58.179 67.7095 55.441 73.8695 53.733C79.9984 52.0288 86.3351 51.1876 92.6964 51.234C99.0835 51.277 106.104 52.067 113.753 53.606C118.164 54.46 121.989 55.017 125.227 55.272C128.46 55.527 131.466 55.399 134.261 54.885C137.053 54.3696 139.732 53.3713 142.18 51.935C145.106 50.226 147.003 48.305 147.88 46.168C148.746 44.03 148.471 41.743 147.066 39.308C145.656 36.873 143.183 34.628 139.644 32.575C136.104 30.522 132.533 29.307 128.492 28.665C124.445 28.023 120.515 28.002 116.701 28.602C112.882 29.196 109.511 30.358 106.585 32.066L70.9855 11.423C79.9125 6.21299 90.1454 2.76399 101.672 1.10299C113.193 -0.562013 125.101 -0.223013 137.383 2.12699C149.665 4.47699 161.261 8.81199 172.17 15.142C182.925 21.381 190.379 27.96 194.537 34.888C198.689 41.812 199.677 48.391 197.516 54.63Z" fill="#ED6912" stroke="#0D200F" stroke-width="0.5" stroke-miterlimit="10" stroke-linejoin="round"></path>
      <path d="M0.121094 96.283L32.3411 77.48L64.9701 96.4L32.7511 115.202L0.121094 96.283Z" fill="#ED6912" stroke="#0D200F" stroke-width="0.5" stroke-miterlimit="10" stroke-linejoin="round"></path>
      <path d="M64.9725 96.4L64.9145 116.099L32.6945 134.901L32.7525 115.202L64.9725 96.4Z" fill="#753002" stroke="#0D200F" stroke-width="0.5" stroke-miterlimit="10" stroke-linejoin="round"></path>
      <path d="M32.7535 115.202L32.6955 134.901L0.0634766 115.982L0.122477 96.282L32.7535 115.202Z" fill="#C24F02" stroke="#0D200F" stroke-width="0.5" stroke-miterlimit="10" stroke-linejoin="round"></path>
      <path d="M197.136 55.633C193.369 64.896 184.278 70.403 175.598 74.409C159.095 81.899 141.541 81.926 124.044 78.478C114.44 76.43 104.213 75.639 94.7362 78.668C90.6262 79.836 84.6302 83.815 80.8902 85.911L80.8262 107.536C84.0332 105.758 89.9442 101.901 93.3522 100.755C103.151 97.175 113.938 97.965 123.981 100.097C141.498 103.546 159.016 103.525 175.535 96.028C184.521 91.9 194.003 86.07 197.458 76.249L197.522 54.625C197.405 54.965 197.273 55.298 197.141 55.633H197.136Z" fill="#753002" stroke="#0D200F" stroke-width="0.5" stroke-miterlimit="10" stroke-linejoin="round"></path>
    </g>
  </g>
  <defs>
    <clipPath id="clip0_138_877">
      <rect width="206" height="185" fill="white"></rect>
    </clipPath>
  </defs>
</svg>
