<svg xmlns="http://www.w3.org/2000/svg" width="38" height="24" fill="none" fill-rule="evenodd"><path d="M3 .5A2.5 2.5 0 00.5 3v18A2.5 2.5 0 003 23.5h32a2.5 2.5 0 002.5-2.5V3A2.5 2.5 0 0035 .5H3z" stroke="#e6e4eb" fill="#fff"/><g fill-rule="nonzero"><path fill="#ff5f00" d="M16.152 7.065h5.674v9.894h-5.674z"/><path d="M16.513 11.997c-.002-1.928.912-3.75 2.48-4.94-2.66-2.023-6.483-1.73-8.778.677a6.134 6.134 0 000 8.523c2.296 2.406 6.117 2.7 8.778.677-1.566-1.2-2.48-3-2.48-4.938z" fill="#eb001b"/><path d="M29.492 11.997c0 2.404-1.418 4.597-3.654 5.648s-4.876.776-6.846-.712c1.566-1.2 2.48-3.01 2.48-4.938s-.914-3.747-2.48-4.938c1.97-1.488 4.61-1.762 6.846-.71s3.654 3.244 3.654 5.648v.003z" fill="#f79e1b"/></g></svg>