<svg xmlns="http://www.w3.org/2000/svg" width="36" height="36" fill="none" viewBox="0 0 36 36"><path fill="#32BBFF" d="M26.886 12.349C22.704 10.009 15.992 6.254 5.58.424A2.51 2.51 0 0 0 3.373.136l17.863 17.863z"/><path fill="#32BBFF" d="M3.373.136q-.197.065-.38.162a2.51 2.51 0 0 0-1.337 2.233v30.935a2.51 2.51 0 0 0 1.716 2.396l17.864-17.863z"/><path fill="#32BBFF" d="M21.235 17.999 3.372 35.862a2.48 2.48 0 0 0 2.208-.288A14924 14924 0 0 1 26.544 23.85q.176-.1.347-.195z"/><path fill="#2C9FD9" d="M1.656 17.999v15.467a2.51 2.51 0 0 0 1.716 2.396L21.236 18z"/><path fill="#29CC5E" d="M5.58.424A2.52 2.52 0 0 0 2.991.298L20.964 18.27l5.92-5.921z"/><path fill="#D93F21" d="M20.964 17.728 2.992 35.698a2.5 2.5 0 0 0 2.587-.126c10.097-5.654 16.734-9.365 20.964-11.724l.347-.195z"/><path fill="#FFD500" d="M34.344 17.999c0-.857-.432-1.722-1.29-2.202 0 0-1.602-.894-6.516-3.643L20.693 18l5.85 5.85c4.86-2.728 6.512-3.648 6.512-3.648a2.5 2.5 0 0 0 1.29-2.202"/><path fill="#FA0" d="M33.055 20.2A2.5 2.5 0 0 0 34.345 18H20.692l5.85 5.85c4.86-2.728 6.512-3.648 6.512-3.648"/></svg>