<svg xmlns="http://www.w3.org/2000/svg" width="38" height="24" fill-rule="evenodd"><rect stroke="#e6e4eb" fill="#fff" x=".5" y=".5" width="37" height="23" rx="3"/><path d="M18.362 7.73l-1.603 8.552h-1.94l1.605-8.55h1.938zm8.16 5.52l1.022-3.2.587 3.2h-1.61zm2.164 3.03h1.792l-1.564-8.55h-1.657c-.37 0-.686.247-.825.627l-2.908 7.924h2.034l.406-1.277h2.488l.234 1.277zm-5.062-2.8c.01-2.26-2.736-2.383-2.717-3.4.006-.308.262-.634.822-.718.278-.042 1.043-.073 1.912.382l.34-1.814a4.67 4.67 0 00-1.814-.378c-1.916 0-3.266 1.163-3.277 2.83-.01 1.23.963 1.917 1.698 2.327.755.42 1.008.688 1.006 1.064-.006.572-.604.826-1.16.834-.975.02-1.542-.3-1.992-.537l-.342 1.89c.453.237 1.288.442 2.157.454 2.037 0 3.37-1.15 3.374-2.925zM15.59 7.73l-3.14 8.55H10.4L8.853 9.455c-.095-.42-.177-.573-.462-.75-.466-.29-1.235-.56-1.914-.728l.047-.247h3.3c.42 0 .798.318.894.872l.816 4.948 2.018-5.82h2.038z" fill="#10347e" fill-rule="nonzero"/></svg>